<?xml version="1.0" encoding="utf-8"?>
<!-- Generator: Adobe Illustrator 27.2.0, SVG Export Plug-In . SVG Version: 6.00 Build 0)  -->
<svg version="1.1" id="Layer_1" xmlns="http://www.w3.org/2000/svg" xmlns:xlink="http://www.w3.org/1999/xlink" x="0px" y="0px"
	 viewBox="0 0 576 216" style="enable-background:new 0 0 576 216;" xml:space="preserve">
<style type="text/css">
	.st0{fill:#FFFFFF;}
</style>
<g>
	<path class="st0" d="M56.83,135.62l-6.45,2.96c-0.1,0.05-0.46,0.21-0.91,0.21c-0.55,0-1.04-0.24-1.33-0.67
		c-0.56-0.81-0.2-1.81,0.42-2.35l14-14.04c0.19-0.37,0.37-0.73,0.56-1.1l-20.55,0.99c-0.9,0-1.61-0.51-1.78-1.27
		c-0.21-0.96,0.49-1.75,1.27-2.02l17.02-7.28l-17.4-3.91c-0.76-0.15-1.54-0.79-1.5-1.73c0.05-0.98,0.94-1.56,1.76-1.61l17.99-2.45
		L43.1,92.49c-0.7-0.34-1.28-1.17-0.99-2.06c0.23-0.69,0.89-1.13,1.7-1.13c0.14,0,0.28,0.01,0.41,0.04l21.13,2.75L50.82,75.62
		c-0.53-0.57-0.79-1.55-0.2-2.27c0.31-0.38,0.76-0.59,1.28-0.59c0.37,0,0.77,0.12,1.09,0.32l11.73,6.28
		c-2.57-3.54-5.73-6.59-9.02-9.04c-3.7,0.4-6.82,1.3-9,2.09l-2.89,1.04c-6.6,9.9-10.46,21.77-10.46,34.56
		c0,20.35,9.74,38.42,24.8,49.82c-1.21-3.35-2.44-8.11-2.44-13.67C55.71,141.14,56.13,138.32,56.83,135.62z"/>
	<path class="st0" d="M68.16,69.06L65.2,62.6c-0.35-0.7-0.3-1.71,0.47-2.24c0.26-0.18,0.57-0.27,0.89-0.27
		c0.63,0,1.16,0.36,1.45,0.7l14.03,14c0.37,0.19,0.73,0.37,1.1,0.56l-0.99-20.44c-0.06-0.77,0.35-1.7,1.27-1.9
		c0.11-0.02,0.23-0.04,0.34-0.04c0.85,0,1.47,0.68,1.68,1.31l7.28,17.02l3.91-17.4c0.13-0.7,0.71-1.5,1.65-1.5
		c1.06,0.05,1.64,0.94,1.69,1.76l2.45,17.99l8.88-16.83c0.23-0.48,0.8-1.07,1.59-1.07c0.16,0,0.32,0.02,0.47,0.07
		c0.93,0.3,1.26,1.32,1.1,2.12l-2.75,21.14l16.47-14.54c0.26-0.25,0.76-0.54,1.31-0.54c0.36,0,0.69,0.12,0.96,0.34
		c0.77,0.62,0.71,1.68,0.27,2.37l-6.28,11.73c3.54-2.57,6.58-5.73,9.04-9.02c-0.4-3.7-1.3-6.82-2.09-9l-1.04-2.89
		c-9.9-6.6-21.77-10.46-34.56-10.46c-20.35,0-38.42,9.74-49.82,24.8c3.35-1.21,8.12-2.44,13.67-2.44
		C62.64,67.93,65.46,68.36,68.16,69.06z"/>
	<path class="st0" d="M123.4,146.94l2.96,6.45c0.35,0.7,0.31,1.71-0.47,2.24c-0.26,0.18-0.57,0.27-0.89,0.27
		c-0.63,0-1.16-0.36-1.45-0.7l-14.02-14c-0.37-0.19-0.74-0.38-1.12-0.57l0.99,20.44c0.06,0.77-0.35,1.7-1.27,1.9
		c-0.11,0.02-0.23,0.04-0.34,0.04c-0.85,0-1.47-0.68-1.68-1.31l-7.28-17.02l-3.91,17.41c-0.13,0.7-0.71,1.5-1.65,1.5l-0.07,0
		c-0.98-0.05-1.56-0.94-1.61-1.76l-2.45-17.99l-8.88,16.83c-0.23,0.48-0.8,1.07-1.59,1.07c-0.16,0-0.32-0.03-0.47-0.08
		c-0.93-0.3-1.26-1.32-1.09-2.12l2.75-21.14L63.4,152.96c-0.12,0.11-0.63,0.54-1.31,0.54c-0.36,0-0.69-0.12-0.96-0.33
		c-0.77-0.62-0.71-1.68-0.27-2.37l6.28-11.73c-3.54,2.57-6.59,5.73-9.04,9.02c0.4,3.7,1.3,6.82,2.09,9l1.04,2.89
		c9.9,6.6,21.77,10.45,34.56,10.45c20.35,0,38.42-9.74,49.82-24.8c-3.35,1.21-8.12,2.44-13.67,2.44
		C128.92,148.07,126.1,147.64,123.4,146.94z"/>
	<path class="st0" d="M133.41,58.18c1.21,3.35,2.44,8.12,2.44,13.67c0,3.01-0.43,5.83-1.12,8.53l6.45-2.96
		c0.1-0.05,0.46-0.21,0.91-0.21c0.55,0,1.04,0.25,1.33,0.67c0.56,0.81,0.2,1.81-0.42,2.35l-13.99,14.01
		c-0.19,0.37-0.38,0.75-0.57,1.12l20.55-0.99c0.9,0,1.61,0.51,1.78,1.27c0.21,0.96-0.49,1.76-1.27,2.02l-17.02,7.28l17.4,3.91
		c0.76,0.14,1.54,0.79,1.5,1.72c-0.05,0.98-0.94,1.56-1.76,1.61l-17.99,2.45l16.84,8.88c0.7,0.34,1.28,1.17,0.99,2.06
		c-0.23,0.69-0.89,1.13-1.71,1.13c-0.14,0-0.28-0.01-0.41-0.04l-21.14-2.75l14.54,16.47c0.53,0.56,0.79,1.54,0.2,2.27
		c-0.31,0.38-0.76,0.59-1.28,0.59c-0.37,0-0.77-0.12-1.09-0.32l-11.73-6.28c2.57,3.54,5.73,6.59,9.02,9.04c3.7-0.4,6.82-1.3,9-2.09
		l2.89-1.04c6.6-9.9,10.46-21.77,10.46-34.56C158.21,87.65,148.47,69.58,133.41,58.18z"/>
</g>
<path class="st0" d="M49.27,136.59l11.76-11.77c-1.49,3.05-2.85,6.16-3.83,9.44l-7.27,3.34c-0.19,0.1-0.68,0.22-0.89-0.09
	C48.82,137.19,49.05,136.78,49.27,136.59z M66.04,81.29l-13.63-7.3c-0.24-0.16-0.71-0.26-0.95,0.04c-0.24,0.3,0.02,0.73,0.17,0.88
	l16.45,18.62L44,90.4c-0.28-0.06-0.75,0.01-0.87,0.37c-0.12,0.36,0.28,0.67,0.47,0.77l19.81,10.45l-21.41,2.91
	c-0.29,0.02-0.72,0.2-0.74,0.59c-0.02,0.38,0.44,0.58,0.65,0.62l20.67,4.64l-20.17,8.63c-0.27,0.09-0.64,0.39-0.56,0.76
	c0.08,0.37,0.58,0.44,0.79,0.42l21.05-1.02c3.57-7.01,7-14.12,7-22.82C70.7,90.96,68.86,85.77,66.04,81.29z M142.28,79.41
	c0.22-0.19,0.45-0.6,0.24-0.92c-0.22-0.31-0.7-0.19-0.89-0.09l-7.27,3.34c-0.97,3.28-2.34,6.39-3.83,9.44L142.28,79.41z
	 M125.52,134.71l13.63,7.3c0.24,0.16,0.71,0.26,0.95-0.04s-0.02-0.73-0.17-0.88l-16.45-18.62l24.07,3.13
	c0.28,0.06,0.75-0.01,0.87-0.37c0.12-0.36-0.28-0.67-0.47-0.77l-19.81-10.45l21.41-2.91c0.29-0.02,0.72-0.2,0.74-0.59
	c0.02-0.38-0.44-0.58-0.65-0.62l-20.67-4.64l20.17-8.63c0.27-0.09,0.64-0.39,0.56-0.76c-0.08-0.37-0.58-0.44-0.79-0.42l-21.05,1.02
	c-3.57,7.01-7,14.12-7,22.82C120.86,125.04,122.69,130.23,125.52,134.71z M124.37,154.5c0.19,0.22,0.6,0.45,0.92,0.24
	c0.31-0.22,0.19-0.7,0.09-0.89l-3.34-7.27c-3.28-0.97-6.39-2.34-9.44-3.83L124.37,154.5z M69.06,137.74l-7.3,13.63
	c-0.16,0.24-0.26,0.71,0.04,0.95c0.3,0.24,0.73-0.02,0.88-0.17l18.62-16.45l-3.13,24.07c-0.06,0.28,0.01,0.75,0.37,0.87
	c0.36,0.12,0.67-0.28,0.77-0.47l10.45-19.81l2.91,21.41c0.02,0.29,0.2,0.72,0.59,0.74c0.38,0.02,0.58-0.44,0.62-0.65l4.64-20.67
	l8.63,20.17c0.09,0.27,0.39,0.64,0.76,0.56c0.37-0.08,0.44-0.58,0.42-0.79l-1.02-21.05c-7.01-3.57-14.12-7-22.82-7
	C78.74,133.08,73.55,134.92,69.06,137.74z M67.19,61.5c-0.19-0.22-0.6-0.45-0.92-0.24c-0.31,0.22-0.19,0.7-0.09,0.89l3.34,7.27
	c3.28,0.97,6.39,2.34,9.44,3.83L67.19,61.5z M122.49,78.26l7.3-13.63c0.16-0.24,0.26-0.71-0.04-0.95s-0.73,0.02-0.88,0.17
	l-18.62,16.45l3.13-24.07c0.06-0.28-0.01-0.75-0.37-0.87c-0.36-0.12-0.67,0.28-0.77,0.47l-10.45,19.81l-2.91-21.41
	c-0.02-0.29-0.2-0.72-0.59-0.74c-0.38-0.02-0.58,0.44-0.62,0.65l-4.64,20.67l-8.63-20.17c-0.09-0.27-0.39-0.64-0.76-0.56
	c-0.37,0.08-0.44,0.58-0.42,0.79l1.02,21.05c7.01,3.57,14.12,7,22.82,7C112.82,82.92,118,81.08,122.49,78.26z"/>
<g>
	<path class="st0" d="M196.64,55.46h8.21v1.1c-1.06,0.71-2.1,1.22-3.12,1.52v24.43h-2.17l-13.79-20.94l-1.48-2.96h-0.11l0.34,2.96
		v18.05c1.04,0.28,2.01,0.72,2.93,1.33v1.1h-8.21v-1.1c0.46-0.28,0.94-0.53,1.46-0.74c0.52-0.22,1.07-0.41,1.65-0.59V57.85
		c-0.51-0.2-1.01-0.42-1.5-0.65c-0.49-0.23-0.96-0.46-1.39-0.68v-1.06h6.42l11.97,18.05l1.75,3.27h0.15l-0.19-3.27V58.08
		c-0.53-0.23-1.04-0.47-1.54-0.72c-0.49-0.25-0.96-0.52-1.39-0.8V55.46z"/>
	<path class="st0" d="M221.15,77.08c0,0.56,0.01,1.04,0.04,1.44c0.02,0.41,0.05,0.84,0.08,1.29l2.62,0.38V81
		c-0.63,0.33-1.34,0.62-2.11,0.87c-0.77,0.25-1.51,0.44-2.22,0.57h-0.95c-0.25-0.58-0.41-1.22-0.46-1.92
		c-0.05-0.7-0.09-1.46-0.11-2.3h-0.19c-0.1,0.51-0.3,1.02-0.59,1.54c-0.29,0.52-0.67,0.98-1.14,1.39c-0.47,0.41-1.02,0.74-1.65,0.99
		c-0.63,0.25-1.36,0.38-2.17,0.38c-1.55,0-2.81-0.47-3.78-1.41c-0.98-0.94-1.46-2.17-1.46-3.69c0-1.16,0.23-2.12,0.7-2.87
		c0.47-0.75,1.16-1.34,2.07-1.77c0.91-0.43,2.04-0.74,3.38-0.93c1.34-0.19,2.9-0.34,4.67-0.44c0.1-1.09,0.13-2.07,0.1-2.94
		c-0.04-0.87-0.18-1.62-0.42-2.24c-0.24-0.62-0.6-1.1-1.06-1.44s-1.08-0.51-1.84-0.51c-0.35,0-0.75,0.02-1.2,0.06
		s-0.88,0.15-1.31,0.32l-1.79,4.56h-0.99c-0.25-0.76-0.47-1.54-0.67-2.36c-0.19-0.81-0.31-1.61-0.36-2.39
		c0.96-0.58,2.03-1.04,3.21-1.37c1.18-0.33,2.49-0.49,3.93-0.49c1.29,0,2.32,0.18,3.1,0.55c0.77,0.37,1.36,0.84,1.77,1.42
		c0.4,0.58,0.67,1.23,0.8,1.94c0.13,0.71,0.19,1.42,0.19,2.13c0,1.52-0.03,2.98-0.1,4.39C221.18,74.44,221.15,75.79,221.15,77.08z
		 M213.81,80.16c0.63,0,1.19-0.13,1.67-0.38c0.48-0.25,0.89-0.56,1.22-0.91c0.33-0.35,0.6-0.72,0.8-1.08
		c0.2-0.37,0.34-0.68,0.42-0.93v-3.99c-1.47,0-2.67,0.08-3.61,0.23c-0.94,0.15-1.67,0.39-2.2,0.72c-0.53,0.33-0.9,0.74-1.1,1.23
		c-0.2,0.49-0.3,1.06-0.3,1.69c0,1.09,0.28,1.93,0.84,2.53C212.09,79.86,212.85,80.16,213.81,80.16z"/>
	<path class="st0" d="M224.94,64.02c0.96-0.63,1.98-1.07,3.04-1.34v-3.23c0.33-0.25,0.72-0.5,1.16-0.74
		c0.44-0.24,0.88-0.45,1.31-0.63h0.95v4.98h5.7v1.98h-5.7V76c0,1.51,0.24,2.58,0.72,3.21c0.48,0.63,1.2,0.95,2.17,0.95
		c0.46,0,1.03-0.03,1.71-0.1c0.68-0.06,1.27-0.18,1.75-0.36l0.27,0.57c-0.2,0.23-0.49,0.47-0.85,0.72
		c-0.37,0.25-0.79,0.49-1.25,0.72c-0.47,0.23-0.98,0.42-1.54,0.57c-0.56,0.15-1.13,0.23-1.71,0.23c-1.52,0-2.68-0.43-3.48-1.29
		c-0.8-0.86-1.2-2.25-1.2-4.16V65.04h-3.04V64.02z"/>
	<path class="st0" d="M248.09,82.06h-8.44v-0.95c0.38-0.2,0.77-0.37,1.18-0.51c0.41-0.14,0.85-0.27,1.33-0.4V65.26l-2.51-0.3v-0.99
		c0.73-0.3,1.53-0.57,2.39-0.8c0.86-0.23,1.72-0.42,2.58-0.57h0.95V80.2c0.51,0.13,0.96,0.26,1.37,0.4c0.4,0.14,0.79,0.31,1.14,0.51
		V82.06z M241.44,56.6c0-0.68,0.22-1.23,0.66-1.63c0.44-0.4,1.03-0.61,1.77-0.61c0.73,0,1.32,0.2,1.75,0.61
		c0.43,0.41,0.65,0.95,0.65,1.63s-0.22,1.22-0.65,1.61c-0.43,0.39-1.01,0.59-1.75,0.59c-0.73,0-1.32-0.2-1.77-0.59
		C241.66,57.82,241.44,57.28,241.44,56.6z"/>
	<path class="st0" d="M258.19,82.52l-7.41-17.56c-0.73-0.25-1.41-0.56-2.01-0.91v-0.99h7.98v0.95c-0.33,0.18-0.67,0.35-1.01,0.51
		c-0.34,0.17-0.73,0.31-1.16,0.44l4.39,11.44l0.76,2.36h0.08l0.57-2.39l4.05-11.4c-0.41-0.1-0.78-0.23-1.12-0.38
		c-0.34-0.15-0.66-0.33-0.97-0.53v-0.99h6.46v0.99c-0.25,0.18-0.56,0.34-0.93,0.49s-0.78,0.29-1.23,0.42l-6.73,17.1L258.19,82.52z"
		/>
	<path class="st0" d="M284.98,79.4c-0.2,0.43-0.52,0.84-0.95,1.22c-0.43,0.38-0.93,0.71-1.48,0.99c-0.56,0.28-1.17,0.5-1.82,0.67
		c-0.66,0.16-1.33,0.25-2.01,0.25c-1.5,0-2.81-0.23-3.95-0.7c-1.14-0.47-2.09-1.14-2.85-2.01c-0.76-0.87-1.34-1.92-1.73-3.13
		c-0.39-1.22-0.59-2.58-0.59-4.1c0-3.24,0.75-5.71,2.24-7.41c1.49-1.7,3.61-2.55,6.35-2.55c0.89,0,1.76,0.12,2.62,0.36
		c0.86,0.24,1.63,0.64,2.3,1.2c0.67,0.56,1.22,1.3,1.63,2.22s0.63,2.07,0.63,3.44c0,0.43-0.02,0.87-0.06,1.31s-0.11,0.92-0.21,1.42
		h-11.86c0,1.06,0.13,2.06,0.4,2.98c0.27,0.93,0.67,1.73,1.2,2.41c0.53,0.68,1.2,1.22,2.01,1.62c0.81,0.39,1.76,0.59,2.85,0.59
		c0.89,0,1.79-0.13,2.7-0.38c0.91-0.25,1.6-0.58,2.05-0.99L284.98,79.4z M278.03,64.28c-1.44,0-2.55,0.49-3.31,1.46
		c-0.76,0.98-1.22,2.69-1.37,5.15h8.36c0.02-0.23,0.04-0.45,0.06-0.67c0.01-0.21,0.02-0.42,0.02-0.63c0-1.62-0.3-2.91-0.91-3.88
		C280.27,64.76,279.32,64.28,278.03,64.28z"/>
	<path class="st0" d="M304.06,82.06h-8.44v-1.1c0.91-0.4,1.82-0.71,2.74-0.91L307.97,55h1.1l9.61,25.04c0.51,0.1,1.01,0.22,1.5,0.34
		c0.49,0.13,0.96,0.32,1.39,0.57v1.1h-9.8v-1.1c0.51-0.2,1.03-0.38,1.56-0.53c0.53-0.15,1.05-0.28,1.56-0.38l-2.57-6.95h-9.03
		l-2.49,6.95c1.06,0.15,2.15,0.46,3.27,0.91V82.06z M304.04,71.12h7.63l-2.99-8.06l-0.72-3.27h-0.08l-0.95,3.34L304.04,71.12z"/>
	<path class="st0" d="M342.02,82.06h-8.13v-0.95c0.25-0.15,0.56-0.31,0.93-0.47c0.37-0.16,0.8-0.31,1.31-0.44v-8.78
		c0-1.01-0.04-1.92-0.13-2.74c-0.09-0.81-0.25-1.49-0.49-2.03c-0.24-0.54-0.59-0.96-1.04-1.25c-0.46-0.29-1.05-0.44-1.79-0.44
		c-0.56,0-1.07,0.11-1.54,0.34s-0.89,0.53-1.25,0.91c-0.37,0.38-0.68,0.81-0.95,1.29c-0.27,0.48-0.47,0.99-0.63,1.52V80.2
		c0.41,0.13,0.79,0.26,1.16,0.4c0.37,0.14,0.73,0.31,1.08,0.51v0.95h-8.17v-0.95c0.35-0.18,0.75-0.34,1.18-0.49
		c0.43-0.15,0.87-0.29,1.33-0.42V65.26l-2.51-0.3v-0.99c0.81-0.35,1.64-0.64,2.49-0.85c0.85-0.21,1.68-0.39,2.49-0.51h0.95v4.29
		h0.04c0.41-1.19,1.1-2.2,2.07-3.04c0.97-0.84,2.18-1.25,3.63-1.25c0.61,0,1.19,0.06,1.75,0.19c0.56,0.13,1.08,0.36,1.56,0.7
		s0.89,0.82,1.22,1.42c0.33,0.61,0.57,1.39,0.72,2.36c0.46-1.39,1.19-2.52,2.2-3.38c1.01-0.86,2.28-1.29,3.8-1.29
		c0.94,0,1.75,0.12,2.45,0.36c0.7,0.24,1.27,0.67,1.73,1.27c0.46,0.61,0.79,1.43,1.01,2.47c0.22,1.04,0.32,2.36,0.32,3.95v9.54
		c0.86,0.15,1.7,0.46,2.51,0.91v0.95h-8.17v-0.95c0.76-0.4,1.51-0.71,2.24-0.91v-9.46c0-0.91-0.04-1.72-0.13-2.43
		c-0.09-0.71-0.26-1.31-0.51-1.81c-0.25-0.49-0.61-0.87-1.06-1.14c-0.46-0.27-1.06-0.4-1.82-0.4c-1.22,0-2.16,0.42-2.83,1.25
		c-0.67,0.84-1.16,1.9-1.46,3.19V80.2c0.89,0.25,1.71,0.56,2.47,0.91V82.06z"/>
	<path class="st0" d="M370.56,79.4c-0.2,0.43-0.52,0.84-0.95,1.22c-0.43,0.38-0.92,0.71-1.48,0.99c-0.56,0.28-1.17,0.5-1.82,0.67
		c-0.66,0.16-1.33,0.25-2.01,0.25c-1.5,0-2.81-0.23-3.95-0.7c-1.14-0.47-2.09-1.14-2.85-2.01c-0.76-0.87-1.34-1.92-1.73-3.13
		c-0.39-1.22-0.59-2.58-0.59-4.1c0-3.24,0.75-5.71,2.24-7.41c1.5-1.7,3.61-2.55,6.35-2.55c0.89,0,1.76,0.12,2.62,0.36
		c0.86,0.24,1.63,0.64,2.3,1.2c0.67,0.56,1.22,1.3,1.63,2.22s0.63,2.07,0.63,3.44c0,0.43-0.02,0.87-0.06,1.31s-0.11,0.92-0.21,1.42
		h-11.86c0,1.06,0.13,2.06,0.4,2.98c0.27,0.93,0.67,1.73,1.2,2.41c0.53,0.68,1.2,1.22,2.01,1.62c0.81,0.39,1.76,0.59,2.85,0.59
		c0.89,0,1.79-0.13,2.7-0.38c0.91-0.25,1.6-0.58,2.05-0.99L370.56,79.4z M363.61,64.28c-1.44,0-2.55,0.49-3.31,1.46
		s-1.22,2.69-1.37,5.15h8.36c0.02-0.23,0.04-0.45,0.06-0.67c0.01-0.21,0.02-0.42,0.02-0.63c0-1.62-0.3-2.91-0.91-3.88
		C365.85,64.76,364.9,64.28,363.61,64.28z"/>
	<path class="st0" d="M381.62,65.91c-0.28,0.15-0.63,0.46-1.04,0.93c-0.42,0.47-0.79,1.16-1.12,2.07V80.2
		c0.51,0.05,1.01,0.15,1.52,0.28c0.51,0.14,1.01,0.35,1.52,0.63v0.95h-8.97v-0.95c0.46-0.25,0.89-0.44,1.29-0.57
		c0.4-0.13,0.81-0.24,1.22-0.34V65.26l-2.51-0.3v-0.99c0.81-0.35,1.65-0.64,2.51-0.85c0.86-0.21,1.68-0.39,2.47-0.51h0.95v4.03h0.15
		c0.23-0.51,0.55-1.01,0.97-1.52c0.42-0.51,0.9-0.96,1.44-1.37c0.54-0.4,1.14-0.72,1.79-0.93c0.65-0.21,1.31-0.29,2-0.21
		c0.18,0.33,0.34,0.69,0.47,1.08c0.14,0.39,0.27,0.8,0.4,1.23v0.99H381.62z"/>
	<path class="st0" d="M396.55,82.06h-8.44v-0.95c0.38-0.2,0.77-0.37,1.18-0.51c0.4-0.14,0.85-0.27,1.33-0.4V65.26l-2.51-0.3v-0.99
		c0.73-0.3,1.53-0.57,2.39-0.8c0.86-0.23,1.72-0.42,2.58-0.57h0.95V80.2c0.51,0.13,0.96,0.26,1.37,0.4
		c0.41,0.14,0.79,0.31,1.14,0.51V82.06z M389.9,56.6c0-0.68,0.22-1.23,0.67-1.63c0.44-0.4,1.03-0.61,1.77-0.61
		c0.73,0,1.32,0.2,1.75,0.61c0.43,0.41,0.65,0.95,0.65,1.63s-0.22,1.22-0.65,1.61c-0.43,0.39-1.01,0.59-1.75,0.59
		c-0.74,0-1.32-0.2-1.77-0.59C390.12,57.82,389.9,57.28,389.9,56.6z"/>
	<path class="st0" d="M413.84,79.4c-0.46,0.89-1.2,1.63-2.22,2.22s-2.22,0.89-3.59,0.89c-1.5,0-2.79-0.23-3.9-0.7
		c-1.1-0.47-2.02-1.14-2.75-2.01c-0.73-0.87-1.29-1.92-1.65-3.15c-0.37-1.23-0.55-2.59-0.55-4.08c0-3.22,0.79-5.68,2.36-7.39
		c1.57-1.71,3.71-2.56,6.42-2.56c1.24,0,2.35,0.11,3.33,0.32c0.97,0.22,1.8,0.5,2.49,0.85c-0.08,0.84-0.22,1.77-0.42,2.81
		c-0.2,1.04-0.46,1.9-0.76,2.58h-1.03l-1.6-4.52c-0.18-0.13-0.38-0.22-0.61-0.29c-0.23-0.06-0.61-0.1-1.14-0.1
		c-1.72,0-3.05,0.63-3.99,1.88c-0.94,1.25-1.41,3.38-1.41,6.36c0,0.96,0.13,1.9,0.4,2.81c0.27,0.91,0.67,1.73,1.22,2.45
		c0.54,0.72,1.23,1.3,2.05,1.73c0.82,0.43,1.78,0.65,2.87,0.65c0.89,0,1.66-0.13,2.32-0.38c0.66-0.25,1.22-0.56,1.67-0.91
		L413.84,79.4z"/>
	<path class="st0" d="M430.52,77.08c0,0.56,0.01,1.04,0.04,1.44c0.02,0.41,0.05,0.84,0.08,1.29l2.62,0.38V81
		c-0.63,0.33-1.34,0.62-2.11,0.87c-0.77,0.25-1.51,0.44-2.22,0.57h-0.95c-0.25-0.58-0.41-1.22-0.46-1.92
		c-0.05-0.7-0.09-1.46-0.11-2.3h-0.19c-0.1,0.51-0.3,1.02-0.59,1.54c-0.29,0.52-0.67,0.98-1.14,1.39c-0.47,0.41-1.02,0.74-1.65,0.99
		c-0.63,0.25-1.36,0.38-2.17,0.38c-1.54,0-2.81-0.47-3.78-1.41c-0.98-0.94-1.46-2.17-1.46-3.69c0-1.16,0.23-2.12,0.7-2.87
		c0.47-0.75,1.16-1.34,2.07-1.77c0.91-0.43,2.04-0.74,3.38-0.93s2.9-0.34,4.67-0.44c0.1-1.09,0.13-2.07,0.1-2.94
		s-0.18-1.62-0.42-2.24c-0.24-0.62-0.6-1.1-1.06-1.44s-1.08-0.51-1.84-0.51c-0.36,0-0.75,0.02-1.2,0.06s-0.88,0.15-1.31,0.32
		l-1.79,4.56h-0.99c-0.25-0.76-0.47-1.54-0.67-2.36c-0.19-0.81-0.31-1.61-0.36-2.39c0.96-0.58,2.03-1.04,3.21-1.37
		c1.18-0.33,2.49-0.49,3.93-0.49c1.29,0,2.32,0.18,3.1,0.55s1.36,0.84,1.77,1.42c0.4,0.58,0.67,1.23,0.8,1.94
		c0.13,0.71,0.19,1.42,0.19,2.13c0,1.52-0.03,2.98-0.09,4.39C430.55,74.44,430.52,75.79,430.52,77.08z M423.19,80.16
		c0.63,0,1.19-0.13,1.67-0.38c0.48-0.25,0.89-0.56,1.22-0.91c0.33-0.35,0.59-0.72,0.8-1.08c0.2-0.37,0.34-0.68,0.42-0.93v-3.99
		c-1.47,0-2.67,0.08-3.61,0.23c-0.94,0.15-1.67,0.39-2.2,0.72c-0.53,0.33-0.9,0.74-1.1,1.23c-0.2,0.49-0.3,1.06-0.3,1.69
		c0,1.09,0.28,1.93,0.84,2.53C421.46,79.86,422.22,80.16,423.19,80.16z"/>
	<path class="st0" d="M455.68,82.06h-8.17v-0.95c0.68-0.35,1.43-0.66,2.24-0.91v-9.01c0-1.92-0.28-3.44-0.84-4.56
		c-0.56-1.11-1.57-1.67-3.04-1.67c-0.63,0-1.22,0.11-1.77,0.34c-0.55,0.23-1.03,0.54-1.44,0.93c-0.42,0.39-0.78,0.84-1.08,1.33
		s-0.54,1.01-0.72,1.54v11.1c0.78,0.15,1.54,0.46,2.28,0.91v0.95h-8.21v-0.95c0.63-0.33,1.47-0.63,2.51-0.91V65.26l-2.51-0.3v-0.99
		c0.66-0.28,1.42-0.53,2.28-0.76s1.76-0.43,2.7-0.61h0.95v4.26h0.04c0.53-1.16,1.3-2.17,2.3-3c1-0.84,2.21-1.25,3.63-1.25
		c1.01,0,1.92,0.12,2.72,0.36c0.8,0.24,1.46,0.67,2,1.27c0.53,0.61,0.94,1.42,1.22,2.45c0.28,1.03,0.42,2.32,0.42,3.9v9.61
		c1.01,0.18,1.85,0.48,2.51,0.91V82.06z"/>
	<path class="st0" d="M480.38,77.08c0,0.56,0.01,1.04,0.04,1.44c0.02,0.41,0.05,0.84,0.08,1.29l2.62,0.38V81
		c-0.63,0.33-1.34,0.62-2.11,0.87c-0.77,0.25-1.51,0.44-2.22,0.57h-0.95c-0.25-0.58-0.41-1.22-0.46-1.92
		c-0.05-0.7-0.09-1.46-0.11-2.3h-0.19c-0.1,0.51-0.3,1.02-0.59,1.54c-0.29,0.52-0.67,0.98-1.14,1.39c-0.47,0.41-1.02,0.74-1.65,0.99
		c-0.63,0.25-1.36,0.38-2.17,0.38c-1.54,0-2.81-0.47-3.78-1.41c-0.98-0.94-1.46-2.17-1.46-3.69c0-1.16,0.23-2.12,0.7-2.87
		c0.47-0.75,1.16-1.34,2.07-1.77c0.91-0.43,2.04-0.74,3.38-0.93s2.9-0.34,4.67-0.44c0.1-1.09,0.13-2.07,0.1-2.94
		s-0.18-1.62-0.42-2.24c-0.24-0.62-0.6-1.1-1.06-1.44s-1.08-0.51-1.84-0.51c-0.36,0-0.75,0.02-1.2,0.06s-0.88,0.15-1.31,0.32
		l-1.79,4.56h-0.99c-0.25-0.76-0.47-1.54-0.67-2.36c-0.19-0.81-0.31-1.61-0.36-2.39c0.96-0.58,2.03-1.04,3.21-1.37
		c1.18-0.33,2.49-0.49,3.93-0.49c1.29,0,2.32,0.18,3.1,0.55s1.36,0.84,1.77,1.42c0.4,0.58,0.67,1.23,0.8,1.94
		c0.13,0.71,0.19,1.42,0.19,2.13c0,1.52-0.03,2.98-0.09,4.39C480.41,74.44,480.38,75.79,480.38,77.08z M473.04,80.16
		c0.63,0,1.19-0.13,1.67-0.38c0.48-0.25,0.89-0.56,1.22-0.91c0.33-0.35,0.59-0.72,0.8-1.08c0.2-0.37,0.34-0.68,0.42-0.93v-3.99
		c-1.47,0-2.67,0.08-3.61,0.23c-0.94,0.15-1.67,0.39-2.2,0.72c-0.53,0.33-0.9,0.74-1.1,1.23c-0.2,0.49-0.3,1.06-0.3,1.69
		c0,1.09,0.28,1.93,0.84,2.53C471.32,79.86,472.08,80.16,473.04,80.16z"/>
	<path class="st0" d="M505.53,82.06h-8.17v-0.95c0.68-0.35,1.43-0.66,2.24-0.91v-9.01c0-1.92-0.28-3.44-0.84-4.56
		c-0.56-1.11-1.57-1.67-3.04-1.67c-0.63,0-1.22,0.11-1.77,0.34c-0.55,0.23-1.03,0.54-1.44,0.93c-0.42,0.39-0.78,0.84-1.08,1.33
		s-0.54,1.01-0.72,1.54v11.1c0.78,0.15,1.54,0.46,2.28,0.91v0.95h-8.21v-0.95c0.63-0.33,1.47-0.63,2.51-0.91V65.26l-2.51-0.3v-0.99
		c0.66-0.28,1.42-0.53,2.28-0.76s1.76-0.43,2.7-0.61h0.95v4.26h0.04c0.53-1.16,1.3-2.17,2.3-3c1-0.84,2.21-1.25,3.63-1.25
		c1.01,0,1.92,0.12,2.72,0.36c0.8,0.24,1.46,0.67,2,1.27c0.53,0.61,0.94,1.42,1.22,2.45c0.28,1.03,0.42,2.32,0.42,3.9v9.61
		c1.01,0.18,1.85,0.48,2.51,0.91V82.06z"/>
	<path class="st0" d="M519.97,78.3c-0.13,0.56-0.34,1.09-0.65,1.6c-0.3,0.51-0.68,0.96-1.12,1.35c-0.44,0.39-0.95,0.7-1.52,0.93
		c-0.57,0.23-1.18,0.34-1.84,0.34c-2.51,0-4.38-0.8-5.62-2.39s-1.86-4.08-1.86-7.45c0-3.24,0.79-5.71,2.38-7.41s3.72-2.55,6.4-2.55
		c0.94,0,1.67,0.04,2.2,0.13c0.53,0.09,1.11,0.25,1.75,0.48v-7.18l-2.89-0.3v-0.99c0.73-0.3,1.59-0.57,2.56-0.8
		c0.97-0.23,1.91-0.42,2.79-0.57h0.95v26.41l2.51,0.3V81c-0.74,0.35-1.5,0.66-2.28,0.91s-1.56,0.43-2.32,0.53h-0.95l-0.34-4.14
		H519.97z M515.6,80.16c1.24,0,2.23-0.39,2.96-1.18c0.74-0.78,1.24-1.85,1.52-3.19V65.07c-0.43-0.25-0.94-0.43-1.52-0.53
		c-0.58-0.1-1.33-0.15-2.24-0.15c-1.72,0-3.04,0.75-3.95,2.26c-0.91,1.51-1.37,3.52-1.37,6.02c0,1.04,0.09,2.01,0.27,2.91
		c0.18,0.9,0.46,1.69,0.84,2.38c0.38,0.68,0.86,1.22,1.43,1.62C514.1,79.96,514.79,80.16,515.6,80.16z"/>
	<path class="st0" d="M189.68,122.06h-9.73v-1.1c0.99-0.46,2-0.76,3.04-0.91V97.51c-0.51-0.1-1.01-0.23-1.52-0.4
		c-0.51-0.16-1.01-0.35-1.52-0.55v-1.1h9.73v1.1c-0.46,0.2-0.95,0.39-1.48,0.55c-0.53,0.17-1.05,0.3-1.56,0.4v22.53
		c0.53,0.1,1.06,0.23,1.6,0.38c0.53,0.15,1.01,0.33,1.44,0.53V122.06z"/>
	<path class="st0" d="M213.05,122.06h-8.17v-0.95c0.68-0.35,1.43-0.66,2.24-0.91v-9.01c0-1.92-0.28-3.44-0.84-4.56
		c-0.56-1.11-1.57-1.67-3.04-1.67c-0.63,0-1.22,0.11-1.77,0.34c-0.54,0.23-1.03,0.54-1.44,0.93c-0.42,0.39-0.78,0.84-1.08,1.33
		c-0.3,0.49-0.55,1.01-0.72,1.54v11.1c0.79,0.15,1.54,0.46,2.28,0.91v0.95h-8.21v-0.95c0.63-0.33,1.47-0.63,2.51-0.91v-14.93
		l-2.51-0.3v-0.99c0.66-0.28,1.42-0.53,2.28-0.76c0.86-0.23,1.76-0.43,2.7-0.61h0.95v4.26h0.04c0.53-1.16,1.3-2.17,2.3-3
		c1-0.84,2.21-1.25,3.63-1.25c1.01,0,1.92,0.12,2.72,0.36c0.8,0.24,1.46,0.67,2,1.27c0.53,0.61,0.94,1.42,1.22,2.45
		c0.28,1.03,0.42,2.32,0.42,3.9v9.61c1.01,0.18,1.85,0.48,2.51,0.91V122.06z"/>
	<path class="st0" d="M227.49,118.3c-0.13,0.56-0.34,1.09-0.65,1.6c-0.3,0.51-0.68,0.96-1.12,1.35c-0.44,0.39-0.95,0.7-1.52,0.93
		c-0.57,0.23-1.18,0.34-1.84,0.34c-2.51,0-4.38-0.8-5.62-2.39c-1.24-1.6-1.86-4.08-1.86-7.45c0-3.24,0.79-5.71,2.38-7.41
		c1.58-1.7,3.72-2.55,6.4-2.55c0.94,0,1.67,0.04,2.2,0.13c0.53,0.09,1.11,0.25,1.75,0.48v-7.18l-2.89-0.3v-0.99
		c0.73-0.3,1.59-0.57,2.56-0.8c0.98-0.23,1.91-0.42,2.79-0.57h0.95v26.41l2.51,0.3v0.8c-0.73,0.35-1.5,0.66-2.28,0.91
		c-0.79,0.25-1.56,0.43-2.32,0.53h-0.95l-0.34-4.14H227.49z M223.12,120.16c1.24,0,2.23-0.39,2.96-1.18
		c0.73-0.78,1.24-1.85,1.52-3.19v-10.72c-0.43-0.25-0.94-0.43-1.52-0.53c-0.58-0.1-1.33-0.15-2.24-0.15c-1.72,0-3.04,0.75-3.95,2.26
		c-0.91,1.51-1.37,3.52-1.37,6.02c0,1.04,0.09,2.01,0.27,2.91c0.18,0.9,0.46,1.69,0.84,2.38c0.38,0.68,0.85,1.22,1.42,1.62
		C221.62,119.96,222.31,120.16,223.12,120.16z"/>
	<path class="st0" d="M244.02,122.06h-8.44v-0.95c0.38-0.2,0.77-0.37,1.18-0.51c0.41-0.14,0.85-0.27,1.33-0.4v-14.93l-2.51-0.3
		v-0.99c0.73-0.3,1.53-0.57,2.39-0.8c0.86-0.23,1.72-0.42,2.58-0.57h0.95v17.59c0.51,0.13,0.96,0.26,1.37,0.4
		c0.4,0.14,0.79,0.31,1.14,0.51V122.06z M237.37,96.6c0-0.68,0.22-1.23,0.66-1.63c0.44-0.4,1.03-0.61,1.77-0.61
		c0.73,0,1.32,0.2,1.75,0.61c0.43,0.41,0.65,0.95,0.65,1.63s-0.22,1.22-0.65,1.61c-0.43,0.39-1.01,0.59-1.75,0.59
		c-0.73,0-1.32-0.2-1.77-0.59C237.59,97.82,237.37,97.28,237.37,96.6z"/>
	<path class="st0" d="M254.47,102.6c1.37,0,2.52,0.13,3.46,0.4c0.94,0.27,1.72,0.68,2.36,1.24c1.49-1.01,3.05-1.75,4.67-2.2
		c0.2,0.28,0.35,0.62,0.44,1.03c0.09,0.41,0.13,0.79,0.13,1.14l-0.49,0.91h-3.99c0.63,0.91,0.95,2.12,0.95,3.61
		c0,1.82-0.64,3.31-1.92,4.45c-1.28,1.14-3.15,1.71-5.6,1.71c-0.48,0-0.87-0.01-1.18-0.04s-0.65-0.06-1.03-0.11
		c-0.13,0.23-0.27,0.48-0.44,0.76c-0.17,0.28-0.25,0.57-0.25,0.87c0,0.51,0.29,0.91,0.87,1.2c0.58,0.29,1.31,0.55,2.19,0.78
		c0.87,0.23,1.82,0.46,2.85,0.7c1.03,0.24,1.98,0.57,2.87,0.99s1.63,0.96,2.22,1.63c0.59,0.67,0.91,1.54,0.93,2.6
		c0.02,0.91-0.18,1.74-0.63,2.47c-0.44,0.74-1.06,1.35-1.84,1.84c-0.79,0.49-1.73,0.87-2.83,1.14s-2.31,0.4-3.63,0.4
		c-2.76,0-4.85-0.47-6.25-1.41c-1.41-0.94-2.11-2.12-2.11-3.53c0-0.68,0.11-1.28,0.32-1.79c0.21-0.51,0.53-0.95,0.93-1.33
		c0.4-0.38,0.91-0.71,1.52-1.01c0.61-0.29,1.3-0.56,2.09-0.82c-0.56-0.25-1.02-0.6-1.39-1.04c-0.37-0.44-0.55-0.98-0.55-1.61
		c0-0.58,0.25-1.16,0.74-1.73c0.49-0.57,0.99-1.02,1.5-1.35c-1.44-0.38-2.55-1.1-3.33-2.17c-0.77-1.06-1.16-2.27-1.16-3.61
		c0-0.86,0.16-1.67,0.49-2.41c0.33-0.75,0.81-1.4,1.44-1.96c0.63-0.56,1.42-0.99,2.36-1.29C252.14,102.76,253.23,102.6,254.47,102.6
		z M260.09,125.14c0-0.81-0.27-1.46-0.82-1.94c-0.54-0.48-1.22-0.87-2.03-1.18c-0.81-0.3-1.69-0.56-2.62-0.76
		c-0.94-0.2-1.81-0.43-2.62-0.68c-0.96,0.58-1.6,1.2-1.9,1.84c-0.3,0.65-0.46,1.31-0.46,2c0,1.34,0.48,2.35,1.44,3.02
		c0.96,0.67,2.36,1.01,4.18,1.01c0.94,0,1.72-0.09,2.34-0.27c0.62-0.18,1.11-0.41,1.48-0.7c0.37-0.29,0.63-0.64,0.78-1.04
		C260.02,126.02,260.09,125.59,260.09,125.14z M250.33,108.72c0,0.61,0.07,1.18,0.21,1.73c0.14,0.54,0.37,1.02,0.68,1.42
		c0.32,0.41,0.74,0.73,1.27,0.97c0.53,0.24,1.19,0.36,1.98,0.36c1.47,0,2.52-0.43,3.15-1.29c0.63-0.86,0.95-1.92,0.95-3.19
		c0-1.37-0.31-2.45-0.93-3.25c-0.62-0.8-1.68-1.2-3.17-1.2c-1.55,0-2.62,0.39-3.23,1.16C250.63,106.21,250.33,107.3,250.33,108.72z"
		/>
	<path class="st0" d="M281.64,119.4c-0.2,0.43-0.52,0.84-0.95,1.22c-0.43,0.38-0.93,0.71-1.48,0.99c-0.56,0.28-1.17,0.5-1.82,0.67
		c-0.66,0.17-1.33,0.25-2.01,0.25c-1.5,0-2.81-0.23-3.95-0.7c-1.14-0.47-2.09-1.14-2.85-2.01c-0.76-0.87-1.34-1.92-1.73-3.13
		c-0.39-1.22-0.59-2.58-0.59-4.1c0-3.24,0.75-5.71,2.24-7.41c1.49-1.7,3.61-2.55,6.35-2.55c0.89,0,1.76,0.12,2.62,0.36
		c0.86,0.24,1.63,0.64,2.3,1.2c0.67,0.56,1.22,1.3,1.63,2.22s0.63,2.07,0.63,3.44c0,0.43-0.02,0.87-0.06,1.31s-0.11,0.92-0.21,1.42
		H269.9c0,1.06,0.13,2.06,0.4,2.98s0.67,1.73,1.2,2.41c0.53,0.68,1.2,1.22,2.01,1.62c0.81,0.39,1.76,0.59,2.85,0.59
		c0.89,0,1.79-0.13,2.7-0.38c0.91-0.25,1.6-0.58,2.05-0.99L281.64,119.4z M274.69,104.28c-1.44,0-2.55,0.49-3.31,1.46
		c-0.76,0.98-1.22,2.69-1.37,5.15h8.36c0.02-0.23,0.04-0.45,0.06-0.67c0.01-0.21,0.02-0.42,0.02-0.63c0-1.62-0.3-2.91-0.91-3.88
		C276.93,104.76,275.98,104.28,274.69,104.28z"/>
	<path class="st0" d="M305.35,122.06h-8.17v-0.95c0.68-0.35,1.43-0.66,2.24-0.91v-9.01c0-1.92-0.28-3.44-0.84-4.56
		c-0.56-1.11-1.57-1.67-3.04-1.67c-0.63,0-1.22,0.11-1.77,0.34c-0.54,0.23-1.03,0.54-1.44,0.93c-0.42,0.39-0.78,0.84-1.08,1.33
		c-0.3,0.49-0.55,1.01-0.72,1.54v11.1c0.79,0.15,1.54,0.46,2.28,0.91v0.95h-8.21v-0.95c0.63-0.33,1.47-0.63,2.51-0.91v-14.93
		l-2.51-0.3v-0.99c0.66-0.28,1.42-0.53,2.28-0.76c0.86-0.23,1.76-0.43,2.7-0.61h0.95v4.26h0.04c0.53-1.16,1.3-2.17,2.3-3
		c1-0.84,2.21-1.25,3.63-1.25c1.01,0,1.92,0.12,2.72,0.36c0.8,0.24,1.46,0.67,2,1.27c0.53,0.61,0.94,1.42,1.22,2.45
		c0.28,1.03,0.42,2.32,0.42,3.9v9.61c1.01,0.18,1.85,0.48,2.51,0.91V122.06z"/>
	<path class="st0" d="M307.18,112.56c0-1.6,0.21-3.01,0.63-4.24c0.42-1.23,1.02-2.27,1.81-3.12c0.78-0.85,1.73-1.49,2.83-1.94
		c1.1-0.44,2.32-0.67,3.67-0.67c1.57,0,2.93,0.24,4.07,0.72c1.14,0.48,2.07,1.16,2.79,2.03s1.25,1.92,1.6,3.14
		c0.34,1.22,0.51,2.57,0.51,4.07c0,3.19-0.81,5.65-2.43,7.37c-1.62,1.72-3.8,2.58-6.54,2.58c-1.52,0-2.84-0.23-3.95-0.7
		c-1.12-0.47-2.04-1.14-2.77-2.01c-0.74-0.87-1.29-1.92-1.65-3.15C307.36,115.42,307.18,114.06,307.18,112.56z M310.82,112.56
		c0,1.14,0.11,2.22,0.32,3.23c0.22,1.01,0.56,1.89,1.03,2.64c0.47,0.75,1.08,1.34,1.84,1.77c0.76,0.43,1.67,0.65,2.74,0.65
		c1.37,0,2.49-0.67,3.36-2.01s1.31-3.43,1.31-6.27c0-1.17-0.11-2.25-0.32-3.25c-0.21-1-0.55-1.87-1.01-2.62
		c-0.46-0.75-1.04-1.34-1.75-1.77c-0.71-0.43-1.56-0.65-2.55-0.65c-1.5,0-2.7,0.67-3.61,2.01
		C311.28,107.63,310.82,109.72,310.82,112.56z"/>
	<path class="st0" d="M329.18,114.54c0-1.6,0.04-3.16,0.11-4.69s0.11-3.06,0.11-4.58l-2.51-0.3v-0.99c0.81-0.3,1.64-0.57,2.49-0.8
		c0.85-0.23,1.68-0.42,2.49-0.57h0.95c0,1.9-0.04,3.79-0.11,5.66c-0.08,1.88-0.11,3.74-0.11,5.59c0,0.99,0.06,1.88,0.17,2.66
		s0.32,1.44,0.61,1.98c0.29,0.53,0.69,0.94,1.2,1.23c0.51,0.29,1.15,0.44,1.94,0.44c1.14,0,2.1-0.41,2.87-1.24
		c0.77-0.82,1.37-1.89,1.8-3.21v-10.45l-2.47-0.3v-0.99c0.79-0.3,1.6-0.57,2.45-0.8c0.85-0.23,1.68-0.42,2.49-0.57h0.95v17.29
		l2.51,0.3v0.8c-0.73,0.33-1.48,0.62-2.22,0.87s-1.53,0.44-2.34,0.57h-0.95l-0.27-4.52h-0.15c-0.13,0.53-0.35,1.07-0.67,1.62
		s-0.73,1.04-1.23,1.48c-0.51,0.44-1.08,0.8-1.73,1.08c-0.65,0.28-1.35,0.42-2.11,0.42c-1.01,0-1.91-0.12-2.68-0.36
		c-0.77-0.24-1.42-0.67-1.96-1.27s-0.94-1.42-1.22-2.45C329.32,117.41,329.18,116.11,329.18,114.54z"/>
	<path class="st0" d="M358.89,117.73c0-0.71-0.22-1.31-0.67-1.8c-0.44-0.49-1.01-0.96-1.69-1.39c-0.68-0.43-1.41-0.85-2.18-1.25
		c-0.77-0.41-1.5-0.88-2.19-1.43c-0.68-0.54-1.25-1.17-1.69-1.88c-0.44-0.71-0.67-1.58-0.67-2.62c0-0.68,0.16-1.32,0.47-1.9
		c0.32-0.58,0.74-1.08,1.27-1.5s1.15-0.75,1.86-0.99c0.71-0.24,1.47-0.36,2.28-0.36c1.37,0,2.49,0.08,3.36,0.23s1.72,0.37,2.53,0.65
		c-0.1,0.81-0.22,1.63-0.36,2.45c-0.14,0.82-0.34,1.67-0.59,2.53h-0.95l-1.44-3.88c-0.3-0.13-0.65-0.21-1.03-0.25
		s-0.77-0.06-1.18-0.06c-0.46,0-0.85,0.08-1.2,0.25c-0.34,0.17-0.63,0.37-0.87,0.63c-0.24,0.25-0.42,0.55-0.55,0.87
		c-0.13,0.33-0.19,0.66-0.19,0.99c0,0.68,0.22,1.27,0.67,1.77c0.44,0.49,1.01,0.95,1.69,1.37c0.68,0.42,1.41,0.83,2.19,1.23
		c0.77,0.41,1.5,0.86,2.18,1.37c0.68,0.51,1.25,1.1,1.69,1.77c0.44,0.67,0.67,1.48,0.67,2.41c0,0.86-0.18,1.63-0.55,2.32
		c-0.37,0.68-0.87,1.27-1.52,1.75c-0.65,0.48-1.39,0.85-2.24,1.12c-0.85,0.27-1.75,0.4-2.72,0.4c-1.09,0-2.09-0.09-3-0.29
		c-0.91-0.19-1.86-0.46-2.85-0.82c0.05-0.91,0.16-1.79,0.34-2.64c0.18-0.85,0.41-1.67,0.68-2.45h0.95l1.67,4.14
		c0.28,0.2,0.61,0.32,1.01,0.34c0.39,0.03,0.75,0.04,1.08,0.04c1.12,0,2.01-0.3,2.7-0.91C358.55,119.32,358.89,118.59,358.89,117.73
		z"/>
	<path class="st0" d="M378.31,119.44c0.3,0.3,0.7,0.56,1.18,0.78c0.48,0.22,1.2,0.32,2.17,0.32c0.81,0,1.57-0.11,2.28-0.32
		c0.71-0.21,1.32-0.53,1.84-0.95c0.52-0.42,0.93-0.92,1.24-1.52c0.3-0.59,0.46-1.27,0.46-2.03c0-1.01-0.31-1.86-0.93-2.55
		c-0.62-0.68-1.39-1.29-2.32-1.82c-0.92-0.53-1.93-1.05-3.02-1.56c-1.09-0.51-2.1-1.11-3.02-1.81c-0.92-0.7-1.7-1.53-2.32-2.51
		c-0.62-0.98-0.93-2.2-0.93-3.67c0-1.06,0.19-2.01,0.57-2.85s0.92-1.54,1.62-2.13c0.7-0.58,1.53-1.03,2.49-1.35
		c0.96-0.32,2.04-0.48,3.23-0.48c1.54,0,2.96,0.12,4.24,0.36s2.29,0.54,3.02,0.89c0,0.43-0.03,0.93-0.1,1.5
		c-0.06,0.57-0.14,1.16-0.23,1.77c-0.09,0.61-0.18,1.2-0.29,1.77c-0.1,0.57-0.2,1.07-0.3,1.5h-0.99l-1.52-5.21
		c-0.46-0.2-1.04-0.35-1.74-0.46c-0.7-0.1-1.45-0.15-2.24-0.15c-1.3,0-2.35,0.36-3.14,1.08c-0.79,0.72-1.19,1.73-1.19,3.02
		c0,1.04,0.31,1.91,0.94,2.62c0.62,0.71,1.41,1.34,2.35,1.9c0.94,0.56,1.96,1.1,3.04,1.62c1.08,0.52,2.1,1.12,3.04,1.8
		c0.94,0.68,1.73,1.5,2.35,2.43c0.62,0.94,0.94,2.1,0.94,3.5c0,1.14-0.21,2.18-0.63,3.12c-0.42,0.94-1.02,1.74-1.8,2.39
		c-0.79,0.66-1.75,1.17-2.89,1.52s-2.43,0.53-3.88,0.53c-1.6,0-3.03-0.19-4.29-0.57c-1.27-0.38-2.17-0.79-2.7-1.22
		c0.02-0.43,0.07-0.95,0.13-1.56c0.06-0.61,0.14-1.24,0.23-1.88c0.09-0.65,0.18-1.27,0.29-1.88c0.1-0.61,0.2-1.13,0.3-1.56h0.99
		L378.31,119.44z"/>
	<path class="st0" d="M393.17,104.02c0.96-0.63,1.98-1.07,3.04-1.34v-3.23c0.33-0.25,0.71-0.5,1.16-0.74
		c0.44-0.24,0.88-0.45,1.31-0.63h0.95v4.98h5.7v1.98h-5.7V116c0,1.51,0.24,2.58,0.72,3.21s1.2,0.95,2.17,0.95
		c0.46,0,1.03-0.03,1.71-0.1c0.68-0.06,1.27-0.18,1.75-0.36l0.27,0.57c-0.2,0.23-0.49,0.47-0.85,0.72s-0.79,0.49-1.25,0.72
		c-0.47,0.23-0.98,0.42-1.54,0.57c-0.56,0.15-1.13,0.23-1.71,0.23c-1.52,0-2.68-0.43-3.48-1.29c-0.8-0.86-1.2-2.25-1.2-4.16v-12.03
		h-3.04V104.02z"/>
	<path class="st0" d="M409.24,114.54c0-1.6,0.04-3.16,0.11-4.69s0.11-3.06,0.11-4.58l-2.51-0.3v-0.99c0.81-0.3,1.64-0.57,2.49-0.8
		c0.85-0.23,1.68-0.42,2.49-0.57h0.95c0,1.9-0.04,3.79-0.11,5.66c-0.08,1.88-0.11,3.74-0.11,5.59c0,0.99,0.06,1.88,0.17,2.66
		c0.11,0.79,0.32,1.44,0.61,1.98c0.29,0.53,0.69,0.94,1.2,1.23c0.51,0.29,1.15,0.44,1.94,0.44c1.14,0,2.1-0.41,2.87-1.24
		c0.77-0.82,1.37-1.89,1.8-3.21v-10.45l-2.47-0.3v-0.99c0.79-0.3,1.6-0.57,2.45-0.8c0.85-0.23,1.68-0.42,2.49-0.57h0.95v17.29
		l2.51,0.3v0.8c-0.74,0.33-1.48,0.62-2.22,0.87s-1.53,0.44-2.34,0.57h-0.95l-0.27-4.52h-0.15c-0.13,0.53-0.35,1.07-0.67,1.62
		c-0.32,0.54-0.73,1.04-1.23,1.48c-0.51,0.44-1.08,0.8-1.73,1.08c-0.65,0.28-1.35,0.42-2.11,0.42c-1.01,0-1.91-0.12-2.68-0.36
		c-0.77-0.24-1.42-0.67-1.96-1.27c-0.53-0.61-0.94-1.42-1.22-2.45C409.38,117.41,409.24,116.11,409.24,114.54z"/>
	<path class="st0" d="M441.92,118.3c-0.13,0.56-0.34,1.09-0.65,1.6c-0.3,0.51-0.68,0.96-1.12,1.35c-0.44,0.39-0.95,0.7-1.52,0.93
		c-0.57,0.23-1.18,0.34-1.84,0.34c-2.51,0-4.38-0.8-5.62-2.39c-1.24-1.6-1.86-4.08-1.86-7.45c0-3.24,0.79-5.71,2.38-7.41
		s3.72-2.55,6.4-2.55c0.94,0,1.67,0.04,2.2,0.13c0.53,0.09,1.11,0.25,1.75,0.48v-7.18l-2.89-0.3v-0.99c0.73-0.3,1.59-0.57,2.56-0.8
		c0.97-0.23,1.91-0.42,2.79-0.57h0.95v26.41l2.51,0.3v0.8c-0.74,0.35-1.5,0.66-2.28,0.91s-1.56,0.43-2.32,0.53h-0.95l-0.34-4.14
		H441.92z M437.55,120.16c1.24,0,2.23-0.39,2.96-1.18c0.74-0.78,1.24-1.85,1.52-3.19v-10.72c-0.43-0.25-0.94-0.43-1.52-0.53
		c-0.58-0.1-1.33-0.15-2.24-0.15c-1.72,0-3.04,0.75-3.95,2.26c-0.91,1.51-1.37,3.52-1.37,6.02c0,1.04,0.09,2.01,0.27,2.91
		c0.18,0.9,0.46,1.69,0.84,2.38c0.38,0.68,0.86,1.22,1.43,1.62C436.05,119.96,436.74,120.16,437.55,120.16z"/>
	<path class="st0" d="M458.45,122.06h-8.44v-0.95c0.38-0.2,0.77-0.37,1.18-0.51c0.4-0.14,0.85-0.27,1.33-0.4v-14.93l-2.51-0.3v-0.99
		c0.73-0.3,1.53-0.57,2.39-0.8c0.86-0.23,1.72-0.42,2.58-0.57h0.95v17.59c0.51,0.13,0.96,0.26,1.37,0.4
		c0.41,0.14,0.79,0.31,1.14,0.51V122.06z M451.8,96.6c0-0.68,0.22-1.23,0.67-1.63c0.44-0.4,1.03-0.61,1.77-0.61
		c0.73,0,1.32,0.2,1.75,0.61c0.43,0.41,0.65,0.95,0.65,1.63s-0.22,1.22-0.65,1.61c-0.43,0.39-1.01,0.59-1.75,0.59
		c-0.74,0-1.32-0.2-1.77-0.59C452.02,97.82,451.8,97.28,451.8,96.6z"/>
	<path class="st0" d="M476.46,119.4c-0.2,0.43-0.52,0.84-0.95,1.22c-0.43,0.38-0.92,0.71-1.48,0.99c-0.56,0.28-1.17,0.5-1.82,0.67
		c-0.66,0.17-1.33,0.25-2.01,0.25c-1.5,0-2.81-0.23-3.95-0.7c-1.14-0.47-2.09-1.14-2.85-2.01s-1.34-1.92-1.73-3.13
		c-0.39-1.22-0.59-2.58-0.59-4.1c0-3.24,0.75-5.71,2.24-7.41c1.5-1.7,3.61-2.55,6.35-2.55c0.89,0,1.76,0.12,2.62,0.36
		c0.86,0.24,1.63,0.64,2.3,1.2c0.67,0.56,1.22,1.3,1.63,2.22s0.63,2.07,0.63,3.44c0,0.43-0.02,0.87-0.06,1.31
		c-0.04,0.44-0.11,0.92-0.21,1.42h-11.86c0,1.06,0.13,2.06,0.4,2.98c0.27,0.92,0.66,1.73,1.2,2.41c0.53,0.68,1.2,1.22,2.01,1.62
		c0.81,0.39,1.76,0.59,2.85,0.59c0.89,0,1.79-0.13,2.7-0.38s1.6-0.58,2.05-0.99L476.46,119.4z M469.51,104.28
		c-1.44,0-2.55,0.49-3.31,1.46c-0.76,0.98-1.22,2.69-1.37,5.15h8.36c0.03-0.23,0.04-0.45,0.06-0.67c0.01-0.21,0.02-0.42,0.02-0.63
		c0-1.62-0.3-2.91-0.91-3.88C471.75,104.76,470.8,104.28,469.51,104.28z"/>
	<path class="st0" d="M489.46,117.73c0-0.71-0.22-1.31-0.67-1.8s-1.01-0.96-1.69-1.39c-0.68-0.43-1.41-0.85-2.18-1.25
		c-0.77-0.41-1.5-0.88-2.18-1.43c-0.68-0.54-1.25-1.17-1.69-1.88c-0.44-0.71-0.67-1.58-0.67-2.62c0-0.68,0.16-1.32,0.47-1.9
		c0.32-0.58,0.74-1.08,1.27-1.5s1.15-0.75,1.86-0.99c0.71-0.24,1.47-0.36,2.28-0.36c1.37,0,2.49,0.08,3.36,0.23s1.72,0.37,2.53,0.65
		c-0.1,0.81-0.22,1.63-0.36,2.45c-0.14,0.82-0.34,1.67-0.59,2.53h-0.95l-1.44-3.88c-0.3-0.13-0.65-0.21-1.03-0.25
		s-0.77-0.06-1.18-0.06c-0.46,0-0.86,0.08-1.2,0.25c-0.34,0.17-0.63,0.37-0.87,0.63c-0.24,0.25-0.42,0.55-0.55,0.87
		c-0.13,0.33-0.19,0.66-0.19,0.99c0,0.68,0.22,1.27,0.67,1.77c0.44,0.49,1.01,0.95,1.69,1.37c0.68,0.42,1.41,0.83,2.18,1.23
		c0.77,0.41,1.5,0.86,2.19,1.37c0.68,0.51,1.25,1.1,1.69,1.77c0.44,0.67,0.67,1.48,0.67,2.41c0,0.86-0.18,1.63-0.55,2.32
		c-0.37,0.68-0.87,1.27-1.52,1.75c-0.65,0.48-1.39,0.85-2.24,1.12c-0.85,0.27-1.75,0.4-2.72,0.4c-1.09,0-2.09-0.09-3-0.29
		c-0.91-0.19-1.86-0.46-2.85-0.82c0.05-0.91,0.16-1.79,0.34-2.64c0.18-0.85,0.41-1.67,0.68-2.45h0.95l1.67,4.14
		c0.28,0.2,0.61,0.32,1.01,0.34c0.39,0.03,0.75,0.04,1.08,0.04c1.11,0,2.01-0.3,2.7-0.91C489.12,119.32,489.46,118.59,489.46,117.73
		z"/>
	<path class="st0" d="M189.68,162.06h-9.73v-1.1c0.99-0.46,2-0.76,3.04-0.91v-22.53c-0.51-0.1-1.01-0.23-1.52-0.4
		c-0.51-0.17-1.01-0.35-1.52-0.55v-1.1h9.73v1.1c-0.46,0.2-0.95,0.39-1.48,0.55c-0.53,0.17-1.05,0.3-1.56,0.4v22.53
		c0.53,0.1,1.06,0.23,1.6,0.38c0.53,0.15,1.01,0.33,1.44,0.53V162.06z"/>
	<path class="st0" d="M213.05,162.06h-8.17v-0.95c0.68-0.35,1.43-0.66,2.24-0.91v-9.01c0-1.92-0.28-3.44-0.84-4.56
		c-0.56-1.11-1.57-1.67-3.04-1.67c-0.63,0-1.22,0.11-1.77,0.34c-0.54,0.23-1.03,0.54-1.44,0.93c-0.42,0.39-0.78,0.84-1.08,1.33
		c-0.3,0.49-0.55,1.01-0.72,1.54v11.1c0.79,0.15,1.54,0.46,2.28,0.91v0.95h-8.21v-0.95c0.63-0.33,1.47-0.63,2.51-0.91v-14.93
		l-2.51-0.3v-0.99c0.66-0.28,1.42-0.53,2.28-0.76c0.86-0.23,1.76-0.43,2.7-0.61h0.95v4.26h0.04c0.53-1.16,1.3-2.17,2.3-3
		c1-0.84,2.21-1.25,3.63-1.25c1.01,0,1.92,0.12,2.72,0.36c0.8,0.24,1.46,0.67,2,1.27c0.53,0.61,0.94,1.42,1.22,2.45
		c0.28,1.03,0.42,2.33,0.42,3.9v9.61c1.01,0.18,1.85,0.48,2.51,0.91V162.06z"/>
	<path class="st0" d="M223.31,162.06h-8.44v-0.95c0.38-0.2,0.77-0.37,1.18-0.51c0.41-0.14,0.85-0.27,1.33-0.4v-14.93l-2.51-0.3
		v-0.99c0.73-0.3,1.53-0.57,2.39-0.8c0.86-0.23,1.72-0.42,2.58-0.57h0.95v17.59c0.51,0.13,0.96,0.26,1.37,0.4
		c0.4,0.14,0.79,0.31,1.14,0.51V162.06z M216.66,136.6c0-0.68,0.22-1.23,0.66-1.63s1.03-0.61,1.77-0.61c0.73,0,1.32,0.2,1.75,0.61
		c0.43,0.41,0.65,0.95,0.65,1.63c0,0.68-0.22,1.22-0.65,1.62c-0.43,0.39-1.01,0.59-1.75,0.59c-0.73,0-1.32-0.2-1.77-0.59
		S216.66,137.28,216.66,136.6z"/>
	<path class="st0" d="M224.94,144.02c0.96-0.63,1.98-1.07,3.04-1.34v-3.23c0.33-0.25,0.72-0.5,1.16-0.74
		c0.44-0.24,0.88-0.45,1.31-0.63h0.95v4.98h5.7v1.98h-5.7V156c0,1.51,0.24,2.58,0.72,3.21c0.48,0.63,1.2,0.95,2.17,0.95
		c0.46,0,1.03-0.03,1.71-0.1c0.68-0.06,1.27-0.18,1.75-0.36l0.27,0.57c-0.2,0.23-0.49,0.47-0.85,0.72
		c-0.37,0.25-0.79,0.49-1.25,0.72c-0.47,0.23-0.98,0.42-1.54,0.57c-0.56,0.15-1.13,0.23-1.71,0.23c-1.52,0-2.68-0.43-3.48-1.29
		c-0.8-0.86-1.2-2.25-1.2-4.16v-12.03h-3.04V144.02z"/>
	<path class="st0" d="M248.09,162.06h-8.44v-0.95c0.38-0.2,0.77-0.37,1.18-0.51c0.41-0.14,0.85-0.27,1.33-0.4v-14.93l-2.51-0.3
		v-0.99c0.73-0.3,1.53-0.57,2.39-0.8c0.86-0.23,1.72-0.42,2.58-0.57h0.95v17.59c0.51,0.13,0.96,0.26,1.37,0.4
		c0.4,0.14,0.79,0.31,1.14,0.51V162.06z M241.44,136.6c0-0.68,0.22-1.23,0.66-1.63s1.03-0.61,1.77-0.61c0.73,0,1.32,0.2,1.75,0.61
		c0.43,0.41,0.65,0.95,0.65,1.63c0,0.68-0.22,1.22-0.65,1.62c-0.43,0.39-1.01,0.59-1.75,0.59c-0.73,0-1.32-0.2-1.77-0.59
		S241.44,137.28,241.44,136.6z"/>
	<path class="st0" d="M264.73,157.08c0,0.56,0.01,1.04,0.04,1.44c0.02,0.41,0.05,0.84,0.08,1.29l2.62,0.38v0.8
		c-0.63,0.33-1.34,0.62-2.11,0.87c-0.77,0.25-1.51,0.44-2.22,0.57h-0.95c-0.25-0.58-0.41-1.22-0.46-1.92
		c-0.05-0.7-0.09-1.46-0.11-2.3h-0.19c-0.1,0.51-0.3,1.02-0.59,1.54c-0.29,0.52-0.67,0.98-1.14,1.39c-0.47,0.41-1.02,0.74-1.65,0.99
		c-0.63,0.25-1.36,0.38-2.17,0.38c-1.55,0-2.81-0.47-3.78-1.41c-0.98-0.94-1.46-2.17-1.46-3.69c0-1.17,0.23-2.12,0.7-2.87
		c0.47-0.75,1.16-1.34,2.07-1.77c0.91-0.43,2.04-0.74,3.38-0.93c1.34-0.19,2.9-0.33,4.67-0.44c0.1-1.09,0.13-2.07,0.1-2.95
		c-0.04-0.87-0.18-1.62-0.42-2.24c-0.24-0.62-0.6-1.1-1.06-1.44s-1.08-0.51-1.84-0.51c-0.35,0-0.75,0.02-1.2,0.06
		s-0.88,0.15-1.31,0.32l-1.79,4.56h-0.99c-0.25-0.76-0.47-1.54-0.67-2.36c-0.19-0.81-0.31-1.61-0.36-2.39
		c0.96-0.58,2.03-1.04,3.21-1.37c1.18-0.33,2.49-0.49,3.93-0.49c1.29,0,2.32,0.18,3.1,0.55c0.77,0.37,1.36,0.84,1.77,1.42
		c0.4,0.58,0.67,1.23,0.8,1.94c0.13,0.71,0.19,1.42,0.19,2.13c0,1.52-0.03,2.98-0.1,4.39C264.76,154.44,264.73,155.79,264.73,157.08
		z M257.4,160.16c0.63,0,1.19-0.13,1.67-0.38c0.48-0.25,0.89-0.56,1.22-0.91s0.6-0.72,0.8-1.08c0.2-0.37,0.34-0.68,0.42-0.93v-3.99
		c-1.47,0-2.67,0.08-3.61,0.23c-0.94,0.15-1.67,0.39-2.2,0.72c-0.53,0.33-0.9,0.74-1.1,1.24c-0.2,0.49-0.3,1.06-0.3,1.69
		c0,1.09,0.28,1.93,0.84,2.53C255.67,159.86,256.43,160.16,257.4,160.16z"/>
	<path class="st0" d="M268.53,144.02c0.96-0.63,1.98-1.07,3.04-1.34v-3.23c0.33-0.25,0.72-0.5,1.16-0.74
		c0.44-0.24,0.88-0.45,1.31-0.63h0.95v4.98h5.7v1.98h-5.7V156c0,1.51,0.24,2.58,0.72,3.21c0.48,0.63,1.2,0.95,2.17,0.95
		c0.46,0,1.03-0.03,1.71-0.1c0.68-0.06,1.27-0.18,1.75-0.36l0.27,0.57c-0.2,0.23-0.49,0.47-0.85,0.72
		c-0.37,0.25-0.79,0.49-1.25,0.72c-0.47,0.23-0.98,0.42-1.54,0.57c-0.56,0.15-1.13,0.23-1.71,0.23c-1.52,0-2.68-0.43-3.48-1.29
		c-0.8-0.86-1.2-2.25-1.2-4.16v-12.03h-3.04V144.02z"/>
	<path class="st0" d="M291.67,162.06h-8.44v-0.95c0.38-0.2,0.77-0.37,1.18-0.51c0.41-0.14,0.85-0.27,1.33-0.4v-14.93l-2.51-0.3
		v-0.99c0.73-0.3,1.53-0.57,2.39-0.8c0.86-0.23,1.72-0.42,2.58-0.57h0.95v17.59c0.51,0.13,0.96,0.26,1.37,0.4
		c0.4,0.14,0.79,0.31,1.14,0.51V162.06z M285.02,136.6c0-0.68,0.22-1.23,0.66-1.63s1.03-0.61,1.77-0.61c0.73,0,1.32,0.2,1.75,0.61
		c0.43,0.41,0.65,0.95,0.65,1.63c0,0.68-0.22,1.22-0.65,1.62c-0.43,0.39-1.01,0.59-1.75,0.59c-0.73,0-1.32-0.2-1.77-0.59
		S285.02,137.28,285.02,136.6z"/>
	<path class="st0" d="M301.78,162.52l-7.41-17.56c-0.73-0.25-1.41-0.56-2.01-0.91v-0.99h7.98v0.95c-0.33,0.18-0.67,0.35-1.01,0.51
		c-0.34,0.17-0.73,0.31-1.16,0.44l4.39,11.44l0.76,2.36h0.08l0.57-2.39l4.05-11.4c-0.41-0.1-0.78-0.23-1.12-0.38
		c-0.34-0.15-0.67-0.33-0.97-0.53v-0.99h6.46v0.99c-0.25,0.18-0.56,0.34-0.93,0.49c-0.37,0.15-0.78,0.29-1.23,0.42l-6.73,17.1
		L301.78,162.52z"/>
	<path class="st0" d="M328.57,159.4c-0.2,0.43-0.52,0.84-0.95,1.22c-0.43,0.38-0.92,0.71-1.48,0.99c-0.56,0.28-1.17,0.5-1.82,0.67
		c-0.66,0.17-1.33,0.25-2.01,0.25c-1.5,0-2.81-0.23-3.95-0.7c-1.14-0.47-2.09-1.14-2.85-2.01c-0.76-0.87-1.34-1.92-1.73-3.13
		c-0.39-1.22-0.59-2.58-0.59-4.1c0-3.24,0.75-5.71,2.24-7.41c1.5-1.7,3.61-2.55,6.35-2.55c0.89,0,1.76,0.12,2.62,0.36
		c0.86,0.24,1.63,0.64,2.3,1.2c0.67,0.56,1.22,1.3,1.63,2.22s0.63,2.07,0.63,3.44c0,0.43-0.02,0.87-0.06,1.31s-0.11,0.92-0.21,1.42
		h-11.86c0,1.06,0.13,2.06,0.4,2.98c0.27,0.92,0.67,1.73,1.2,2.41c0.53,0.68,1.2,1.22,2.01,1.62c0.81,0.39,1.76,0.59,2.85,0.59
		c0.89,0,1.79-0.13,2.7-0.38s1.6-0.58,2.05-0.99L328.57,159.4z M321.61,144.28c-1.44,0-2.55,0.49-3.31,1.46
		c-0.76,0.97-1.22,2.69-1.37,5.15h8.36c0.02-0.23,0.04-0.45,0.06-0.67c0.01-0.21,0.02-0.42,0.02-0.63c0-1.62-0.3-2.91-0.91-3.88
		C323.86,144.76,322.91,144.28,321.61,144.28z"/>
	<path class="st0" d="M354.79,157.08c0,0.56,0.01,1.04,0.04,1.44c0.02,0.41,0.05,0.84,0.08,1.29l2.62,0.38v0.8
		c-0.63,0.33-1.34,0.62-2.11,0.87c-0.77,0.25-1.51,0.44-2.22,0.57h-0.95c-0.25-0.58-0.41-1.22-0.46-1.92
		c-0.05-0.7-0.09-1.46-0.11-2.3h-0.19c-0.1,0.51-0.3,1.02-0.59,1.54c-0.29,0.52-0.67,0.98-1.14,1.39c-0.47,0.41-1.02,0.74-1.65,0.99
		c-0.63,0.25-1.36,0.38-2.17,0.38c-1.54,0-2.81-0.47-3.78-1.41c-0.98-0.94-1.46-2.17-1.46-3.69c0-1.17,0.23-2.12,0.7-2.87
		c0.47-0.75,1.16-1.34,2.07-1.77s2.04-0.74,3.38-0.93c1.34-0.19,2.9-0.33,4.67-0.44c0.1-1.09,0.13-2.07,0.1-2.95
		c-0.04-0.87-0.18-1.62-0.42-2.24c-0.24-0.62-0.59-1.1-1.06-1.44s-1.08-0.51-1.84-0.51c-0.36,0-0.75,0.02-1.2,0.06
		s-0.88,0.15-1.31,0.32l-1.79,4.56h-0.99c-0.25-0.76-0.47-1.54-0.67-2.36c-0.19-0.81-0.31-1.61-0.36-2.39
		c0.96-0.58,2.03-1.04,3.21-1.37c1.18-0.33,2.49-0.49,3.93-0.49c1.29,0,2.32,0.18,3.1,0.55c0.77,0.37,1.36,0.84,1.77,1.42
		c0.4,0.58,0.67,1.23,0.8,1.94c0.13,0.71,0.19,1.42,0.19,2.13c0,1.52-0.03,2.98-0.09,4.39
		C354.82,154.44,354.79,155.79,354.79,157.08z M347.45,160.16c0.63,0,1.19-0.13,1.67-0.38c0.48-0.25,0.89-0.56,1.22-0.91
		s0.59-0.72,0.8-1.08c0.2-0.37,0.34-0.68,0.42-0.93v-3.99c-1.47,0-2.67,0.08-3.61,0.23c-0.94,0.15-1.67,0.39-2.2,0.72
		c-0.53,0.33-0.9,0.74-1.1,1.24c-0.2,0.49-0.3,1.06-0.3,1.69c0,1.09,0.28,1.93,0.84,2.53C345.73,159.86,346.49,160.16,347.45,160.16
		z"/>
	<path class="st0" d="M358.59,144.02c0.96-0.63,1.98-1.07,3.04-1.34v-3.23c0.33-0.25,0.72-0.5,1.16-0.74
		c0.44-0.24,0.88-0.45,1.31-0.63h0.95v4.98h5.7v1.98h-5.7V156c0,1.51,0.24,2.58,0.72,3.21c0.48,0.63,1.2,0.95,2.17,0.95
		c0.46,0,1.03-0.03,1.71-0.1c0.68-0.06,1.27-0.18,1.75-0.36l0.27,0.57c-0.2,0.23-0.49,0.47-0.85,0.72
		c-0.37,0.25-0.79,0.49-1.25,0.72c-0.47,0.23-0.98,0.42-1.54,0.57c-0.56,0.15-1.13,0.23-1.71,0.23c-1.52,0-2.68-0.43-3.48-1.29
		s-1.2-2.25-1.2-4.16v-12.03h-3.04V144.02z"/>
	<path class="st0" d="M388.45,160.05c0.68,0.08,1.33,0.2,1.94,0.36c0.61,0.17,1.18,0.35,1.71,0.55v1.1h-10.41v-1.1
		c0.51-0.25,1.03-0.44,1.56-0.57c0.53-0.13,1.05-0.24,1.56-0.34v-22.53c-0.58-0.1-1.13-0.23-1.63-0.4c-0.51-0.17-1-0.35-1.48-0.55
		v-1.1h3.42c1.01,0,2.12-0.05,3.31-0.15c1.19-0.1,2.33-0.15,3.42-0.15c1.24,0,2.46,0.13,3.65,0.4c1.19,0.27,2.25,0.72,3.17,1.35
		c0.92,0.63,1.67,1.48,2.24,2.53c0.57,1.05,0.86,2.36,0.86,3.93c0,1.49-0.29,2.77-0.88,3.84c-0.58,1.06-1.36,1.94-2.34,2.62
		c-0.98,0.68-2.08,1.18-3.33,1.5c-1.24,0.32-2.52,0.47-3.84,0.47c-0.13,0-0.32,0-0.59,0c-0.27,0-0.55-0.01-0.86-0.02
		s-0.6-0.03-0.88-0.06c-0.28-0.02-0.48-0.05-0.61-0.08V160.05z M391.04,137.13c-0.61,0-1.1,0.01-1.48,0.04
		c-0.38,0.03-0.75,0.08-1.1,0.15v12.31c0.13,0.05,0.31,0.08,0.55,0.09c0.24,0.01,0.49,0.03,0.76,0.06c0.27,0.03,0.53,0.04,0.78,0.04
		s0.46,0,0.61,0c0.88,0,1.72-0.12,2.51-0.36c0.79-0.24,1.47-0.63,2.07-1.16s1.07-1.2,1.43-2.01c0.35-0.81,0.53-1.79,0.53-2.93
		c0-2.08-0.59-3.64-1.77-4.67C394.74,137.65,393.12,137.13,391.04,137.13z"/>
	<path class="st0" d="M412.13,145.91c-0.28,0.15-0.63,0.46-1.05,0.93s-0.79,1.16-1.12,2.07v11.29c0.51,0.05,1.01,0.15,1.52,0.28
		c0.51,0.14,1.01,0.35,1.52,0.63v0.95h-8.97v-0.95c0.46-0.25,0.89-0.44,1.29-0.57s0.81-0.24,1.22-0.34v-14.93l-2.51-0.3v-0.99
		c0.81-0.35,1.65-0.64,2.51-0.85s1.68-0.39,2.47-0.51h0.95v4.03h0.15c0.23-0.51,0.55-1.01,0.97-1.52c0.42-0.51,0.9-0.96,1.44-1.37
		s1.14-0.72,1.79-0.93c0.65-0.21,1.31-0.29,2-0.21c0.18,0.33,0.33,0.69,0.47,1.08c0.14,0.39,0.27,0.8,0.4,1.24v0.99H412.13z"/>
	<path class="st0" d="M427.06,162.06h-8.44v-0.95c0.38-0.2,0.77-0.37,1.18-0.51c0.4-0.14,0.85-0.27,1.33-0.4v-14.93l-2.51-0.3v-0.99
		c0.73-0.3,1.53-0.57,2.39-0.8c0.86-0.23,1.72-0.42,2.58-0.57h0.95v17.59c0.51,0.13,0.96,0.26,1.37,0.4
		c0.41,0.14,0.79,0.31,1.14,0.51V162.06z M420.41,136.6c0-0.68,0.22-1.23,0.67-1.63s1.03-0.61,1.77-0.61c0.73,0,1.32,0.2,1.75,0.61
		c0.43,0.41,0.65,0.95,0.65,1.63c0,0.68-0.22,1.22-0.65,1.62c-0.43,0.39-1.01,0.59-1.75,0.59c-0.74,0-1.32-0.2-1.77-0.59
		S420.41,137.28,420.41,136.6z"/>
	<path class="st0" d="M450.05,162.06h-8.17v-0.95c0.68-0.35,1.43-0.66,2.24-0.91v-9.01c0-1.92-0.28-3.44-0.84-4.56
		c-0.56-1.11-1.57-1.67-3.04-1.67c-0.63,0-1.22,0.11-1.77,0.34c-0.55,0.23-1.03,0.54-1.44,0.93c-0.42,0.39-0.78,0.84-1.08,1.33
		s-0.54,1.01-0.72,1.54v11.1c0.78,0.15,1.54,0.46,2.28,0.91v0.95h-8.21v-0.95c0.63-0.33,1.47-0.63,2.51-0.91v-14.93l-2.51-0.3v-0.99
		c0.66-0.28,1.42-0.53,2.28-0.76c0.86-0.23,1.76-0.43,2.7-0.61h0.95v4.26h0.04c0.53-1.16,1.3-2.17,2.3-3c1-0.84,2.21-1.25,3.63-1.25
		c1.01,0,1.92,0.12,2.72,0.36c0.8,0.24,1.46,0.67,2,1.27c0.53,0.61,0.94,1.42,1.22,2.45c0.28,1.03,0.42,2.33,0.42,3.9v9.61
		c1.01,0.18,1.85,0.48,2.51,0.91V162.06z"/>
	<path class="st0" d="M466.54,159.4c-0.46,0.89-1.2,1.63-2.22,2.22s-2.22,0.89-3.59,0.89c-1.5,0-2.79-0.23-3.9-0.7
		c-1.1-0.47-2.02-1.14-2.75-2.01s-1.29-1.92-1.65-3.15c-0.37-1.23-0.55-2.59-0.55-4.08c0-3.22,0.79-5.68,2.36-7.39
		c1.57-1.71,3.71-2.57,6.42-2.57c1.24,0,2.35,0.11,3.33,0.32c0.97,0.22,1.8,0.5,2.49,0.86c-0.08,0.84-0.22,1.77-0.42,2.81
		c-0.2,1.04-0.46,1.9-0.76,2.58h-1.03l-1.6-4.52c-0.18-0.13-0.38-0.22-0.61-0.29c-0.23-0.06-0.61-0.1-1.14-0.1
		c-1.72,0-3.05,0.63-3.99,1.88c-0.94,1.25-1.41,3.38-1.41,6.36c0,0.96,0.13,1.9,0.4,2.81c0.27,0.91,0.67,1.73,1.22,2.45
		c0.54,0.72,1.23,1.3,2.05,1.73c0.82,0.43,1.78,0.65,2.87,0.65c0.89,0,1.66-0.13,2.32-0.38c0.66-0.25,1.22-0.56,1.67-0.91
		L466.54,159.4z"/>
	<path class="st0" d="M484.59,159.4c-0.2,0.43-0.52,0.84-0.95,1.22c-0.43,0.38-0.92,0.71-1.48,0.99c-0.56,0.28-1.17,0.5-1.82,0.67
		c-0.66,0.17-1.33,0.25-2.01,0.25c-1.5,0-2.81-0.23-3.95-0.7c-1.14-0.47-2.09-1.14-2.85-2.01s-1.34-1.92-1.73-3.13
		c-0.39-1.22-0.59-2.58-0.59-4.1c0-3.24,0.75-5.71,2.24-7.41c1.5-1.7,3.61-2.55,6.35-2.55c0.89,0,1.76,0.12,2.62,0.36
		c0.86,0.24,1.63,0.64,2.3,1.2c0.67,0.56,1.22,1.3,1.63,2.22s0.63,2.07,0.63,3.44c0,0.43-0.02,0.87-0.06,1.31
		c-0.04,0.44-0.11,0.92-0.21,1.42h-11.86c0,1.06,0.13,2.06,0.4,2.98c0.27,0.92,0.66,1.73,1.2,2.41c0.53,0.68,1.2,1.22,2.01,1.62
		c0.81,0.39,1.76,0.59,2.85,0.59c0.89,0,1.79-0.13,2.7-0.38s1.6-0.58,2.05-0.99L484.59,159.4z M477.64,144.28
		c-1.44,0-2.55,0.49-3.31,1.46c-0.76,0.97-1.22,2.69-1.37,5.15h8.36c0.03-0.23,0.04-0.45,0.06-0.67c0.01-0.21,0.02-0.42,0.02-0.63
		c0-1.62-0.3-2.91-0.91-3.88C479.88,144.76,478.93,144.28,477.64,144.28z"/>
	<path class="st0" d="M486.95,144.02c0.96-0.63,1.98-1.07,3.04-1.34v-3.23c0.33-0.25,0.71-0.5,1.16-0.74
		c0.44-0.24,0.88-0.45,1.31-0.63h0.95v4.98h5.7v1.98h-5.7V156c0,1.51,0.24,2.58,0.72,3.21s1.2,0.95,2.17,0.95
		c0.46,0,1.03-0.03,1.71-0.1c0.68-0.06,1.27-0.18,1.75-0.36l0.27,0.57c-0.2,0.23-0.49,0.47-0.85,0.72s-0.79,0.49-1.25,0.72
		c-0.47,0.23-0.98,0.42-1.54,0.57c-0.56,0.15-1.13,0.23-1.71,0.23c-1.52,0-2.68-0.43-3.48-1.29c-0.8-0.86-1.2-2.25-1.2-4.16v-12.03
		h-3.04V144.02z"/>
	<path class="st0" d="M501.65,152.56c0-1.6,0.21-3.01,0.63-4.24s1.02-2.27,1.81-3.12c0.79-0.85,1.73-1.5,2.83-1.94
		c1.1-0.44,2.32-0.67,3.67-0.67c1.57,0,2.93,0.24,4.07,0.72c1.14,0.48,2.07,1.16,2.79,2.03c0.72,0.87,1.25,1.92,1.6,3.14
		c0.34,1.22,0.51,2.57,0.51,4.07c0,3.19-0.81,5.65-2.43,7.37c-1.62,1.72-3.8,2.58-6.54,2.58c-1.52,0-2.84-0.23-3.95-0.7
		c-1.12-0.47-2.04-1.14-2.77-2.01s-1.29-1.92-1.65-3.15C501.84,155.42,501.65,154.06,501.65,152.56z M505.3,152.56
		c0,1.14,0.11,2.22,0.32,3.23c0.21,1.01,0.56,1.89,1.03,2.64c0.47,0.75,1.08,1.34,1.84,1.77c0.76,0.43,1.67,0.65,2.74,0.65
		c1.37,0,2.49-0.67,3.36-2.01s1.31-3.43,1.31-6.27c0-1.17-0.11-2.25-0.32-3.25c-0.22-1-0.55-1.87-1.01-2.62
		c-0.46-0.75-1.04-1.34-1.75-1.77c-0.71-0.43-1.56-0.65-2.55-0.65c-1.5,0-2.7,0.67-3.61,2.01S505.3,149.72,505.3,152.56z"/>
	<path class="st0" d="M542.66,162.06h-8.17v-0.95c0.68-0.35,1.43-0.66,2.24-0.91v-9.01c0-1.92-0.28-3.44-0.84-4.56
		c-0.56-1.11-1.57-1.67-3.04-1.67c-0.63,0-1.22,0.11-1.77,0.34c-0.55,0.23-1.03,0.54-1.44,0.93c-0.42,0.39-0.78,0.84-1.08,1.33
		s-0.54,1.01-0.72,1.54v11.1c0.78,0.15,1.54,0.46,2.28,0.91v0.95h-8.21v-0.95c0.63-0.33,1.47-0.63,2.51-0.91v-14.93l-2.51-0.3v-0.99
		c0.66-0.28,1.42-0.53,2.28-0.76c0.86-0.23,1.76-0.43,2.7-0.61h0.95v4.26h0.04c0.53-1.16,1.3-2.17,2.3-3c1-0.84,2.21-1.25,3.63-1.25
		c1.01,0,1.92,0.12,2.72,0.36c0.8,0.24,1.46,0.67,2,1.27c0.53,0.61,0.94,1.42,1.22,2.45c0.28,1.03,0.42,2.33,0.42,3.9v9.61
		c1.01,0.18,1.85,0.48,2.51,0.91V162.06z"/>
</g>
</svg>
