<svg width="693" height="486" viewBox="0 0 693 486" fill="none" xmlns="http://www.w3.org/2000/svg">
<path fill-rule="evenodd" clip-rule="evenodd" d="M149.778 79.9869C150.817 79.0777 152.396 79.183 153.306 80.2221C160.796 88.7826 169.459 96.0893 178.299 103.528L178.474 103.676C187.209 111.028 196.11 118.518 203.857 127.329C206.46 130.289 208.907 133.188 211.288 136.009C220.877 147.369 229.404 157.472 242.793 165.263C246.503 167.423 250.893 169.644 255.661 172.057C257.232 172.852 258.845 173.668 260.487 174.509C267.057 177.875 274.027 181.606 280.39 185.884C293.004 194.366 303.924 205.464 303.924 220.868C303.924 222.249 302.805 223.368 301.424 223.368C300.043 223.368 298.924 222.249 298.924 220.868C298.924 208.11 289.92 198.317 277.6 190.033C271.495 185.929 264.745 182.308 258.208 178.96C256.63 178.152 255.06 177.357 253.513 176.574C248.706 174.142 244.127 171.825 240.278 169.585C226.073 161.318 216.885 150.418 207.238 138.975C204.912 136.215 202.559 133.424 200.102 130.63C192.604 122.103 183.945 114.816 175.118 107.386L175.079 107.354C166.286 99.9533 157.325 92.409 149.543 83.5146C148.633 82.4755 148.739 80.8961 149.778 79.9869Z" fill="#C5B0A0"/>
<path fill-rule="evenodd" clip-rule="evenodd" d="M322.251 286.858C323.631 286.858 324.751 287.977 324.751 289.358C324.751 303.014 328.803 316.345 333.007 330.118L333.048 330.255C337.197 343.852 341.48 357.887 341.48 372.425C341.48 388.041 339.447 407.493 337.433 426.771L337.42 426.892C335.393 446.296 333.387 465.517 333.387 480.868C333.387 482.249 332.268 483.368 330.887 483.368C329.507 483.368 328.387 482.249 328.387 480.868C328.387 465.224 330.423 445.748 332.438 426.459L332.447 426.373C334.475 406.968 336.48 387.757 336.48 372.425C336.48 358.711 332.427 345.35 328.224 331.578L328.157 331.359C324.017 317.79 319.751 303.81 319.751 289.358C319.751 287.977 320.87 286.858 322.251 286.858Z" fill="#C5B0A0"/>
<path fill-rule="evenodd" clip-rule="evenodd" d="M463.422 289.144C464.374 290.144 464.335 291.726 463.336 292.679C460.992 294.911 458.636 298.373 456.285 302.673C453.95 306.942 451.707 311.875 449.537 316.932C448.498 319.352 447.471 321.818 446.456 324.252C443.302 331.822 440.275 339.087 437.437 343.733C431.596 353.298 429.445 364.877 429.445 375.07V418.147C429.445 425.144 427.721 431.965 426.099 438.381C424.447 444.912 422.904 451.013 422.904 457.066C422.904 460.98 423.667 464.91 424.492 469.067L424.543 469.325C425.335 473.315 426.175 477.544 426.175 481.745C426.175 483.125 425.056 484.245 423.675 484.245C422.294 484.245 421.175 483.125 421.175 481.745C421.175 478.039 420.418 474.223 419.59 470.054L419.588 470.04C418.777 465.958 417.904 461.55 417.904 457.066C417.904 450.385 419.579 443.767 421.175 437.456L421.251 437.155C422.899 430.639 424.445 424.42 424.445 418.147V375.07C424.445 364.271 426.709 351.706 433.17 341.127C435.788 336.839 438.586 330.128 441.691 322.681C442.738 320.17 443.82 317.574 444.942 314.96C447.13 309.862 449.448 304.755 451.897 300.274C454.33 295.825 456.981 291.825 459.887 289.058C460.887 288.106 462.47 288.144 463.422 289.144Z" fill="#C5B0A0"/>
<path fill-rule="evenodd" clip-rule="evenodd" d="M171.081 190.323C171.171 190.534 171.337 190.853 171.639 191.157C172.066 191.589 172.732 191.946 173.549 191.919C174.258 191.895 174.76 191.591 175 191.417C175.449 191.092 175.719 190.68 175.821 190.523C176.087 190.11 176.361 189.543 176.65 188.892C179.424 182.628 179.843 174.564 178.501 167.542C178.242 166.186 176.932 165.297 175.576 165.556C174.22 165.815 173.331 167.125 173.59 168.481C174.587 173.7 174.448 179.395 173.079 184.103C172.824 184.086 172.583 184.106 172.364 184.148C171.716 184.273 171.245 184.596 170.977 184.81C170.439 185.24 169.966 185.854 169.544 186.475C168.768 187.617 169.065 189.172 170.207 189.948C170.48 190.133 170.777 190.257 171.081 190.323ZM170.787 187.553C170.787 187.553 170.788 187.555 170.789 187.561C170.788 187.556 170.787 187.553 170.787 187.553Z" fill="#C5B0A0"/>
<path fill-rule="evenodd" clip-rule="evenodd" d="M663.192 130.999C663.958 132.147 663.647 133.7 662.498 134.465C659.728 136.313 657.526 137.959 655.63 140.381C654.137 142.29 653.256 144.576 652.551 147.209C652.24 148.37 651.975 149.549 651.698 150.784C651.66 150.953 651.622 151.123 651.583 151.295C651.268 152.692 650.931 154.152 650.505 155.586C649.074 160.409 646.788 164.873 644.62 169.106C644.144 170.036 643.673 170.955 643.218 171.865C641.205 175.891 638.297 179.428 635.03 182.453C633.533 183.838 631.278 185.326 629.05 186.707C627.948 187.39 626.806 188.074 625.709 188.732L625.603 188.796C624.467 189.477 623.383 190.128 622.406 190.738C621.235 191.47 619.693 191.114 618.961 189.943C618.229 188.772 618.585 187.23 619.756 186.498C620.779 185.859 621.903 185.185 623.032 184.507L623.126 184.451C624.232 183.788 625.346 183.12 626.416 182.457C628.664 181.063 630.534 179.801 631.633 178.784C634.575 176.059 637.065 172.991 638.746 169.628C639.248 168.625 639.75 167.643 640.246 166.673C642.399 162.463 644.425 158.5 645.712 154.163C646.085 152.907 646.391 151.592 646.705 150.196C646.743 150.029 646.781 149.862 646.818 149.693C647.093 148.468 647.382 147.182 647.721 145.916C648.495 143.024 649.592 139.984 651.693 137.3C654.098 134.226 656.852 132.221 659.725 130.305C660.874 129.539 662.426 129.85 663.192 130.999Z" fill="#C5B0A0"/>
<path fill-rule="evenodd" clip-rule="evenodd" d="M643.581 173.618C643.581 172.237 644.7 171.118 646.081 171.118C651.856 171.118 657.766 174.128 662.828 177.617C667.964 181.156 672.63 185.477 675.946 188.609C676.277 188.921 676.602 189.229 676.922 189.533C681.381 193.763 684.898 197.099 690.246 198.436C691.585 198.771 692.399 200.128 692.065 201.467C691.73 202.807 690.372 203.621 689.033 203.286C682.354 201.617 677.909 197.382 673.63 193.305C673.257 192.949 672.885 192.595 672.513 192.244C669.203 189.118 664.781 185.034 659.991 181.734C655.128 178.383 650.277 176.118 646.081 176.118C644.7 176.118 643.581 174.999 643.581 173.618Z" fill="#C5B0A0"/>
<path fill-rule="evenodd" clip-rule="evenodd" d="M134.85 175.057C134.159 174.029 132.795 173.649 131.658 174.218C130.423 174.836 129.923 176.337 130.54 177.572C131.051 178.595 131.913 179.176 132.566 179.505C133.237 179.844 133.959 180.053 134.561 180.195C135.139 180.332 135.728 180.434 136.194 180.515C136.221 180.519 136.248 180.524 136.274 180.529C136.815 180.623 137.112 180.679 137.285 180.729C140.155 181.562 143.217 182.113 146.107 182.633C147.299 182.848 148.462 183.057 149.569 183.279C160.503 185.465 172.036 190.477 180.319 197.724C183.849 200.813 187.1 204.033 190.426 207.327C192.011 208.897 193.613 210.483 195.27 212.081C198.337 215.037 202.019 217.309 205.717 219.247C207.963 220.423 210.358 221.544 212.642 222.613C214.033 223.264 215.384 223.896 216.634 224.51C218.205 225.281 219.734 226.118 221.331 226.992C222.283 227.513 223.258 228.047 224.281 228.588C226.93 229.989 229.752 231.355 232.697 232.247C235.317 233.041 237.905 234.012 240.569 235.025C240.755 235.096 240.941 235.166 241.127 235.237C243.593 236.176 246.13 237.142 248.714 237.973C254.363 239.788 258.984 242.548 263.58 246.414C264.697 247.352 265.766 248.367 266.9 249.442C267.068 249.602 267.237 249.762 267.408 249.924C268.707 251.154 270.095 252.444 271.597 253.605C277.745 258.355 285.64 262.374 292.927 264.803C296.73 266.071 300.006 267.76 303.629 269.831C306.261 271.335 308.299 273.409 310.652 275.805C311.113 276.275 311.587 276.756 312.079 277.248C313.794 278.964 315.649 281.462 317.064 284.172C318.497 286.916 319.352 289.631 319.352 291.815C319.352 293.196 320.471 294.315 321.852 294.315C323.233 294.315 324.352 293.196 324.352 291.815C324.352 288.496 323.112 284.952 321.496 281.857C319.863 278.73 317.714 275.813 315.614 273.713C315.196 273.295 314.773 272.862 314.341 272.42C311.993 270.021 309.399 267.369 306.11 265.49C302.383 263.36 298.774 261.482 294.508 260.06C287.689 257.787 280.307 254.016 274.654 249.648C273.369 248.655 272.141 247.519 270.845 246.293C270.682 246.138 270.517 245.982 270.35 245.824C269.226 244.757 268.039 243.63 266.798 242.587C261.795 238.379 256.614 235.26 250.244 233.212C247.792 232.424 245.371 231.503 242.88 230.554C242.702 230.487 242.525 230.419 242.347 230.352C239.691 229.341 236.953 228.312 234.147 227.462C231.672 226.712 229.19 225.528 226.619 224.169C225.736 223.701 224.819 223.2 223.89 222.692C222.212 221.774 220.49 220.833 218.837 220.021C217.4 219.316 215.98 218.653 214.567 217.992C212.387 216.973 210.223 215.962 208.037 214.817C204.519 212.974 201.313 210.961 198.739 208.481C197.188 206.985 195.641 205.453 194.083 203.91C190.696 200.557 187.258 197.152 183.612 193.962C174.539 186.023 162.15 180.696 150.55 178.376C149.233 178.112 147.952 177.882 146.697 177.657C143.927 177.159 141.288 176.685 138.679 175.927C138.198 175.788 137.617 175.687 137.169 175.609C137.155 175.607 137.142 175.605 137.129 175.602L137.095 175.596C136.593 175.509 136.138 175.43 135.711 175.329C135.292 175.23 135.015 175.135 134.85 175.057ZM134.762 175.011C134.753 175.005 134.749 175.002 134.75 175.002C134.75 175.002 134.754 175.005 134.762 175.011Z" fill="#C5B0A0"/>
<path fill-rule="evenodd" clip-rule="evenodd" d="M203.638 218.361C204.359 218.365 205.078 218.368 205.792 218.368C206.918 218.368 209.749 218.538 212.346 218.878C213.642 219.048 214.981 219.273 216.061 219.571C216.588 219.716 217.171 219.91 217.685 220.181C218.029 220.363 219.115 220.963 219.44 222.262C219.775 223.601 218.96 224.959 217.621 225.294C216.68 225.529 215.73 225.197 215.132 224.514C215.035 224.48 214.904 224.438 214.733 224.391C213.987 224.186 212.915 223.996 211.696 223.836C209.265 223.517 206.655 223.368 205.792 223.368C205.055 223.368 204.329 223.365 203.613 223.362C197.941 223.34 192.868 223.319 187.691 224.775C187.18 224.919 186.672 225.062 186.167 225.204C177.323 227.698 169.344 229.947 159.694 230.857C143.556 232.38 127.37 231.291 111.554 228.325C110.197 228.071 109.303 226.765 109.557 225.408C109.812 224.051 111.118 223.157 112.475 223.411C127.906 226.304 143.619 227.352 159.224 225.879C168.411 225.013 175.989 222.877 184.915 220.362C185.385 220.23 185.859 220.096 186.338 219.962C192.234 218.303 198.039 218.333 203.638 218.361ZM215.347 224.601C215.411 224.635 215.392 224.634 215.326 224.591C215.335 224.595 215.342 224.598 215.347 224.601Z" fill="#C5B0A0"/>
<path fill-rule="evenodd" clip-rule="evenodd" d="M499.34 263.296C497.516 263.344 495.682 263.392 493.837 263.392C492.456 263.392 491.337 262.272 491.337 260.892C491.337 259.511 492.456 258.392 493.837 258.392C495.407 258.392 497.088 258.349 498.831 258.304C502.849 258.201 507.193 258.09 511.256 258.479C517.202 259.049 523.194 260.713 527.827 265.346C532.773 270.292 537.245 272.903 543.784 275.578C549.172 277.782 554.368 280.248 559.482 282.676C560.736 283.271 561.984 283.863 563.23 284.449C569.59 287.441 575.914 290.282 582.628 292.52C583.938 292.957 584.646 294.372 584.209 295.682C583.772 296.992 582.356 297.7 581.047 297.263C574.039 294.928 567.495 291.981 561.101 288.973C559.822 288.372 558.55 287.768 557.282 287.166C552.18 284.745 547.14 282.353 541.891 280.206C534.909 277.35 529.823 274.413 524.292 268.882C520.831 265.421 516.185 263.974 510.779 263.456C507.024 263.096 503.206 263.196 499.34 263.296Z" fill="#C5B0A0"/>
<path fill-rule="evenodd" clip-rule="evenodd" d="M603.611 137.078C604.047 138.388 603.339 139.803 602.029 140.24C592.933 143.272 584.786 146.551 578.793 153.452C576.534 156.054 574.726 158.695 572.855 161.428C571.901 162.823 570.93 164.241 569.874 165.69C566.84 169.855 563.321 173.917 558.066 177.021C551.267 181.036 543.997 183.947 536.776 186.597C534.941 187.27 533.115 187.925 531.299 188.575C525.909 190.508 520.614 192.405 515.463 194.659C505.323 199.095 497.153 205.49 489.229 213.414C487.484 215.158 485.545 216.878 483.675 218.536C482.587 219.5 481.523 220.444 480.534 221.36C477.734 223.952 475.243 226.568 473.37 229.62C472.412 231.18 471.496 232.752 470.58 234.325C467.35 239.867 464.117 245.414 459.062 250.469C452.246 257.286 442.856 263.606 434.409 268.078C433.188 268.724 431.675 268.258 431.029 267.038C430.383 265.818 430.849 264.305 432.069 263.659C440.227 259.34 449.166 253.295 455.527 246.934C460.081 242.379 462.899 237.552 466.069 232.122C467.03 230.475 468.024 228.772 469.108 227.005C471.337 223.372 474.22 220.391 477.137 217.691C478.306 216.609 479.443 215.602 480.555 214.618C482.322 213.054 484.026 211.545 485.693 209.878C493.89 201.682 502.564 194.845 513.459 190.078C518.781 187.75 524.305 185.77 529.737 183.823C531.523 183.183 533.299 182.547 535.054 181.903C542.213 179.276 549.132 176.49 555.523 172.716C559.933 170.111 562.975 166.67 565.833 162.746C566.712 161.54 567.598 160.247 568.512 158.913C570.479 156.045 572.576 152.985 575.018 150.174C581.981 142.156 591.318 138.54 600.448 135.497C601.758 135.06 603.174 135.768 603.611 137.078Z" fill="#C5B0A0"/>
<path fill-rule="evenodd" clip-rule="evenodd" d="M387.824 63.161C389.175 62.8746 390.502 63.7373 390.788 65.088C391.686 69.3229 392.995 73.3256 394.361 77.3095C394.548 77.8571 394.738 78.4055 394.927 78.9547C396.102 82.358 397.286 85.79 398.177 89.2282C400.278 97.3434 400.821 105.775 396.203 115.406C390.149 128.035 384.416 139.669 373.181 150.507C365.798 157.629 362.05 164.974 360.713 172.612C359.367 180.304 360.43 188.498 363.027 197.343C363.625 199.382 364.314 201.358 365.027 203.347C365.161 203.72 365.296 204.094 365.431 204.469C366.011 206.078 366.598 207.709 367.132 209.34C368.457 213.388 369.524 217.645 369.524 222.376V240.994C369.524 245.206 370.09 248.715 371.753 251.298C373.32 253.734 376.12 255.731 381.537 256.386C382.907 256.552 383.884 257.798 383.718 259.168C383.553 260.539 382.307 261.516 380.936 261.35C374.407 260.561 370.101 257.97 367.548 254.004C365.091 250.186 364.524 245.481 364.524 240.994V222.376C364.524 218.405 363.633 214.724 362.38 210.895C361.872 209.341 361.315 207.796 360.738 206.193C360.6 205.81 360.461 205.424 360.321 205.034C359.602 203.029 358.871 200.938 358.229 198.752C355.513 189.502 354.26 180.478 355.788 171.75C357.325 162.968 361.642 154.691 369.71 146.909C380.231 136.76 385.638 125.879 391.695 113.245C395.645 105.004 395.248 97.8642 393.336 90.4816C392.499 87.2503 391.387 84.0266 390.209 80.6107C390.018 80.0561 389.825 79.4965 389.631 78.931C388.258 74.9249 386.863 70.6779 385.897 66.1252C385.611 64.7745 386.474 63.4474 387.824 63.161Z" fill="#C5B0A0"/>
<path fill-rule="evenodd" clip-rule="evenodd" d="M496.549 79.3876C497.919 79.5589 498.891 80.8083 498.719 82.1784C498.398 84.7543 498.438 87.4006 498.536 90.2316C498.549 90.6109 498.563 90.9944 498.578 91.3816C498.668 93.8262 498.764 96.4146 498.624 99.0032C498.183 107.165 494.884 113.74 491.661 120.161C490.809 121.859 489.962 123.547 489.175 125.25C484.16 136.102 483.916 146.946 486.194 158.843C486.821 162.118 487.561 165.179 488.308 168.268C488.777 170.211 489.25 172.164 489.698 174.189C490.834 179.317 491.739 184.608 491.739 190.368V204.868C491.739 206.249 490.62 207.368 489.239 207.368C487.858 207.368 486.739 206.249 486.739 204.868V190.368C486.739 185.132 485.918 180.245 484.816 175.27C484.413 173.448 483.96 171.57 483.497 169.651C482.725 166.45 481.926 163.136 481.283 159.783C478.879 147.226 479.049 135.244 484.636 123.153C485.569 121.134 486.512 119.248 487.418 117.434C490.551 111.163 493.252 105.758 493.631 98.7334C493.758 96.3903 493.672 94.0527 493.582 91.5942C493.567 91.2008 493.553 90.8043 493.539 90.4043C493.441 87.56 493.382 84.5644 493.758 81.5582C493.929 80.1882 495.179 79.2164 496.549 79.3876Z" fill="#C5B0A0"/>
<path fill-rule="evenodd" clip-rule="evenodd" d="M329.23 88.3803C330.052 87.2708 331.617 87.0376 332.727 87.8594C333.431 88.3812 334.16 88.9168 334.907 89.4664C339.729 93.0108 345.337 97.1337 350.291 101.827C356.01 107.246 361.119 113.658 363.204 121.202C364.288 125.125 364.334 129.238 364.353 133.015C364.354 133.145 364.354 133.275 364.355 133.404C364.373 137.146 364.389 140.573 365.122 143.818C366.383 149.401 366.355 156.59 365.664 162.123C365.473 163.647 364.863 164.83 364.46 165.612C364.415 165.7 364.372 165.783 364.333 165.861C363.935 166.651 363.739 167.149 363.739 167.868C363.739 169.249 362.62 170.368 361.239 170.368C359.858 170.368 358.739 169.249 358.739 167.868C358.739 165.955 359.368 164.601 359.869 163.609C359.906 163.535 359.942 163.464 359.977 163.396C360.414 162.531 360.626 162.111 360.703 161.503C361.348 156.336 361.339 149.764 360.245 144.919C359.388 141.127 359.371 137.201 359.356 133.612C359.355 133.42 359.354 133.23 359.353 133.04C359.334 129.183 359.265 125.72 358.385 122.534C356.654 116.27 352.3 110.618 346.852 105.457C342.143 100.996 336.812 97.0749 331.976 93.5177C331.221 92.9622 330.478 92.4156 329.751 91.8772C328.641 91.0554 328.408 89.4897 329.23 88.3803Z" fill="#C5B0A0"/>
<path fill-rule="evenodd" clip-rule="evenodd" d="M246.048 25.757C247.421 25.6124 248.651 26.6084 248.795 27.9815C249.829 37.8006 250.699 48.302 249.285 58.4761C249.111 59.7346 248.876 61.0322 248.653 62.2625C248.539 62.894 248.428 63.5078 248.33 64.0894C248.028 65.8819 247.809 67.5648 247.809 69.2432C247.809 70.624 246.69 71.7432 245.309 71.7432C243.929 71.7432 242.809 70.624 242.809 69.2432C242.809 67.1483 243.081 65.1437 243.399 63.2579C243.519 62.5468 243.641 61.8736 243.761 61.2171C243.97 60.0608 244.171 58.9563 244.333 57.7882C245.654 48.2791 244.856 38.3212 243.823 28.505C243.678 27.1318 244.674 25.9015 246.048 25.757Z" fill="#C5B0A0"/>
<path fill-rule="evenodd" clip-rule="evenodd" d="M44.1132 0.73365C45.4248 0.302212 46.8378 1.0157 47.2692 2.32728C50.956 13.535 50.9531 24.1424 50.9501 35.1663C50.9501 35.48 50.95 35.7941 50.95 36.1085C50.95 37.4892 49.8307 38.6085 48.45 38.6085C47.0693 38.6085 45.95 37.4892 45.95 36.1085C45.95 35.888 45.95 35.668 45.95 35.4486C45.9513 24.2217 45.9525 14.3256 42.5196 3.88965C42.0882 2.57808 42.8017 1.16509 44.1132 0.73365Z" fill="#C5B0A0"/>
<path fill-rule="evenodd" clip-rule="evenodd" d="M73.4757 72.7607C73.5904 71.3847 74.7987 70.3623 76.1747 70.4769C77.8891 70.6198 79.5897 70.769 81.2795 70.9173C91.3734 71.8029 101.082 72.6548 111.061 71.9195C113.127 71.7673 115.271 71.552 117.453 71.333C121.228 70.954 125.116 70.5638 128.905 70.4691C130.285 70.4346 131.432 71.5255 131.466 72.9058C131.501 74.2861 130.41 75.433 129.03 75.4675C125.383 75.5587 121.882 75.913 118.275 76.278C116.053 76.5029 113.791 76.7319 111.429 76.906C101.014 77.6734 90.8577 76.78 80.7815 75.8937C79.1055 75.7462 77.4318 75.599 75.7594 75.4596C74.3835 75.345 73.361 74.1366 73.4757 72.7607Z" fill="#C5B0A0"/>
<path fill-rule="evenodd" clip-rule="evenodd" d="M543.163 188.865C539.266 189.114 535.275 189.368 531.239 189.368C529.858 189.368 528.739 188.249 528.739 186.868C528.739 185.488 529.858 184.368 531.239 184.368C535.098 184.368 538.94 184.124 542.87 183.873L542.92 183.87C546.808 183.622 550.783 183.368 554.794 183.368C559.174 183.368 563.399 184.151 567.375 184.887L567.5 184.91C571.586 185.666 575.422 186.368 579.35 186.368C583.233 186.368 587.159 186.259 591.114 186.149C599.146 185.925 607.295 185.698 615.446 186.377C616.822 186.492 617.845 187.7 617.73 189.076C617.615 190.452 616.407 191.474 615.031 191.36C607.145 190.702 599.491 190.918 591.634 191.14C587.612 191.253 583.536 191.368 579.35 191.368C574.917 191.368 570.659 190.58 566.665 189.84L566.59 189.827C562.502 189.07 558.685 188.368 554.794 188.368C550.952 188.368 547.119 188.612 543.188 188.863L543.163 188.865Z" fill="#C5B0A0"/>
<path fill-rule="evenodd" clip-rule="evenodd" d="M547.239 141.368C548.067 142.473 547.843 144.04 546.739 144.868C536.707 152.392 525.409 152.948 514.711 152.998C513.727 153.002 512.749 153.003 511.777 153.003C501.966 153.009 492.792 153.015 484.329 157.118C483.087 157.72 481.592 157.201 480.989 155.959C480.387 154.717 480.906 153.221 482.148 152.619C491.704 147.986 502.05 147.993 511.68 148.001C512.691 148.002 513.694 148.002 514.688 147.998C525.367 147.948 535.139 147.318 543.739 140.868C544.843 140.04 546.41 140.264 547.239 141.368Z" fill="#C5B0A0"/>
<path fill-rule="evenodd" clip-rule="evenodd" d="M511.739 192.868C511.739 191.488 512.858 190.368 514.239 190.368C516.063 190.368 517.547 191.194 518.662 192.203C519.759 193.195 520.626 194.47 521.309 195.704C522.604 198.046 523.501 200.743 524.031 202.34C524.059 202.422 524.085 202.502 524.111 202.578C525.778 207.582 529.124 211.526 533.53 214.879C536.256 216.952 539.648 218.584 543.356 220.194C544.162 220.544 544.987 220.895 545.821 221.249C548.724 222.482 551.737 223.762 554.433 225.227C558.406 227.387 560.081 228.428 561.536 229.851C562.074 230.377 562.586 230.963 563.143 231.599C563.282 231.757 563.423 231.919 563.569 232.084C564.329 232.946 565.332 234.053 566.88 235.601C567.856 236.577 567.856 238.16 566.88 239.136C565.903 240.112 564.32 240.112 563.344 239.136C561.707 237.499 560.633 236.314 559.82 235.393C559.631 235.178 559.462 234.985 559.308 234.81C558.777 234.203 558.427 233.804 558.039 233.425C557.151 232.556 556.074 231.81 552.045 229.62C549.582 228.282 546.874 227.131 544.014 225.915C543.144 225.545 542.26 225.169 541.364 224.78C537.625 223.156 533.747 221.326 530.503 218.858C525.564 215.1 521.445 210.393 519.367 204.159C519.35 204.109 519.333 204.058 519.316 204.006C518.768 202.36 517.998 200.05 516.934 198.124C516.386 197.135 515.834 196.387 515.309 195.912C514.802 195.453 514.46 195.368 514.239 195.368C512.858 195.368 511.739 194.249 511.739 192.868Z" fill="#C5B0A0"/>
<path fill-rule="evenodd" clip-rule="evenodd" d="M199.638 99.096C200.556 98.064 202.136 97.971 203.168 98.8883C203.532 99.2122 203.904 99.5391 204.279 99.8695C207.101 102.353 210.153 105.039 212.188 108.18C214.641 111.966 215.664 116.434 213.892 122.063C213.681 122.731 213.248 123.976 212.617 125.124C212.303 125.694 211.885 126.343 211.347 126.897C210.827 127.431 209.984 128.092 208.817 128.238C207.447 128.409 206.198 127.437 206.026 126.067C205.871 124.829 206.651 123.689 207.813 123.355C207.918 123.233 208.065 123.025 208.236 122.714C208.634 121.989 208.951 121.105 209.122 120.562C210.42 116.44 209.685 113.512 207.992 110.899C206.359 108.379 203.873 106.184 200.971 103.621C200.602 103.295 200.227 102.964 199.846 102.625C198.814 101.708 198.721 100.128 199.638 99.096ZM207.719 123.451C207.719 123.451 207.723 123.447 207.732 123.44C207.723 123.448 207.719 123.452 207.719 123.451Z" fill="#C5B0A0"/>
<path fill-rule="evenodd" clip-rule="evenodd" d="M403.224 171.57C404.493 172.114 405.081 173.584 404.537 174.853C402.627 179.308 398.662 182.76 394.795 185.64C393.426 186.659 391.993 187.661 390.616 188.623C390.031 189.031 389.457 189.432 388.903 189.825C386.999 191.171 385.28 192.444 383.856 193.727C379.915 197.273 375.561 200.61 371.131 203.5C371.133 203.499 371.134 203.499 371.134 203.499C371.135 203.5 371.063 203.555 370.875 203.716C370.672 203.89 370.415 204.116 370.106 204.388L370.082 204.408C369.458 204.958 368.656 205.662 367.864 206.31C367.106 206.929 366.221 207.612 365.446 208.041C365.131 208.215 364.469 208.563 363.692 208.609C363.249 208.635 362.509 208.576 361.819 208.048C361.1 207.498 360.84 206.751 360.764 206.222C360.569 204.855 361.518 203.589 362.885 203.393C363.085 203.365 363.282 203.361 363.474 203.379C363.801 203.152 364.216 202.834 364.699 202.439C365.411 201.857 366.148 201.21 366.781 200.653L366.821 200.618C367.116 200.359 367.394 200.114 367.624 199.917C367.815 199.753 368.115 199.498 368.373 199.33C372.6 196.573 376.758 193.388 380.511 190.01C382.167 188.52 384.089 187.105 386.015 185.743C386.621 185.314 387.224 184.892 387.824 184.473C389.172 183.532 390.502 182.602 391.808 181.63C395.617 178.793 398.598 176.017 399.941 172.884C400.485 171.614 401.955 171.027 403.224 171.57ZM362.915 203.721C362.915 203.72 362.928 203.714 362.951 203.705C362.926 203.717 362.915 203.722 362.915 203.721Z" fill="#C5B0A0"/>
<path fill-rule="evenodd" clip-rule="evenodd" d="M453.749 204.417C455.102 204.146 456.419 205.024 456.69 206.378C459.086 218.356 461.625 231.635 458.676 244.536C458.102 247.047 457.739 248.647 457.739 250.868C457.739 252.249 456.62 253.368 455.239 253.368C453.858 253.368 452.739 252.249 452.739 250.868C452.739 248.07 453.215 245.988 453.767 243.574L453.802 243.422C456.476 231.723 454.212 219.484 451.787 207.359C451.517 206.005 452.395 204.688 453.749 204.417Z" fill="#C5B0A0"/>
<path fill-rule="evenodd" clip-rule="evenodd" d="M481.221 55.3505C482.197 54.3742 483.78 54.3742 484.757 55.3505C489.806 60.4004 494.922 66.2259 497.487 73.5563C497.625 73.9503 497.776 74.6675 497.897 75.3296C498.032 76.0688 498.174 76.99 498.263 77.9031C498.348 78.7768 498.402 79.8001 498.298 80.6743C498.249 81.0853 498.14 81.7045 497.821 82.2917C497.463 82.9504 496.634 83.8683 495.239 83.8683C493.858 83.8683 492.739 82.749 492.739 81.3683C492.739 80.7394 492.971 80.1648 493.354 79.7254C493.36 79.3922 493.34 78.9386 493.286 78.3889C493.214 77.6457 493.095 76.8656 492.978 76.2272C492.879 75.6826 492.802 75.3575 492.777 75.2478C492.768 75.2134 492.765 75.2002 492.768 75.2081C490.596 69.003 486.18 63.8454 481.221 58.8861C480.245 57.9097 480.245 56.3268 481.221 55.3505ZM493.319 80.173C493.318 80.1728 493.319 80.1671 493.322 80.1567C493.32 80.168 493.319 80.1732 493.319 80.173Z" fill="#C5B0A0"/>
<path fill-rule="evenodd" clip-rule="evenodd" d="M512.478 60.4943C512.246 60.6991 512.006 60.9106 511.756 61.1285C511.157 61.6504 510.599 62.1151 510.066 62.5598C509.203 63.279 508.403 63.9457 507.591 64.717C506.36 65.8874 505.389 67.0525 504.741 68.3973C503.981 69.9773 502.831 71.5772 501.834 72.9653C501.504 73.4248 501.191 73.8611 500.914 74.2657C499.671 76.0808 498.879 77.5897 498.726 79.117C498.589 80.4909 497.364 81.4933 495.99 81.3559C494.616 81.2185 493.614 79.9934 493.751 78.6195C494.037 75.763 495.467 73.3696 496.788 71.4407C497.22 70.8096 497.631 70.2379 498.015 69.7027C498.92 68.4428 499.679 67.3849 500.236 66.2282C501.246 64.1305 502.683 62.4846 504.147 61.0929C505.054 60.2303 506.099 59.357 507.061 58.5528C507.564 58.1318 508.045 57.7297 508.472 57.3581C508.665 57.1901 508.866 57.0125 509.074 56.8286C510.097 55.9242 511.296 54.865 512.576 54.0273C514.184 52.9752 516.13 52.1183 518.489 52.1183C519.87 52.1183 520.989 53.2376 520.989 54.6183C520.989 55.999 519.87 57.1183 518.489 57.1183C517.412 57.1183 516.413 57.4919 515.313 58.2112C514.364 58.8325 513.494 59.5995 512.478 60.4943Z" fill="#C5B0A0"/>
<path fill-rule="evenodd" clip-rule="evenodd" d="M220.494 88.6323C221.729 88.0148 223.23 88.5154 223.848 89.7503C224.684 91.4229 226.287 92.9999 228.387 94.845C228.668 95.0917 228.959 95.3444 229.257 95.6029C231.026 97.1378 233.034 98.8791 234.492 100.802C235.797 102.522 237.257 104.175 238.796 105.92C239.339 106.535 239.892 107.161 240.452 107.806C242.543 110.215 244.671 112.82 246.291 115.698C246.762 116.536 247.216 117.365 247.663 118.182C248.968 120.566 250.219 122.852 251.706 124.992C253.659 127.803 255.873 130.124 258.779 131.657C262.238 133.483 265.886 134.753 269.721 135.947C270.646 136.235 271.589 136.521 272.543 136.81C275.48 137.7 278.524 138.622 281.5 139.754C292.155 143.806 301.799 149.967 310.886 156.724C316.084 160.589 321.251 164.772 326.32 168.874C329.987 171.842 333.603 174.767 337.14 177.501C340.932 180.431 344.179 184.057 347.201 187.632C347.876 188.43 348.538 189.224 349.192 190.008C351.519 192.797 353.752 195.473 356.157 197.878C356.873 198.594 357.689 199.63 358.47 200.636C358.616 200.824 358.763 201.013 358.91 201.204C359.595 202.09 360.299 203 361.027 203.874C361.915 204.941 362.761 205.859 363.534 206.517C364.369 207.228 364.82 207.375 364.922 207.388C366.292 207.559 367.264 208.808 367.093 210.178C366.921 211.548 365.672 212.52 364.302 212.349C362.709 212.15 361.328 211.205 360.293 210.324C359.196 209.391 358.136 208.217 357.184 207.073C356.393 206.123 355.622 205.126 354.936 204.239C354.794 204.055 354.655 203.875 354.52 203.701C353.695 202.638 353.074 201.866 352.622 201.414C350.04 198.832 347.617 195.926 345.268 193.11C344.635 192.351 344.007 191.598 343.383 190.86C340.39 187.32 337.428 184.043 334.083 181.458C330.319 178.549 326.657 175.583 322.994 172.615C318.048 168.609 313.101 164.602 307.902 160.736C298.981 154.103 289.761 148.245 279.723 144.427C276.924 143.363 274.115 142.512 271.221 141.635C270.236 141.336 269.241 141.035 268.234 140.721C264.327 139.504 260.323 138.126 256.445 136.079C252.586 134.043 249.82 131.04 247.6 127.845C245.947 125.465 244.513 122.844 243.176 120.402C242.753 119.629 242.34 118.874 241.933 118.15C240.576 115.737 238.73 113.45 236.676 111.084C236.18 110.513 235.668 109.932 235.149 109.344C233.574 107.56 231.936 105.705 230.509 103.824C229.392 102.351 227.844 101.004 226.051 99.4429C225.736 99.1694 225.415 98.8895 225.087 98.6011C223.038 96.801 220.705 94.6443 219.376 91.9864C218.758 90.7514 219.259 89.2498 220.494 88.6323Z" fill="#C5B0A0"/>
<path fill-rule="evenodd" clip-rule="evenodd" d="M272.402 35.4965C273.712 35.9331 274.42 37.3489 273.984 38.6588C271.599 45.8123 267.159 51.5317 262.268 56.5692C259.823 59.0876 257.229 61.47 254.7 63.7764C254.509 63.9506 254.318 64.1243 254.128 64.2976C251.782 66.4352 249.506 68.5093 247.38 70.636C245.512 72.5033 244.235 75.157 243.123 78.3193C242.644 79.6807 242.217 81.0713 241.779 82.4951C241.712 82.7125 241.645 82.9307 241.578 83.1496C241.076 84.7753 240.55 86.442 239.94 88.0015C237.694 93.742 236.112 98.2542 236.112 103.868C236.112 105.249 234.993 106.368 233.612 106.368C232.231 106.368 231.112 105.249 231.112 103.868C231.112 97.2329 233.024 91.9532 235.284 86.1795C235.819 84.8112 236.297 83.305 236.8 81.676C236.865 81.4646 236.931 81.251 236.997 81.0355C237.432 79.6188 237.892 78.1235 238.406 76.6603C239.584 73.3129 241.161 69.7832 243.844 67.1005C246.057 64.8876 248.417 62.7372 250.745 60.6162C250.94 60.4378 251.136 60.2597 251.331 60.0817C253.865 57.771 256.354 55.4821 258.681 53.0861C263.333 48.2946 267.195 43.2121 269.24 37.0777C269.677 35.7678 271.093 35.0599 272.402 35.4965Z" fill="#C5B0A0"/>
<path fill-rule="evenodd" clip-rule="evenodd" d="M202.778 123.316C204.459 123.342 206.086 123.368 207.612 123.368C214.159 123.368 220.562 123.877 226.84 124.375L226.848 124.376C233.16 124.877 239.343 125.368 245.612 125.368C246.993 125.368 248.112 126.488 248.112 127.868C248.112 129.249 246.993 130.368 245.612 130.368C239.141 130.368 232.789 129.864 226.537 129.367L226.453 129.36C220.143 128.859 213.932 128.368 207.612 128.368C205.916 128.368 204.214 128.341 202.502 128.313C199.544 128.265 196.556 128.216 193.518 128.309C188.784 128.453 184.296 128.942 180.402 130.24C179.093 130.677 177.677 129.969 177.24 128.659C176.803 127.349 177.511 125.933 178.821 125.497C183.394 123.972 188.447 123.461 193.366 123.311C196.497 123.216 199.727 123.267 202.778 123.316Z" fill="#C5B0A0"/>
<path fill-rule="evenodd" clip-rule="evenodd" d="M170.612 10.3683C171.993 10.3683 173.112 11.4876 173.112 12.8683C173.112 21.4967 178.012 28.5276 184.51 35.6214C186.12 37.3795 187.8 39.1129 189.504 40.867L189.706 41.0742C191.336 42.7523 192.987 44.4516 194.573 46.1695C197.866 49.7379 200.988 53.5008 203.247 57.6079C204.693 60.2382 206.228 62.8971 207.776 65.5801C210.188 69.7605 212.633 73.9996 214.835 78.2805C215.198 78.9859 215.798 79.8027 216.615 80.784C217.016 81.2647 217.443 81.7549 217.895 82.2738L217.926 82.3092C218.363 82.8103 218.823 83.3376 219.269 83.8714C220.175 84.9531 221.111 86.1582 221.823 87.4348C222.534 88.7095 223.112 90.2125 223.112 91.8683C223.112 93.249 221.993 94.3683 220.612 94.3683C219.231 94.3683 218.112 93.249 218.112 91.8683C218.112 91.3777 217.937 90.7319 217.456 89.8706C216.977 89.0113 216.283 88.0934 215.435 87.0806C215.021 86.5853 214.589 86.0903 214.142 85.5771L214.126 85.5594C213.68 85.0471 213.216 84.5152 212.774 83.9846C211.907 82.9433 211.013 81.7814 210.389 80.5672C208.217 76.3452 205.906 72.3439 203.559 68.2792C202.001 65.581 200.426 62.8548 198.866 60.0175C196.901 56.445 194.105 53.0347 190.898 49.5608C189.357 47.8911 187.746 46.233 186.103 44.5419L185.918 44.3509C184.219 42.6023 182.49 40.8187 180.823 38.9986C174.21 31.7796 168.112 23.518 168.112 12.8683C168.112 11.4876 169.231 10.3683 170.612 10.3683Z" fill="#C5B0A0"/>
<path fill-rule="evenodd" clip-rule="evenodd" d="M135.376 23.7503C135.993 22.5154 137.495 22.0148 138.73 22.6323C139.979 23.2568 141.197 24.2212 142.191 25.0085C142.339 25.1259 142.482 25.2393 142.62 25.3471C143.814 26.2819 144.77 26.9564 145.702 27.3018C149.011 28.5272 152.605 28.8899 156.583 29.2741L156.744 29.2897C160.562 29.6583 164.747 30.0624 168.701 31.5234C175.097 33.8872 183.102 37.1873 188.54 42.2629C189.255 42.9304 190.194 43.705 191.307 44.6236C191.376 44.6808 191.446 44.7386 191.517 44.7969C192.692 45.7668 194.011 46.8619 195.266 48.0211C196.519 49.1771 197.765 50.4478 198.784 51.7909C199.791 53.1185 200.68 54.6493 201.052 56.326C201.352 57.6739 200.502 59.0093 199.154 59.3088C197.806 59.6083 196.471 58.7585 196.171 57.4107C196.016 56.711 195.583 55.8433 194.801 54.8133C194.031 53.7987 193.021 52.7525 191.875 51.6952C190.733 50.6411 189.513 49.6263 188.334 48.6528C188.249 48.5827 188.164 48.5127 188.079 48.4426C187.015 47.5649 185.961 46.6952 185.128 45.9182C180.51 41.6081 173.404 38.592 166.967 36.2133C163.67 34.9947 160.082 34.6355 156.102 34.251L155.973 34.2385C152.145 33.8688 147.941 33.463 143.966 31.9905C142.218 31.3432 140.711 30.2027 139.537 29.2837C139.372 29.154 139.213 29.029 139.06 28.9089C138.009 28.0813 137.245 27.48 136.494 27.1044C135.259 26.4869 134.758 24.9853 135.376 23.7503Z" fill="#C5B0A0"/>
<path fill-rule="evenodd" clip-rule="evenodd" d="M223.612 125.368C224.993 125.368 226.112 126.488 226.112 127.868C226.112 129.332 226.533 130.172 227.068 130.793C227.688 131.513 228.58 132.082 229.836 132.789C229.962 132.859 230.094 132.932 230.231 133.008C231.305 133.604 232.686 134.371 233.769 135.396C235.143 136.698 236.112 138.456 236.112 140.868C236.112 142.249 234.993 143.368 233.612 143.368C232.231 143.368 231.112 142.249 231.112 140.868C231.112 139.99 230.831 139.5 230.33 139.026C229.736 138.463 228.941 138.018 227.761 137.357C227.641 137.29 227.516 137.22 227.387 137.148C226.144 136.449 224.535 135.513 223.28 134.057C221.94 132.502 221.112 130.495 221.112 127.868C221.112 126.488 222.231 125.368 223.612 125.368Z" fill="#C5B0A0"/>
<path fill-rule="evenodd" clip-rule="evenodd" d="M394.112 288.368C395.492 288.368 396.612 289.487 396.612 290.868C396.612 291.136 396.717 291.483 397.211 292.243C397.278 292.346 397.363 292.47 397.459 292.611C397.9 293.255 398.585 294.258 398.961 295.292C399.413 296.534 400.018 298.201 400.392 299.939C400.76 301.654 400.965 303.703 400.404 305.666C399.654 308.291 398.115 310.545 396.85 312.399C396.532 312.865 396.231 313.305 395.965 313.72C393.406 317.7 391.459 321.308 391.103 325.576C390.988 326.952 389.78 327.974 388.404 327.86C387.028 327.745 386.006 326.536 386.12 325.161C386.585 319.586 389.138 315.092 391.759 311.016C392.183 310.356 392.588 309.759 392.968 309.198C394.151 307.452 395.09 306.067 395.597 304.292C395.83 303.475 395.799 302.366 395.503 300.989C395.212 299.635 394.726 298.275 394.262 297C394.12 296.61 393.911 296.3 393.544 295.757C393.396 295.538 393.223 295.282 393.019 294.968C392.428 294.059 391.612 292.67 391.612 290.868C391.612 289.487 392.731 288.368 394.112 288.368Z" fill="#C5B0A0"/>
<path fill-rule="evenodd" clip-rule="evenodd" d="M298.943 220.545C299.115 219.175 300.364 218.203 301.734 218.375C302.705 218.496 303.455 219.038 303.916 219.719C304.316 220.31 304.458 220.935 304.519 221.359C304.64 222.208 304.548 223.135 304.451 223.83C304.349 224.556 304.2 225.288 304.089 225.835L304.081 225.875C304.021 226.167 303.977 226.387 303.946 226.56C303.935 226.623 303.928 226.666 303.924 226.691C303.936 229.294 304.501 231.829 305.739 233.136C307.63 235.132 309.356 237.291 311.007 239.376C311.125 239.524 311.242 239.672 311.358 239.819C312.903 241.772 314.388 243.649 315.972 245.4C316.416 245.891 316.893 246.401 317.388 246.929C319.316 248.99 321.511 251.336 323.074 253.968C324.734 256.765 329.088 265.68 333.164 274.517C335.215 278.964 337.219 283.443 338.807 287.193C340.363 290.868 341.604 294.035 342.033 295.749C342.368 297.088 341.553 298.446 340.214 298.781C338.874 299.115 337.517 298.301 337.182 296.962C336.866 295.697 335.795 292.902 334.203 289.143C332.642 285.458 330.661 281.03 328.623 276.611C324.52 267.713 320.277 259.051 318.774 256.52C317.517 254.402 315.817 252.58 313.943 250.572C313.396 249.986 312.834 249.384 312.265 248.755C310.564 246.875 308.98 244.873 307.457 242.947C307.333 242.79 307.21 242.635 307.087 242.479C305.429 240.385 303.829 238.389 302.109 236.575C299.463 233.782 298.924 229.494 298.924 226.605C298.924 226.25 298.989 225.88 299.023 225.687C299.066 225.442 299.124 225.157 299.179 224.887L299.181 224.878C299.298 224.301 299.42 223.701 299.499 223.136C299.534 222.89 299.554 222.689 299.566 222.528C299.098 222.007 298.85 221.294 298.943 220.545ZM299.569 222.066C299.569 222.068 299.57 222.07 299.57 222.071C299.566 222.055 299.567 222.052 299.569 222.066Z" fill="#C5B0A0"/>
<path fill-rule="evenodd" clip-rule="evenodd" d="M377.631 258.558C377.802 257.188 379.052 256.216 380.422 256.387C381.96 256.58 383.978 257.101 385.805 258C387.554 258.86 389.619 260.31 390.461 262.625C390.537 262.833 390.681 263.074 391.035 263.635C391.042 263.645 391.048 263.656 391.055 263.667C391.349 264.132 391.809 264.861 392.094 265.717C392.653 267.391 392.632 269.125 392.616 270.383C392.614 270.575 392.612 270.756 392.612 270.924C392.612 271.07 392.612 271.216 392.612 271.363C392.613 273.609 392.614 275.984 392.346 278.394C392.309 278.727 392.273 279.026 392.239 279.299C392.118 280.289 392.038 280.935 392.139 281.608C392.558 284.4 394.294 286.953 396.269 289.859C396.405 290.059 396.543 290.262 396.681 290.466C397.456 291.609 397.157 293.164 396.014 293.938C394.871 294.712 393.316 294.413 392.542 293.27C392.378 293.028 392.206 292.778 392.03 292.52C390.187 289.83 387.793 286.336 387.195 282.35C386.981 280.926 387.175 279.431 387.309 278.394C387.335 278.191 387.359 278.006 387.377 277.842C387.613 275.718 387.612 273.603 387.612 271.293C387.612 271.17 387.612 271.047 387.612 270.924C387.612 270.68 387.613 270.452 387.614 270.238C387.62 268.929 387.624 268.118 387.351 267.298C387.279 267.082 387.136 266.825 386.807 266.303C386.787 266.272 386.766 266.239 386.744 266.204C386.469 265.771 386.038 265.091 385.762 264.334C385.583 263.842 384.946 263.149 383.599 262.486C382.33 261.862 380.858 261.481 379.802 261.349C378.431 261.178 377.46 259.928 377.631 258.558Z" fill="#C5B0A0"/>
<path fill-rule="evenodd" clip-rule="evenodd" d="M434.286 267.776C435.46 267.449 436.248 266.303 436.092 265.058C435.921 263.688 434.672 262.716 433.302 262.887C432.506 262.987 431.872 263.363 431.485 263.632C431.056 263.93 430.657 264.291 430.306 264.646C429.6 265.36 428.893 266.248 428.274 267.106C427.648 267.974 427.067 268.875 426.614 269.65C426.227 270.312 425.757 271.175 425.581 271.848C424.387 276.426 423.884 281.41 423.418 286.028C423.321 286.987 423.226 287.929 423.126 288.849C423.039 289.655 422.946 290.457 422.853 291.258C422.483 294.443 422.112 297.637 422.112 301.146C422.112 301.611 422.112 302.074 422.112 302.536C422.117 308.049 422.122 313.285 421.412 318.562C420.66 324.144 419.386 328.975 416.708 333.758C415.42 336.058 413.826 338.203 412.103 340.457C411.929 340.684 411.754 340.912 411.578 341.142C410.036 343.153 408.409 345.275 406.992 347.543C406.26 348.714 406.616 350.256 407.787 350.988C408.957 351.72 410.5 351.364 411.232 350.193C412.515 348.14 413.992 346.212 415.554 344.173C415.727 343.948 415.9 343.722 416.075 343.494C417.797 341.241 419.59 338.845 421.071 336.201C424.154 330.695 425.563 325.201 426.367 319.229C427.125 313.601 427.119 308.035 427.113 302.584C427.112 302.104 427.112 301.624 427.112 301.146C427.112 297.953 427.441 295.114 427.805 291.966C427.902 291.132 428.001 290.277 428.097 289.387C428.205 288.389 428.306 287.392 428.407 286.4C428.875 281.79 429.333 277.277 430.42 273.11C430.411 273.145 430.418 273.13 430.45 273.064C430.508 272.944 430.65 272.653 430.932 272.172C431.302 271.537 431.796 270.77 432.33 270.031C432.871 269.281 433.408 268.62 433.861 268.162C434.051 267.97 434.193 267.847 434.286 267.776ZM434.358 267.725C434.373 267.715 434.381 267.711 434.381 267.711C434.381 267.712 434.373 267.717 434.358 267.725Z" fill="#C5B0A0"/>
<path fill-rule="evenodd" clip-rule="evenodd" d="M663.348 161.25C663.965 162.485 663.465 163.987 662.23 164.604C659.811 165.814 657.423 167.413 654.961 169.169C654.269 169.663 653.564 170.174 652.851 170.692C651.087 171.971 649.275 173.285 647.481 174.46C644.725 176.264 642.037 178.17 639.313 180.11L638.815 180.465C636.264 182.282 633.677 184.126 631.026 185.893C623.935 190.62 615.498 193.867 607.839 196.815C607.309 197.019 606.784 197.221 606.262 197.423C600.388 199.691 594.548 201.769 588.759 203.83C575.811 208.438 563.115 212.956 550.845 219.31C546.35 221.638 543.475 224.693 539.969 228.419C539.191 229.245 538.382 230.105 537.518 230.997C536.78 231.758 536.1 232.532 535.392 233.341L535.351 233.387C534.669 234.166 533.951 234.985 533.189 235.767C531.61 237.388 529.764 238.937 527.225 240.048C526.723 240.267 526.224 240.485 525.727 240.702C514.903 245.426 505.5 249.529 498.143 258.358C494.949 262.191 491.184 265.265 487.635 268.164C487.477 268.292 487.321 268.42 487.164 268.548C483.417 271.611 479.926 274.523 477.08 278.159C472.269 284.307 466.747 289.371 461.273 294.237C460.241 295.154 458.66 295.061 457.743 294.029C456.826 292.997 456.919 291.417 457.951 290.5C463.415 285.642 468.635 280.837 473.143 275.077C476.378 270.943 480.289 267.709 484 264.676C484.117 264.581 484.233 264.486 484.349 264.392C487.992 261.415 491.422 258.613 494.302 255.157C502.438 245.394 512.857 240.855 523.449 236.24C524.039 235.982 524.63 235.725 525.221 235.467C526.967 234.703 528.295 233.626 529.607 232.279C530.276 231.592 530.92 230.858 531.632 230.045C532.331 229.248 533.09 228.381 533.928 227.517C534.679 226.742 535.415 225.957 536.15 225.173C539.689 221.399 543.226 217.625 548.545 214.87C561.127 208.355 574.348 203.648 587.451 198.983C593.164 196.949 598.855 194.923 604.461 192.758C604.944 192.572 605.429 192.385 605.914 192.198C613.697 189.2 621.642 186.14 628.253 181.733C630.836 180.01 633.364 178.209 635.928 176.382L636.412 176.037C639.131 174.101 641.894 172.141 644.742 170.276C646.431 169.171 648.087 167.97 649.808 166.721C650.544 166.188 651.291 165.645 652.058 165.098C654.563 163.311 657.211 161.524 659.994 160.132C661.229 159.515 662.73 160.015 663.348 161.25Z" fill="#C5B0A0"/>
<path fill-rule="evenodd" clip-rule="evenodd" d="M626.612 37.3683C627.992 37.3683 629.112 38.4876 629.112 39.8683C629.112 41.4253 628.724 42.8065 628.404 43.8902C628.37 44.0054 628.337 44.117 628.304 44.2254C628.008 45.2207 627.79 45.9541 627.71 46.7358C627.413 49.6108 627.263 52.7759 627.906 55.0486C628.362 56.66 628.974 58.1659 629.644 59.8142C629.765 60.1121 629.887 60.4147 630.012 60.7233C630.8 62.6833 631.617 64.8362 632.069 67.2396C632.747 70.8459 634.587 73.543 636.901 76.935C637.246 77.4403 637.602 77.961 637.965 78.5025C639.25 80.416 640.77 82.3898 642.398 84.5017L642.419 84.5292C644.022 86.6086 645.72 88.8107 647.275 91.0917C650.377 95.6439 653.126 100.807 653.495 106.541C653.771 110.807 652.21 114.824 650.741 118.315C650.569 118.724 650.398 119.126 650.23 119.521C648.882 122.694 647.702 125.471 647.373 128.297C646.816 133.068 646.823 137.696 646.83 142.451C646.833 144.566 646.837 146.705 646.79 148.894C646.643 155.866 645.974 163.032 642.913 170.235C640.77 175.277 637.747 179.841 630.643 185.345C629.551 186.19 627.981 185.991 627.135 184.899C626.29 183.808 626.489 182.237 627.581 181.392C634.032 176.395 636.513 172.51 638.311 168.279C641.001 161.95 641.649 155.536 641.792 148.788C641.833 146.839 641.83 144.833 641.827 142.789C641.821 137.9 641.814 132.792 642.406 127.717C642.826 124.122 644.315 120.635 645.629 117.56C645.801 117.158 645.969 116.763 646.132 116.376C647.624 112.83 648.696 109.816 648.506 106.863C648.224 102.489 646.094 98.2376 643.143 93.9077C641.678 91.7578 640.063 89.6615 638.438 87.5544L638.409 87.5169C636.813 85.4465 635.199 83.3518 633.814 81.2896C633.49 80.8078 633.157 80.3223 632.819 79.8304C630.53 76.4989 628.041 72.8775 627.155 68.1636C626.8 66.2764 626.146 64.51 625.373 62.5899C625.262 62.3135 625.147 62.0321 625.031 61.7461C624.363 60.1044 623.633 58.3102 623.095 56.4102C622.161 53.109 622.444 49.0581 622.736 46.223C622.868 44.9429 623.228 43.7451 623.509 42.8087C623.544 42.6925 623.577 42.5803 623.609 42.4725C623.924 41.4087 624.112 40.6372 624.112 39.8683C624.112 38.4876 625.231 37.3683 626.612 37.3683Z" fill="#C5B0A0"/>
<path fill-rule="evenodd" clip-rule="evenodd" d="M0.630897 26.5581C0.802153 25.188 2.05163 24.2162 3.42168 24.3875C8.67579 25.0443 13.7202 26.5851 18.5307 28.0545C18.8476 28.1513 19.1634 28.2478 19.4783 28.3436C24.6517 29.9195 29.5874 31.3519 34.7018 31.7652C36.2339 31.889 37.704 31.9391 39.2325 31.9912C40.0435 32.0189 40.871 32.0471 41.7329 32.0872C44.142 32.1992 46.6649 32.4024 49.2456 32.9851C54.8666 34.2544 60.5853 35.9349 66.0073 37.588C67.5157 38.0478 69.0561 38.4819 70.6145 38.9209C76.4098 40.5538 82.4529 42.2565 88.0155 45.6173C93.4042 48.8729 98.5855 52.2999 103.776 55.7603C106.527 57.5943 109.679 58.8814 113.111 60.2832C113.238 60.3351 113.365 60.3872 113.493 60.4395C116.977 61.8635 120.742 63.4301 124.026 65.8186C124.955 66.4937 125.943 67.0895 127.041 67.7521C127.139 67.8111 127.237 67.8705 127.337 67.9307C128.517 68.6436 129.813 69.4385 131.041 70.3994C131.809 71.0004 132.629 71.4353 133.637 71.9315C133.75 71.9872 133.867 72.0443 133.987 72.1028C134.884 72.541 135.952 73.063 136.998 73.7603C136.996 73.759 137.184 73.8654 137.725 74.0606C138.213 74.2366 138.836 74.4322 139.577 74.6519C140.099 74.8063 140.69 74.9756 141.316 75.1549C142.389 75.4617 143.563 75.7977 144.662 76.1387C146.421 76.6839 148.273 77.3248 149.719 78.0719C150.436 78.4421 151.191 78.9074 151.799 79.4991C152.395 80.0789 153.112 81.0437 153.112 82.3682C153.112 83.7489 151.992 84.8682 150.612 84.8682C149.441 84.8682 148.457 84.063 148.186 82.976C148.042 82.8656 147.799 82.7079 147.424 82.5142C146.396 81.9829 144.903 81.4483 143.181 80.9143C142.114 80.5834 141.067 80.2841 140.047 79.9925C139.406 79.8092 138.775 79.629 138.157 79.4459C137.391 79.219 136.656 78.9905 136.028 78.7639C135.453 78.5565 134.767 78.2819 134.225 77.9205C133.475 77.4205 132.718 77.0497 131.796 76.5977C131.676 76.539 131.554 76.479 131.428 76.4171C130.381 75.9016 129.162 75.2781 127.96 74.3369C126.996 73.5831 125.937 72.9266 124.752 72.2106C124.648 72.1477 124.542 72.0841 124.436 72.02C123.37 71.3774 122.198 70.6713 121.086 69.8622C118.361 67.8811 115.147 66.5168 111.602 65.0679C111.424 64.9952 111.245 64.9224 111.066 64.8492C107.763 63.5017 104.184 62.0417 101.003 59.9205C95.812 56.4601 90.7134 53.0889 85.4299 49.8969C80.5021 46.9196 75.3051 45.4502 69.6163 43.8417C67.9702 43.3763 66.283 42.8992 64.5492 42.3706C59.1426 40.7223 53.5732 39.0882 48.1443 37.8623C45.9894 37.3758 43.8083 37.1891 41.5007 37.0818C40.7695 37.0478 40.0061 37.0215 39.2242 36.9946C37.6211 36.9394 35.9402 36.8816 34.2991 36.7489C28.5779 36.2866 23.162 34.6925 18.0214 33.1267C17.7388 33.0406 17.4571 32.9547 17.1763 32.869C12.2691 31.3714 7.61177 29.9502 2.8015 29.3489C1.43145 29.1776 0.459641 27.9281 0.630897 26.5581ZM148.337 83.1087C148.337 83.1087 148.335 83.1062 148.331 83.1012C148.335 83.1062 148.337 83.1086 148.337 83.1087Z" fill="#C5B0A0"/>
<path fill-rule="evenodd" clip-rule="evenodd" d="M123.037 40.5231C121.726 40.0904 120.313 40.8026 119.88 42.1138C118.945 44.9485 117.011 47.5783 114.504 50.2452C113.26 51.5692 111.914 52.8616 110.525 54.1753C110.303 54.3853 110.08 54.5962 109.855 54.808C108.693 55.9051 107.507 57.0245 106.39 58.148C105.417 59.1273 105.422 60.7102 106.401 61.6836C107.38 62.6569 108.963 62.6521 109.936 61.6729C110.992 60.6112 112.109 59.5563 113.272 58.4588C113.5 58.2435 113.73 58.0265 113.962 57.8075C115.356 56.4882 116.794 55.1093 118.147 53.6698C120.836 50.8096 123.353 47.5432 124.628 43.6806C125.061 42.3694 124.349 40.9558 123.037 40.5231Z" fill="#C5B0A0"/>
<path d="M633.475 477.352C608.665 484.278 590.702 481.015 584.822 478.517C587.781 473.455 600.044 472.329 605.806 472.398C613.26 472.099 621.715 474.105 625.011 475.146C629.492 476.312 633.499 476.658 635.822 476.644L633.475 477.352Z" fill="#ADCF9F"/>
<path d="M502.385 468.847L518.369 476.786C515.211 481.266 510.699 483.338 507.412 483.581C495.55 484.457 480.137 476.096 473.914 471.807C469.795 468.968 464.384 465.825 461.584 464.601C473.068 460.299 491.031 464.138 502.385 468.847Z" fill="#FFDCAE"/>
<path d="M237.24 477.531C226.593 476.889 224.368 480.748 223.611 482.641C225.656 473.899 233.549 469.627 237.24 468.584C242.691 466.653 258.534 467.779 265.774 468.584C274.913 469.599 286.406 467.212 291.611 465.603C285.024 476.505 275.901 480.461 272.162 481.077C267.279 482.326 255.269 480.556 249.874 479.515L237.24 477.531Z" fill="#CC7351"/>
<path d="M145.539 418.57C140.852 422.503 132.282 423.981 128.583 424.228C122.399 424.642 120.962 431.485 120.371 431.579C118.156 424.024 121.422 415.129 123.331 411.626C129.289 401.588 138.827 398.671 142.355 398.564C146.937 398.425 154.359 396.408 157.497 395.417C160.635 394.426 166.203 392.015 168.386 390.585C162.7 405.303 150.785 415.374 145.539 418.57Z" fill="#CED89E"/>
<path d="M584.008 364.103C587.058 359.158 590.933 356.546 593.045 355.74C585.811 347.846 575.133 345.338 570.199 343.797C566.377 342.62 565.457 341.537 563.145 340.458C553.832 337.304 546.89 342.422 544.588 344.343C544.588 344.343 547.663 352.685 551.448 356.706C553.419 358.799 554.792 359.715 557.139 361.374C561.453 364.425 569.117 367.665 569.117 367.665C577.026 370.955 582.633 366.331 584.008 364.103Z" fill="#FFDCAE"/>
</svg>
