<svg width="107" height="96" viewBox="0 0 107 96" fill="none" xmlns="http://www.w3.org/2000/svg" xmlns:xlink="http://www.w3.org/1999/xlink" id="main">
<g id="Strings">
<path id="Vector 546" d="M1.6875 1.78876C3.1875 7.78876 9.9375 9.91376 17.0581 14.6369C18.3463 15.9251 19.5887 17.2925 20.9503 18.5028C22.4275 19.8159 22.9385 21.3861 24.264 22.7896C26.4589 25.1136 28.6918 26.4205 31.3122 28.2072C35.9758 31.3869 39.0562 36.9 41.3058 41.9616C42.6025 44.8793 45.1091 47.7001 48.375 48.7888" stroke="#4B413E" stroke-width="3" stroke-linecap="round"/>
<path id="Vector 547" d="M59.4375 48.7888C61.8925 48.516 66.3105 43.1578 68.0706 41.4368C69.9382 39.6107 72.0524 37.554 74.5706 36.7146C80.5826 34.7106 85.3905 30.598 90.3484 26.8257C95.5837 22.8423 102.062 19.4138 105.312 13.5388" stroke="#4B413E" stroke-width="3" stroke-linecap="round"/>
</g>
</svg>
