<svg width="725" height="37" viewBox="0 0 725 37" fill="none" xmlns="http://www.w3.org/2000/svg">
<path d="M1.41561e-07 36V35.8C0.8 35.25 1.35 34.3 1.35 33.3V3.7C1.35 2.65 0.8 1.75 1.41561e-07 1.2V0.999998H7.35V1.2C6.5 1.75 6 2.65 6 3.7V31.8H23.9C25 31.8 25.9 31.3 26.25 30.55H26.55L25.8 36H1.41561e-07ZM22.577 27.2C16.177 27.2 12.327 23.15 12.327 15.7V3.7C12.327 2.65 11.827 1.75 11.027 1.2V0.999998H18.377V1.2C17.577 1.75 17.027 2.65 17.027 3.7V15.65C17.027 20.35 18.877 22.95 22.627 22.95C26.327 22.95 28.177 20.35 28.177 15.65V3.7C28.177 2.65 27.677 1.75 26.827 1.2V0.999998H34.227V1.2C33.427 1.75 32.877 2.65 32.877 3.7V15.7C32.877 23.15 29.027 27.2 22.577 27.2ZM64.2035 1.2C63.4035 1.75 62.8535 2.65 62.8535 3.7V33.3C62.8535 34.3 63.4035 35.25 64.2035 35.8V36H56.8535V35.8C57.7035 35.25 58.2035 34.3 58.2035 33.3V33.25C58.2035 25.5 45.5535 18.7 43.3535 12.9V33.3C43.3535 34.3 43.8535 35.25 44.7035 35.8V36H37.3535V35.8C38.1535 35.25 38.7035 34.3 38.7035 33.3V3.7C38.7035 2.65 38.1535 1.75 37.3535 1.2V0.999998H44.7035V1.2C43.8535 1.75 43.3535 2.65 43.3535 3.7V3.75C43.3535 11.4 55.9035 17.9 58.2035 23.9V3.7C58.2035 2.65 57.7035 1.75 56.8535 1.2V0.999998H64.2035V1.2ZM93.5629 33.2C93.8629 34.45 94.6629 35.3 95.4129 35.8V36H88.0629V35.8C89.1629 35.25 89.4129 34.3 89.1129 33.2L87.3129 26.3H74.1629L72.4129 33.25C72.1629 34.3 72.3129 35.2 73.4129 35.8V36H66.0629V35.8C66.7129 35.3 67.6129 34.45 67.9129 33.2L75.5129 3.8C75.8129 2.7 75.5629 1.8 74.4629 1.2V0.999998H87.0129V1.2C86.0129 1.8 85.7129 2.7 86.0129 3.8L93.5629 33.2ZM75.2629 22.1H86.2629L81.9129 5.25H79.5629L75.2629 22.1ZM123.69 33.2C123.99 34.45 124.79 35.3 125.54 35.8V36H118.19V35.8C119.29 35.25 119.54 34.3 119.24 33.2L117.44 26.3H104.29L102.54 33.25C102.29 34.3 102.44 35.2 103.54 35.8V36H96.1898V35.8C96.8398 35.3 97.7398 34.45 98.0398 33.2L105.64 3.8C105.94 2.7 105.69 1.8 104.59 1.2V0.999998H117.14V1.2C116.14 1.8 115.84 2.7 116.14 3.8L123.69 33.2ZM105.39 22.1H116.39L112.04 5.25H109.69L105.39 22.1ZM139.543 0.999998C147.243 0.999998 152.093 5.05 152.093 11.65C152.093 18.3 147.093 22.35 139.693 22.35H133.393V33.3C133.393 34.3 133.893 35.25 134.743 35.8V36H127.393V35.8C128.193 35.25 128.743 34.3 128.743 33.3V3.7C128.743 2.65 128.193 1.75 127.393 1.2V0.999998H139.543ZM139.643 18.1C144.493 18.1 147.443 16.05 147.443 11.7C147.443 7.45 144.643 5.2 139.593 5.2H133.393V18.1H139.643ZM177.498 33.2C177.798 34.45 178.598 35.3 179.348 35.8V36H171.998V35.8C173.098 35.25 173.348 34.3 173.048 33.2L171.248 26.3H158.098L156.348 33.25C156.098 34.3 156.248 35.2 157.348 35.8V36H149.998V35.8C150.648 35.3 151.548 34.45 151.848 33.2L159.448 3.8C159.748 2.7 159.498 1.8 158.398 1.2V0.999998H170.948V1.2C169.948 1.8 169.648 2.7 169.948 3.8L177.498 33.2ZM159.198 22.1H170.198L165.848 5.25H163.498L159.198 22.1ZM207.651 1.2C206.851 1.75 206.301 2.65 206.301 3.7V33.3C206.301 34.3 206.851 35.25 207.651 35.8V36H200.301V35.8C201.151 35.25 201.651 34.3 201.651 33.3V21.1H187.201V33.3C187.201 34.3 187.701 35.25 188.551 35.8V36H181.201V35.8C182.001 35.25 182.551 34.3 182.551 33.3V3.7C182.551 2.65 182.001 1.75 181.201 1.2V0.999998H188.551V1.2C187.701 1.75 187.201 2.65 187.201 3.7V16.85H201.651V3.7C201.651 2.65 201.151 1.75 200.301 1.2V0.999998H207.651V1.2ZM246.02 31.15C246.22 31.15 246.47 31.4 246.47 32.1C246.47 34 243.72 37 239.52 37C228.87 37 228.47 20 222.47 17.75L217.67 23.05V33.3C217.67 34.3 218.17 35.25 219.02 35.8V36H211.67V35.8C212.47 35.25 213.02 34.3 213.02 33.3V3.7C213.02 2.65 212.47 1.75 211.67 1.2V0.999998H219.02V1.2C218.17 1.75 217.67 2.65 217.67 3.7V16.6L229.42 3.55C230.27 2.65 230.37 1.8 229.47 1.2V0.999998H237.92V1.2C237.32 1.45 236.12 2.55 235.22 3.55L225.52 14.3C232.22 17.8 232.57 33.1 240.52 33.1C243.32 33.1 245.37 31.15 246.02 31.15ZM240.137 26.35V26.15C240.937 25.55 241.487 24.65 241.487 23.6V3.7C241.487 2.65 240.937 1.75 240.137 1.2V0.999998H247.487V1.2C246.637 1.75 246.137 2.65 246.137 3.7V23.6C246.137 24.65 246.637 25.55 247.487 26.15V26.35H240.137ZM251.465 36V35.8C252.265 35.25 252.815 34.3 252.815 33.3V3.7C252.815 2.65 252.265 1.75 251.465 1.2V0.999998H258.815V1.2C257.965 1.75 257.465 2.65 257.465 3.7V33.3C257.465 34.3 257.965 35.25 258.815 35.8V36H251.465ZM289.643 1.2C288.843 1.75 288.293 2.65 288.293 3.7V33.3C288.293 34.3 288.843 35.25 289.643 35.8V36H282.293V35.8C283.143 35.25 283.643 34.3 283.643 33.3V33.25C283.643 25.5 270.993 18.7 268.793 12.9V33.3C268.793 34.3 269.293 35.25 270.143 35.8V36H262.793V35.8C263.593 35.25 264.143 34.3 264.143 33.3V3.7C264.143 2.65 263.593 1.75 262.793 1.2V0.999998H270.143V1.2C269.293 1.75 268.793 2.65 268.793 3.7V3.75C268.793 11.4 281.343 17.9 283.643 23.9V3.7C283.643 2.65 283.143 1.75 282.293 1.2V0.999998H289.643V1.2ZM323.958 19.2C323.158 19.8 322.608 20.7 322.608 21.7V30C322.608 31.15 323.108 31.9 323.808 32.15V32.35C320.808 34.75 316.708 37 311.108 37C300.408 37 292.458 29 292.458 18.4C292.458 8.1 300.108 -1.43051e-06 310.558 -1.43051e-06C316.158 -1.43051e-06 319.258 2.45 320.808 2.45C321.308 2.45 321.608 2.2 321.858 1.9H322.108V8.6H321.908C319.458 5.75 314.758 4.15 310.758 4.15C302.808 4.15 297.158 10.2 297.158 18.35C297.158 26.8 303.058 32.75 311.208 32.75C314.008 32.75 316.208 32.1 317.958 31.15V21.7C317.958 20.7 317.458 19.8 316.658 19.2V19H323.958V19.2ZM347.363 0.999998C354.763 0.999998 359.263 4.9 359.263 11.35C359.263 17.9 354.363 21.6 347.363 21.6H340.413V34.1C340.413 34.8 340.863 35.45 341.413 35.8V36H337.063V35.8C337.613 35.45 338.063 34.8 338.063 34.1V2.9C338.063 2.2 337.613 1.55 337.063 1.2V0.999998H347.363ZM347.363 19.35C353.213 19.35 356.863 16.85 356.863 11.4C356.863 6.15 353.513 3.25 347.213 3.25H340.413V19.35H347.363ZM394.169 33.05C394.319 33.05 394.469 33.15 394.469 33.35C394.469 34.4 392.069 36.65 388.519 36.65C378.419 36.65 376.669 20.5 369.769 20.5H365.169V34.1C365.169 34.8 365.619 35.45 366.169 35.8V36H361.819V35.8C362.369 35.45 362.819 34.8 362.819 34.1V2.9C362.819 2.2 362.369 1.55 361.819 1.2V0.999998H371.869C378.669 0.999998 383.319 4.95 383.319 10.75C383.319 15.85 379.819 19.5 374.419 20.35C379.169 24 382.219 34.75 389.269 34.75C392.069 34.75 393.569 33.05 394.169 33.05ZM365.169 18.25H371.819C377.469 18.25 380.969 15.35 380.969 10.75C380.969 6.2 377.469 3.25 372.169 3.25H365.169V18.25ZM387.356 27.8V27.6C387.906 27.25 388.356 26.6 388.356 25.9V2.9C388.356 2.2 387.906 1.55 387.356 1.2V0.999998H391.706V1.2C391.156 1.55 390.706 2.2 390.706 2.9V25.9C390.706 26.6 391.156 27.25 391.706 27.6V27.8H387.356ZM419.151 1.2C418.601 1.55 418.151 2.2 418.151 2.9V34.1C418.151 34.8 418.601 35.45 419.151 35.8V36H414.751V35.8C415.301 35.45 415.751 34.8 415.751 34.1V34C415.751 25.45 401.351 15.9 399.251 9.8V34.1C399.251 34.8 399.701 35.45 400.251 35.8V36H395.901V35.8C396.451 35.45 396.901 34.8 396.901 34.1V2.9C396.901 2.2 396.451 1.55 395.901 1.2V0.999998H400.251V1.2C399.701 1.55 399.251 2.2 399.251 2.9V3C399.251 11.7 413.501 20.65 415.751 26.9V2.9C415.751 2.2 415.301 1.55 414.751 1.2V0.999998H419.151V1.2ZM439.602 36.75C430.152 36.75 421.902 29.45 421.902 18.35C421.902 7.45 430.152 0.249998 439.652 0.249998C445.352 0.249998 448.202 2.85 449.202 2.85C449.452 2.85 449.602 2.7 449.702 2.5H450.052V6.7H449.702C448.702 5.05 444.852 2.5 439.652 2.5C431.852 2.5 424.352 8.1 424.352 18.2C424.352 27.75 430.702 34.5 439.852 34.5C448.452 34.5 451.502 29.55 452.302 29.55C452.452 29.55 452.502 29.65 452.502 29.85C452.502 31.4 447.852 36.75 439.602 36.75ZM478.193 32.8H478.443L477.943 36H454.543V35.8C455.093 35.45 455.543 34.8 455.543 34.1V2.9C455.543 2.2 455.093 1.55 454.543 1.2V0.999998H470.343L470.843 4.2H470.543C470.243 3.55 469.593 3.25 468.843 3.25H457.893V11.85H469.643C470.343 11.85 470.993 11.45 471.343 10.95H471.543V15H471.343C470.993 14.55 470.343 14.1 469.643 14.1H457.893V33.75H476.493C477.243 33.75 477.893 33.45 478.193 32.8ZM494.874 0.999998L495.374 4.2H495.124C494.874 3.55 494.224 3.25 493.424 3.25H485.724V34.1C485.724 34.8 486.174 35.45 486.724 35.8V36H482.324V35.8C482.874 35.45 483.324 34.8 483.324 34.1V3.25H475.674C474.924 3.25 474.274 3.55 473.974 4.2H473.674L474.174 0.999998H494.874ZM505.883 36.7C497.933 36.7 491.433 30 491.433 21.75C491.433 13.45 497.933 6.75 505.883 6.75C513.933 6.75 520.383 13.45 520.383 21.75C520.383 30 513.933 36.7 505.883 36.7ZM505.883 34.55C512.633 34.55 518.083 28.85 518.083 21.75C518.083 14.65 512.633 8.9 505.883 8.9C499.233 8.9 493.783 14.65 493.783 21.75C493.783 28.85 499.233 34.55 505.883 34.55ZM546.397 1.2C545.847 1.55 545.397 2.2 545.397 2.9V34.1C545.397 34.8 545.847 35.45 546.397 35.8V36H541.997V35.8C542.547 35.45 542.997 34.8 542.997 34.1V34C542.997 25.45 528.597 15.9 526.497 9.8V34.1C526.497 34.8 526.947 35.45 527.497 35.8V36H523.147V35.8C523.697 35.45 524.147 34.8 524.147 34.1V2.9C524.147 2.2 523.697 1.55 523.147 1.2V0.999998H527.497V1.2C526.947 1.55 526.497 2.2 526.497 2.9V3C526.497 11.7 540.747 20.65 542.997 26.9V2.9C542.997 2.2 542.547 1.55 541.997 1.2V0.999998H546.397V1.2ZM577.98 0.999998L578.48 4.2H578.23C577.98 3.55 577.33 3.25 576.53 3.25H568.83V34.1C568.83 34.8 569.28 35.45 569.83 35.8V36H565.43V35.8C565.98 35.45 566.43 34.8 566.43 34.1V3.25H558.78C558.03 3.25 557.38 3.55 557.08 4.2H556.78L557.28 0.999998H577.98ZM576.663 36V35.8C577.213 35.45 577.663 34.8 577.663 34.1V11.1C577.663 10.4 577.213 9.75 576.663 9.4V9.2H581.013V9.4C580.463 9.75 580.013 10.4 580.013 11.1V34.1C580.013 34.8 580.463 35.45 581.013 35.8V36H576.663ZM611.307 1.2C610.757 1.55 610.307 2.2 610.307 2.9V34.1C610.307 34.8 610.757 35.45 611.307 35.8V36H606.957V35.8C607.507 35.45 607.957 34.8 607.957 34.1V6.15L598.357 17.7H598.157L588.557 6.15V34.1C588.557 34.8 589.007 35.45 589.557 35.8V36H585.207V35.8C585.757 35.45 586.207 34.8 586.207 34.1V2.9C586.207 2.2 585.757 1.55 585.207 1.2V0.999998H589.757V1.2C588.807 1.75 588.757 2.65 589.257 3.3L598.257 14.15L607.257 3.3C607.807 2.65 607.707 1.7 606.757 1.2V0.999998H611.307V1.2ZM639.18 32.8H639.43L638.93 36H615.53V35.8C616.08 35.45 616.53 34.8 616.53 34.1V2.9C616.53 2.2 616.08 1.55 615.53 1.2V0.999998H631.33L631.83 4.2H631.53C631.23 3.55 630.58 3.25 629.83 3.25H618.88V11.85H630.63C631.33 11.85 631.98 11.45 632.33 10.95H632.53V15H632.33C631.98 14.55 631.33 14.1 630.63 14.1H618.88V33.75H637.48C638.23 33.75 638.88 33.45 639.18 32.8ZM655.861 0.999998L656.361 4.2H656.111C655.861 3.55 655.211 3.25 654.411 3.25H646.711V34.1C646.711 34.8 647.161 35.45 647.711 35.8V36H643.311V35.8C643.861 35.45 644.311 34.8 644.311 34.1V3.25H636.661C635.911 3.25 635.261 3.55 634.961 4.2H634.661L635.161 0.999998H655.861ZM682.409 35.15C682.909 35.15 683.109 35.3 683.109 35.6C683.109 36.1 682.209 36.5 680.909 36.5C672.959 36.5 672.009 20.5 666.359 20.5H661.409V34.1C661.409 34.8 661.859 35.45 662.409 35.8V36H658.059V35.8C658.609 35.45 659.059 34.8 659.059 34.1V2.9C659.059 2.2 658.609 1.55 658.059 1.2V0.999998H668.209C675.409 0.999998 679.559 4.65 679.559 10.5C679.559 15.95 675.909 19.5 670.359 20.2C674.309 22.65 675.859 35.15 682.409 35.15ZM661.409 18.25H668.209C673.709 18.25 677.209 15.45 677.209 10.5C677.209 5.85 674.159 3.25 668.159 3.25H661.409V18.25ZM702.783 32.8H703.033L702.533 36H684.133V35.8C684.683 35.45 685.133 34.8 685.133 34.1V2.9C685.133 2.2 684.683 1.55 684.133 1.2V0.999998H701.133L701.633 4.2H701.333C701.033 3.55 700.383 3.25 699.633 3.25H687.483V11.85H698.583C699.283 11.85 699.933 11.45 700.283 10.95H700.483V15H700.283C699.933 14.55 699.283 14.1 698.583 14.1H687.483V33.75H701.083C701.833 33.75 702.483 33.45 702.783 32.8ZM724.17 32.8H724.42L723.92 36H705.52V35.8C706.07 35.45 706.52 34.8 706.52 34.1V2.9C706.52 2.2 706.07 1.55 705.52 1.2V0.999998H722.52L723.02 4.2H722.72C722.42 3.55 721.77 3.25 721.02 3.25H708.87V11.85H719.97C720.67 11.85 721.32 11.45 721.67 10.95H721.87V15H721.67C721.32 14.55 720.67 14.1 719.97 14.1H708.87V33.75H722.47C723.22 33.75 723.87 33.45 724.17 32.8Z" fill="#FEFEFE"/>
</svg>
