<svg width="316" height="225" viewBox="0 0 316 225" fill="none" xmlns="http://www.w3.org/2000/svg">
<path fill-rule="evenodd" clip-rule="evenodd" d="M64.4222 37.1887C64.903 36.7679 65.6339 36.8166 66.0546 37.2975C69.5208 41.2588 73.5297 44.64 77.6199 48.0823L77.7013 48.1507C81.7434 51.5525 85.8622 55.0189 89.447 59.0957C90.6515 60.4655 91.7837 61.8069 92.8856 63.1124C97.3229 68.3694 101.269 73.0441 107.464 76.6497C109.181 77.6489 111.212 78.6768 113.419 79.7936C114.146 80.1615 114.892 80.539 115.652 80.9283C118.692 82.4855 121.918 84.2121 124.862 86.1919C130.699 90.1169 135.752 95.2523 135.752 102.381C135.752 103.019 135.234 103.537 134.595 103.537C133.957 103.537 133.439 103.019 133.439 102.381C133.439 96.4768 129.272 91.9452 123.571 88.1119C120.746 86.2125 117.623 84.5371 114.597 82.9876C113.867 82.6137 113.141 82.246 112.425 81.8838C110.2 80.7582 108.081 79.6859 106.3 78.6494C99.727 74.8239 95.4753 69.7802 91.0115 64.485C89.935 63.2079 88.8462 61.9163 87.7094 60.6235C84.2397 56.6776 80.233 53.3055 76.148 49.8676L76.1301 49.8525C72.061 46.428 67.9147 42.9369 64.3133 38.8211C63.8926 38.3402 63.9413 37.6094 64.4222 37.1887Z" fill="#C5B0A0"/>
<path fill-rule="evenodd" clip-rule="evenodd" d="M144.233 132.917C144.872 132.917 145.39 133.435 145.39 134.073C145.39 140.393 147.265 146.562 149.21 152.935L149.229 152.999C151.15 159.291 153.131 165.785 153.131 172.512C153.131 179.739 152.191 188.74 151.258 197.661L151.253 197.717C150.314 206.696 149.386 215.59 149.386 222.694C149.386 223.333 148.869 223.851 148.23 223.851C147.591 223.851 147.073 223.333 147.073 222.694C147.073 215.454 148.014 206.442 148.947 197.516L148.951 197.476C149.89 188.497 150.818 179.607 150.818 172.512C150.818 166.166 148.942 159.983 146.997 153.611L146.966 153.509C145.05 147.23 143.076 140.761 143.076 134.073C143.076 133.435 143.594 132.917 144.233 132.917Z" fill="#C5B0A0"/>
<path fill-rule="evenodd" clip-rule="evenodd" d="M209.559 133.975C209.999 134.437 209.981 135.17 209.519 135.61C208.434 136.643 207.344 138.245 206.256 140.235C205.176 142.211 204.138 144.493 203.134 146.833C202.653 147.953 202.177 149.094 201.708 150.221C200.248 153.723 198.848 157.085 197.534 159.235C194.832 163.661 193.836 169.02 193.836 173.736V193.67C193.836 196.908 193.039 200.064 192.288 203.033C191.523 206.055 190.81 208.879 190.81 211.679C190.81 213.49 191.162 215.309 191.544 217.233L191.568 217.352C191.934 219.199 192.323 221.155 192.323 223.099C192.323 223.738 191.805 224.256 191.166 224.256C190.527 224.256 190.009 223.738 190.009 223.099C190.009 221.385 189.659 219.619 189.276 217.69L189.275 217.683C188.9 215.794 188.496 213.754 188.496 211.679C188.496 208.588 189.271 205.525 190.009 202.605L190.045 202.466C190.807 199.45 191.523 196.573 191.523 193.67V173.736C191.523 168.739 192.57 162.925 195.56 158.03C196.772 156.045 198.066 152.94 199.503 149.494C199.988 148.332 200.488 147.131 201.007 145.921C202.02 143.562 203.092 141.199 204.226 139.125C205.352 137.066 206.578 135.216 207.923 133.935C208.386 133.494 209.118 133.512 209.559 133.975Z" fill="#C5B0A0"/>
<path fill-rule="evenodd" clip-rule="evenodd" d="M74.2802 88.2461C74.3215 88.3434 74.3986 88.4911 74.5382 88.632C74.7361 88.8318 75.044 88.9968 75.4222 88.9844C75.7502 88.9736 75.9825 88.8327 76.0937 88.7521C76.3015 88.6016 76.4262 88.4113 76.4733 88.3384C76.5966 88.1475 76.7235 87.8852 76.8569 87.584C78.1409 84.6853 78.3346 80.9537 77.7136 77.7043C77.5937 77.0767 76.9878 76.6652 76.3602 76.7852C75.7326 76.9051 75.3211 77.5111 75.4411 78.1386C75.9026 80.5536 75.838 83.1891 75.2045 85.3676C75.0867 85.3598 74.9752 85.3689 74.8738 85.3884C74.5741 85.4462 74.3559 85.5959 74.2322 85.6948C73.9832 85.8939 73.7641 86.1778 73.5688 86.4653C73.2098 86.9939 73.3473 87.7133 73.8758 88.0723C74.0022 88.1582 74.1395 88.2156 74.2802 88.2461ZM74.1442 86.9642C74.1442 86.9642 74.1445 86.9653 74.1448 86.9677C74.1444 86.9654 74.1442 86.9642 74.1442 86.9642Z" fill="#C5B0A0"/>
<path fill-rule="evenodd" clip-rule="evenodd" d="M302.001 60.794C302.355 61.3256 302.212 62.0438 301.68 62.3982C300.398 63.253 299.379 64.0149 298.502 65.1358C297.811 66.0188 297.403 67.077 297.077 68.2951C296.933 68.8323 296.811 69.3783 296.682 69.9494C296.665 70.0277 296.647 70.1065 296.629 70.1859C296.484 70.8324 296.327 71.5082 296.13 72.1715C295.468 74.4035 294.41 76.4693 293.407 78.4278C293.187 78.8583 292.969 79.2836 292.759 79.7044C291.827 81.5678 290.481 83.2042 288.969 84.604C288.277 85.2451 287.233 85.9337 286.202 86.5726C285.692 86.8887 285.164 87.2054 284.656 87.5097L284.607 87.5391C284.081 87.8546 283.58 88.1555 283.128 88.4381C282.586 88.7767 281.872 88.612 281.534 88.0702C281.195 87.5284 281.36 86.8147 281.902 86.476C282.375 86.1802 282.895 85.8682 283.417 85.5548L283.461 85.5289C283.973 85.2219 284.488 84.9129 284.983 84.606C286.024 83.9611 286.889 83.3772 287.397 82.9063C288.759 81.6456 289.911 80.2255 290.689 78.6697C290.921 78.2055 291.154 77.7508 291.383 77.3023C292.379 75.3538 293.317 73.5201 293.912 71.5133C294.085 70.9318 294.227 70.3234 294.372 69.6774C294.389 69.6004 294.407 69.5227 294.424 69.4445C294.552 68.8781 294.685 68.2829 294.842 67.6967C295.2 66.3588 295.708 64.9519 296.68 63.7098C297.793 62.2874 299.067 61.3595 300.397 60.4731C300.928 60.1187 301.647 60.2623 302.001 60.794Z" fill="#C5B0A0"/>
<path fill-rule="evenodd" clip-rule="evenodd" d="M292.926 80.5159C292.926 79.877 293.444 79.359 294.083 79.359C296.755 79.359 299.49 80.7519 301.833 82.3662C304.209 84.0039 306.369 86.0033 307.903 87.4527C308.056 87.5972 308.206 87.7398 308.355 87.8802C310.418 89.8375 312.045 91.3814 314.52 92C315.14 92.155 315.517 92.7831 315.362 93.4029C315.207 94.0228 314.579 94.3996 313.959 94.2447C310.868 93.472 308.811 91.5124 306.831 89.6257C306.659 89.4612 306.487 89.2973 306.314 89.1348C304.783 87.6882 302.736 85.7987 300.52 84.2714C298.27 82.7208 296.025 81.6727 294.083 81.6727C293.444 81.6727 292.926 81.1548 292.926 80.5159Z" fill="#C5B0A0"/>
<path fill-rule="evenodd" clip-rule="evenodd" d="M57.5142 81.1817C57.1945 80.706 56.5636 80.5304 56.0373 80.7935C55.4659 81.0793 55.2342 81.7742 55.52 82.3456C55.7565 82.8187 56.1553 83.0878 56.4573 83.2402C56.7679 83.3971 57.1022 83.4936 57.3807 83.5595C57.6482 83.6227 57.9205 83.6699 58.1362 83.7073C58.1487 83.7094 58.1611 83.7116 58.1733 83.7137C58.4236 83.7571 58.5612 83.7833 58.6411 83.8065C59.9691 84.192 61.3864 84.447 62.7237 84.6877C63.2752 84.7869 63.8131 84.8837 64.3256 84.9862C69.3851 85.9981 74.7221 88.3172 78.5549 91.6709C80.1885 93.1003 81.6928 94.5903 83.2319 96.1146C83.9651 96.8409 84.7063 97.575 85.4731 98.3141C86.8924 99.6821 88.5964 100.734 90.3077 101.63C91.3469 102.174 92.4551 102.693 93.5119 103.188C94.1559 103.489 94.7808 103.782 95.3593 104.066C96.0865 104.423 96.794 104.81 97.5329 105.214C97.9732 105.455 98.4247 105.703 98.8981 105.953C100.124 106.601 101.43 107.233 102.793 107.646C104.005 108.013 105.202 108.463 106.435 108.932C106.521 108.964 106.607 108.997 106.693 109.03C107.834 109.464 109.009 109.911 110.204 110.295C112.818 111.136 114.956 112.413 117.083 114.202C117.6 114.636 118.095 115.105 118.619 115.603C118.697 115.677 118.776 115.751 118.855 115.826C119.456 116.395 120.098 116.992 120.793 117.529C123.638 119.727 127.291 121.587 130.663 122.711C132.423 123.298 133.939 124.08 135.616 125.038C136.833 125.734 137.776 126.693 138.866 127.802C139.079 128.019 139.298 128.242 139.526 128.47C140.32 129.264 141.178 130.42 141.833 131.674C142.496 132.943 142.891 134.2 142.891 135.211C142.891 135.85 143.409 136.368 144.048 136.368C144.687 136.368 145.205 135.85 145.205 135.211C145.205 133.675 144.631 132.035 143.884 130.603C143.128 129.156 142.134 127.806 141.162 126.834C140.968 126.641 140.772 126.44 140.572 126.236C139.486 125.126 138.285 123.898 136.764 123.029C135.039 122.043 133.369 121.174 131.395 120.516C128.24 119.464 124.823 117.72 122.208 115.698C121.613 115.239 121.045 114.713 120.445 114.146C120.37 114.074 120.293 114.002 120.216 113.929C119.696 113.435 119.147 112.913 118.573 112.431C116.257 110.484 113.86 109.04 110.912 108.093C109.777 107.728 108.657 107.302 107.504 106.863C107.422 106.832 107.34 106.8 107.258 106.769C106.029 106.301 104.762 105.825 103.463 105.432C102.318 105.085 101.169 104.537 99.98 103.908C99.571 103.691 99.1471 103.46 98.717 103.224C97.9405 102.8 97.1439 102.364 96.3786 101.989C95.7138 101.662 95.0568 101.355 94.4028 101.05C93.3941 100.578 92.3927 100.11 91.3813 99.5806C89.7531 98.7277 88.2694 97.7958 87.0788 96.6482C86.3608 95.9562 85.6449 95.2473 84.9239 94.5333C83.3569 92.9816 81.7659 91.4061 80.0785 89.9297C75.8801 86.256 70.1471 83.7909 64.7793 82.7174C64.1698 82.5955 63.5771 82.489 62.9967 82.3847C61.7148 82.1544 60.4934 81.935 59.2862 81.5845C59.0635 81.5198 58.7946 81.4732 58.5872 81.4372C58.5811 81.4362 58.575 81.4351 58.569 81.4341L58.5533 81.4314C58.3208 81.391 58.1105 81.3545 57.9129 81.3078C57.7189 81.262 57.5906 81.218 57.5142 81.1817ZM57.4737 81.1604C57.4696 81.1579 57.4677 81.1565 57.4679 81.1564C57.468 81.1564 57.4701 81.1577 57.4737 81.1604Z" fill="#C5B0A0"/>
<path fill-rule="evenodd" clip-rule="evenodd" d="M89.3456 101.22C89.6796 101.222 90.0119 101.224 90.3426 101.224C90.8634 101.224 92.1736 101.302 93.3754 101.46C93.9748 101.538 94.5948 101.642 95.0943 101.78C95.3385 101.847 95.6082 101.937 95.8457 102.062C96.0049 102.147 96.5076 102.424 96.6579 103.025C96.8129 103.645 96.436 104.273 95.8162 104.428C95.3807 104.537 94.9411 104.384 94.6644 104.068C94.6195 104.052 94.5589 104.032 94.4799 104.011C94.1347 103.916 93.6388 103.828 93.0747 103.754C91.9496 103.606 90.7421 103.537 90.3426 103.537C90.0016 103.537 89.6656 103.536 89.334 103.535C86.7094 103.524 84.3619 103.515 81.9665 104.188C81.73 104.255 81.495 104.321 81.2613 104.387C77.1686 105.541 73.4765 106.582 69.0108 107.003C61.5431 107.707 54.0533 107.204 46.7344 105.831C46.1064 105.714 45.6928 105.109 45.8105 104.481C45.9283 103.853 46.5328 103.439 47.1608 103.557C54.3011 104.896 61.5723 105.381 68.7935 104.699C73.0448 104.298 76.5516 103.31 80.6819 102.146C80.8995 102.085 81.1188 102.023 81.3401 101.961C84.0686 101.194 86.7549 101.207 89.3456 101.22ZM94.7642 104.108C94.7937 104.124 94.7846 104.123 94.7543 104.103C94.7585 104.105 94.7618 104.107 94.7642 104.108Z" fill="#C5B0A0"/>
<path fill-rule="evenodd" clip-rule="evenodd" d="M226.18 122.014C225.336 122.036 224.487 122.058 223.633 122.058C222.995 122.058 222.477 121.54 222.477 120.901C222.477 120.262 222.995 119.744 223.633 119.744C224.36 119.744 225.138 119.724 225.944 119.704C227.804 119.656 229.814 119.605 231.694 119.785C234.445 120.048 237.218 120.819 239.362 122.962C241.651 125.251 243.72 126.459 246.746 127.697C249.239 128.717 251.644 129.858 254.01 130.981C254.59 131.257 255.168 131.531 255.744 131.802C258.688 133.187 261.614 134.501 264.721 135.537C265.327 135.739 265.654 136.394 265.452 137C265.25 137.606 264.595 137.934 263.989 137.732C260.746 136.651 257.718 135.288 254.759 133.896C254.167 133.617 253.579 133.338 252.992 133.06C250.631 131.939 248.299 130.832 245.87 129.839C242.639 128.517 240.285 127.158 237.726 124.598C236.125 122.997 233.975 122.328 231.473 122.088C229.735 121.921 227.969 121.967 226.18 122.014Z" fill="#C5B0A0"/>
<path fill-rule="evenodd" clip-rule="evenodd" d="M274.43 63.6071C274.632 64.2132 274.305 64.8684 273.698 65.0704C269.489 66.4736 265.719 67.9907 262.946 71.1841C261.901 72.388 261.064 73.6105 260.198 74.8749C259.757 75.5204 259.307 76.1768 258.819 76.8472C257.415 78.7746 255.787 80.6543 253.355 82.0905C250.209 83.9483 246.845 85.2955 243.503 86.5215C242.654 86.8332 241.809 87.1361 240.968 87.4372C238.474 88.3313 236.024 89.2095 233.64 90.2523C228.948 92.3051 225.168 95.2643 221.501 98.9311C220.693 99.7384 219.796 100.534 218.931 101.301C218.428 101.747 217.935 102.184 217.477 102.608C216.182 103.808 215.029 105.018 214.162 106.431C213.719 107.152 213.295 107.88 212.871 108.607C211.377 111.172 209.881 113.739 207.541 116.078C204.387 119.232 200.042 122.157 196.133 124.226C195.568 124.525 194.868 124.31 194.569 123.745C194.27 123.181 194.486 122.481 195.051 122.182C198.826 120.183 202.962 117.386 205.905 114.442C208.013 112.335 209.317 110.101 210.784 107.588C211.228 106.826 211.688 106.038 212.19 105.22C213.222 103.539 214.556 102.16 215.905 100.91C216.446 100.409 216.972 99.9437 217.487 99.4883C218.305 98.7643 219.093 98.0663 219.865 97.295C223.658 93.5022 227.672 90.3382 232.713 88.1325C235.176 87.0552 237.732 86.139 240.246 85.2382C241.072 84.942 241.894 84.6475 242.706 84.3494C246.019 83.1339 249.22 81.8448 252.178 80.0983C254.219 78.8932 255.626 77.3006 256.949 75.485C257.355 74.9266 257.765 74.3286 258.189 73.7113C259.099 72.384 260.069 70.968 261.199 69.6671C264.421 65.957 268.742 64.2837 272.967 62.8754C273.573 62.6734 274.228 63.0009 274.43 63.6071Z" fill="#C5B0A0"/>
<path fill-rule="evenodd" clip-rule="evenodd" d="M174.577 29.4026C175.202 29.2701 175.816 29.6693 175.948 30.2943C176.364 32.254 176.969 34.1062 177.601 35.9497C177.688 36.2031 177.776 36.4569 177.864 36.711C178.407 38.2859 178.955 39.874 179.367 41.465C180.34 45.2203 180.591 49.1219 178.454 53.5787C175.652 59.4228 173 64.8063 167.801 69.8215C164.384 73.1169 162.65 76.516 162.031 80.0504C161.408 83.6098 161.9 87.4017 163.102 91.4944C163.379 92.4379 163.698 93.3523 164.028 94.2726C164.089 94.4451 164.152 94.6183 164.214 94.7921C164.483 95.5363 164.755 96.291 165.002 97.046C165.615 98.9189 166.108 100.889 166.108 103.078V111.694C166.108 113.643 166.37 115.267 167.14 116.462C167.865 117.589 169.161 118.513 171.667 118.816C172.301 118.893 172.753 119.469 172.677 120.104C172.6 120.738 172.024 121.19 171.389 121.113C168.368 120.748 166.375 119.549 165.194 117.714C164.057 115.947 163.794 113.77 163.794 111.694V103.078C163.794 101.241 163.382 99.5372 162.803 97.7656C162.567 97.0463 162.31 96.3315 162.042 95.5897C161.979 95.4126 161.914 95.234 161.85 95.0534C161.517 94.1254 161.179 93.1581 160.882 92.1462C159.625 87.8661 159.045 83.6905 159.752 79.6515C160.464 75.5875 162.461 71.7573 166.194 68.1562C171.063 63.4599 173.565 58.4251 176.368 52.5785C178.196 48.7654 178.012 45.4613 177.127 42.045C176.74 40.5498 176.225 39.058 175.68 37.4773C175.592 37.2207 175.502 36.9618 175.413 36.7001C174.777 34.8463 174.132 32.881 173.685 30.7743C173.552 30.1492 173.952 29.5351 174.577 29.4026Z" fill="#C5B0A0"/>
<path fill-rule="evenodd" clip-rule="evenodd" d="M224.888 36.9113C225.522 36.9906 225.972 37.5688 225.892 38.2028C225.743 39.3947 225.762 40.6193 225.808 41.9293C225.814 42.1049 225.82 42.2823 225.827 42.4615C225.869 43.5927 225.913 44.7905 225.848 45.9883C225.644 49.7653 224.117 52.8075 222.626 55.7787C222.232 56.5647 221.84 57.3457 221.476 58.134C219.155 63.1556 219.042 68.1737 220.096 73.6786C220.387 75.1944 220.729 76.6109 221.075 78.04C221.292 78.939 221.51 79.843 221.718 80.7799C222.243 83.153 222.662 85.6013 222.662 88.2669V94.9767C222.662 95.6156 222.144 96.1335 221.505 96.1335C220.866 96.1335 220.348 95.6156 220.348 94.9767V88.2669C220.348 85.8439 219.969 83.5825 219.459 81.2802C219.272 80.4372 219.062 79.568 218.848 78.6799C218.491 77.1988 218.121 75.6654 217.824 74.1137C216.711 68.3032 216.79 62.7584 219.375 57.1634C219.807 56.2292 220.243 55.3563 220.663 54.5169C222.113 51.6153 223.362 49.1142 223.538 45.8635C223.597 44.7792 223.557 43.6975 223.515 42.5598C223.508 42.3778 223.502 42.1944 223.495 42.0092C223.45 40.693 223.423 39.3069 223.597 37.9158C223.676 37.2818 224.254 36.8321 224.888 36.9113Z" fill="#C5B0A0"/>
<path fill-rule="evenodd" clip-rule="evenodd" d="M147.462 41.0726C147.843 40.5592 148.567 40.4513 149.081 40.8316C149.407 41.0731 149.744 41.3209 150.09 41.5753C152.321 43.2154 154.916 45.1232 157.208 47.2952C159.855 49.8024 162.219 52.7696 163.184 56.2609C163.685 58.0761 163.707 59.9791 163.715 61.7271C163.716 61.7873 163.716 61.8473 163.716 61.9071C163.725 63.6387 163.732 65.2246 164.071 66.7259C164.655 69.3096 164.642 72.6364 164.322 75.1965C164.234 75.9016 163.952 76.4494 163.765 76.8112C163.744 76.852 163.724 76.8904 163.706 76.9264C163.522 77.2917 163.431 77.5222 163.431 77.8552C163.431 78.4941 162.913 79.0121 162.274 79.0121C161.635 79.0121 161.117 78.4941 161.117 77.8552C161.117 76.9696 161.409 76.3433 161.64 75.8842C161.658 75.8499 161.674 75.8171 161.69 75.7855C161.893 75.3854 161.991 75.1913 162.026 74.9095C162.325 72.5189 162.321 69.4776 161.814 67.2355C161.418 65.4808 161.41 63.6639 161.403 62.0031C161.403 61.9145 161.402 61.8264 161.402 61.7387C161.393 59.9537 161.361 58.3516 160.954 56.8771C160.153 53.9783 158.138 51.3631 155.617 48.9748C153.438 46.9103 150.971 45.096 148.733 43.45C148.384 43.1929 148.04 42.94 147.703 42.6908C147.19 42.3105 147.082 41.5861 147.462 41.0726Z" fill="#C5B0A0"/>
<path fill-rule="evenodd" clip-rule="evenodd" d="M108.97 12.0942C109.606 12.0273 110.175 12.4881 110.242 13.1236C110.72 17.6672 111.123 22.5267 110.469 27.2347C110.388 27.8171 110.279 28.4175 110.176 28.9868C110.123 29.2791 110.072 29.5631 110.026 29.8322C109.887 30.6617 109.786 31.4404 109.786 32.2171C109.786 32.856 109.268 33.374 108.629 33.374C107.99 33.374 107.472 32.856 107.472 32.2171C107.472 31.2477 107.598 30.3201 107.745 29.4475C107.8 29.1184 107.857 28.8069 107.912 28.5031C108.009 27.968 108.102 27.4569 108.177 26.9164C108.788 22.5161 108.419 17.9081 107.941 13.3658C107.874 12.7304 108.335 12.161 108.97 12.0942Z" fill="#C5B0A0"/>
<path fill-rule="evenodd" clip-rule="evenodd" d="M15.5266 0.514785C16.1336 0.31514 16.7874 0.645302 16.9871 1.25222C18.6931 6.43854 18.6918 11.347 18.6904 16.4483C18.6903 16.5934 18.6903 16.7388 18.6903 16.8842C18.6903 17.5231 18.1724 18.0411 17.5334 18.0411C16.8945 18.0411 16.3766 17.5231 16.3766 16.8842C16.3766 16.7822 16.3766 16.6804 16.3766 16.5789C16.3772 11.3837 16.3777 6.80437 14.7892 1.9752C14.5896 1.36828 14.9197 0.71443 15.5266 0.514785Z" fill="#C5B0A0"/>
<path fill-rule="evenodd" clip-rule="evenodd" d="M29.1139 33.8448C29.167 33.2081 29.7261 32.7349 30.3629 32.788C31.1562 32.8541 31.9432 32.9232 32.7251 32.9918C37.396 33.4016 41.8886 33.7958 46.5063 33.4555C47.4622 33.3851 48.4545 33.2855 49.4642 33.1841C51.2111 33.0088 53.0102 32.8282 54.7633 32.7844C55.402 32.7684 55.9327 33.2732 55.9487 33.9119C55.9646 34.5507 55.4598 35.0814 54.8211 35.0974C53.1335 35.1395 51.5136 35.3035 49.8447 35.4724C48.8163 35.5765 47.7693 35.6825 46.6763 35.763C41.8569 36.1181 37.1573 35.7047 32.4946 35.2946C31.7191 35.2263 30.9446 35.1582 30.1707 35.0937C29.534 35.0407 29.0609 34.4815 29.1139 33.8448Z" fill="#C5B0A0"/>
<path fill-rule="evenodd" clip-rule="evenodd" d="M246.458 87.5712C244.655 87.6863 242.808 87.8042 240.941 87.8042C240.302 87.8042 239.784 87.2862 239.784 86.6473C239.784 86.0084 240.302 85.4905 240.941 85.4905C242.727 85.4905 244.504 85.3775 246.323 85.2614L246.346 85.2599C248.145 85.1451 249.985 85.0277 251.841 85.0277C253.868 85.0277 255.822 85.3897 257.663 85.7304L257.72 85.7412C259.611 86.0912 261.386 86.4159 263.204 86.4159C265.001 86.4159 266.817 86.3653 268.648 86.3143C272.364 86.2107 276.135 86.1056 279.907 86.4199C280.544 86.473 281.017 87.0322 280.964 87.6689C280.911 88.3056 280.352 88.7787 279.715 88.7257C276.066 88.4216 272.524 88.5215 268.888 88.624C267.027 88.6765 265.141 88.7297 263.204 88.7297C261.152 88.7297 259.182 88.3649 257.334 88.0226L257.299 88.0162C255.407 87.6659 253.641 87.3414 251.841 87.3414C250.063 87.3414 248.289 87.4544 246.47 87.5704L246.458 87.5712Z" fill="#C5B0A0"/>
<path fill-rule="evenodd" clip-rule="evenodd" d="M248.345 65.5925C248.728 66.1036 248.624 66.8288 248.113 67.2121C243.471 70.6938 238.243 70.9509 233.292 70.9739C232.837 70.976 232.385 70.9763 231.935 70.9766C227.395 70.9793 223.15 70.9818 219.234 72.8805C218.659 73.1592 217.967 72.9192 217.688 72.3442C217.409 71.7693 217.649 71.0773 218.224 70.7986C222.646 68.6546 227.434 68.6583 231.89 68.6616C232.358 68.662 232.822 68.6624 233.282 68.6602C238.224 68.6373 242.745 68.3458 246.725 65.3611C247.236 64.9778 247.961 65.0814 248.345 65.5925Z" fill="#C5B0A0"/>
<path fill-rule="evenodd" clip-rule="evenodd" d="M231.917 89.4238C231.917 88.7848 232.435 88.2669 233.074 88.2669C233.918 88.2669 234.605 88.6492 235.121 89.116C235.629 89.575 236.03 90.165 236.346 90.7361C236.945 91.8197 237.36 93.0678 237.605 93.8068C237.618 93.8449 237.63 93.8815 237.642 93.9167C238.414 96.2322 239.962 98.0574 242.001 99.6089C243.262 100.568 244.832 101.323 246.548 102.069C246.921 102.231 247.303 102.393 247.689 102.557C249.032 103.127 250.426 103.72 251.673 104.398C253.512 105.397 254.287 105.879 254.96 106.537C255.209 106.781 255.446 107.052 255.704 107.346C255.768 107.419 255.834 107.494 255.901 107.571C256.253 107.969 256.717 108.481 257.433 109.198C257.885 109.65 257.885 110.382 257.433 110.834C256.981 111.286 256.249 111.286 255.797 110.834C255.04 110.076 254.542 109.528 254.166 109.102C254.079 109.002 254.001 108.913 253.929 108.832C253.683 108.551 253.522 108.367 253.342 108.191C252.931 107.789 252.433 107.444 250.569 106.431C249.429 105.811 248.175 105.278 246.852 104.716C246.45 104.545 246.041 104.371 245.626 104.191C243.896 103.439 242.101 102.592 240.6 101.45C238.315 99.7115 236.409 97.533 235.447 94.6484C235.439 94.6252 235.431 94.6016 235.424 94.5778C235.17 93.8159 234.814 92.7468 234.321 91.856C234.068 91.3981 233.812 91.052 233.569 90.8321C233.334 90.62 233.176 90.5806 233.074 90.5806C232.435 90.5806 231.917 90.0627 231.917 89.4238Z" fill="#C5B0A0"/>
<path fill-rule="evenodd" clip-rule="evenodd" d="M87.4949 46.0312C87.9193 45.5537 88.6506 45.5107 89.1281 45.9352C89.2967 46.085 89.4685 46.2363 89.6423 46.3892C90.9479 47.5384 92.3602 48.7814 93.302 50.2349C94.4372 51.987 94.9105 54.0543 94.0904 56.6591C93.993 56.9684 93.7925 57.5443 93.5004 58.0754C93.3552 58.3395 93.1619 58.6398 92.9127 58.8959C92.6724 59.143 92.2824 59.4488 91.7422 59.5163C91.1082 59.5956 90.53 59.1459 90.4508 58.5119C90.3792 57.9389 90.7397 57.4114 91.2778 57.2568C91.3262 57.2005 91.394 57.1042 91.4731 56.9603C91.6576 56.625 91.8043 56.2159 91.8835 55.9644C92.4839 54.0572 92.1436 52.7021 91.3602 51.493C90.6046 50.3268 89.4543 49.311 88.1114 48.1251C87.9409 47.9745 87.7672 47.8212 87.5909 47.6645C87.1134 47.24 87.0704 46.5088 87.4949 46.0312ZM91.234 57.3015C91.234 57.3013 91.2361 57.2995 91.2402 57.2964C91.2361 57.3001 91.234 57.3016 91.234 57.3015Z" fill="#C5B0A0"/>
<path fill-rule="evenodd" clip-rule="evenodd" d="M181.702 79.5683C182.29 79.82 182.562 80.5001 182.31 81.0874C181.426 83.149 179.591 84.746 177.802 86.0787C177.169 86.5506 176.505 87.0141 175.868 87.4592C175.598 87.6481 175.332 87.8338 175.075 88.0153C174.195 88.6384 173.399 89.2276 172.74 89.8209C170.916 91.4621 168.902 93.006 166.852 94.3437C166.853 94.3432 166.853 94.343 166.853 94.343C166.854 94.3436 166.82 94.3692 166.734 94.4433C166.639 94.524 166.52 94.6284 166.377 94.7542L166.366 94.7639C166.077 95.018 165.706 95.344 165.34 95.6437C164.989 95.9303 164.58 96.2461 164.221 96.4446C164.075 96.5254 163.769 96.6865 163.409 96.7075C163.204 96.7195 162.862 96.6923 162.543 96.4481C162.21 96.1936 162.09 95.848 162.054 95.603C161.964 94.9705 162.404 94.3845 163.036 94.2942C163.128 94.281 163.22 94.2791 163.309 94.2874C163.46 94.1824 163.652 94.0354 163.875 93.8526C164.205 93.5831 164.546 93.2838 164.839 93.0262L164.857 93.0098C164.994 92.89 165.123 92.7766 165.229 92.6857C165.318 92.6098 165.456 92.4918 165.576 92.4138C167.532 91.1382 169.456 89.664 171.192 88.1011C171.959 87.4115 172.848 86.757 173.739 86.1264C174.02 85.928 174.299 85.733 174.576 85.5391C175.2 85.1034 175.816 84.6733 176.42 84.2232C178.182 82.9105 179.562 81.6258 180.183 80.1759C180.435 79.5887 181.115 79.3166 181.702 79.5683ZM163.05 94.4456C163.05 94.4453 163.056 94.4425 163.066 94.4384C163.055 94.444 163.05 94.446 163.05 94.4456Z" fill="#C5B0A0"/>
<path fill-rule="evenodd" clip-rule="evenodd" d="M205.083 94.7677C205.709 94.6424 206.319 95.0488 206.444 95.6753C207.552 101.218 208.727 107.363 207.363 113.333C207.097 114.495 206.929 115.235 206.929 116.263C206.929 116.902 206.411 117.42 205.772 117.42C205.133 117.42 204.615 116.902 204.615 116.263C204.615 114.968 204.836 114.005 205.091 112.887L205.107 112.817C206.345 107.404 205.297 101.74 204.175 96.129C204.05 95.5025 204.456 94.893 205.083 94.7677Z" fill="#C5B0A0"/>
<path fill-rule="evenodd" clip-rule="evenodd" d="M217.795 25.7884C218.247 25.3366 218.98 25.3366 219.431 25.7884C221.768 28.1252 224.135 30.8209 225.322 34.213C225.386 34.3953 225.456 34.7272 225.512 35.0335C225.574 35.3756 225.64 35.8019 225.681 36.2244C225.721 36.6287 225.746 37.1022 225.697 37.5068C225.675 37.6969 225.624 37.9835 225.477 38.2552C225.311 38.56 224.927 38.9848 224.282 38.9848C223.643 38.9848 223.125 38.4668 223.125 37.8279C223.125 37.5369 223.232 37.271 223.41 37.0677C223.413 36.9135 223.403 36.7036 223.378 36.4492C223.345 36.1053 223.29 35.7443 223.236 35.4489C223.19 35.1969 223.154 35.0465 223.142 34.9957C223.139 34.9798 223.137 34.9736 223.139 34.9773C222.134 32.106 220.09 29.7193 217.795 27.4244C217.343 26.9726 217.343 26.2401 217.795 25.7884ZM223.393 37.2748C223.393 37.2747 223.394 37.2721 223.395 37.2672C223.394 37.2725 223.393 37.2749 223.393 37.2748Z" fill="#C5B0A0"/>
<path fill-rule="evenodd" clip-rule="evenodd" d="M232.259 28.1686C232.152 28.2634 232.041 28.3612 231.925 28.4621C231.648 28.7036 231.39 28.9186 231.143 29.1244C230.744 29.4572 230.374 29.7657 229.998 30.1226C229.428 30.6642 228.979 31.2034 228.679 31.8257C228.327 32.5568 227.795 33.2971 227.334 33.9395C227.181 34.1521 227.036 34.354 226.908 34.5412C226.333 35.3811 225.967 36.0794 225.896 36.7862C225.832 37.4219 225.265 37.8857 224.63 37.8222C223.994 37.7586 223.53 37.1917 223.594 36.5559C223.726 35.2341 224.388 34.1266 224.999 33.234C225.199 32.9419 225.389 32.6774 225.567 32.4298C225.985 31.8467 226.337 31.3572 226.595 30.8219C227.062 29.8512 227.726 29.0896 228.404 28.4456C228.824 28.0465 229.307 27.6423 229.752 27.2702C229.985 27.0754 230.208 26.8893 230.405 26.7173C230.495 26.6396 230.588 26.5574 230.684 26.4723C231.158 26.0538 231.712 25.5637 232.305 25.176C233.049 24.6892 233.949 24.2927 235.041 24.2927C235.68 24.2927 236.198 24.8106 236.198 25.4495C236.198 26.0884 235.68 26.6064 235.041 26.6064C234.542 26.6064 234.08 26.7793 233.571 27.1121C233.132 27.3996 232.729 27.7545 232.259 28.1686Z" fill="#C5B0A0"/>
<path fill-rule="evenodd" clip-rule="evenodd" d="M97.1456 41.1893C97.7171 40.9035 98.412 41.1352 98.6977 41.7066C99.0847 42.4806 99.8263 43.2104 100.798 44.0642C100.928 44.1783 101.063 44.2953 101.201 44.4149C102.02 45.1252 102.948 45.9309 103.623 46.8207C104.227 47.6166 104.902 48.3817 105.615 49.1889C105.866 49.4735 106.122 49.7634 106.381 50.0617C107.349 51.1766 108.334 52.3818 109.083 53.7139C109.301 54.1017 109.511 54.4851 109.718 54.863C110.322 55.9665 110.901 57.0242 111.589 58.0144C112.493 59.3151 113.517 60.3891 114.862 61.0989C116.463 61.9437 118.151 62.5312 119.925 63.0839C120.353 63.2173 120.79 63.3495 121.231 63.4833C122.59 63.8949 123.999 64.3216 125.376 64.8454C130.306 66.7204 134.769 69.5717 138.974 72.6983C141.379 74.4869 143.771 76.4222 146.116 78.3205C147.813 79.6938 149.486 81.0477 151.123 82.3128C152.877 83.6685 154.38 85.3463 155.778 87.0005C156.091 87.3701 156.397 87.7372 156.7 88.1001C157.777 89.3908 158.81 90.6289 159.923 91.7421C160.254 92.0731 160.632 92.5526 160.993 93.0181C161.061 93.105 161.129 93.1928 161.197 93.2811C161.514 93.691 161.839 94.1121 162.176 94.5167C162.587 95.0105 162.979 95.4352 163.336 95.7397C163.723 96.0685 163.932 96.1366 163.979 96.1425C164.613 96.2218 165.062 96.7999 164.983 97.4339C164.904 98.0679 164.326 98.5176 163.692 98.4384C162.955 98.3462 162.316 97.9091 161.837 97.5014C161.329 97.0693 160.839 96.5263 160.398 95.9969C160.032 95.5571 159.675 95.0961 159.358 94.6856C159.292 94.6002 159.228 94.517 159.165 94.4367C158.783 93.9446 158.496 93.5873 158.287 93.3782C157.092 92.1835 155.971 90.8388 154.884 89.5358C154.591 89.1843 154.3 88.8359 154.012 88.4943C152.627 86.8563 151.256 85.3397 149.708 84.1436C147.967 82.7977 146.272 81.4249 144.577 80.0519C142.288 78.198 139.999 76.3438 137.593 74.555C133.465 71.4855 129.199 68.7745 124.554 67.008C123.258 66.5154 121.958 66.1215 120.619 65.7157C120.163 65.5777 119.703 65.4382 119.237 65.293C117.429 64.7298 115.576 64.0921 113.782 63.1451C111.996 62.2026 110.716 60.813 109.689 59.3347C108.924 58.2336 108.26 57.0207 107.642 55.8904C107.446 55.5327 107.255 55.1832 107.066 54.8482C106.438 53.7319 105.584 52.6736 104.634 51.5785C104.404 51.3143 104.167 51.0457 103.927 50.7735C103.198 49.9481 102.44 49.0896 101.78 48.219C101.263 47.5376 100.547 46.914 99.717 46.1918C99.5716 46.0653 99.4228 45.9357 99.2709 45.8023C98.3229 44.9693 97.2432 43.9713 96.6282 42.7414C96.3425 42.1699 96.5741 41.475 97.1456 41.1893Z" fill="#C5B0A0"/>
<path fill-rule="evenodd" clip-rule="evenodd" d="M121.166 16.6011C121.772 16.8031 122.1 17.4583 121.898 18.0644C120.794 21.3746 118.74 24.0212 116.476 26.3523C115.345 27.5177 114.145 28.6201 112.974 29.6874C112.886 29.768 112.798 29.8484 112.71 29.9286C111.624 30.9177 110.571 31.8775 109.587 32.8616C108.723 33.7257 108.132 34.9537 107.617 36.417C107.396 37.047 107.198 37.6905 106.995 38.3493C106.964 38.4499 106.933 38.5509 106.902 38.6522C106.67 39.4045 106.426 40.1757 106.144 40.8974C105.105 43.5538 104.373 45.6418 104.373 48.2396C104.373 48.8785 103.855 49.3965 103.216 49.3965C102.577 49.3965 102.059 48.8785 102.059 48.2396C102.059 45.1692 102.944 42.726 103.989 40.0542C104.237 39.4211 104.458 38.7241 104.691 37.9703C104.721 37.8725 104.752 37.7736 104.782 37.6739C104.984 37.0183 105.196 36.3264 105.434 35.6493C105.979 34.1003 106.709 32.467 107.951 31.2256C108.975 30.2016 110.067 29.2065 111.144 28.225C111.234 28.1425 111.325 28.06 111.415 27.9777C112.588 26.9084 113.74 25.8493 114.816 24.7405C116.969 22.5233 118.756 20.1714 119.703 17.3327C119.905 16.7266 120.56 16.399 121.166 16.6011Z" fill="#C5B0A0"/>
<path fill-rule="evenodd" clip-rule="evenodd" d="M88.948 57.2387C89.7258 57.2511 90.4785 57.2631 91.1847 57.2631C94.2145 57.2631 97.1773 57.4984 100.082 57.7292L100.086 57.7295C103.007 57.9614 105.868 58.1886 108.769 58.1886C109.408 58.1886 109.926 58.7065 109.926 59.3455C109.926 59.9844 109.408 60.5023 108.769 60.5023C105.775 60.5023 102.835 60.2688 99.9419 60.039L99.9031 60.0359C96.9832 59.804 94.1094 59.5768 91.1847 59.5768C90.4 59.5768 89.6124 59.564 88.82 59.5511C87.4514 59.5289 86.0686 59.5064 84.6629 59.5493C82.4722 59.6161 80.3955 59.8423 78.5937 60.4429C77.9876 60.645 77.3324 60.3174 77.1304 59.7113C76.9283 59.1052 77.2559 58.45 77.862 58.248C79.9783 57.5426 82.3161 57.3061 84.5923 57.2366C86.0414 57.1924 87.5361 57.2162 88.948 57.2387Z" fill="#C5B0A0"/>
<path fill-rule="evenodd" clip-rule="evenodd" d="M74.063 4.97314C74.7019 4.97314 75.2198 5.49109 75.2198 6.13C75.2198 10.1227 77.4873 13.3762 80.4941 16.6588C81.2393 17.4724 82.0168 18.2745 82.8053 19.0862L82.8985 19.1821C83.6529 19.9586 84.4169 20.745 85.1506 21.5399C86.6748 23.1911 88.1193 24.9324 89.1646 26.833C89.834 28.0501 90.5439 29.2805 91.2603 30.522C92.3764 32.4565 93.5082 34.4181 94.527 36.399C94.6948 36.7254 94.9726 37.1035 95.3509 37.5575C95.5362 37.78 95.7337 38.0068 95.9431 38.2469L95.9573 38.2633C96.1595 38.4952 96.3722 38.7392 96.5789 38.9862C96.9979 39.4868 97.431 40.0444 97.7605 40.6351C98.0895 41.225 98.357 41.9205 98.357 42.6867C98.357 43.3256 97.8391 43.8436 97.2001 43.8436C96.5612 43.8436 96.0433 43.3256 96.0433 42.6867C96.0433 42.4597 95.9622 42.1608 95.7399 41.7623C95.5181 41.3647 95.197 40.9399 94.8047 40.4712C94.6128 40.2421 94.4132 40.013 94.2061 39.7755L94.199 39.7673C93.9923 39.5303 93.7778 39.2841 93.5733 39.0386C93.1718 38.5567 92.7584 38.0191 92.4694 37.4572C91.4647 35.5035 90.3953 33.6519 89.309 31.771C88.588 30.5224 87.8594 29.2609 87.1373 27.948C86.228 26.2948 84.9343 24.7167 83.4505 23.1092C82.7373 22.3366 81.9919 21.5693 81.2316 20.7868L81.1458 20.6984C80.3597 19.8892 79.5594 19.0639 78.788 18.2216C75.7281 14.8811 72.9061 11.0581 72.9061 6.13C72.9061 5.49109 73.4241 4.97314 74.063 4.97314Z" fill="#C5B0A0"/>
<path fill-rule="evenodd" clip-rule="evenodd" d="M57.7578 11.1656C58.0435 10.5941 58.7384 10.3625 59.3098 10.6482C59.8879 10.9372 60.4514 11.3835 60.9114 11.7478C60.98 11.8021 61.0463 11.8546 61.11 11.9045C61.6624 12.3371 62.1049 12.6492 62.5363 12.809C64.0674 13.376 65.7304 13.5439 67.5712 13.7217L67.6458 13.7289C69.4124 13.8994 71.3493 14.0864 73.1786 14.7625C76.1385 15.8563 79.8426 17.3835 82.3591 19.7322C82.69 20.041 83.1244 20.3995 83.6395 20.8245C83.6715 20.851 83.7039 20.8777 83.7366 20.9047C84.2803 21.3536 84.8907 21.8603 85.4718 22.3967C86.0513 22.9316 86.6279 23.5196 87.0995 24.1411C87.5657 24.7555 87.9767 25.4639 88.1491 26.2398C88.2877 26.8635 87.8945 27.4814 87.2708 27.62C86.6471 27.7586 86.0291 27.3654 85.8905 26.7417C85.8186 26.4179 85.618 26.0164 85.2563 25.5398C84.9001 25.0703 84.4325 24.5861 83.9024 24.0969C83.374 23.6091 82.8094 23.1395 82.2637 22.689C82.2244 22.6566 82.1851 22.6242 82.1458 22.5918C81.6535 22.1856 81.1656 21.7831 80.7804 21.4236C78.6434 19.4291 75.3549 18.0334 72.3766 16.9327C70.8507 16.3688 69.1906 16.2026 67.3487 16.0247L67.289 16.0189C65.5174 15.8478 63.5725 15.66 61.7327 14.9787C60.924 14.6791 60.2266 14.1514 59.6835 13.7261C59.6069 13.6661 59.5334 13.6083 59.4628 13.5526C58.9762 13.1697 58.6227 12.8914 58.2751 12.7177C57.7037 12.4319 57.472 11.737 57.7578 11.1656Z" fill="#C5B0A0"/>
<path fill-rule="evenodd" clip-rule="evenodd" d="M98.5884 58.1886C99.2273 58.1886 99.7452 58.7065 99.7452 59.3455C99.7452 60.0229 99.9402 60.4117 100.188 60.699C100.475 61.0321 100.887 61.2955 101.469 61.6223C101.527 61.655 101.588 61.6888 101.651 61.724C102.148 61.9997 102.788 62.3545 103.288 62.8289C103.924 63.4312 104.373 64.2447 104.373 65.3611C104.373 66 103.855 66.518 103.216 66.518C102.577 66.518 102.059 66 102.059 65.3611C102.059 64.9548 101.929 64.7282 101.697 64.5085C101.422 64.2481 101.054 64.0422 100.509 63.7364C100.453 63.7052 100.395 63.6729 100.335 63.6394C99.7602 63.3162 99.0156 62.8832 98.435 62.2093C97.815 61.4897 97.4315 60.5608 97.4315 59.3455C97.4315 58.7065 97.9495 58.1886 98.5884 58.1886Z" fill="#C5B0A0"/>
<path fill-rule="evenodd" clip-rule="evenodd" d="M177.486 133.616C178.125 133.616 178.643 134.134 178.643 134.773C178.643 134.897 178.692 135.057 178.92 135.409C178.951 135.456 178.99 135.514 179.035 135.579C179.239 135.877 179.556 136.341 179.73 136.819C179.939 137.394 180.219 138.166 180.392 138.97C180.562 139.764 180.657 140.712 180.398 141.62C180.051 142.835 179.339 143.878 178.753 144.736C178.606 144.951 178.467 145.155 178.343 145.347C177.16 147.189 176.258 148.858 176.094 150.833C176.041 151.47 175.481 151.943 174.845 151.89C174.208 151.837 173.735 151.278 173.788 150.641C174.003 148.061 175.185 145.982 176.397 144.096C176.593 143.791 176.781 143.514 176.957 143.255C177.504 142.446 177.939 141.806 178.173 140.985C178.281 140.606 178.267 140.093 178.13 139.456C177.995 138.829 177.77 138.2 177.556 137.61C177.49 137.43 177.393 137.286 177.223 137.035C177.155 136.934 177.075 136.815 176.981 136.67C176.707 136.249 176.329 135.606 176.329 134.773C176.329 134.134 176.847 133.616 177.486 133.616Z" fill="#C5B0A0"/>
<path fill-rule="evenodd" clip-rule="evenodd" d="M133.448 102.231C133.527 101.597 134.105 101.147 134.739 101.227C135.188 101.283 135.535 101.533 135.749 101.849C135.934 102.122 135.999 102.411 136.027 102.608C136.084 103.001 136.041 103.429 135.996 103.751C135.949 104.087 135.88 104.426 135.828 104.679L135.825 104.697C135.797 104.832 135.777 104.934 135.762 105.015C135.757 105.044 135.754 105.063 135.752 105.075C135.758 106.28 136.019 107.453 136.592 108.057C137.467 108.981 138.266 109.98 139.03 110.945C139.084 111.013 139.138 111.082 139.192 111.15C139.907 112.054 140.595 112.922 141.328 113.733C141.533 113.96 141.754 114.195 141.982 114.44C142.875 115.394 143.891 116.479 144.614 117.697C145.382 118.991 147.397 123.117 149.283 127.206C150.232 129.264 151.159 131.337 151.894 133.072C152.614 134.772 153.189 136.238 153.387 137.031C153.542 137.651 153.165 138.279 152.545 138.434C151.925 138.589 151.297 138.212 151.142 137.592C150.996 137.007 150.5 135.714 149.764 133.974C149.041 132.269 148.125 130.22 147.182 128.175C145.283 124.058 143.319 120.049 142.624 118.878C142.042 117.898 141.256 117.055 140.388 116.126C140.135 115.855 139.876 115.576 139.612 115.285C138.825 114.415 138.092 113.488 137.387 112.597C137.33 112.525 137.273 112.453 137.216 112.381C136.449 111.412 135.708 110.488 134.912 109.649C133.688 108.356 133.439 106.372 133.439 105.035C133.439 104.871 133.468 104.7 133.484 104.61C133.504 104.497 133.531 104.365 133.557 104.24L133.557 104.236C133.612 103.969 133.668 103.692 133.705 103.43C133.721 103.316 133.73 103.223 133.736 103.148C133.519 102.908 133.404 102.578 133.448 102.231ZM133.737 102.935C133.737 102.936 133.737 102.936 133.737 102.937C133.736 102.93 133.736 102.928 133.737 102.935Z" fill="#C5B0A0"/>
<path fill-rule="evenodd" clip-rule="evenodd" d="M169.86 119.821C169.939 119.187 170.517 118.738 171.151 118.817C171.863 118.906 172.797 119.147 173.642 119.563C174.452 119.961 175.407 120.632 175.797 121.703C175.832 121.8 175.898 121.911 176.062 122.171C176.065 122.175 176.068 122.18 176.072 122.185C176.207 122.4 176.421 122.738 176.553 123.134C176.811 123.909 176.801 124.711 176.794 125.293C176.793 125.382 176.792 125.466 176.792 125.543C176.792 125.611 176.792 125.679 176.792 125.747C176.792 126.786 176.793 127.885 176.669 129C176.652 129.154 176.635 129.293 176.62 129.419C176.563 129.877 176.527 130.176 176.573 130.488C176.767 131.78 177.57 132.961 178.484 134.305C178.547 134.398 178.611 134.492 178.675 134.586C179.033 135.115 178.895 135.835 178.366 136.193C177.837 136.551 177.118 136.413 176.76 135.884C176.684 135.772 176.604 135.656 176.523 135.537C175.67 134.292 174.562 132.675 174.285 130.831C174.186 130.172 174.276 129.48 174.338 129C174.35 128.906 174.361 128.821 174.37 128.745C174.479 127.762 174.478 126.783 174.478 125.714C174.478 125.657 174.478 125.601 174.478 125.543C174.478 125.431 174.479 125.325 174.479 125.226C174.482 124.62 174.484 124.245 174.358 123.865C174.324 123.765 174.258 123.647 174.106 123.405C174.096 123.391 174.087 123.376 174.077 123.359C173.95 123.159 173.75 122.844 173.622 122.494C173.54 122.266 173.245 121.946 172.621 121.639C172.034 121.35 171.353 121.174 170.864 121.113C170.23 121.033 169.78 120.455 169.86 119.821Z" fill="#C5B0A0"/>
<path fill-rule="evenodd" clip-rule="evenodd" d="M196.077 124.087C196.619 123.935 196.984 123.405 196.912 122.829C196.833 122.195 196.255 121.745 195.621 121.825C195.253 121.871 194.959 122.045 194.78 122.169C194.582 122.307 194.397 122.474 194.235 122.638C193.908 122.969 193.581 123.38 193.295 123.777C193.005 124.179 192.736 124.595 192.526 124.954C192.347 125.26 192.13 125.66 192.048 125.971C191.496 128.089 191.263 130.396 191.047 132.533C191.002 132.976 190.958 133.413 190.912 133.838C190.872 134.211 190.829 134.582 190.786 134.953C190.615 136.427 190.443 137.905 190.443 139.529C190.443 139.744 190.443 139.958 190.443 140.172C190.445 142.723 190.448 145.146 190.119 147.588C189.771 150.17 189.182 152.406 187.942 154.619C187.346 155.684 186.609 156.676 185.811 157.719C185.731 157.824 185.65 157.93 185.568 158.037C184.855 158.967 184.102 159.949 183.446 160.999C183.108 161.54 183.272 162.254 183.814 162.593C184.356 162.931 185.07 162.767 185.408 162.225C186.002 161.275 186.686 160.382 187.409 159.439C187.488 159.335 187.569 159.23 187.649 159.125C188.446 158.082 189.276 156.974 189.961 155.75C191.388 153.202 192.04 150.66 192.412 147.897C192.763 145.292 192.76 142.716 192.757 140.194C192.757 139.972 192.757 139.75 192.757 139.529C192.757 138.051 192.909 136.737 193.077 135.281C193.122 134.895 193.168 134.499 193.213 134.087C193.263 133.625 193.309 133.164 193.356 132.705C193.572 130.572 193.784 128.483 194.287 126.555C194.283 126.571 194.286 126.564 194.301 126.534C194.328 126.478 194.394 126.344 194.524 126.121C194.696 125.827 194.924 125.472 195.171 125.13C195.421 124.783 195.67 124.477 195.88 124.265C195.968 124.176 196.034 124.119 196.077 124.087ZM196.11 124.063C196.117 124.058 196.12 124.057 196.12 124.057C196.12 124.057 196.117 124.059 196.11 124.063Z" fill="#C5B0A0"/>
<path fill-rule="evenodd" clip-rule="evenodd" d="M302.073 74.7927C302.359 75.3642 302.127 76.0591 301.556 76.3448C300.436 76.9045 299.332 77.6444 298.193 78.457C297.872 78.6856 297.546 78.9223 297.216 79.1616C296.4 79.7536 295.561 80.362 294.731 80.9054C293.456 81.74 292.212 82.6221 290.951 83.5199L290.721 83.6841C289.541 84.5251 288.343 85.3782 287.117 86.1959C283.835 88.3834 279.931 89.8861 276.387 91.2501C276.142 91.3444 275.899 91.4381 275.657 91.5312C272.939 92.5809 270.237 93.5426 267.558 94.496C261.566 96.6283 255.691 98.7192 250.013 101.66C247.933 102.737 246.603 104.15 244.981 105.874C244.621 106.257 244.246 106.655 243.846 107.068C243.505 107.42 243.19 107.778 242.863 108.152L242.844 108.174C242.528 108.534 242.196 108.913 241.843 109.275C241.113 110.025 240.258 110.742 239.083 111.256C238.851 111.357 238.62 111.458 238.39 111.558C233.381 113.744 229.03 115.643 225.626 119.728C224.148 121.502 222.406 122.925 220.763 124.266C220.691 124.326 220.618 124.385 220.546 124.444C218.812 125.861 217.196 127.209 215.879 128.891C213.653 131.736 211.098 134.08 208.564 136.331C208.087 136.756 207.356 136.713 206.931 136.235C206.507 135.758 206.55 135.026 207.027 134.602C209.556 132.354 211.971 130.131 214.057 127.465C215.554 125.553 217.364 124.056 219.081 122.652C219.135 122.608 219.189 122.565 219.243 122.521C220.929 121.143 222.516 119.847 223.849 118.247C227.613 113.73 232.435 111.629 237.336 109.494C237.609 109.375 237.883 109.255 238.156 109.136C238.964 108.782 239.579 108.284 240.186 107.661C240.495 107.343 240.793 107.003 241.123 106.627C241.446 106.258 241.797 105.857 242.185 105.457C242.533 105.098 242.873 104.735 243.214 104.372C244.851 102.626 246.488 100.88 248.949 99.6051C254.771 96.5901 260.889 94.4119 266.953 92.2533C269.596 91.312 272.23 90.3745 274.824 89.3729C275.048 89.2865 275.272 89.2001 275.496 89.1137C279.098 87.7263 282.774 86.3101 285.833 84.2708C287.029 83.4738 288.198 82.6404 289.385 81.7948L289.609 81.6354C290.867 80.7391 292.146 79.8323 293.464 78.9696C294.245 78.4581 295.012 77.9021 295.808 77.3244C296.148 77.0774 296.494 76.8265 296.849 76.5734C298.008 75.7464 299.233 74.9193 300.521 74.2753C301.093 73.9896 301.788 74.2212 302.073 74.7927Z" fill="#C5B0A0"/>
<path fill-rule="evenodd" clip-rule="evenodd" d="M285.074 17.4672C285.713 17.4672 286.231 17.9852 286.231 18.6241C286.231 19.3446 286.051 19.9837 285.903 20.4852C285.887 20.5385 285.872 20.5901 285.857 20.6403C285.72 21.1009 285.619 21.4402 285.582 21.802C285.445 23.1324 285.375 24.597 285.673 25.6487C285.884 26.3943 286.167 27.0912 286.477 27.8539C286.533 27.9918 286.59 28.1318 286.647 28.2746C287.012 29.1816 287.39 30.1778 287.599 31.29C287.913 32.9588 288.764 34.2068 289.835 35.7764C289.995 36.0103 290.159 36.2512 290.327 36.5018C290.922 37.3872 291.626 38.3006 292.379 39.2779L292.389 39.2906C293.13 40.2528 293.916 41.2719 294.635 42.3274C296.071 44.4338 297.343 46.8232 297.514 49.4763C297.641 51.4504 296.919 53.3095 296.239 54.9248C296.16 55.114 296.081 55.2999 296.003 55.483C295.379 56.9513 294.833 58.2362 294.681 59.5438C294.423 61.7516 294.426 63.8932 294.43 66.0935C294.431 67.0721 294.433 68.0622 294.411 69.0749C294.343 72.3011 294.033 75.6174 292.617 78.9504C291.625 81.2833 290.227 83.3957 286.939 85.9423C286.434 86.3335 285.707 86.2413 285.316 85.7361C284.925 85.231 285.017 84.5044 285.522 84.1131C288.507 81.801 289.656 80.0031 290.488 78.0454C291.732 75.1164 292.032 72.1486 292.098 69.026C292.117 68.1241 292.116 67.1959 292.115 66.25C292.112 63.9877 292.109 61.6238 292.383 59.2757C292.577 57.6121 293.266 55.9984 293.874 54.5754C293.953 54.3894 294.031 54.2067 294.107 54.0275C294.797 52.3866 295.293 50.992 295.205 49.6252C295.075 47.6014 294.089 45.6341 292.724 43.6305C292.045 42.6356 291.298 41.6655 290.546 40.6905L290.533 40.6731C289.795 39.7151 289.047 38.7458 288.407 37.7915C288.257 37.5686 288.102 37.3439 287.946 37.1163C286.887 35.5746 285.735 33.8989 285.325 31.7175C285.161 30.8443 284.858 30.0269 284.501 29.1384C284.449 29.0104 284.396 28.8802 284.342 28.7479C284.033 27.9882 283.695 27.1579 283.447 26.2787C283.014 24.7511 283.145 22.8766 283.28 21.5647C283.341 20.9723 283.508 20.418 283.638 19.9848C283.654 19.931 283.67 19.8791 283.684 19.8292C283.83 19.3369 283.917 18.9799 283.917 18.6241C283.917 17.9852 284.435 17.4672 285.074 17.4672Z" fill="#C5B0A0"/>
<path fill-rule="evenodd" clip-rule="evenodd" d="M0.612168 13.1013C0.686819 12.4673 1.23147 12.0176 1.82868 12.0968C4.11897 12.4007 6.31787 13.1138 8.41478 13.7937C8.5529 13.8385 8.69058 13.8831 8.82781 13.9275C11.0829 14.6567 13.2344 15.3196 15.4638 15.5108C16.1317 15.5681 16.7725 15.5913 17.4388 15.6154C17.7923 15.6282 18.153 15.6412 18.5287 15.6598C19.5788 15.7116 20.6786 15.8057 21.8035 16.0753C24.2537 16.6627 26.7466 17.4403 29.11 18.2053C29.7675 18.4181 30.439 18.6189 31.1183 18.8221C33.6445 19.5777 36.2787 20.3656 38.7035 21.9208C41.0524 23.4273 43.311 25.0131 45.5736 26.6144C46.7728 27.463 48.1465 28.0587 49.6426 28.7073C49.698 28.7313 49.7536 28.7555 49.8094 28.7796C51.3282 29.4386 52.9693 30.1635 54.4008 31.2688C54.8055 31.5812 55.2361 31.8569 55.7149 32.1635C55.7575 32.1908 55.8005 32.2183 55.8439 32.2461C56.3585 32.5761 56.9234 32.9439 57.4586 33.3885C57.7933 33.6666 58.1509 33.8679 58.5901 34.0975C58.6395 34.1233 58.6904 34.1497 58.7426 34.1768C59.1336 34.3795 59.5994 34.6211 60.0553 34.9437C60.0553 34.9437 60.1363 34.9924 60.3721 35.0827C60.5847 35.1642 60.8562 35.2547 61.1794 35.3563C61.4067 35.4278 61.6646 35.5061 61.9376 35.5891C62.405 35.7311 62.9169 35.8866 63.3962 36.0443C64.1626 36.2966 64.9699 36.5932 65.6004 36.9389C65.9128 37.1102 66.242 37.3255 66.5071 37.5993C66.7668 37.8677 67.0792 38.3141 67.0792 38.927C67.0792 39.5659 66.5913 40.0838 65.9894 40.0838C65.4789 40.0838 65.0504 39.7112 64.9321 39.2082C64.8691 39.1572 64.7635 39.0842 64.6001 38.9946C64.1518 38.7487 63.5011 38.5013 62.7506 38.2542C62.2854 38.1011 61.8289 37.9626 61.3842 37.8277C61.1047 37.7429 60.8298 37.6595 60.5604 37.5747C60.2265 37.4697 59.9062 37.364 59.6324 37.2591C59.3819 37.1632 59.0827 37.0361 58.8464 36.8689C58.5194 36.6375 58.1896 36.4659 57.7876 36.2567C57.7354 36.2296 57.682 36.2018 57.6273 36.1732C57.1709 35.9346 56.6396 35.6461 56.1154 35.2106C55.6955 34.8617 55.2338 34.5579 54.7171 34.2266C54.6717 34.1975 54.6257 34.1681 54.5793 34.1384C54.1146 33.8411 53.6038 33.5143 53.1189 33.14C51.9315 32.2232 50.5302 31.5919 48.9848 30.9214C48.9073 30.8878 48.8295 30.8541 48.7513 30.8202C47.3115 30.1966 45.7516 29.5211 44.3647 28.5395C42.1021 26.9382 39.8795 25.3782 37.5764 23.9011C35.4284 22.5234 33.163 21.8434 30.6832 21.0991C29.9657 20.8838 29.2302 20.663 28.4744 20.4184C26.1177 19.6556 23.69 18.8995 21.3235 18.3322C20.3841 18.1071 19.4334 18.0207 18.4275 17.971C18.1087 17.9553 17.776 17.9431 17.4351 17.9307C16.7363 17.9051 16.0036 17.8784 15.2883 17.817C12.7944 17.6031 10.4336 16.8654 8.19275 16.1408C8.06958 16.101 7.9468 16.0612 7.82438 16.0216C5.6853 15.3286 3.65516 14.6709 1.55835 14.3927C0.961134 14.3134 0.537516 13.7352 0.612168 13.1013Z" fill="#C5B0A0"/>
<path fill-rule="evenodd" clip-rule="evenodd" d="M52.0483 18.9271C51.4416 18.7269 50.7874 19.0564 50.5872 19.6631C50.1544 20.9749 49.2598 22.1918 48.0997 23.4259C47.5238 24.0386 46.901 24.6366 46.2585 25.2445C46.1557 25.3417 46.0523 25.4393 45.9485 25.5373C45.4105 26.045 44.8617 26.563 44.3449 27.0829C43.8945 27.536 43.8967 28.2685 44.3499 28.7189C44.803 29.1693 45.5355 29.1671 45.9859 28.714C46.4742 28.2227 46.9914 27.7345 47.5294 27.2267C47.635 27.127 47.7414 27.0266 47.8485 26.9253C48.4938 26.3148 49.1594 25.6767 49.7855 25.0106C51.0297 23.6871 52.1946 22.1756 52.7844 20.3882C52.9846 19.7814 52.655 19.1273 52.0483 18.9271Z" fill="#C5B0A0"/>
<path d="M288.25 221.066C276.769 224.272 268.457 222.761 265.736 221.606C267.105 219.263 272.78 218.742 275.446 218.774C278.895 218.636 282.808 219.564 284.333 220.046C286.407 220.585 288.261 220.745 289.336 220.739L288.25 221.066Z" fill="#ADCF9F"/>
<path d="M227.589 217.131L234.985 220.805C233.524 222.878 231.436 223.837 229.915 223.949C224.426 224.354 217.294 220.486 214.414 218.501C212.508 217.187 210.004 215.733 208.708 215.166C214.022 213.175 222.335 214.952 227.589 217.131Z" fill="#FFDCAE"/>
<path d="M104.895 221.149C99.9677 220.852 98.9385 222.638 98.5881 223.514C99.5341 219.469 103.187 217.492 104.895 217.009C107.417 216.116 114.748 216.637 118.099 217.009C122.327 217.479 127.646 216.374 130.055 215.63C127.007 220.675 122.785 222.505 121.055 222.79C118.795 223.368 113.237 222.549 110.741 222.068L104.895 221.149Z" fill="#CC7351"/>
<path d="M62.4606 193.866C60.2919 195.686 56.3263 196.37 54.6146 196.484C51.753 196.675 51.0879 199.842 50.8145 199.886C49.7897 196.389 51.3007 192.273 52.1843 190.652C54.9414 186.007 59.355 184.658 60.9875 184.608C63.1079 184.544 66.5421 183.61 67.9942 183.152C69.4463 182.693 72.023 181.577 73.0331 180.916C70.402 187.726 64.8885 192.387 62.4606 193.866Z" fill="#CED89E"/>
<path d="M265.359 168.662C266.771 166.373 268.564 165.164 269.541 164.791C266.194 161.139 261.252 159.978 258.969 159.265C257.201 158.72 256.775 158.219 255.705 157.72C251.395 156.26 248.183 158.629 247.118 159.517C247.118 159.517 248.541 163.378 250.292 165.238C251.204 166.207 251.84 166.631 252.926 167.399C254.922 168.81 258.468 170.31 258.468 170.31C262.129 171.832 264.723 169.692 265.359 168.662Z" fill="#FFDCAE"/>
</svg>
