<svg width="234" height="63" viewBox="0 0 234 63" fill="none" xmlns="http://www.w3.org/2000/svg">
<path d="M0.19 26V25.856C0.766 25.46 1.162 24.776 1.162 24.056V2.744C1.162 1.988 0.766 1.34 0.19 0.943999V0.799998H5.482V0.943999C4.87 1.34 4.51 1.988 4.51 2.744V22.976H17.398C18.19 22.976 18.838 22.616 19.09 22.076H19.306L18.766 26H0.19ZM16.4454 19.664C11.8374 19.664 9.06541 16.748 9.06541 11.384V2.744C9.06541 1.988 8.70541 1.34 8.12941 0.943999V0.799998H13.4214V0.943999C12.8454 1.34 12.4494 1.988 12.4494 2.744V11.348C12.4494 14.732 13.7814 16.604 16.4814 16.604C19.1454 16.604 20.4774 14.732 20.4774 11.348V2.744C20.4774 1.988 20.1174 1.34 19.5054 0.943999V0.799998H24.8334V0.943999C24.2574 1.34 23.8614 1.988 23.8614 2.744V11.384C23.8614 16.748 21.0894 19.664 16.4454 19.664ZM46.4165 0.943999C45.8405 1.34 45.4445 1.988 45.4445 2.744V24.056C45.4445 24.776 45.8405 25.46 46.4165 25.856V26H41.1245V25.856C41.7365 25.46 42.0965 24.776 42.0965 24.056V24.02C42.0965 18.44 32.9885 13.544 31.4045 9.368V24.056C31.4045 24.776 31.7645 25.46 32.3765 25.856V26H27.0845V25.856C27.6605 25.46 28.0565 24.776 28.0565 24.056V2.744C28.0565 1.988 27.6605 1.34 27.0845 0.943999V0.799998H32.3765V0.943999C31.7645 1.34 31.4045 1.988 31.4045 2.744V2.78C31.4045 8.288 40.4405 12.968 42.0965 17.288V2.744C42.0965 1.988 41.7365 1.34 41.1245 0.943999V0.799998H46.4165V0.943999ZM67.5553 23.984C67.7713 24.884 68.3473 25.496 68.8873 25.856V26H63.5953V25.856C64.3873 25.46 64.5673 24.776 64.3513 23.984L63.0553 19.016H53.5873L52.3273 24.02C52.1473 24.776 52.2553 25.424 53.0473 25.856V26H47.7553V25.856C48.2233 25.496 48.8713 24.884 49.0873 23.984L54.5593 2.816C54.7753 2.024 54.5953 1.376 53.8033 0.943999V0.799998H62.8393V0.943999C62.1193 1.376 61.9033 2.024 62.1193 2.816L67.5553 23.984ZM54.3793 15.992H62.2993L59.1673 3.86H57.4753L54.3793 15.992ZM89.2467 23.984C89.4627 24.884 90.0387 25.496 90.5787 25.856V26H85.2867V25.856C86.0787 25.46 86.2587 24.776 86.0427 23.984L84.7467 19.016H75.2787L74.0187 24.02C73.8387 24.776 73.9467 25.424 74.7387 25.856V26H69.4467V25.856C69.9147 25.496 70.5627 24.884 70.7787 23.984L76.2507 2.816C76.4667 2.024 76.2867 1.376 75.4947 0.943999V0.799998H84.5307V0.943999C83.8107 1.376 83.5947 2.024 83.8107 2.816L89.2467 23.984ZM76.0707 15.992H83.9907L80.8587 3.86H79.1667L76.0707 15.992ZM100.661 0.799998C106.205 0.799998 109.697 3.716 109.697 8.468C109.697 13.256 106.097 16.172 100.769 16.172H96.2327V24.056C96.2327 24.776 96.5927 25.46 97.2047 25.856V26H91.9127V25.856C92.4887 25.46 92.8847 24.776 92.8847 24.056V2.744C92.8847 1.988 92.4887 1.34 91.9127 0.943999V0.799998H100.661ZM100.733 13.112C104.225 13.112 106.349 11.636 106.349 8.504C106.349 5.444 104.333 3.824 100.697 3.824H96.2327V13.112H100.733ZM127.989 23.984C128.205 24.884 128.781 25.496 129.321 25.856V26H124.029V25.856C124.821 25.46 125.001 24.776 124.785 23.984L123.489 19.016H114.021L112.761 24.02C112.581 24.776 112.689 25.424 113.481 25.856V26H108.189V25.856C108.657 25.496 109.305 24.884 109.521 23.984L114.993 2.816C115.209 2.024 115.029 1.376 114.237 0.943999V0.799998H123.273V0.943999C122.553 1.376 122.337 2.024 122.553 2.816L127.989 23.984ZM114.813 15.992H122.733L119.601 3.86H117.909L114.813 15.992ZM149.699 0.943999C149.123 1.34 148.727 1.988 148.727 2.744V24.056C148.727 24.776 149.123 25.46 149.699 25.856V26H144.407V25.856C145.019 25.46 145.379 24.776 145.379 24.056V15.272H134.975V24.056C134.975 24.776 135.335 25.46 135.947 25.856V26H130.655V25.856C131.231 25.46 131.627 24.776 131.627 24.056V2.744C131.627 1.988 131.231 1.34 130.655 0.943999V0.799998H135.947V0.943999C135.335 1.34 134.975 1.988 134.975 2.744V12.212H145.379V2.744C145.379 1.988 145.019 1.34 144.407 0.943999V0.799998H149.699V0.943999ZM177.324 22.508C177.468 22.508 177.648 22.688 177.648 23.192C177.648 24.56 175.668 26.72 172.644 26.72C164.976 26.72 164.688 14.48 160.368 12.86L156.912 16.676V24.056C156.912 24.776 157.272 25.46 157.884 25.856V26H152.592V25.856C153.168 25.46 153.564 24.776 153.564 24.056V2.744C153.564 1.988 153.168 1.34 152.592 0.943999V0.799998H157.884V0.943999C157.272 1.34 156.912 1.988 156.912 2.744V12.032L165.372 2.636C165.984 1.988 166.056 1.376 165.408 0.943999V0.799998H171.492V0.943999C171.06 1.124 170.196 1.916 169.548 2.636L162.564 10.376C167.388 12.896 167.64 23.912 173.364 23.912C175.38 23.912 176.856 22.508 177.324 22.508ZM173.088 19.052V18.908C173.664 18.476 174.06 17.828 174.06 17.072V2.744C174.06 1.988 173.664 1.34 173.088 0.943999V0.799998H178.38V0.943999C177.768 1.34 177.408 1.988 177.408 2.744V17.072C177.408 17.828 177.768 18.476 178.38 18.908V19.052H173.088ZM181.245 26V25.856C181.821 25.46 182.217 24.776 182.217 24.056V2.744C182.217 1.988 181.821 1.34 181.245 0.943999V0.799998H186.537V0.943999C185.925 1.34 185.565 1.988 185.565 2.744V24.056C185.565 24.776 185.925 25.46 186.537 25.856V26H181.245ZM208.733 0.943999C208.157 1.34 207.761 1.988 207.761 2.744V24.056C207.761 24.776 208.157 25.46 208.733 25.856V26H203.441V25.856C204.053 25.46 204.413 24.776 204.413 24.056V24.02C204.413 18.44 195.305 13.544 193.721 9.368V24.056C193.721 24.776 194.081 25.46 194.693 25.856V26H189.401V25.856C189.977 25.46 190.373 24.776 190.373 24.056V2.744C190.373 1.988 189.977 1.34 189.401 0.943999V0.799998H194.693V0.943999C194.081 1.34 193.721 1.988 193.721 2.744V2.78C193.721 8.288 202.757 12.968 204.413 17.288V2.744C204.413 1.988 204.053 1.34 203.441 0.943999V0.799998H208.733V0.943999ZM233.44 13.904C232.864 14.336 232.468 14.984 232.468 15.704V21.68C232.468 22.508 232.828 23.048 233.332 23.228V23.372C231.172 25.1 228.22 26.72 224.188 26.72C216.484 26.72 210.76 20.96 210.76 13.328C210.76 5.912 216.268 0.079999 223.792 0.079999C227.824 0.079999 230.056 1.844 231.172 1.844C231.532 1.844 231.748 1.664 231.928 1.448H232.108V6.272H231.964C230.2 4.22 226.816 3.068 223.936 3.068C218.212 3.068 214.144 7.424 214.144 13.292C214.144 19.376 218.392 23.66 224.26 23.66C226.276 23.66 227.86 23.192 229.12 22.508V15.704C229.12 14.984 228.76 14.336 228.184 13.904V13.76H233.44V13.904ZM6.19 41C10.63 41 13.33 43.34 13.33 47.21C13.33 51.14 10.39 53.36 6.19 53.36H2.02V60.86C2.02 61.28 2.29 61.67 2.62 61.88V62H0.0100001V61.88C0.34 61.67 0.61 61.28 0.61 60.86V42.14C0.61 41.72 0.34 41.33 0.0100001 41.12V41H6.19ZM6.19 52.01C9.7 52.01 11.89 50.51 11.89 47.24C11.89 44.09 9.88 42.35 6.1 42.35H2.02V52.01H6.19ZM34.2735 60.23C34.3635 60.23 34.4535 60.29 34.4535 60.41C34.4535 61.04 33.0135 62.39 30.8835 62.39C24.8235 62.39 23.7735 52.7 19.6335 52.7H16.8735V60.86C16.8735 61.28 17.1435 61.67 17.4735 61.88V62H14.8635V61.88C15.1935 61.67 15.4635 61.28 15.4635 60.86V42.14C15.4635 41.72 15.1935 41.33 14.8635 41.12V41H20.8935C24.9735 41 27.7635 43.37 27.7635 46.85C27.7635 49.91 25.6635 52.1 22.4235 52.61C25.2735 54.8 27.1035 61.25 31.3335 61.25C33.0135 61.25 33.9135 60.23 34.2735 60.23ZM16.8735 51.35H20.8635C24.2535 51.35 26.3535 49.61 26.3535 46.85C26.3535 44.12 24.2535 42.35 21.0735 42.35H16.8735V51.35ZM30.1858 57.08V56.96C30.5158 56.75 30.7858 56.36 30.7858 55.94V42.14C30.7858 41.72 30.5158 41.33 30.1858 41.12V41H32.7958V41.12C32.4658 41.33 32.1958 41.72 32.1958 42.14V55.94C32.1958 56.36 32.4658 56.75 32.7958 56.96V57.08H30.1858ZM49.2627 41.12C48.9327 41.33 48.6627 41.72 48.6627 42.14V60.86C48.6627 61.28 48.9327 61.67 49.2627 61.88V62H46.6227V61.88C46.9527 61.67 47.2227 61.28 47.2227 60.86V60.8C47.2227 55.67 38.5827 49.94 37.3227 46.28V60.86C37.3227 61.28 37.5927 61.67 37.9227 61.88V62H35.3127V61.88C35.6427 61.67 35.9127 61.28 35.9127 60.86V42.14C35.9127 41.72 35.6427 41.33 35.3127 41.12V41H37.9227V41.12C37.5927 41.33 37.3227 41.72 37.3227 42.14V42.2C37.3227 47.42 45.8727 52.79 47.2227 56.54V42.14C47.2227 41.72 46.9527 41.33 46.6227 41.12V41H49.2627V41.12ZM61.5332 62.45C55.8632 62.45 50.9132 58.07 50.9132 51.41C50.9132 44.87 55.8632 40.55 61.5632 40.55C64.9832 40.55 66.6932 42.11 67.2932 42.11C67.4432 42.11 67.5332 42.02 67.5932 41.9H67.8032V44.42H67.5932C66.9932 43.43 64.6832 41.9 61.5632 41.9C56.8832 41.9 52.3832 45.26 52.3832 51.32C52.3832 57.05 56.1932 61.1 61.6832 61.1C66.8432 61.1 68.6732 58.13 69.1532 58.13C69.2432 58.13 69.2732 58.19 69.2732 58.31C69.2732 59.24 66.4832 62.45 61.5332 62.45ZM84.6883 60.08H84.8383L84.5383 62H70.4983V61.88C70.8283 61.67 71.0983 61.28 71.0983 60.86V42.14C71.0983 41.72 70.8283 41.33 70.4983 41.12V41H79.9783L80.2783 42.92H80.0983C79.9183 42.53 79.5283 42.35 79.0783 42.35H72.5083V47.51H79.5583C79.9783 47.51 80.3683 47.27 80.5783 46.97H80.6983V49.4H80.5783C80.3683 49.13 79.9783 48.86 79.5583 48.86H72.5083V60.65H83.6683C84.1183 60.65 84.5083 60.47 84.6883 60.08ZM94.6968 41L94.9968 42.92H94.8468C94.6968 42.53 94.3068 42.35 93.8268 42.35H89.2068V60.86C89.2068 61.28 89.4768 61.67 89.8068 61.88V62H87.1668V61.88C87.4968 61.67 87.7668 61.28 87.7668 60.86V42.35H83.1768C82.7268 42.35 82.3368 42.53 82.1568 42.92H81.9768L82.2768 41H94.6968ZM101.302 62.42C96.532 62.42 92.632 58.4 92.632 53.45C92.632 48.47 96.532 44.45 101.302 44.45C106.132 44.45 110.002 48.47 110.002 53.45C110.002 58.4 106.132 62.42 101.302 62.42ZM101.302 61.13C105.352 61.13 108.622 57.71 108.622 53.45C108.622 49.19 105.352 45.74 101.302 45.74C97.312 45.74 94.042 49.19 94.042 53.45C94.042 57.71 97.312 61.13 101.302 61.13ZM125.61 41.12C125.28 41.33 125.01 41.72 125.01 42.14V60.86C125.01 61.28 125.28 61.67 125.61 61.88V62H122.97V61.88C123.3 61.67 123.57 61.28 123.57 60.86V60.8C123.57 55.67 114.93 49.94 113.67 46.28V60.86C113.67 61.28 113.94 61.67 114.27 61.88V62H111.66V61.88C111.99 61.67 112.26 61.28 112.26 60.86V42.14C112.26 41.72 111.99 41.33 111.66 41.12V41H114.27V41.12C113.94 41.33 113.67 41.72 113.67 42.14V42.2C113.67 47.42 122.22 52.79 123.57 56.54V42.14C123.57 41.72 123.3 41.33 122.97 41.12V41H125.61V41.12ZM144.56 41L144.86 42.92H144.71C144.56 42.53 144.17 42.35 143.69 42.35H139.07V60.86C139.07 61.28 139.34 61.67 139.67 61.88V62H137.03V61.88C137.36 61.67 137.63 61.28 137.63 60.86V42.35H133.04C132.59 42.35 132.2 42.53 132.02 42.92H131.84L132.14 41H144.56ZM143.77 62V61.88C144.1 61.67 144.37 61.28 144.37 60.86V47.06C144.37 46.64 144.1 46.25 143.77 46.04V45.92H146.38V46.04C146.05 46.25 145.78 46.64 145.78 47.06V60.86C145.78 61.28 146.05 61.67 146.38 61.88V62H143.77ZM164.557 41.12C164.227 41.33 163.957 41.72 163.957 42.14V60.86C163.957 61.28 164.227 61.67 164.557 61.88V62H161.947V61.88C162.277 61.67 162.547 61.28 162.547 60.86V44.09L156.787 51.02H156.667L150.907 44.09V60.86C150.907 61.28 151.177 61.67 151.507 61.88V62H148.897V61.88C149.227 61.67 149.497 61.28 149.497 60.86V42.14C149.497 41.72 149.227 41.33 148.897 41.12V41H151.627V41.12C151.057 41.45 151.027 41.99 151.327 42.38L156.727 48.89L162.127 42.38C162.457 41.99 162.397 41.42 161.827 41.12V41H164.557V41.12ZM181.28 60.08H181.43L181.13 62H167.09V61.88C167.42 61.67 167.69 61.28 167.69 60.86V42.14C167.69 41.72 167.42 41.33 167.09 41.12V41H176.57L176.87 42.92H176.69C176.51 42.53 176.12 42.35 175.67 42.35H169.1V47.51H176.15C176.57 47.51 176.96 47.27 177.17 46.97H177.29V49.4H177.17C176.96 49.13 176.57 48.86 176.15 48.86H169.1V60.65H180.26C180.71 60.65 181.1 60.47 181.28 60.08ZM191.289 41L191.589 42.92H191.439C191.289 42.53 190.899 42.35 190.419 42.35H185.799V60.86C185.799 61.28 186.069 61.67 186.399 61.88V62H183.759V61.88C184.089 61.67 184.359 61.28 184.359 60.86V42.35H179.769C179.319 42.35 178.929 42.53 178.749 42.92H178.569L178.869 41H191.289ZM207.218 61.49C207.518 61.49 207.638 61.58 207.638 61.76C207.638 62.06 207.098 62.3 206.318 62.3C201.548 62.3 200.978 52.7 197.588 52.7H194.618V60.86C194.618 61.28 194.888 61.67 195.218 61.88V62H192.608V61.88C192.938 61.67 193.208 61.28 193.208 60.86V42.14C193.208 41.72 192.938 41.33 192.608 41.12V41H198.698C203.018 41 205.508 43.19 205.508 46.7C205.508 49.97 203.318 52.1 199.988 52.52C202.358 53.99 203.288 61.49 207.218 61.49ZM194.618 51.35H198.698C201.998 51.35 204.098 49.67 204.098 46.7C204.098 43.91 202.268 42.35 198.668 42.35H194.618V51.35ZM219.442 60.08H219.592L219.292 62H208.252V61.88C208.582 61.67 208.852 61.28 208.852 60.86V42.14C208.852 41.72 208.582 41.33 208.252 41.12V41H218.452L218.752 42.92H218.572C218.392 42.53 218.002 42.35 217.552 42.35H210.262V47.51H216.922C217.342 47.51 217.732 47.27 217.942 46.97H218.062V49.4H217.942C217.732 49.13 217.342 48.86 216.922 48.86H210.262V60.65H218.422C218.872 60.65 219.262 60.47 219.442 60.08ZM232.274 60.08H232.424L232.124 62H221.084V61.88C221.414 61.67 221.684 61.28 221.684 60.86V42.14C221.684 41.72 221.414 41.33 221.084 41.12V41H231.284L231.584 42.92H231.404C231.224 42.53 230.834 42.35 230.384 42.35H223.094V47.51H229.754C230.174 47.51 230.564 47.27 230.774 46.97H230.894V49.4H230.774C230.564 49.13 230.174 48.86 229.754 48.86H223.094V60.65H231.254C231.704 60.65 232.094 60.47 232.274 60.08Z" fill="#FEFEFE"/>
</svg>
