<svg width="223" height="81" viewBox="0 0 223 81" fill="none" xmlns="http://www.w3.org/2000/svg">
<path d="M1.885 31.1912H15.325L15.625 29.2712H15.475C15.325 29.6612 14.935 29.8412 14.455 29.8412H3.895V11.3312C3.895 10.9112 4.165 10.5212 4.495 10.3112V10.1912H1.885V10.3112C2.215 10.5212 2.485 10.9112 2.485 11.3312V30.0512C2.485 30.4712 2.215 30.8612 1.885 31.0712V31.1912ZM13.6279 26.5712C16.7479 26.5712 18.9679 24.3812 18.9679 20.3912V11.3312C18.9679 10.9112 19.2379 10.5212 19.5679 10.3112V10.1912H16.9279V10.3112C17.2579 10.5212 17.5279 10.9112 17.5279 11.3312V20.3612C17.5279 23.6012 15.9679 25.2212 13.6279 25.2212C11.2879 25.2212 9.69789 23.6012 9.69789 20.3612V11.3312C9.69789 10.9112 9.96789 10.5212 10.2979 10.3112V10.1912H7.65789V10.3112C7.98789 10.5212 8.25789 10.9112 8.25789 11.3312V20.3912C8.25789 24.3812 10.4779 26.5712 13.6279 26.5712ZM36.0346 10.3112V10.1912H33.3946V10.3112C33.7246 10.5212 33.9946 10.9112 33.9946 11.3312V25.7312C32.6446 21.9812 24.0946 16.6112 24.0946 11.3912V11.3312C24.0946 10.9112 24.3646 10.5212 24.6946 10.3112V10.1912H22.0846V10.3112C22.4146 10.5212 22.6846 10.9112 22.6846 11.3312V30.0512C22.6846 30.4712 22.4146 30.8612 22.0846 31.0712V31.1912H24.6946V31.0712C24.3646 30.8612 24.0946 30.4712 24.0946 30.0512V15.4712C25.3546 19.1312 33.9946 24.8612 33.9946 29.9912V30.0512C33.9946 30.4712 33.7246 30.8612 33.3946 31.0712V31.1912H36.0346V31.0712C35.7046 30.8612 35.4346 30.4712 35.4346 30.0512V11.3312C35.4346 10.9112 35.7046 10.5212 36.0346 10.3112ZM51.7195 30.0812L47.0695 11.3012C46.9495 10.8812 47.0995 10.5212 47.4895 10.3112V10.1912H42.5395V10.3112C42.9295 10.5212 43.0795 10.8812 42.9595 11.3012L38.2795 30.0812C38.1595 30.5912 37.8295 30.8612 37.4995 31.0712V31.1912H40.1095V31.0712C39.7195 30.8612 39.5995 30.5012 39.7195 30.0812L41.0395 24.7712H48.9895L50.3095 30.0812C50.3995 30.4712 50.3095 30.8312 49.8895 31.0712V31.1912H52.5295V31.0712C52.2295 30.8912 51.8695 30.5912 51.7195 30.0812ZM41.3695 23.4212L44.3395 11.5712H45.6895L48.6595 23.4212H41.3695ZM67.4589 30.0812L62.8089 11.3012C62.6889 10.8812 62.8389 10.5212 63.2289 10.3112V10.1912H58.2789V10.3112C58.6689 10.5212 58.8189 10.8812 58.6989 11.3012L54.0189 30.0812C53.8989 30.5912 53.5689 30.8612 53.2389 31.0712V31.1912H55.8489V31.0712C55.4589 30.8612 55.3389 30.5012 55.4589 30.0812L56.7789 24.7712H64.7289L66.0489 30.0812C66.1389 30.4712 66.0489 30.8312 65.6289 31.0712V31.1912H68.2689V31.0712C67.9689 30.8912 67.6089 30.5912 67.4589 30.0812ZM57.1089 23.4212L60.0789 11.5712H61.4289L64.3989 23.4212H57.1089ZM75.9224 10.1912H69.7424V10.3112C70.0724 10.5212 70.3424 10.9112 70.3424 11.3312V30.0512C70.3424 30.4712 70.0724 30.8612 69.7424 31.0712V31.1912H72.3524V31.0712C72.0224 30.8612 71.7524 30.4712 71.7524 30.0512V22.5512H75.9224C80.1224 22.5512 83.0624 20.3312 83.0624 16.4012C83.0624 12.5312 80.3624 10.1912 75.9224 10.1912ZM75.9224 21.2012H71.7524V11.5412H75.8324C79.6124 11.5412 81.6224 13.2812 81.6224 16.4312C81.6224 19.7012 79.4324 21.2012 75.9224 21.2012ZM96.5648 30.0812L91.9148 11.3012C91.7948 10.8812 91.9448 10.5212 92.3348 10.3112V10.1912H87.3848V10.3112C87.7748 10.5212 87.9248 10.8812 87.8048 11.3012L83.1248 30.0812C83.0048 30.5912 82.6748 30.8612 82.3448 31.0712V31.1912H84.9548V31.0712C84.5648 30.8612 84.4448 30.5012 84.5648 30.0812L85.8848 24.7712H93.8348L95.1548 30.0812C95.2448 30.4712 95.1548 30.8312 94.7348 31.0712V31.1912H97.3748V31.0712C97.0748 30.8912 96.7148 30.5912 96.5648 30.0812ZM86.2148 23.4212L89.1848 11.5712H90.5348L93.5048 23.4212H86.2148ZM112.708 10.3112V10.1912H110.068V10.3112C110.398 10.5212 110.668 10.9112 110.668 11.3312V20.3012H100.858V11.3312C100.858 10.9112 101.128 10.5212 101.458 10.3112V10.1912H98.8483V10.3112C99.1783 10.5212 99.4483 10.9112 99.4483 11.3312V30.0512C99.4483 30.4712 99.1783 30.8612 98.8483 31.0712V31.1912H101.458V31.0712C101.128 30.8612 100.858 30.4712 100.858 30.0512V21.6512H110.668V30.0512C110.668 30.4712 110.398 30.8612 110.068 31.0712V31.1912H112.708V31.0712C112.378 30.8612 112.108 30.4712 112.108 30.0512V11.3312C112.108 10.9112 112.378 10.5212 112.708 10.3112ZM133.045 29.3012C132.655 29.3012 131.725 30.5012 130.135 30.5012C125.305 30.5012 124.915 20.0312 121.165 18.2312L127.585 11.0912C127.855 10.7612 128.215 10.4612 128.635 10.3112V10.1912H125.725V10.3112C126.145 10.5212 126.025 10.7912 125.755 11.0912L117.535 20.1812V11.3312C117.535 10.9112 117.805 10.5212 118.135 10.3112V10.1912H115.525V10.3112C115.855 10.5212 116.125 10.9112 116.125 11.3312V30.0512C116.125 30.4712 115.855 30.8612 115.525 31.0712V31.1912H118.135V31.0712C117.805 30.8612 117.535 30.4712 117.535 30.0512V22.2512L120.145 19.3412C123.655 20.6912 123.985 31.6412 129.775 31.6412C131.785 31.6412 133.195 30.0812 133.195 29.4812C133.195 29.3612 133.135 29.3012 133.045 29.3012ZM130.181 26.2712H132.791V26.1512C132.461 25.9412 132.191 25.5512 132.191 25.1312V11.3312C132.191 10.9112 132.461 10.5212 132.791 10.3112V10.1912H130.181V10.3112C130.511 10.5212 130.781 10.9112 130.781 11.3312V25.1312C130.781 25.5512 130.511 25.9412 130.181 26.1512V26.2712ZM135.608 31.1912H138.218V31.0712C137.888 30.8612 137.618 30.4712 137.618 30.0512V11.3312C137.618 10.9112 137.888 10.5212 138.218 10.3112V10.1912H135.608V10.3112C135.938 10.5212 136.208 10.9112 136.208 11.3312V30.0512C136.208 30.4712 135.938 30.8612 135.608 31.0712V31.1912ZM154.985 10.3112V10.1912H152.345V10.3112C152.675 10.5212 152.945 10.9112 152.945 11.3312V25.7312C151.595 21.9812 143.045 16.6112 143.045 11.3912V11.3312C143.045 10.9112 143.315 10.5212 143.645 10.3112V10.1912H141.035V10.3112C141.365 10.5212 141.635 10.9112 141.635 11.3312V30.0512C141.635 30.4712 141.365 30.8612 141.035 31.0712V31.1912H143.645V31.0712C143.315 30.8612 143.045 30.4712 143.045 30.0512V15.4712C144.305 19.1312 152.945 24.8612 152.945 29.9912V30.0512C152.945 30.4712 152.675 30.8612 152.345 31.0712V31.1912H154.985V31.0712C154.655 30.8612 154.385 30.4712 154.385 30.0512V11.3312C154.385 10.9112 154.655 10.5212 154.985 10.3112ZM174.695 21.4112V21.2912H172.055V21.4112C172.385 21.6212 172.655 22.0112 172.655 22.4312V29.1212C171.665 29.6912 170.105 30.2912 167.975 30.2912C162.455 30.2912 158.405 26.1812 158.405 20.5112C158.405 15.2012 162.185 11.0012 167.525 11.0012C169.715 11.0012 172.505 11.7512 173.735 13.5212H173.855V10.9412H173.735C173.675 11.0612 173.555 11.1812 173.405 11.1812C172.775 11.1812 170.825 9.74116 167.525 9.74116C161.375 9.74116 156.935 14.5712 156.935 20.5412C156.935 26.6912 161.435 31.6412 167.915 31.6412C170.465 31.6412 172.355 30.9512 174.515 29.5712V29.4512C174.215 29.3012 174.095 29.0612 174.095 28.7012V22.4312C174.095 22.0112 174.365 21.6212 174.695 21.4112ZM8.065 50.1912H1.885V50.3112C2.215 50.5212 2.485 50.9112 2.485 51.3312V70.0512C2.485 70.4712 2.215 70.8612 1.885 71.0712V71.1912H4.495V71.0712C4.165 70.8612 3.895 70.4712 3.895 70.0512V62.5512H8.065C12.265 62.5512 15.205 60.3312 15.205 56.4012C15.205 52.5312 12.505 50.1912 8.065 50.1912ZM8.065 61.2012H3.895V51.5412H7.975C11.755 51.5412 13.765 53.2812 13.765 56.4312C13.765 59.7012 11.575 61.2012 8.065 61.2012ZM36.4485 69.4212C36.0885 69.4212 35.1885 70.4412 33.5085 70.4412C29.2785 70.4412 27.4485 63.9912 24.5985 61.8012C27.8385 61.2912 29.9385 59.1012 29.9385 56.0412C29.9385 52.5612 27.1485 50.1912 23.0685 50.1912H17.0385V50.3112C17.3685 50.5212 17.6385 50.9112 17.6385 51.3312V70.0512C17.6385 70.4712 17.3685 70.8612 17.0385 71.0712V71.1912H19.6485V71.0712C19.3185 70.8612 19.0485 70.4712 19.0485 70.0512V61.8912H21.8085C25.9485 61.8912 26.9985 71.5812 33.0585 71.5812C35.1885 71.5812 36.6285 70.2312 36.6285 69.6012C36.6285 69.4812 36.5385 69.4212 36.4485 69.4212ZM19.0485 60.5412V51.5412H23.2485C26.4285 51.5412 28.5285 53.3112 28.5285 56.0412C28.5285 58.8012 26.4285 60.5412 23.0385 60.5412H19.0485ZM32.6608 66.2712H35.2708V66.1512C34.9408 65.9412 34.6708 65.5512 34.6708 65.1312V51.3312C34.6708 50.9112 34.9408 50.5212 35.2708 50.3112V50.1912H32.6608V50.3112C32.9908 50.5212 33.2608 50.9112 33.2608 51.3312V65.1312C33.2608 65.5512 32.9908 65.9412 32.6608 66.1512V66.2712ZM52.0377 50.3112V50.1912H49.3977V50.3112C49.7277 50.5212 49.9977 50.9112 49.9977 51.3312V65.7312C48.6477 61.9812 40.0977 56.6112 40.0977 51.3912V51.3312C40.0977 50.9112 40.3677 50.5212 40.6977 50.3112V50.1912H38.0877V50.3112C38.4177 50.5212 38.6877 50.9112 38.6877 51.3312V70.0512C38.6877 70.4712 38.4177 70.8612 38.0877 71.0712V71.1912H40.6977V71.0712C40.3677 70.8612 40.0977 70.4712 40.0977 70.0512V55.4712C41.3577 59.1312 49.9977 64.8612 49.9977 69.9912V70.0512C49.9977 70.4712 49.7277 70.8612 49.3977 71.0712V71.1912H52.0377V71.0712C51.7077 70.8612 51.4377 70.4712 51.4377 70.0512V51.3312C51.4377 50.9112 51.7077 50.5212 52.0377 50.3112ZM64.6082 71.6412C69.5582 71.6412 72.3482 68.4312 72.3482 67.5012C72.3482 67.3812 72.3182 67.3212 72.2282 67.3212C71.7482 67.3212 69.9182 70.2912 64.7582 70.2912C59.2682 70.2912 55.4582 66.2412 55.4582 60.5112C55.4582 54.4512 59.9582 51.0912 64.6382 51.0912C67.7582 51.0912 70.0682 52.6212 70.6682 53.6112H70.8782V51.0912H70.6682C70.6082 51.2112 70.5182 51.3012 70.3682 51.3012C69.7682 51.3012 68.0582 49.7412 64.6382 49.7412C58.9382 49.7412 53.9882 54.0612 53.9882 60.6012C53.9882 67.2612 58.9382 71.6412 64.6082 71.6412ZM88.0633 69.2712C87.8833 69.6612 87.4933 69.8412 87.0433 69.8412H75.8833V58.0512H82.9333C83.3533 58.0512 83.7433 58.3212 83.9533 58.5912H84.0733V56.1612H83.9533C83.7433 56.4612 83.3533 56.7012 82.9333 56.7012H75.8833V51.5412H82.4533C82.9033 51.5412 83.2933 51.7212 83.4733 52.1112H83.6533L83.3533 50.1912H73.8733V50.3112C74.2033 50.5212 74.4733 50.9112 74.4733 51.3312V70.0512C74.4733 70.4712 74.2033 70.8612 73.8733 71.0712V71.1912H87.9133L88.2133 69.2712H88.0633ZM98.3718 50.1912H85.9518L85.6518 52.1112H85.8318C86.0118 51.7212 86.4018 51.5412 86.8518 51.5412H91.4418V70.0512C91.4418 70.4712 91.1718 70.8612 90.8418 71.0712V71.1912H93.4818V71.0712C93.1518 70.8612 92.8818 70.4712 92.8818 70.0512V51.5412H97.5018C97.9818 51.5412 98.3718 51.7212 98.5218 52.1112H98.6718L98.3718 50.1912ZM105.277 71.6112C110.107 71.6112 113.977 67.5912 113.977 62.6412C113.977 57.6612 110.107 53.6412 105.277 53.6412C100.507 53.6412 96.607 57.6612 96.607 62.6412C96.607 67.5912 100.507 71.6112 105.277 71.6112ZM105.277 70.3212C101.287 70.3212 98.017 66.9012 98.017 62.6412C98.017 58.3812 101.287 54.9312 105.277 54.9312C109.327 54.9312 112.597 58.3812 112.597 62.6412C112.597 66.9012 109.327 70.3212 105.277 70.3212ZM129.885 50.3112V50.1912H127.245V50.3112C127.575 50.5212 127.845 50.9112 127.845 51.3312V65.7312C126.495 61.9812 117.945 56.6112 117.945 51.3912V51.3312C117.945 50.9112 118.215 50.5212 118.545 50.3112V50.1912H115.935V50.3112C116.265 50.5212 116.535 50.9112 116.535 51.3312V70.0512C116.535 70.4712 116.265 70.8612 115.935 71.0712V71.1912H118.545V71.0712C118.215 70.8612 117.945 70.4712 117.945 70.0512V55.4712C119.205 59.1312 127.845 64.8612 127.845 69.9912V70.0512C127.845 70.4712 127.575 70.8612 127.245 71.0712V71.1912H129.885V71.0712C129.555 70.8612 129.285 70.4712 129.285 70.0512V51.3312C129.285 50.9112 129.555 50.5212 129.885 50.3112Z" fill="#FEFEFE"/>
<path d="M151.4 57.1912H141.22L140.84 59.6512H140.96C141.12 59.3312 141.52 59.1312 142 59.1312H145.24V70.0112C145.24 70.4512 145.02 70.8512 144.66 71.1112V71.1912H147.98V71.1112C147.62 70.8512 147.4 70.4512 147.4 70.0112V59.1312H150.66C151.12 59.1312 151.54 59.3312 151.68 59.6512H151.8L151.4 57.1912ZM150.867 71.1912H154.167V71.1112C153.807 70.8512 153.587 70.4512 153.587 70.0112V62.4312C153.587 61.9712 153.807 61.5712 154.167 61.3312V61.2512H150.867V61.3312C151.207 61.5712 151.427 61.9712 151.427 62.4312V70.0112C151.427 70.4512 151.207 70.8512 150.867 71.1112V71.1912ZM168.67 57.2712V57.1912H165.23V57.2712C165.63 57.4912 165.83 57.9112 165.49 58.3312L162.31 62.2112L159.13 58.3312C158.79 57.9112 158.99 57.4912 159.39 57.2712V57.1912H155.95V57.2712C156.29 57.5312 156.51 57.9112 156.51 58.3712V70.0112C156.51 70.4512 156.29 70.8512 155.95 71.1112V71.1912H159.25V71.1112C158.89 70.8512 158.67 70.4512 158.67 70.0112V61.1312L162.27 65.5312H162.35L165.95 61.1312V70.0112C165.95 70.4512 165.73 70.8512 165.37 71.1112V71.1912H168.67V71.1112C168.31 70.8512 168.11 70.4512 168.11 70.0112V58.3712C168.11 57.9112 168.31 57.5312 168.67 57.2712ZM181.006 68.7312C180.846 69.0512 180.446 69.2512 179.966 69.2512H173.186V64.1512H177.446C177.906 64.1512 178.286 64.3512 178.546 64.6712H178.626V61.6912H178.546C178.286 62.0312 177.906 62.2112 177.446 62.2112H173.186V59.1312H176.906C177.386 59.1312 177.786 59.3312 177.946 59.6512H178.066L177.686 57.1912H170.466V57.2712C170.806 57.5312 171.026 57.9112 171.026 58.3712V70.0112C171.026 70.4512 170.806 70.8512 170.466 71.1112V71.1912H180.726L181.126 68.7312H181.006ZM189.895 57.1912H179.715L179.335 59.6512H179.455C179.615 59.3312 180.015 59.1312 180.495 59.1312H183.735V70.0112C183.735 70.4512 183.515 70.8512 183.155 71.1112V71.1912H186.475V71.1112C186.115 70.8512 185.895 70.4512 185.895 70.0112V59.1312H189.155C189.615 59.1312 190.035 59.3312 190.175 59.6512H190.295L189.895 57.1912ZM202.6 70.5712C200.32 70.5712 199.94 66.0912 197.92 65.0512C199.94 64.5912 201.24 63.2712 201.24 61.2712C201.24 58.7312 199.28 57.1912 196.2 57.1912H191.14V57.2712C191.48 57.5312 191.7 57.9112 191.7 58.3712V70.0112C191.7 70.4512 191.48 70.8512 191.14 71.1112V71.1912H194.44V71.1112C194.08 70.8512 193.86 70.4512 193.86 70.0112V65.5312H195.26C197.96 65.5312 197.88 71.4112 201.54 71.4112C202.36 71.4112 202.86 70.9912 202.86 70.7312C202.86 70.6112 202.8 70.5712 202.6 70.5712ZM193.86 63.6112V59.1312H196.3C198.1 59.1312 199.1 59.8512 199.1 61.3312C199.1 62.7712 198.04 63.6112 196.3 63.6112H193.86ZM212.411 68.7312C212.251 69.0512 211.851 69.2512 211.391 69.2512H206.091V64.1512H209.831C210.291 64.1512 210.691 64.3512 210.951 64.6712H211.031V61.6912H210.951C210.691 62.0312 210.291 62.2112 209.831 62.2112H206.091V59.1312H210.791C211.271 59.1312 211.671 59.3312 211.851 59.6512H211.971L211.571 57.1912H203.371V57.2712C203.711 57.5312 203.931 57.9112 203.931 58.3712V70.0112C203.931 70.4512 203.711 70.8512 203.371 71.1112V71.1912H212.131L212.531 68.7312H212.411ZM222.67 68.7312C222.51 69.0512 222.11 69.2512 221.65 69.2512H216.35V64.1512H220.09C220.55 64.1512 220.95 64.3512 221.21 64.6712H221.29V61.6912H221.21C220.95 62.0312 220.55 62.2112 220.09 62.2112H216.35V59.1312H221.05C221.53 59.1312 221.93 59.3312 222.11 59.6512H222.23L221.83 57.1912H213.63V57.2712C213.97 57.5312 214.19 57.9112 214.19 58.3712V70.0112C214.19 70.4512 213.97 70.8512 213.63 71.1112V71.1912H222.39L222.79 68.7312H222.67Z" fill="#FEFEFE"/>
</svg>
