<svg width="552" height="44" viewBox="0 0 552 44" fill="none" xmlns="http://www.w3.org/2000/svg">
<path d="M2.29133 34.6912H20.2113L20.6113 32.1312H20.4113C20.2113 32.6512 19.6913 32.8912 19.0513 32.8912H4.97133V8.21116C4.97133 7.65116 5.33133 7.13116 5.77133 6.85116V6.69116H2.29133V6.85116C2.73133 7.13116 3.09133 7.65116 3.09133 8.21116V33.1712C3.09133 33.7312 2.73133 34.2512 2.29133 34.5312V34.6912ZM17.9485 28.5312C22.1085 28.5312 25.0685 25.6112 25.0685 20.2912V8.21116C25.0685 7.65116 25.4285 7.13116 25.8685 6.85116V6.69116H22.3485V6.85116C22.7885 7.13116 23.1485 7.65116 23.1485 8.21116V20.2512C23.1485 24.5712 21.0685 26.7312 17.9485 26.7312C14.8285 26.7312 12.7085 24.5712 12.7085 20.2512V8.21116C12.7085 7.65116 13.0685 7.13116 13.5085 6.85116V6.69116H9.98852V6.85116C10.4285 7.13116 10.7885 7.65116 10.7885 8.21116V20.2912C10.7885 25.6112 13.7485 28.5312 17.9485 28.5312ZM47.8241 6.85116V6.69116H44.3041V6.85116C44.7441 7.13116 45.1041 7.65116 45.1041 8.21116V27.4112C43.3041 22.4112 31.9041 15.2512 31.9041 8.29116V8.21116C31.9041 7.65116 32.2641 7.13116 32.7041 6.85116V6.69116H29.2241V6.85116C29.6641 7.13116 30.0241 7.65116 30.0241 8.21116V33.1712C30.0241 33.7312 29.6641 34.2512 29.2241 34.5312V34.6912H32.7041V34.5312C32.2641 34.2512 31.9041 33.7312 31.9041 33.1712V13.7312C33.5841 18.6112 45.1041 26.2512 45.1041 33.0912V33.1712C45.1041 33.7312 44.7441 34.2512 44.3041 34.5312V34.6912H47.8241V34.5312C47.3841 34.2512 47.0241 33.7312 47.0241 33.1712V8.21116C47.0241 7.65116 47.3841 7.13116 47.8241 6.85116ZM68.7373 33.2112L62.5373 8.17116C62.3773 7.61116 62.5773 7.13116 63.0973 6.85116V6.69116H56.4973V6.85116C57.0173 7.13116 57.2173 7.61116 57.0573 8.17116L50.8173 33.2112C50.6573 33.8912 50.2173 34.2512 49.7773 34.5312V34.6912H53.2573V34.5312C52.7373 34.2512 52.5773 33.7712 52.7373 33.2112L54.4973 26.1312H65.0973L66.8573 33.2112C66.9773 33.7312 66.8573 34.2112 66.2973 34.5312V34.6912H69.8173V34.5312C69.4173 34.2912 68.9373 33.8912 68.7373 33.2112ZM54.9373 24.3312L58.8973 8.53116H60.6973L64.6573 24.3312H54.9373ZM89.7232 33.2112L83.5232 8.17116C83.3632 7.61116 83.5632 7.13116 84.0832 6.85116V6.69116H77.4832V6.85116C78.0032 7.13116 78.2032 7.61116 78.0432 8.17116L71.8032 33.2112C71.6432 33.8912 71.2032 34.2512 70.7632 34.5312V34.6912H74.2432V34.5312C73.7232 34.2512 73.5632 33.7712 73.7232 33.2112L75.4832 26.1312H86.0832L87.8432 33.2112C87.9632 33.7312 87.8432 34.2112 87.2832 34.5312V34.6912H90.8032V34.5312C90.4032 34.2912 89.9232 33.8912 89.7232 33.2112ZM75.9232 24.3312L79.8832 8.53116H81.6832L85.6432 24.3312H75.9232ZM101.008 6.69116H92.7679V6.85116C93.2079 7.13116 93.5679 7.65116 93.5679 8.21116V33.1712C93.5679 33.7312 93.2079 34.2512 92.7679 34.5312V34.6912H96.2479V34.5312C95.8079 34.2512 95.4479 33.7312 95.4479 33.1712V23.1712H101.008C106.608 23.1712 110.528 20.2112 110.528 14.9712C110.528 9.81116 106.928 6.69116 101.008 6.69116ZM101.008 21.3712H95.4479V8.49116H100.888C105.928 8.49116 108.608 10.8112 108.608 15.0112C108.608 19.3712 105.688 21.3712 101.008 21.3712ZM128.531 33.2112L122.331 8.17116C122.171 7.61116 122.371 7.13116 122.891 6.85116V6.69116H116.291V6.85116C116.811 7.13116 117.011 7.61116 116.851 8.17116L110.611 33.2112C110.451 33.8912 110.011 34.2512 109.571 34.5312V34.6912H113.051V34.5312C112.531 34.2512 112.371 33.7712 112.531 33.2112L114.291 26.1312H124.891L126.651 33.2112C126.771 33.7312 126.651 34.2112 126.091 34.5312V34.6912H129.611V34.5312C129.211 34.2912 128.731 33.8912 128.531 33.2112ZM114.731 24.3312L118.691 8.53116H120.491L124.451 24.3312H114.731ZM150.056 6.85116V6.69116H146.536V6.85116C146.976 7.13116 147.336 7.65116 147.336 8.21116V20.1712H134.256V8.21116C134.256 7.65116 134.616 7.13116 135.056 6.85116V6.69116H131.576V6.85116C132.016 7.13116 132.376 7.65116 132.376 8.21116V33.1712C132.376 33.7312 132.016 34.2512 131.576 34.5312V34.6912H135.056V34.5312C134.616 34.2512 134.256 33.7312 134.256 33.1712V21.9712H147.336V33.1712C147.336 33.7312 146.976 34.2512 146.536 34.5312V34.6912H150.056V34.5312C149.616 34.2512 149.256 33.7312 149.256 33.1712V8.21116C149.256 7.65116 149.616 7.13116 150.056 6.85116ZM177.172 32.1712C176.652 32.1712 175.412 33.7712 173.292 33.7712C166.852 33.7712 166.332 19.8112 161.332 17.4112L169.892 7.89116C170.252 7.45116 170.732 7.05116 171.292 6.85116V6.69116H167.412V6.85116C167.972 7.13116 167.812 7.49116 167.452 7.89116L156.492 20.0112V8.21116C156.492 7.65116 156.852 7.13116 157.292 6.85116V6.69116H153.812V6.85116C154.252 7.13116 154.612 7.65116 154.612 8.21116V33.1712C154.612 33.7312 154.252 34.2512 153.812 34.5312V34.6912H157.292V34.5312C156.852 34.2512 156.492 33.7312 156.492 33.1712V22.7712L159.972 18.8912C164.652 20.6912 165.092 35.2912 172.812 35.2912C175.492 35.2912 177.372 33.2112 177.372 32.4112C177.372 32.2512 177.292 32.1712 177.172 32.1712ZM173.352 28.1312H176.832V27.9712C176.392 27.6912 176.032 27.1712 176.032 26.6112V8.21116C176.032 7.65116 176.392 7.13116 176.832 6.85116V6.69116H173.352V6.85116C173.792 7.13116 174.152 7.65116 174.152 8.21116V26.6112C174.152 27.1712 173.792 27.6912 173.352 27.9712V28.1312ZM180.588 34.6912H184.068V34.5312C183.628 34.2512 183.268 33.7312 183.268 33.1712V8.21116C183.268 7.65116 183.628 7.13116 184.068 6.85116V6.69116H180.588V6.85116C181.028 7.13116 181.388 7.65116 181.388 8.21116V33.1712C181.388 33.7312 181.028 34.2512 180.588 34.5312V34.6912ZM206.424 6.85116V6.69116H202.904V6.85116C203.344 7.13116 203.704 7.65116 203.704 8.21116V27.4112C201.904 22.4112 190.504 15.2512 190.504 8.29116V8.21116C190.504 7.65116 190.864 7.13116 191.304 6.85116V6.69116H187.824V6.85116C188.264 7.13116 188.624 7.65116 188.624 8.21116V33.1712C188.624 33.7312 188.264 34.2512 187.824 34.5312V34.6912H191.304V34.5312C190.864 34.2512 190.504 33.7312 190.504 33.1712V13.7312C192.184 18.6112 203.704 26.2512 203.704 33.0912V33.1712C203.704 33.7312 203.344 34.2512 202.904 34.5312V34.6912H206.424V34.5312C205.984 34.2512 205.624 33.7312 205.624 33.1712V8.21116C205.624 7.65116 205.984 7.13116 206.424 6.85116ZM232.705 21.6512V21.4912H229.185V21.6512C229.625 21.9312 229.985 22.4512 229.985 23.0112V31.9312C228.665 32.6912 226.585 33.4912 223.745 33.4912C216.385 33.4912 210.985 28.0112 210.985 20.4512C210.985 13.3712 216.025 7.77116 223.145 7.77116C226.065 7.77116 229.785 8.77116 231.425 11.1312H231.585V7.69116H231.425C231.345 7.85116 231.185 8.01116 230.985 8.01116C230.145 8.01116 227.545 6.09116 223.145 6.09116C214.945 6.09116 209.025 12.5312 209.025 20.4912C209.025 28.6912 215.025 35.2912 223.665 35.2912C227.065 35.2912 229.585 34.3712 232.465 32.5312V32.3712C232.065 32.1712 231.905 31.8512 231.905 31.3712V23.0112C231.905 22.4512 232.265 21.9312 232.705 21.6512ZM252.264 6.69116H244.024V6.85116C244.464 7.13116 244.824 7.65116 244.824 8.21116V33.1712C244.824 33.7312 244.464 34.2512 244.024 34.5312V34.6912H247.504V34.5312C247.064 34.2512 246.704 33.7312 246.704 33.1712V23.1712H252.264C257.864 23.1712 261.784 20.2112 261.784 14.9712C261.784 9.81116 258.184 6.69116 252.264 6.69116ZM252.264 21.3712H246.704V8.49116H252.144C257.184 8.49116 259.864 10.8112 259.864 15.0112C259.864 19.3712 256.944 21.3712 252.264 21.3712ZM290.109 32.3312C289.629 32.3312 288.429 33.6912 286.189 33.6912C280.549 33.6912 278.109 25.0912 274.309 22.1712C278.629 21.4912 281.429 18.5712 281.429 14.4912C281.429 9.85116 277.709 6.69116 272.269 6.69116H264.229V6.85116C264.669 7.13116 265.029 7.65116 265.029 8.21116V33.1712C265.029 33.7312 264.669 34.2512 264.229 34.5312V34.6912H267.709V34.5312C267.269 34.2512 266.909 33.7312 266.909 33.1712V22.2912H270.589C276.109 22.2912 277.509 35.2112 285.589 35.2112C288.429 35.2112 290.349 33.4112 290.349 32.5712C290.349 32.4112 290.229 32.3312 290.109 32.3312ZM266.909 20.4912V8.49116H272.509C276.749 8.49116 279.549 10.8512 279.549 14.4912C279.549 18.1712 276.749 20.4912 272.229 20.4912H266.909ZM285.059 28.1312H288.539V27.9712C288.099 27.6912 287.739 27.1712 287.739 26.6112V8.21116C287.739 7.65116 288.099 7.13116 288.539 6.85116V6.69116H285.059V6.85116C285.499 7.13116 285.859 7.65116 285.859 8.21116V26.6112C285.859 27.1712 285.499 27.6912 285.059 27.9712V28.1312ZM310.894 6.85116V6.69116H307.374V6.85116C307.814 7.13116 308.174 7.65116 308.174 8.21116V27.4112C306.374 22.4112 294.974 15.2512 294.974 8.29116V8.21116C294.974 7.65116 295.334 7.13116 295.774 6.85116V6.69116H292.294V6.85116C292.734 7.13116 293.094 7.65116 293.094 8.21116V33.1712C293.094 33.7312 292.734 34.2512 292.294 34.5312V34.6912H295.774V34.5312C295.334 34.2512 294.974 33.7312 294.974 33.1712V13.7312C296.654 18.6112 308.174 26.2512 308.174 33.0912V33.1712C308.174 33.7312 307.814 34.2512 307.374 34.5312V34.6912H310.894V34.5312C310.454 34.2512 310.094 33.7312 310.094 33.1712V8.21116C310.094 7.65116 310.454 7.13116 310.894 6.85116ZM327.655 35.2912C334.255 35.2912 337.975 31.0112 337.975 29.7712C337.975 29.6112 337.935 29.5312 337.815 29.5312C337.175 29.5312 334.735 33.4912 327.855 33.4912C320.535 33.4912 315.455 28.0912 315.455 20.4512C315.455 12.3712 321.455 7.89116 327.695 7.89116C331.855 7.89116 334.935 9.93116 335.735 11.2512H336.015V7.89116H335.735C335.655 8.05116 335.535 8.17116 335.335 8.17116C334.535 8.17116 332.255 6.09116 327.695 6.09116C320.095 6.09116 313.495 11.8512 313.495 20.5712C313.495 29.4512 320.095 35.2912 327.655 35.2912ZM358.929 32.1312C358.689 32.6512 358.169 32.8912 357.569 32.8912H342.689V17.1712H352.089C352.649 17.1712 353.169 17.5312 353.449 17.8912H353.609V14.6512H353.449C353.169 15.0512 352.649 15.3712 352.089 15.3712H342.689V8.49116H351.449C352.049 8.49116 352.569 8.73116 352.809 9.25116H353.049L352.649 6.69116H340.009V6.85116C340.449 7.13116 340.809 7.65116 340.809 8.21116V33.1712C340.809 33.7312 340.449 34.2512 340.009 34.5312V34.6912H358.729L359.129 32.1312H358.929ZM372.673 6.69116H356.113L355.713 9.25116H355.953C356.193 8.73116 356.713 8.49116 357.313 8.49116H363.433V33.1712C363.433 33.7312 363.073 34.2512 362.633 34.5312V34.6912H366.153V34.5312C365.713 34.2512 365.353 33.7312 365.353 33.1712V8.49116H371.513C372.153 8.49116 372.673 8.73116 372.873 9.25116H373.073L372.673 6.69116ZM381.88 35.2512C388.32 35.2512 393.48 29.8912 393.48 23.2912C393.48 16.6512 388.32 11.2912 381.88 11.2912C375.52 11.2912 370.32 16.6512 370.32 23.2912C370.32 29.8912 375.52 35.2512 381.88 35.2512ZM381.88 33.5312C376.56 33.5312 372.2 28.9712 372.2 23.2912C372.2 17.6112 376.56 13.0112 381.88 13.0112C387.28 13.0112 391.64 17.6112 391.64 23.2912C391.64 28.9712 387.28 33.5312 381.88 33.5312ZM414.691 6.85116V6.69116H411.171V6.85116C411.611 7.13116 411.971 7.65116 411.971 8.21116V27.4112C410.171 22.4112 398.771 15.2512 398.771 8.29116V8.21116C398.771 7.65116 399.131 7.13116 399.571 6.85116V6.69116H396.091V6.85116C396.531 7.13116 396.891 7.65116 396.891 8.21116V33.1712C396.891 33.7312 396.531 34.2512 396.091 34.5312V34.6912H399.571V34.5312C399.131 34.2512 398.771 33.7312 398.771 33.1712V13.7312C400.451 18.6112 411.971 26.2512 411.971 33.0912V33.1712C411.971 33.7312 411.611 34.2512 411.171 34.5312V34.6912H414.691V34.5312C414.251 34.2512 413.891 33.7312 413.891 33.1712V8.21116C413.891 7.65116 414.251 7.13116 414.691 6.85116Z" fill="#FEFEFE"/>
<path d="M444.6 13.6912H429.33L428.76 17.3812H428.94C429.18 16.9012 429.78 16.6012 430.5 16.6012H435.36V32.9212C435.36 33.5812 435.03 34.1812 434.49 34.5712V34.6912H439.47V34.5712C438.93 34.1812 438.6 33.5812 438.6 32.9212V16.6012H443.49C444.18 16.6012 444.81 16.9012 445.02 17.3812H445.2L444.6 13.6912ZM443.801 34.6912H448.751V34.5712C448.211 34.1812 447.881 33.5812 447.881 32.9212V21.5512C447.881 20.8612 448.211 20.2612 448.751 19.9012V19.7812H443.801V19.9012C444.311 20.2612 444.641 20.8612 444.641 21.5512V32.9212C444.641 33.5812 444.311 34.1812 443.801 34.5712V34.6912ZM470.505 13.8112V13.6912H465.345V13.8112C465.945 14.1412 466.245 14.7712 465.735 15.4012L460.965 21.2212L456.195 15.4012C455.685 14.7712 455.985 14.1412 456.585 13.8112V13.6912H451.425V13.8112C451.935 14.2012 452.265 14.7712 452.265 15.4612V32.9212C452.265 33.5812 451.935 34.1812 451.425 34.5712V34.6912H456.375V34.5712C455.835 34.1812 455.505 33.5812 455.505 32.9212V19.6012L460.905 26.2012H461.025L466.425 19.6012V32.9212C466.425 33.5812 466.095 34.1812 465.555 34.5712V34.6912H470.505V34.5712C469.965 34.1812 469.665 33.5812 469.665 32.9212V15.4612C469.665 14.7712 469.965 14.2012 470.505 13.8112ZM489.01 31.0012C488.77 31.4812 488.17 31.7812 487.45 31.7812H477.28V24.1312H483.67C484.36 24.1312 484.93 24.4312 485.32 24.9112H485.44V20.4412H485.32C484.93 20.9512 484.36 21.2212 483.67 21.2212H477.28V16.6012H482.86C483.58 16.6012 484.18 16.9012 484.42 17.3812H484.6L484.03 13.6912H473.2V13.8112C473.71 14.2012 474.04 14.7712 474.04 15.4612V32.9212C474.04 33.5812 473.71 34.1812 473.2 34.5712V34.6912H488.59L489.19 31.0012H489.01ZM502.343 13.6912H487.073L486.503 17.3812H486.683C486.923 16.9012 487.523 16.6012 488.243 16.6012H493.103V32.9212C493.103 33.5812 492.773 34.1812 492.233 34.5712V34.6912H497.213V34.5712C496.673 34.1812 496.343 33.5812 496.343 32.9212V16.6012H501.233C501.923 16.6012 502.553 16.9012 502.763 17.3812H502.943L502.343 13.6912ZM521.4 33.7612C517.98 33.7612 517.41 27.0412 514.38 25.4812C517.41 24.7912 519.36 22.8112 519.36 19.8112C519.36 16.0012 516.42 13.6912 511.8 13.6912H504.21V13.8112C504.72 14.2012 505.05 14.7712 505.05 15.4612V32.9212C505.05 33.5812 504.72 34.1812 504.21 34.5712V34.6912H509.16V34.5712C508.62 34.1812 508.29 33.5812 508.29 32.9212V26.2012H510.39C514.44 26.2012 514.32 35.0212 519.81 35.0212C521.04 35.0212 521.79 34.3912 521.79 34.0012C521.79 33.8212 521.7 33.7612 521.4 33.7612ZM508.29 23.3212V16.6012H511.95C514.65 16.6012 516.15 17.6812 516.15 19.9012C516.15 22.0612 514.56 23.3212 511.95 23.3212H508.29ZM536.117 31.0012C535.877 31.4812 535.277 31.7812 534.587 31.7812H526.637V24.1312H532.247C532.937 24.1312 533.537 24.4312 533.927 24.9112H534.047V20.4412H533.927C533.537 20.9512 532.937 21.2212 532.247 21.2212H526.637V16.6012H533.687C534.407 16.6012 535.007 16.9012 535.277 17.3812H535.457L534.857 13.6912H522.557V13.8112C523.067 14.2012 523.397 14.7712 523.397 15.4612V32.9212C523.397 33.5812 523.067 34.1812 522.557 34.5712V34.6912H535.697L536.297 31.0012H536.117ZM551.505 31.0012C551.265 31.4812 550.665 31.7812 549.975 31.7812H542.025V24.1312H547.635C548.325 24.1312 548.925 24.4312 549.315 24.9112H549.435V20.4412H549.315C548.925 20.9512 548.325 21.2212 547.635 21.2212H542.025V16.6012H549.075C549.795 16.6012 550.395 16.9012 550.665 17.3812H550.845L550.245 13.6912H537.945V13.8112C538.455 14.2012 538.785 14.7712 538.785 15.4612V32.9212C538.785 33.5812 538.455 34.1812 537.945 34.5712V34.6912H551.085L551.685 31.0012H551.505Z" fill="#FEFEFE"/>
</svg>
