<svg width="235" height="67" viewBox="0 0 235 67" fill="none" xmlns="http://www.w3.org/2000/svg">
<path d="M1.07672 26.5V26.356C1.65272 25.96 2.04872 25.276 2.04872 24.556V3.244C2.04872 2.488 1.65272 1.84 1.07672 1.444V1.3H6.36872V1.444C5.75672 1.84 5.39672 2.488 5.39672 3.244V23.476H18.2847C19.0767 23.476 19.7247 23.116 19.9767 22.576H20.1927L19.6527 26.5H1.07672ZM17.3321 20.164C12.7241 20.164 9.95213 17.248 9.95213 11.884V3.244C9.95213 2.488 9.59213 1.84 9.01612 1.444V1.3H14.3081V1.444C13.7321 1.84 13.3361 2.488 13.3361 3.244V11.848C13.3361 15.232 14.6681 17.104 17.3681 17.104C20.0321 17.104 21.3641 15.232 21.3641 11.848V3.244C21.3641 2.488 21.0041 1.84 20.3921 1.444V1.3H25.7201V1.444C25.1441 1.84 24.7481 2.488 24.7481 3.244V11.884C24.7481 17.248 21.9761 20.164 17.3321 20.164ZM47.3033 1.444C46.7273 1.84 46.3313 2.488 46.3313 3.244V24.556C46.3313 25.276 46.7273 25.96 47.3033 26.356V26.5H42.0113V26.356C42.6233 25.96 42.9833 25.276 42.9833 24.556V24.52C42.9833 18.94 33.8753 14.044 32.2913 9.868V24.556C32.2913 25.276 32.6513 25.96 33.2633 26.356V26.5H27.9713V26.356C28.5473 25.96 28.9433 25.276 28.9433 24.556V3.244C28.9433 2.488 28.5473 1.84 27.9713 1.444V1.3H33.2633V1.444C32.6513 1.84 32.2913 2.488 32.2913 3.244V3.28C32.2913 8.788 41.3273 13.468 42.9833 17.788V3.244C42.9833 2.488 42.6233 1.84 42.0113 1.444V1.3H47.3033V1.444ZM68.442 24.484C68.658 25.384 69.234 25.996 69.774 26.356V26.5H64.482V26.356C65.274 25.96 65.454 25.276 65.238 24.484L63.942 19.516H54.474L53.214 24.52C53.034 25.276 53.142 25.924 53.934 26.356V26.5H48.642V26.356C49.11 25.996 49.758 25.384 49.974 24.484L55.446 3.316C55.662 2.524 55.482 1.876 54.69 1.444V1.3H63.726V1.444C63.006 1.876 62.79 2.524 63.006 3.316L68.442 24.484ZM55.266 16.492H63.186L60.054 4.36H58.362L55.266 16.492ZM90.1334 24.484C90.3494 25.384 90.9254 25.996 91.4654 26.356V26.5H86.1734V26.356C86.9654 25.96 87.1454 25.276 86.9294 24.484L85.6334 19.516H76.1654L74.9054 24.52C74.7254 25.276 74.8334 25.924 75.6254 26.356V26.5H70.3334V26.356C70.8014 25.996 71.4494 25.384 71.6654 24.484L77.1374 3.316C77.3534 2.524 77.1734 1.876 76.3814 1.444V1.3H85.4174V1.444C84.6974 1.876 84.4814 2.524 84.6974 3.316L90.1334 24.484ZM76.9574 16.492H84.8774L81.7454 4.36H80.0534L76.9574 16.492ZM101.547 1.3C107.091 1.3 110.583 4.216 110.583 8.968C110.583 13.756 106.983 16.672 101.655 16.672H97.1194V24.556C97.1194 25.276 97.4794 25.96 98.0914 26.356V26.5H92.7994V26.356C93.3754 25.96 93.7714 25.276 93.7714 24.556V3.244C93.7714 2.488 93.3754 1.84 92.7994 1.444V1.3H101.547ZM101.619 13.612C105.111 13.612 107.235 12.136 107.235 9.004C107.235 5.944 105.219 4.324 101.583 4.324H97.1194V13.612H101.619ZM128.876 24.484C129.092 25.384 129.668 25.996 130.208 26.356V26.5H124.916V26.356C125.708 25.96 125.888 25.276 125.672 24.484L124.376 19.516H114.908L113.648 24.52C113.468 25.276 113.576 25.924 114.368 26.356V26.5H109.076V26.356C109.544 25.996 110.192 25.384 110.408 24.484L115.88 3.316C116.096 2.524 115.916 1.876 115.124 1.444V1.3H124.16V1.444C123.44 1.876 123.224 2.524 123.44 3.316L128.876 24.484ZM115.7 16.492H123.62L120.488 4.36H118.796L115.7 16.492ZM150.586 1.444C150.01 1.84 149.614 2.488 149.614 3.244V24.556C149.614 25.276 150.01 25.96 150.586 26.356V26.5H145.294V26.356C145.906 25.96 146.266 25.276 146.266 24.556V15.772H135.862V24.556C135.862 25.276 136.222 25.96 136.834 26.356V26.5H131.542V26.356C132.118 25.96 132.514 25.276 132.514 24.556V3.244C132.514 2.488 132.118 1.84 131.542 1.444V1.3H136.834V1.444C136.222 1.84 135.862 2.488 135.862 3.244V12.712H146.266V3.244C146.266 2.488 145.906 1.84 145.294 1.444V1.3H150.586V1.444ZM178.211 23.008C178.355 23.008 178.535 23.188 178.535 23.692C178.535 25.06 176.555 27.22 173.531 27.22C165.863 27.22 165.575 14.98 161.255 13.36L157.799 17.176V24.556C157.799 25.276 158.159 25.96 158.771 26.356V26.5H153.479V26.356C154.055 25.96 154.451 25.276 154.451 24.556V3.244C154.451 2.488 154.055 1.84 153.479 1.444V1.3H158.771V1.444C158.159 1.84 157.799 2.488 157.799 3.244V12.532L166.259 3.136C166.871 2.488 166.943 1.876 166.295 1.444V1.3H172.379V1.444C171.947 1.624 171.083 2.416 170.435 3.136L163.451 10.876C168.275 13.396 168.527 24.412 174.251 24.412C176.267 24.412 177.743 23.008 178.211 23.008ZM173.975 19.552V19.408C174.551 18.976 174.947 18.328 174.947 17.572V3.244C174.947 2.488 174.551 1.84 173.975 1.444V1.3H179.267V1.444C178.655 1.84 178.295 2.488 178.295 3.244V17.572C178.295 18.328 178.655 18.976 179.267 19.408V19.552H173.975ZM182.131 26.5V26.356C182.707 25.96 183.103 25.276 183.103 24.556V3.244C183.103 2.488 182.707 1.84 182.131 1.444V1.3H187.423V1.444C186.811 1.84 186.451 2.488 186.451 3.244V24.556C186.451 25.276 186.811 25.96 187.423 26.356V26.5H182.131ZM209.62 1.444C209.044 1.84 208.648 2.488 208.648 3.244V24.556C208.648 25.276 209.044 25.96 209.62 26.356V26.5H204.328V26.356C204.94 25.96 205.3 25.276 205.3 24.556V24.52C205.3 18.94 196.192 14.044 194.608 9.868V24.556C194.608 25.276 194.968 25.96 195.58 26.356V26.5H190.288V26.356C190.864 25.96 191.26 25.276 191.26 24.556V3.244C191.26 2.488 190.864 1.84 190.288 1.444V1.3H195.58V1.444C194.968 1.84 194.608 2.488 194.608 3.244V3.28C194.608 8.788 203.644 13.468 205.3 17.788V3.244C205.3 2.488 204.94 1.84 204.328 1.444V1.3H209.62V1.444ZM234.327 14.404C233.751 14.836 233.355 15.484 233.355 16.204V22.18C233.355 23.008 233.715 23.548 234.219 23.728V23.872C232.059 25.6 229.107 27.22 225.075 27.22C217.371 27.22 211.647 21.46 211.647 13.828C211.647 6.412 217.155 0.579999 224.679 0.579999C228.711 0.579999 230.943 2.344 232.059 2.344C232.419 2.344 232.635 2.164 232.815 1.948H232.995V6.772H232.851C231.087 4.72 227.703 3.568 224.823 3.568C219.099 3.568 215.031 7.924 215.031 13.792C215.031 19.876 219.279 24.16 225.147 24.16C227.163 24.16 228.747 23.692 230.007 23.008V16.204C230.007 15.484 229.647 14.836 229.071 14.404V14.26H234.327V14.404ZM7.07672 45.5C11.5167 45.5 14.2167 47.84 14.2167 51.71C14.2167 55.64 11.2767 57.86 7.07672 57.86H2.90672V65.36C2.90672 65.78 3.17672 66.17 3.50672 66.38V66.5H0.896719V66.38C1.22672 66.17 1.49672 65.78 1.49672 65.36V46.64C1.49672 46.22 1.22672 45.83 0.896719 45.62V45.5H7.07672ZM7.07672 56.51C10.5867 56.51 12.7767 55.01 12.7767 51.74C12.7767 48.59 10.7667 46.85 6.98672 46.85H2.90672V56.51H7.07672ZM35.1602 64.73C35.2502 64.73 35.3402 64.79 35.3402 64.91C35.3402 65.54 33.9002 66.89 31.7702 66.89C25.7102 66.89 24.6602 57.2 20.5202 57.2H17.7602V65.36C17.7602 65.78 18.0302 66.17 18.3602 66.38V66.5H15.7502V66.38C16.0802 66.17 16.3502 65.78 16.3502 65.36V46.64C16.3502 46.22 16.0802 45.83 15.7502 45.62V45.5H21.7802C25.8602 45.5 28.6502 47.87 28.6502 51.35C28.6502 54.41 26.5502 56.6 23.3102 57.11C26.1602 59.3 27.9902 65.75 32.2202 65.75C33.9002 65.75 34.8002 64.73 35.1602 64.73ZM17.7602 55.85H21.7502C25.1402 55.85 27.2402 54.11 27.2402 51.35C27.2402 48.62 25.1402 46.85 21.9602 46.85H17.7602V55.85ZM31.0725 61.58V61.46C31.4025 61.25 31.6725 60.86 31.6725 60.44V46.64C31.6725 46.22 31.4025 45.83 31.0725 45.62V45.5H33.6825V45.62C33.3525 45.83 33.0825 46.22 33.0825 46.64V60.44C33.0825 60.86 33.3525 61.25 33.6825 61.46V61.58H31.0725ZM50.1495 45.62C49.8195 45.83 49.5495 46.22 49.5495 46.64V65.36C49.5495 65.78 49.8195 66.17 50.1495 66.38V66.5H47.5095V66.38C47.8395 66.17 48.1095 65.78 48.1095 65.36V65.3C48.1095 60.17 39.4695 54.44 38.2095 50.78V65.36C38.2095 65.78 38.4795 66.17 38.8095 66.38V66.5H36.1995V66.38C36.5295 66.17 36.7995 65.78 36.7995 65.36V46.64C36.7995 46.22 36.5295 45.83 36.1995 45.62V45.5H38.8095V45.62C38.4795 45.83 38.2095 46.22 38.2095 46.64V46.7C38.2095 51.92 46.7595 57.29 48.1095 61.04V46.64C48.1095 46.22 47.8395 45.83 47.5095 45.62V45.5H50.1495V45.62ZM62.4199 66.95C56.7499 66.95 51.7999 62.57 51.7999 55.91C51.7999 49.37 56.7499 45.05 62.4499 45.05C65.8699 45.05 67.5799 46.61 68.1799 46.61C68.3299 46.61 68.4199 46.52 68.4799 46.4H68.6899V48.92H68.4799C67.8799 47.93 65.5699 46.4 62.4499 46.4C57.7699 46.4 53.2699 49.76 53.2699 55.82C53.2699 61.55 57.0799 65.6 62.5699 65.6C67.7299 65.6 69.5599 62.63 70.0399 62.63C70.1299 62.63 70.1599 62.69 70.1599 62.81C70.1599 63.74 67.3699 66.95 62.4199 66.95ZM85.575 64.58H85.725L85.425 66.5H71.385V66.38C71.715 66.17 71.985 65.78 71.985 65.36V46.64C71.985 46.22 71.715 45.83 71.385 45.62V45.5H80.865L81.165 47.42H80.985C80.805 47.03 80.415 46.85 79.965 46.85H73.395V52.01H80.445C80.865 52.01 81.255 51.77 81.465 51.47H81.585V53.9H81.465C81.255 53.63 80.865 53.36 80.445 53.36H73.395V65.15H84.555C85.005 65.15 85.395 64.97 85.575 64.58ZM95.5835 45.5L95.8835 47.42H95.7335C95.5835 47.03 95.1935 46.85 94.7135 46.85H90.0935V65.36C90.0935 65.78 90.3635 66.17 90.6935 66.38V66.5H88.0535V66.38C88.3835 66.17 88.6535 65.78 88.6535 65.36V46.85H84.0635C83.6135 46.85 83.2235 47.03 83.0435 47.42H82.8635L83.1635 45.5H95.5835ZM102.189 66.92C97.4187 66.92 93.5187 62.9 93.5187 57.95C93.5187 52.97 97.4187 48.95 102.189 48.95C107.019 48.95 110.889 52.97 110.889 57.95C110.889 62.9 107.019 66.92 102.189 66.92ZM102.189 65.63C106.239 65.63 109.509 62.21 109.509 57.95C109.509 53.69 106.239 50.24 102.189 50.24C98.1987 50.24 94.9287 53.69 94.9287 57.95C94.9287 62.21 98.1987 65.63 102.189 65.63ZM126.497 45.62C126.167 45.83 125.897 46.22 125.897 46.64V65.36C125.897 65.78 126.167 66.17 126.497 66.38V66.5H123.857V66.38C124.187 66.17 124.457 65.78 124.457 65.36V65.3C124.457 60.17 115.817 54.44 114.557 50.78V65.36C114.557 65.78 114.827 66.17 115.157 66.38V66.5H112.547V66.38C112.877 66.17 113.147 65.78 113.147 65.36V46.64C113.147 46.22 112.877 45.83 112.547 45.62V45.5H115.157V45.62C114.827 45.83 114.557 46.22 114.557 46.64V46.7C114.557 51.92 123.107 57.29 124.457 61.04V46.64C124.457 46.22 124.187 45.83 123.857 45.62V45.5H126.497V45.62ZM145.447 45.5L145.747 47.42H145.597C145.447 47.03 145.057 46.85 144.577 46.85H139.957V65.36C139.957 65.78 140.227 66.17 140.557 66.38V66.5H137.917V66.38C138.247 66.17 138.517 65.78 138.517 65.36V46.85H133.927C133.477 46.85 133.087 47.03 132.907 47.42H132.727L133.027 45.5H145.447ZM144.656 66.5V66.38C144.986 66.17 145.256 65.78 145.256 65.36V51.56C145.256 51.14 144.986 50.75 144.656 50.54V50.42H147.266V50.54C146.936 50.75 146.666 51.14 146.666 51.56V65.36C146.666 65.78 146.936 66.17 147.266 66.38V66.5H144.656ZM165.443 45.62C165.113 45.83 164.843 46.22 164.843 46.64V65.36C164.843 65.78 165.113 66.17 165.443 66.38V66.5H162.833V66.38C163.163 66.17 163.433 65.78 163.433 65.36V48.59L157.673 55.52H157.553L151.793 48.59V65.36C151.793 65.78 152.063 66.17 152.393 66.38V66.5H149.783V66.38C150.113 66.17 150.383 65.78 150.383 65.36V46.64C150.383 46.22 150.113 45.83 149.783 45.62V45.5H152.513V45.62C151.943 45.95 151.913 46.49 152.213 46.88L157.613 53.39L163.013 46.88C163.343 46.49 163.283 45.92 162.713 45.62V45.5H165.443V45.62ZM182.167 64.58H182.317L182.017 66.5H167.977V66.38C168.307 66.17 168.577 65.78 168.577 65.36V46.64C168.577 46.22 168.307 45.83 167.977 45.62V45.5H177.457L177.757 47.42H177.577C177.397 47.03 177.007 46.85 176.557 46.85H169.987V52.01H177.037C177.457 52.01 177.847 51.77 178.057 51.47H178.177V53.9H178.057C177.847 53.63 177.457 53.36 177.037 53.36H169.987V65.15H181.147C181.597 65.15 181.987 64.97 182.167 64.58ZM192.175 45.5L192.475 47.42H192.325C192.175 47.03 191.785 46.85 191.305 46.85H186.685V65.36C186.685 65.78 186.955 66.17 187.285 66.38V66.5H184.645V66.38C184.975 66.17 185.245 65.78 185.245 65.36V46.85H180.655C180.205 46.85 179.815 47.03 179.635 47.42H179.455L179.755 45.5H192.175ZM208.104 65.99C208.404 65.99 208.524 66.08 208.524 66.26C208.524 66.56 207.984 66.8 207.204 66.8C202.434 66.8 201.864 57.2 198.474 57.2H195.504V65.36C195.504 65.78 195.774 66.17 196.104 66.38V66.5H193.494V66.38C193.824 66.17 194.094 65.78 194.094 65.36V46.64C194.094 46.22 193.824 45.83 193.494 45.62V45.5H199.584C203.904 45.5 206.394 47.69 206.394 51.2C206.394 54.47 204.204 56.6 200.874 57.02C203.244 58.49 204.174 65.99 208.104 65.99ZM195.504 55.85H199.584C202.884 55.85 204.984 54.17 204.984 51.2C204.984 48.41 203.154 46.85 199.554 46.85H195.504V55.85ZM220.329 64.58H220.479L220.179 66.5H209.139V66.38C209.469 66.17 209.739 65.78 209.739 65.36V46.64C209.739 46.22 209.469 45.83 209.139 45.62V45.5H219.339L219.639 47.42H219.459C219.279 47.03 218.889 46.85 218.439 46.85H211.149V52.01H217.809C218.229 52.01 218.619 51.77 218.829 51.47H218.949V53.9H218.829C218.619 53.63 218.229 53.36 217.809 53.36H211.149V65.15H219.309C219.759 65.15 220.149 64.97 220.329 64.58ZM233.161 64.58H233.311L233.011 66.5H221.971V66.38C222.301 66.17 222.571 65.78 222.571 65.36V46.64C222.571 46.22 222.301 45.83 221.971 45.62V45.5H232.171L232.471 47.42H232.291C232.111 47.03 231.721 46.85 231.271 46.85H223.981V52.01H230.641C231.061 52.01 231.451 51.77 231.661 51.47H231.781V53.9H231.661C231.451 53.63 231.061 53.36 230.641 53.36H223.981V65.15H232.141C232.591 65.15 232.981 64.97 233.161 64.58Z" fill="#FEFEFE"/>
</svg>
