<svg width="184" height="68" viewBox="0 0 184 68" fill="none" xmlns="http://www.w3.org/2000/svg">
<path d="M2.26771 31.8834H16.6037L16.9237 29.8354H16.7637C16.6037 30.2514 16.1877 30.4434 15.6757 30.4434H4.41171V10.6994C4.41171 10.2514 4.69971 9.83542 5.05171 9.61142V9.48342H2.26771V9.61142C2.61971 9.83542 2.90771 10.2514 2.90771 10.6994V30.6674C2.90771 31.1154 2.61971 31.5314 2.26771 31.7554V31.8834ZM14.4735 26.9554C17.8015 26.9554 20.1695 24.6194 20.1695 20.3634V10.6994C20.1695 10.2514 20.4575 9.83542 20.8095 9.61142V9.48342H17.9935V9.61142C18.3455 9.83542 18.6335 10.2514 18.6335 10.6994V20.3314C18.6335 23.7874 16.9695 25.5154 14.4735 25.5154C11.9775 25.5154 10.2815 23.7874 10.2815 20.3314V10.6994C10.2815 10.2514 10.5695 9.83542 10.9215 9.61142V9.48342H8.10546V9.61142C8.45746 9.83542 8.74546 10.2514 8.74546 10.6994V20.3634C8.74546 24.6194 11.1135 26.9554 14.4735 26.9554ZM38.054 9.61142V9.48342H35.238V9.61142C35.59 9.83542 35.878 10.2514 35.878 10.6994V26.0594C34.438 22.0594 25.318 16.3314 25.318 10.7634V10.6994C25.318 10.2514 25.606 9.83542 25.958 9.61142V9.48342H23.174V9.61142C23.526 9.83542 23.814 10.2514 23.814 10.6994V30.6674C23.814 31.1154 23.526 31.5314 23.174 31.7554V31.8834H25.958V31.7554C25.606 31.5314 25.318 31.1154 25.318 30.6674V15.1154C26.662 19.0194 35.878 25.1314 35.878 30.6034V30.6674C35.878 31.1154 35.59 31.5314 35.238 31.7554V31.8834H38.054V31.7554C37.702 31.5314 37.414 31.1154 37.414 30.6674V10.6994C37.414 10.2514 37.702 9.83542 38.054 9.61142ZM54.4645 30.6994L49.5045 10.6674C49.3765 10.2194 49.5365 9.83542 49.9525 9.61142V9.48342H44.6725V9.61142C45.0885 9.83542 45.2485 10.2194 45.1205 10.6674L40.1285 30.6994C40.0005 31.2434 39.6485 31.5314 39.2965 31.7554V31.8834H42.0805V31.7554C41.6645 31.5314 41.5365 31.1474 41.6645 30.6994L43.0725 25.0354H51.5525L52.9605 30.6994C53.0565 31.1154 52.9605 31.4994 52.5125 31.7554V31.8834H55.3285V31.7554C55.0085 31.5634 54.6245 31.2434 54.4645 30.6994ZM43.4245 23.5954L46.5925 10.9554H48.0325L51.2005 23.5954H43.4245ZM70.9332 30.6994L65.9732 10.6674C65.8452 10.2194 66.0052 9.83542 66.4212 9.61142V9.48342H61.1412V9.61142C61.5572 9.83542 61.7172 10.2194 61.5892 10.6674L56.5972 30.6994C56.4692 31.2434 56.1172 31.5314 55.7652 31.7554V31.8834H58.5492V31.7554C58.1332 31.5314 58.0052 31.1474 58.1332 30.6994L59.5412 25.0354H68.0212L69.4292 30.6994C69.5252 31.1154 69.4292 31.4994 68.9812 31.7554V31.8834H71.7972V31.7554C71.4772 31.5634 71.0932 31.2434 70.9332 30.6994ZM59.8932 23.5954L63.0612 10.9554H64.5012L67.6692 23.5954H59.8932ZM79.641 9.48342H73.049V9.61142C73.401 9.83542 73.689 10.2514 73.689 10.6994V30.6674C73.689 31.1154 73.401 31.5314 73.049 31.7554V31.8834H75.833V31.7554C75.481 31.5314 75.193 31.1154 75.193 30.6674V22.6674H79.641C84.121 22.6674 87.257 20.2994 87.257 16.1074C87.257 11.9794 84.377 9.48342 79.641 9.48342ZM79.641 21.2274H75.193V10.9234H79.545C83.577 10.9234 85.721 12.7794 85.721 16.1394C85.721 19.6274 83.385 21.2274 79.641 21.2274ZM101.339 30.6994L96.3795 10.6674C96.2515 10.2194 96.4115 9.83542 96.8275 9.61142V9.48342H91.5475V9.61142C91.9635 9.83542 92.1235 10.2194 91.9955 10.6674L87.0035 30.6994C86.8755 31.2434 86.5235 31.5314 86.1715 31.7554V31.8834H88.9555V31.7554C88.5395 31.5314 88.4115 31.1474 88.5395 30.6994L89.9475 25.0354H98.4275L99.8355 30.6994C99.9315 31.1154 99.8355 31.4994 99.3875 31.7554V31.8834H102.203V31.7554C101.883 31.5634 101.499 31.2434 101.339 30.6994ZM90.2995 23.5954L93.4675 10.9554H94.9075L98.0755 23.5954H90.2995ZM118.239 9.61142V9.48342H115.423V9.61142C115.775 9.83542 116.063 10.2514 116.063 10.6994V20.2674H105.599V10.6994C105.599 10.2514 105.887 9.83542 106.239 9.61142V9.48342H103.455V9.61142C103.807 9.83542 104.095 10.2514 104.095 10.6994V30.6674C104.095 31.1154 103.807 31.5314 103.455 31.7554V31.8834H106.239V31.7554C105.887 31.5314 105.599 31.1154 105.599 30.6674V21.7074H116.063V30.6674C116.063 31.1154 115.775 31.5314 115.423 31.7554V31.8834H118.239V31.7554C117.887 31.5314 117.599 31.1154 117.599 30.6674V10.6994C117.599 10.2514 117.887 9.83542 118.239 9.61142ZM139.612 29.8674C139.196 29.8674 138.204 31.1474 136.508 31.1474C131.356 31.1474 130.94 19.9794 126.94 18.0594L133.788 10.4434C134.076 10.0914 134.46 9.77142 134.908 9.61142V9.48342H131.804V9.61142C132.252 9.83542 132.124 10.1234 131.836 10.4434L123.068 20.1394V10.6994C123.068 10.2514 123.356 9.83542 123.708 9.61142V9.48342H120.924V9.61142C121.276 9.83542 121.564 10.2514 121.564 10.6994V30.6674C121.564 31.1154 121.276 31.5314 120.924 31.7554V31.8834H123.708V31.7554C123.356 31.5314 123.068 31.1154 123.068 30.6674V22.3474L125.852 19.2434C129.596 20.6834 129.948 32.3634 136.124 32.3634C138.268 32.3634 139.772 30.6994 139.772 30.0594C139.772 29.9314 139.708 29.8674 139.612 29.8674ZM136.236 26.6354H139.02V26.5074C138.668 26.2834 138.38 25.8674 138.38 25.4194V10.6994C138.38 10.2514 138.668 9.83542 139.02 9.61142V9.48342H136.236V9.61142C136.588 9.83542 136.876 10.2514 136.876 10.6994V25.4194C136.876 25.8674 136.588 26.2834 136.236 26.5074V26.6354ZM141.705 31.8834H144.489V31.7554C144.137 31.5314 143.849 31.1154 143.849 30.6674V10.6994C143.849 10.2514 144.137 9.83542 144.489 9.61142V9.48342H141.705V9.61142C142.057 9.83542 142.345 10.2514 142.345 10.6994V30.6674C142.345 31.1154 142.057 31.5314 141.705 31.7554V31.8834ZM162.054 9.61142V9.48342H159.238V9.61142C159.59 9.83542 159.878 10.2514 159.878 10.6994V26.0594C158.438 22.0594 149.318 16.3314 149.318 10.7634V10.6994C149.318 10.2514 149.606 9.83542 149.958 9.61142V9.48342H147.174V9.61142C147.526 9.83542 147.814 10.2514 147.814 10.6994V30.6674C147.814 31.1154 147.526 31.5314 147.174 31.7554V31.8834H149.958V31.7554C149.606 31.5314 149.318 31.1154 149.318 30.6674V15.1154C150.662 19.0194 159.878 25.1314 159.878 30.6034V30.6674C159.878 31.1154 159.59 31.5314 159.238 31.7554V31.8834H162.054V31.7554C161.702 31.5314 161.414 31.1154 161.414 30.6674V10.6994C161.414 10.2514 161.702 9.83542 162.054 9.61142ZM182.758 21.4514V21.3234H179.942V21.4514C180.294 21.6754 180.582 22.0914 180.582 22.5394V29.6754C179.526 30.2834 177.862 30.9234 175.59 30.9234C169.702 30.9234 165.382 26.5394 165.382 20.4914C165.382 14.8274 169.414 10.3474 175.11 10.3474C177.446 10.3474 180.422 11.1474 181.734 13.0354H181.862V10.2834H181.734C181.67 10.4114 181.542 10.5394 181.382 10.5394C180.71 10.5394 178.63 9.00342 175.11 9.00342C168.55 9.00342 163.814 14.1554 163.814 20.5234C163.814 27.0834 168.614 32.3634 175.526 32.3634C178.246 32.3634 180.262 31.6274 182.566 30.1554V30.0274C182.246 29.8674 182.118 29.6114 182.118 29.2274V22.5394C182.118 22.0914 182.406 21.6754 182.758 21.4514Z" fill="#FEFEFE"/>
<path d="M7.80371 47.8834H2.72371V47.9634C3.06371 48.2234 3.28371 48.6034 3.28371 49.0634V60.7034C3.28371 61.1434 3.06371 61.5434 2.72371 61.8034V61.8834H6.02371V61.8034C5.66371 61.5434 5.44371 61.1434 5.44371 60.7034V56.5034H7.88371C10.9037 56.5034 12.9237 54.8634 12.9237 52.1834C12.9237 49.5234 10.9237 47.8834 7.80371 47.8834ZM7.86371 54.5634H5.44371V49.8234H7.86371C9.70371 49.8234 10.7637 50.6434 10.7637 52.2034C10.7637 53.8034 9.66371 54.5634 7.86371 54.5634ZM28.8956 59.7634C28.6756 59.7634 27.9356 60.5034 26.6356 60.5034C23.7556 60.5034 22.8156 57.1234 20.8756 55.7234C22.7756 55.2034 23.9956 53.8834 23.9956 52.0034C23.9956 49.5634 21.9356 47.8834 18.9556 47.8834H13.8956V47.9634C14.2356 48.2234 14.4556 48.6034 14.4556 49.0634V60.7034C14.4556 61.1434 14.2356 61.5434 13.8956 61.8034V61.8834H17.1956V61.8034C16.8356 61.5434 16.6156 61.1434 16.6156 60.7034V56.2234H17.9156C20.5956 56.2234 21.9356 62.2834 25.9556 62.2834C27.9156 62.2834 29.1156 60.9234 29.1156 60.1634C29.1156 59.9034 28.9956 59.7634 28.8956 59.7634ZM16.6156 54.3034V49.8234H19.0956C20.7756 49.8234 21.8556 50.6834 21.8556 52.0634C21.8556 53.4434 20.7756 54.3034 19.0356 54.3034H16.6156ZM25.4776 57.8234H28.7776V57.7434C28.4176 57.5034 28.1976 57.1034 28.1976 56.6434V49.0634C28.1976 48.6034 28.4176 48.2234 28.7776 47.9634V47.8834H25.4776V47.9634C25.8176 48.2234 26.0376 48.6034 26.0376 49.0634V56.6434C26.0376 57.1034 25.8176 57.5034 25.4776 57.7434V57.8234ZM41.5404 47.9634V47.8834H38.2404V47.9634C38.6004 48.2234 38.8004 48.6034 38.8004 49.0634V56.6034C37.8204 54.2634 33.0804 52.0034 33.0804 49.0834V49.0634C33.0804 48.6034 33.3004 48.2234 33.6604 47.9634V47.8834H30.3604V47.9634C30.7004 48.2234 30.9204 48.6034 30.9204 49.0634V60.7034C30.9204 61.1434 30.7004 61.5434 30.3604 61.8034V61.8834H33.6604V61.8034C33.3004 61.5434 33.0804 61.1434 33.0804 60.7034V53.0634C34.0204 55.3234 38.8004 57.7034 38.8004 60.6834V60.7034C38.8004 61.1434 38.6004 61.5434 38.2404 61.8034V61.8834H41.5404V61.8034C41.1804 61.5434 40.9604 61.1434 40.9604 60.7034V49.0634C40.9604 48.6034 41.1804 48.2234 41.5404 47.9634ZM49.9762 62.3034C53.7362 62.3034 55.4762 59.6834 55.4762 58.6234C55.4762 58.4634 55.4362 58.3834 55.3562 58.3834C55.0162 58.3834 53.6162 60.3834 50.3362 60.3834C47.0362 60.3834 44.8162 58.1834 44.8162 54.8234C44.8162 51.5034 47.1962 49.3834 50.0762 49.3834C51.9562 49.3834 53.7162 50.2834 54.5362 51.2034H54.6362V48.2234H54.4962C54.3962 48.3634 54.2562 48.4634 54.0362 48.4634C53.3362 48.4634 52.1562 47.4634 49.8962 47.4634C45.8362 47.4634 42.6362 50.5834 42.6362 54.9034C42.6362 59.2234 45.9162 62.3034 49.9762 62.3034ZM66.7989 59.4234C66.6389 59.7434 66.2389 59.9434 65.7589 59.9434H58.9789V54.8434H63.2389C63.6989 54.8434 64.0789 55.0434 64.3389 55.3634H64.4189V52.3834H64.3389C64.0789 52.7234 63.6989 52.9034 63.2389 52.9034H58.9789V49.8234H62.6989C63.1789 49.8234 63.5789 50.0234 63.7389 50.3434H63.8589L63.4789 47.8834H56.2589V47.9634C56.5989 48.2234 56.8189 48.6034 56.8189 49.0634V60.7034C56.8189 61.1434 56.5989 61.5434 56.2589 61.8034V61.8834H66.5189L66.9189 59.4234H66.7989ZM75.4878 47.8834H65.3078L64.9278 50.3434H65.0478C65.2078 50.0234 65.6078 49.8234 66.0878 49.8234H69.3278V60.7034C69.3278 61.1434 69.1078 61.5434 68.7478 61.8034V61.8834H72.0678V61.8034C71.7078 61.5434 71.4878 61.1434 71.4878 60.7034V49.8234H74.7478C75.2078 49.8234 75.6278 50.0234 75.7678 50.3434H75.8878L75.4878 47.8834ZM79.2681 62.3034C82.3081 62.3034 84.7281 59.8434 84.7281 56.7434C84.7281 53.6434 82.3081 51.1834 79.2681 51.1834C76.2281 51.1834 73.8081 53.6434 73.8081 56.7434C73.8081 59.8434 76.2281 62.3034 79.2681 62.3034ZM79.2681 60.3034C77.3281 60.3034 75.8681 58.7834 75.8681 56.7434C75.8681 54.7034 77.3281 53.1634 79.2681 53.1634C81.2281 53.1634 82.6881 54.7034 82.6881 56.7434C82.6881 58.7834 81.2281 60.3034 79.2681 60.3034ZM96.8725 47.9634V47.8834H93.5725V47.9634C93.9325 48.2234 94.1325 48.6034 94.1325 49.0634V56.6034C93.1525 54.2634 88.4125 52.0034 88.4125 49.0834V49.0634C88.4125 48.6034 88.6325 48.2234 88.9925 47.9634V47.8834H85.6925V47.9634C86.0325 48.2234 86.2525 48.6034 86.2525 49.0634V60.7034C86.2525 61.1434 86.0325 61.5434 85.6925 61.8034V61.8834H88.9925V61.8034C88.6325 61.5434 88.4125 61.1434 88.4125 60.7034V53.0634C89.3525 55.3234 94.1325 57.7034 94.1325 60.6834V60.7034C94.1325 61.1434 93.9325 61.5434 93.5725 61.8034V61.8834H96.8725V61.8034C96.5125 61.5434 96.2925 61.1434 96.2925 60.7034V49.0634C96.2925 48.6034 96.5125 48.2234 96.8725 47.9634ZM111.523 47.8834H101.343L100.963 50.3434H101.083C101.243 50.0234 101.643 49.8234 102.123 49.8234H105.363V60.7034C105.363 61.1434 105.143 61.5434 104.783 61.8034V61.8834H108.103V61.8034C107.743 61.5434 107.523 61.1434 107.523 60.7034V49.8234H110.783C111.243 49.8234 111.663 50.0234 111.803 50.3434H111.923L111.523 47.8834ZM110.79 61.8834H114.09V61.8034C113.73 61.5434 113.51 61.1434 113.51 60.7034V53.1234C113.51 52.6634 113.73 52.2634 114.09 52.0234V51.9434H110.79V52.0234C111.13 52.2634 111.35 52.6634 111.35 53.1234V60.7034C111.35 61.1434 111.13 61.5434 110.79 61.8034V61.8834ZM128.393 47.9634V47.8834H124.953V47.9634C125.353 48.1834 125.553 48.6034 125.213 49.0234L122.033 52.9034L118.853 49.0234C118.513 48.6034 118.713 48.1834 119.113 47.9634V47.8834H115.673V47.9634C116.013 48.2234 116.233 48.6034 116.233 49.0634V60.7034C116.233 61.1434 116.013 61.5434 115.673 61.8034V61.8834H118.973V61.8034C118.613 61.5434 118.393 61.1434 118.393 60.7034V51.8234L121.993 56.2234H122.073L125.673 51.8234V60.7034C125.673 61.1434 125.453 61.5434 125.093 61.8034V61.8834H128.393V61.8034C128.033 61.5434 127.833 61.1434 127.833 60.7034V49.0634C127.833 48.6034 128.033 48.2234 128.393 47.9634ZM140.529 59.4234C140.369 59.7434 139.969 59.9434 139.489 59.9434H132.709V54.8434H136.969C137.429 54.8434 137.809 55.0434 138.069 55.3634H138.149V52.3834H138.069C137.809 52.7234 137.429 52.9034 136.969 52.9034H132.709V49.8234H136.429C136.909 49.8234 137.309 50.0234 137.469 50.3434H137.589L137.209 47.8834H129.989V47.9634C130.329 48.2234 130.549 48.6034 130.549 49.0634V60.7034C130.549 61.1434 130.329 61.5434 129.989 61.8034V61.8834H140.249L140.649 59.4234H140.529ZM149.218 47.8834H139.038L138.658 50.3434H138.778C138.938 50.0234 139.338 49.8234 139.818 49.8234H143.058V60.7034C143.058 61.1434 142.838 61.5434 142.478 61.8034V61.8834H145.798V61.8034C145.438 61.5434 145.218 61.1434 145.218 60.7034V49.8234H148.478C148.938 49.8234 149.358 50.0234 149.498 50.3434H149.618L149.218 47.8834ZM161.723 61.2634C159.443 61.2634 159.063 56.7834 157.043 55.7434C159.063 55.2834 160.363 53.9634 160.363 51.9634C160.363 49.4234 158.403 47.8834 155.323 47.8834H150.263V47.9634C150.603 48.2234 150.823 48.6034 150.823 49.0634V60.7034C150.823 61.1434 150.603 61.5434 150.263 61.8034V61.8834H153.563V61.8034C153.203 61.5434 152.983 61.1434 152.983 60.7034V56.2234H154.383C157.083 56.2234 157.003 62.1034 160.663 62.1034C161.483 62.1034 161.983 61.6834 161.983 61.4234C161.983 61.3034 161.923 61.2634 161.723 61.2634ZM152.983 54.3034V49.8234H155.423C157.223 49.8234 158.223 50.5434 158.223 52.0234C158.223 53.4634 157.163 54.3034 155.423 54.3034H152.983ZM171.334 59.4234C171.174 59.7434 170.774 59.9434 170.314 59.9434H165.014V54.8434H168.754C169.214 54.8434 169.614 55.0434 169.874 55.3634H169.954V52.3834H169.874C169.614 52.7234 169.214 52.9034 168.754 52.9034H165.014V49.8234H169.714C170.194 49.8234 170.594 50.0234 170.774 50.3434H170.894L170.494 47.8834H162.294V47.9634C162.634 48.2234 162.854 48.6034 162.854 49.0634V60.7034C162.854 61.1434 162.634 61.5434 162.294 61.8034V61.8834H171.054L171.454 59.4234H171.334ZM181.393 59.4234C181.233 59.7434 180.833 59.9434 180.373 59.9434H175.073V54.8434H178.813C179.273 54.8434 179.673 55.0434 179.933 55.3634H180.013V52.3834H179.933C179.673 52.7234 179.273 52.9034 178.813 52.9034H175.073V49.8234H179.773C180.253 49.8234 180.653 50.0234 180.833 50.3434H180.953L180.553 47.8834H172.353V47.9634C172.693 48.2234 172.913 48.6034 172.913 49.0634V60.7034C172.913 61.1434 172.693 61.5434 172.353 61.8034V61.8834H181.113L181.513 59.4234H181.393Z" fill="#FEFEFE"/>
</svg>
