<svg width="575" height="41" viewBox="0 0 575 41" fill="none" xmlns="http://www.w3.org/2000/svg">
<path d="M3.01003 38.1912H25.41L25.91 34.9912H25.66C25.41 35.6412 24.76 35.9412 23.96 35.9412H6.36003V5.09116C6.36003 4.39116 6.81003 3.74116 7.36003 3.39116V3.19116H3.01003V3.39116C3.56003 3.74116 4.01003 4.39116 4.01003 5.09116V36.2912C4.01003 36.9912 3.56003 37.6412 3.01003 37.9912V38.1912ZM22.0815 30.4912C27.2815 30.4912 30.9815 26.8412 30.9815 20.1912V5.09116C30.9815 4.39116 31.4315 3.74116 31.9815 3.39116V3.19116H27.5815V3.39116C28.1315 3.74116 28.5815 4.39116 28.5815 5.09116V20.1412C28.5815 25.5412 25.9815 28.2412 22.0815 28.2412C18.1815 28.2412 15.5315 25.5412 15.5315 20.1412V5.09116C15.5315 4.39116 15.9815 3.74116 16.5315 3.39116V3.19116H12.1315V3.39116C12.6815 3.74116 13.1315 4.39116 13.1315 5.09116V20.1912C13.1315 26.8412 16.8315 30.4912 22.0815 30.4912ZM58.9261 3.39116V3.19116H54.5261V3.39116C55.0761 3.74116 55.5261 4.39116 55.5261 5.09116V29.0912C53.2761 22.8412 39.0261 13.8912 39.0261 5.19116V5.09116C39.0261 4.39116 39.4761 3.74116 40.0261 3.39116V3.19116H35.676V3.39116C36.226 3.74116 36.676 4.39116 36.676 5.09116V36.2912C36.676 36.9912 36.226 37.6412 35.676 37.9912V38.1912H40.0261V37.9912C39.4761 37.6412 39.0261 36.9912 39.0261 36.2912V11.9912C41.1261 18.0912 55.5261 27.6412 55.5261 36.1912V36.2912C55.5261 36.9912 55.0761 37.6412 54.5261 37.9912V38.1912H58.9261V37.9912C58.3761 37.6412 57.9261 36.9912 57.9261 36.2912V5.09116C57.9261 4.39116 58.3761 3.74116 58.9261 3.39116ZM84.5675 36.3412L76.8175 5.04116C76.6175 4.34116 76.8675 3.74116 77.5175 3.39116V3.19116H69.2675V3.39116C69.9175 3.74116 70.1675 4.34116 69.9675 5.04116L62.1675 36.3412C61.9675 37.1912 61.4175 37.6412 60.8675 37.9912V38.1912H65.2175V37.9912C64.5675 37.6412 64.3675 37.0412 64.5675 36.3412L66.7675 27.4912H80.0175L82.2175 36.3412C82.3675 36.9912 82.2175 37.5912 81.5175 37.9912V38.1912H85.9175V37.9912C85.4175 37.6912 84.8175 37.1912 84.5675 36.3412ZM67.3175 25.2412L72.2675 5.49116H74.5175L79.4675 25.2412H67.3175ZM110.3 36.3412L102.55 5.04116C102.35 4.34116 102.6 3.74116 103.25 3.39116V3.19116H94.9999V3.39116C95.6499 3.74116 95.8999 4.34116 95.6999 5.04116L87.8999 36.3412C87.6999 37.1912 87.1499 37.6412 86.5999 37.9912V38.1912H90.9499V37.9912C90.2999 37.6412 90.0999 37.0412 90.2999 36.3412L92.4999 27.4912H105.75L107.95 36.3412C108.1 36.9912 107.95 37.5912 107.25 37.9912V38.1912H111.65V37.9912C111.15 37.6912 110.55 37.1912 110.3 36.3412ZM93.0499 25.2412L97.9999 5.49116H100.25L105.2 25.2412H93.0499ZM123.906 3.19116H113.606V3.39116C114.156 3.74116 114.606 4.39116 114.606 5.09116V36.2912C114.606 36.9912 114.156 37.6412 113.606 37.9912V38.1912H117.956V37.9912C117.406 37.6412 116.956 36.9912 116.956 36.2912V23.7912H123.906C130.906 23.7912 135.806 20.0912 135.806 13.5412C135.806 7.09116 131.306 3.19116 123.906 3.19116ZM123.906 21.5412H116.956V5.44116H123.756C130.056 5.44116 133.406 8.34116 133.406 13.5912C133.406 19.0412 129.756 21.5412 123.906 21.5412ZM157.81 36.3412L150.06 5.04116C149.86 4.34116 150.11 3.74116 150.76 3.39116V3.19116H142.51V3.39116C143.16 3.74116 143.41 4.34116 143.21 5.04116L135.41 36.3412C135.21 37.1912 134.66 37.6412 134.11 37.9912V38.1912H138.46V37.9912C137.81 37.6412 137.61 37.0412 137.81 36.3412L140.01 27.4912H153.26L155.46 36.3412C155.61 36.9912 155.46 37.5912 154.76 37.9912V38.1912H159.16V37.9912C158.66 37.6912 158.06 37.1912 157.81 36.3412ZM140.56 25.2412L145.51 5.49116H147.76L152.71 25.2412H140.56ZM184.216 3.39116V3.19116H179.816V3.39116C180.366 3.74116 180.816 4.39116 180.816 5.09116V20.0412H164.466V5.09116C164.466 4.39116 164.916 3.74116 165.466 3.39116V3.19116H161.116V3.39116C161.666 3.74116 162.116 4.39116 162.116 5.09116V36.2912C162.116 36.9912 161.666 37.6412 161.116 37.9912V38.1912H165.466V37.9912C164.916 37.6412 164.466 36.9912 164.466 36.2912V22.2912H180.816V36.2912C180.816 36.9912 180.366 37.6412 179.816 37.9912V38.1912H184.216V37.9912C183.666 37.6412 183.216 36.9912 183.216 36.2912V5.09116C183.216 4.39116 183.666 3.74116 184.216 3.39116ZM217.61 35.0412C216.96 35.0412 215.41 37.0412 212.76 37.0412C204.71 37.0412 204.06 19.5912 197.81 16.5912L208.51 4.69116C208.96 4.14116 209.56 3.64116 210.26 3.39116V3.19116H205.41V3.39116C206.11 3.74116 205.91 4.19116 205.46 4.69116L191.76 19.8412V5.09116C191.76 4.39116 192.21 3.74116 192.76 3.39116V3.19116H188.41V3.39116C188.96 3.74116 189.41 4.39116 189.41 5.09116V36.2912C189.41 36.9912 188.96 37.6412 188.41 37.9912V38.1912H192.76V37.9912C192.21 37.6412 191.76 36.9912 191.76 36.2912V23.2912L196.11 18.4412C201.96 20.6912 202.51 38.9412 212.16 38.9412C215.51 38.9412 217.86 36.3412 217.86 35.3412C217.86 35.1412 217.76 35.0412 217.61 35.0412ZM212.336 29.9912H216.686V29.7912C216.136 29.4412 215.686 28.7912 215.686 28.0912V5.09116C215.686 4.39116 216.136 3.74116 216.686 3.39116V3.19116H212.336V3.39116C212.886 3.74116 213.336 4.39116 213.336 5.09116V28.0912C213.336 28.7912 212.886 29.4412 212.336 29.7912V29.9912ZM220.881 38.1912H225.231V37.9912C224.681 37.6412 224.231 36.9912 224.231 36.2912V5.09116C224.231 4.39116 224.681 3.74116 225.231 3.39116V3.19116H220.881V3.39116C221.431 3.74116 221.881 4.39116 221.881 5.09116V36.2912C221.881 36.9912 221.431 37.6412 220.881 37.9912V38.1912ZM252.676 3.39116V3.19116H248.276V3.39116C248.826 3.74116 249.276 4.39116 249.276 5.09116V29.0912C247.026 22.8412 232.776 13.8912 232.776 5.19116V5.09116C232.776 4.39116 233.226 3.74116 233.776 3.39116V3.19116H229.426V3.39116C229.976 3.74116 230.426 4.39116 230.426 5.09116V36.2912C230.426 36.9912 229.976 37.6412 229.426 37.9912V38.1912H233.776V37.9912C233.226 37.6412 232.776 36.9912 232.776 36.2912V11.9912C234.876 18.0912 249.276 27.6412 249.276 36.1912V36.2912C249.276 36.9912 248.826 37.6412 248.276 37.9912V38.1912H252.676V37.9912C252.126 37.6412 251.676 36.9912 251.676 36.2912V5.09116C251.676 4.39116 252.126 3.74116 252.676 3.39116ZM285.027 21.8912V21.6912H280.627V21.8912C281.177 22.2412 281.627 22.8912 281.627 23.5912V34.7412C279.977 35.6912 277.377 36.6912 273.827 36.6912C264.627 36.6912 257.877 29.8412 257.877 20.3912C257.877 11.5412 264.177 4.54116 273.077 4.54116C276.727 4.54116 281.377 5.79116 283.427 8.74116H283.627V4.44116H283.427C283.327 4.64116 283.127 4.84116 282.877 4.84116C281.827 4.84116 278.577 2.44116 273.077 2.44116C262.827 2.44116 255.427 10.4912 255.427 20.4412C255.427 30.6912 262.927 38.9412 273.727 38.9412C277.977 38.9412 281.127 37.7912 284.727 35.4912V35.2912C284.227 35.0412 284.027 34.6412 284.027 34.0412V23.5912C284.027 22.8912 284.477 22.2412 285.027 21.8912Z" fill="#FEFEFE"/>
<path d="M313.73 10.1912H306.11V10.3112C306.62 10.7012 306.95 11.2712 306.95 11.9612V29.4212C306.95 30.0812 306.62 30.6812 306.11 31.0712V31.1912H311.06V31.0712C310.52 30.6812 310.19 30.0812 310.19 29.4212V23.1212H313.85C318.38 23.1212 321.41 20.6612 321.41 16.6412C321.41 12.6512 318.41 10.1912 313.73 10.1912ZM313.82 20.2112H310.19V13.1012H313.82C316.58 13.1012 318.17 14.3312 318.17 16.6712C318.17 19.0712 316.52 20.2112 313.82 20.2112ZM345.368 28.0112C345.038 28.0112 343.928 29.1212 341.978 29.1212C337.658 29.1212 336.248 24.0512 333.338 21.9512C336.188 21.1712 338.018 19.1912 338.018 16.3712C338.018 12.7112 334.928 10.1912 330.458 10.1912H322.868V10.3112C323.378 10.7012 323.708 11.2712 323.708 11.9612V29.4212C323.708 30.0812 323.378 30.6812 322.868 31.0712V31.1912H327.818V31.0712C327.278 30.6812 326.948 30.0812 326.948 29.4212V22.7012H328.898C332.918 22.7012 334.928 31.7912 340.958 31.7912C343.898 31.7912 345.698 29.7512 345.698 28.6112C345.698 28.2212 345.518 28.0112 345.368 28.0112ZM326.948 19.8212V13.1012H330.668C333.188 13.1012 334.808 14.3912 334.808 16.4612C334.808 18.5312 333.188 19.8212 330.578 19.8212H326.948ZM340.241 25.1012H345.191V24.9812C344.651 24.6212 344.321 24.0212 344.321 23.3312V11.9612C344.321 11.2712 344.651 10.7012 345.191 10.3112V10.1912H340.241V10.3112C340.751 10.7012 341.081 11.2712 341.081 11.9612V23.3312C341.081 24.0212 340.751 24.6212 340.241 24.9812V25.1012ZM364.335 10.3112V10.1912H359.385V10.3112C359.925 10.7012 360.225 11.2712 360.225 11.9612V23.2712C358.755 19.7612 351.645 16.3712 351.645 11.9912V11.9612C351.645 11.2712 351.975 10.7012 352.515 10.3112V10.1912H347.565V10.3112C348.075 10.7012 348.405 11.2712 348.405 11.9612V29.4212C348.405 30.0812 348.075 30.6812 347.565 31.0712V31.1912H352.515V31.0712C351.975 30.6812 351.645 30.0812 351.645 29.4212V17.9612C353.055 21.3512 360.225 24.9212 360.225 29.3912V29.4212C360.225 30.0812 359.925 30.6812 359.385 31.0712V31.1912H364.335V31.0712C363.795 30.6812 363.465 30.0812 363.465 29.4212V11.9612C363.465 11.2712 363.795 10.7012 364.335 10.3112ZM376.989 31.8212C382.629 31.8212 385.239 27.8912 385.239 26.3012C385.239 26.0612 385.179 25.9412 385.059 25.9412C384.549 25.9412 382.449 28.9412 377.529 28.9412C372.579 28.9412 369.249 25.6412 369.249 20.6012C369.249 15.6212 372.819 12.4412 377.139 12.4412C379.959 12.4412 382.599 13.7912 383.829 15.1712H383.979V10.7012H383.769C383.619 10.9112 383.409 11.0612 383.079 11.0612C382.029 11.0612 380.259 9.56116 376.869 9.56116C370.779 9.56116 365.979 14.2412 365.979 20.7212C365.979 27.2012 370.899 31.8212 376.989 31.8212ZM402.223 27.5012C401.983 27.9812 401.383 28.2812 400.663 28.2812H390.493V20.6312H396.883C397.573 20.6312 398.143 20.9312 398.533 21.4112H398.653V16.9412H398.533C398.143 17.4512 397.573 17.7212 396.883 17.7212H390.493V13.1012H396.073C396.793 13.1012 397.393 13.4012 397.633 13.8812H397.813L397.243 10.1912H386.413V10.3112C386.923 10.7012 387.253 11.2712 387.253 11.9612V29.4212C387.253 30.0812 386.923 30.6812 386.413 31.0712V31.1912H401.803L402.403 27.5012H402.223ZM415.256 10.1912H399.986L399.416 13.8812H399.596C399.836 13.4012 400.436 13.1012 401.156 13.1012H406.016V29.4212C406.016 30.0812 405.686 30.6812 405.146 31.0712V31.1912H410.126V31.0712C409.586 30.6812 409.256 30.0812 409.256 29.4212V13.1012H414.146C414.836 13.1012 415.466 13.4012 415.676 13.8812H415.856L415.256 10.1912ZM420.927 31.8212C425.487 31.8212 429.117 28.1312 429.117 23.4812C429.117 18.8312 425.487 15.1412 420.927 15.1412C416.367 15.1412 412.737 18.8312 412.737 23.4812C412.737 28.1312 416.367 31.8212 420.927 31.8212ZM420.927 28.8212C418.017 28.8212 415.827 26.5412 415.827 23.4812C415.827 20.4212 418.017 18.1112 420.927 18.1112C423.867 18.1112 426.057 20.4212 426.057 23.4812C426.057 26.5412 423.867 28.8212 420.927 28.8212ZM447.333 10.3112V10.1912H442.383V10.3112C442.923 10.7012 443.223 11.2712 443.223 11.9612V23.2712C441.753 19.7612 434.643 16.3712 434.643 11.9912V11.9612C434.643 11.2712 434.973 10.7012 435.513 10.3112V10.1912H430.563V10.3112C431.073 10.7012 431.403 11.2712 431.403 11.9612V29.4212C431.403 30.0812 431.073 30.6812 430.563 31.0712V31.1912H435.513V31.0712C434.973 30.6812 434.643 30.0812 434.643 29.4212V17.9612C436.053 21.3512 443.223 24.9212 443.223 29.3912V29.4212C443.223 30.0812 442.923 30.6812 442.383 31.0712V31.1912H447.333V31.0712C446.793 30.6812 446.463 30.0812 446.463 29.4212V11.9612C446.463 11.2712 446.793 10.7012 447.333 10.3112ZM469.309 10.1912H454.039L453.469 13.8812H453.649C453.889 13.4012 454.489 13.1012 455.209 13.1012H460.069V29.4212C460.069 30.0812 459.739 30.6812 459.199 31.0712V31.1912H464.179V31.0712C463.639 30.6812 463.309 30.0812 463.309 29.4212V13.1012H468.199C468.889 13.1012 469.519 13.4012 469.729 13.8812H469.909L469.309 10.1912ZM468.21 31.1912H473.16V31.0712C472.62 30.6812 472.29 30.0812 472.29 29.4212V18.0512C472.29 17.3612 472.62 16.7612 473.16 16.4012V16.2812H468.21V16.4012C468.72 16.7612 469.05 17.3612 469.05 18.0512V29.4212C469.05 30.0812 468.72 30.6812 468.21 31.0712V31.1912ZM494.614 10.3112V10.1912H489.454V10.3112C490.054 10.6412 490.354 11.2712 489.844 11.9012L485.074 17.7212L480.304 11.9012C479.794 11.2712 480.094 10.6412 480.694 10.3112V10.1912H475.534V10.3112C476.044 10.7012 476.374 11.2712 476.374 11.9612V29.4212C476.374 30.0812 476.044 30.6812 475.534 31.0712V31.1912H480.484V31.0712C479.944 30.6812 479.614 30.0812 479.614 29.4212V16.1012L485.014 22.7012H485.134L490.534 16.1012V29.4212C490.534 30.0812 490.204 30.6812 489.664 31.0712V31.1912H494.614V31.0712C494.074 30.6812 493.774 30.0812 493.774 29.4212V11.9612C493.774 11.2712 494.074 10.7012 494.614 10.3112ZM512.818 27.5012C512.578 27.9812 511.978 28.2812 511.258 28.2812H501.088V20.6312H507.478C508.168 20.6312 508.738 20.9312 509.128 21.4112H509.248V16.9412H509.128C508.738 17.4512 508.168 17.7212 507.478 17.7212H501.088V13.1012H506.668C507.388 13.1012 507.988 13.4012 508.228 13.8812H508.408L507.838 10.1912H497.008V10.3112C497.518 10.7012 497.848 11.2712 497.848 11.9612V29.4212C497.848 30.0812 497.518 30.6812 497.008 31.0712V31.1912H512.398L512.998 27.5012H512.818ZM525.852 10.1912H510.582L510.012 13.8812H510.192C510.432 13.4012 511.032 13.1012 511.752 13.1012H516.612V29.4212C516.612 30.0812 516.282 30.6812 515.742 31.0712V31.1912H520.722V31.0712C520.182 30.6812 519.852 30.0812 519.852 29.4212V13.1012H524.742C525.432 13.1012 526.062 13.4012 526.272 13.8812H526.452L525.852 10.1912ZM544.609 30.2612C541.189 30.2612 540.619 23.5412 537.589 21.9812C540.619 21.2912 542.569 19.3112 542.569 16.3112C542.569 12.5012 539.629 10.1912 535.009 10.1912H527.419V10.3112C527.929 10.7012 528.259 11.2712 528.259 11.9612V29.4212C528.259 30.0812 527.929 30.6812 527.419 31.0712V31.1912H532.369V31.0712C531.829 30.6812 531.499 30.0812 531.499 29.4212V22.7012H533.599C537.649 22.7012 537.529 31.5212 543.019 31.5212C544.249 31.5212 544.999 30.8912 544.999 30.5012C544.999 30.3212 544.909 30.2612 544.609 30.2612ZM531.499 19.8212V13.1012H535.159C537.859 13.1012 539.359 14.1812 539.359 16.4012C539.359 18.5612 537.769 19.8212 535.159 19.8212H531.499ZM559.026 27.5012C558.786 27.9812 558.186 28.2812 557.496 28.2812H549.546V20.6312H555.156C555.846 20.6312 556.446 20.9312 556.836 21.4112H556.956V16.9412H556.836C556.446 17.4512 555.846 17.7212 555.156 17.7212H549.546V13.1012H556.596C557.316 13.1012 557.916 13.4012 558.186 13.8812H558.366L557.766 10.1912H545.466V10.3112C545.976 10.7012 546.306 11.2712 546.306 11.9612V29.4212C546.306 30.0812 545.976 30.6812 545.466 31.0712V31.1912H558.606L559.206 27.5012H559.026ZM574.113 27.5012C573.873 27.9812 573.273 28.2812 572.583 28.2812H564.633V20.6312H570.243C570.933 20.6312 571.533 20.9312 571.923 21.4112H572.043V16.9412H571.923C571.533 17.4512 570.933 17.7212 570.243 17.7212H564.633V13.1012H571.683C572.403 13.1012 573.003 13.4012 573.273 13.8812H573.453L572.853 10.1912H560.553V10.3112C561.063 10.7012 561.393 11.2712 561.393 11.9612V29.4212C561.393 30.0812 561.063 30.6812 560.553 31.0712V31.1912H573.693L574.293 27.5012H574.113Z" fill="#FEFEFE"/>
</svg>
