<?xml version="1.0" encoding="utf-8"?>
<!-- Generator: Adobe Illustrator 27.8.1, SVG Export Plug-In . SVG Version: 6.00 Build 0)  -->
<svg version="1.1" id="Layer_1" xmlns="http://www.w3.org/2000/svg" xmlns:xlink="http://www.w3.org/1999/xlink" x="0px" y="0px"
	 viewBox="0 0 576 288" style="enable-background:new 0 0 576 288;" xml:space="preserve">
<style type="text/css">
	.st0{fill:#35809F;}
	.st1{fill:#525556;}
	.st2{fill:#E86E34;}
	.st3{fill:#F26522;}
</style>
<g>
	<path class="st0" d="M256.28,96.79c1.64,0.92,2.94,2.18,3.89,3.78c0.95,1.61,1.42,3.37,1.42,5.31c0,1.93-0.47,3.7-1.42,5.29
		c-0.95,1.6-2.25,2.85-3.9,3.77c-1.66,0.92-3.49,1.38-5.5,1.38h-8.34V95.42h8.4C252.82,95.42,254.64,95.88,256.28,96.79z
		 M255.22,113.33c1.32-0.76,2.36-1.79,3.13-3.1c0.77-1.31,1.15-2.76,1.15-4.35c0-1.59-0.39-3.05-1.17-4.37
		c-0.78-1.32-1.83-2.35-3.16-3.11c-1.33-0.76-2.79-1.14-4.38-1.14h-6.31v17.2h6.4C252.46,114.47,253.9,114.09,255.22,113.33z"/>
	<path class="st0" d="M265.9,95.42h14v1.85h-11.93v7.48h10.68v1.85h-10.68v7.87h12.32v1.85H265.9V95.42z"/>
	<path class="st0" d="M298.82,97.23c1.42,1.21,2.12,2.92,2.12,5.13c0,2.29-0.71,4.07-2.12,5.32c-1.42,1.26-3.42,1.88-6.01,1.88
		h-5.65v6.76h-2.06V95.42h7.72C295.4,95.42,297.41,96.02,298.82,97.23z M297.34,106.35c1.09-0.91,1.63-2.22,1.63-3.93
		c0-1.67-0.54-2.95-1.61-3.83c-1.08-0.88-2.62-1.32-4.64-1.32h-5.56v10.44h5.56C294.72,107.71,296.26,107.26,297.34,106.35z"/>
	<path class="st0" d="M319.34,116.32l-2.48-5.56h-11.6l-2.45,5.56h-2.21l9.42-20.91h2.15l9.42,20.91H319.34z M306.06,108.91h9.99
		l-5.03-11.31L306.06,108.91z"/>
	<path class="st0" d="M338.57,116.32l-4.52-6.82c-0.64,0.04-1.13,0.06-1.47,0.06h-5.74v6.76h-2.06V95.42h7.81
		c2.61,0,4.63,0.6,6.06,1.81c1.43,1.21,2.14,2.92,2.14,5.13c0,1.73-0.42,3.18-1.26,4.34c-0.84,1.16-2.03,1.96-3.59,2.42l5.02,7.21
		H338.57z M332.59,107.71c1.99,0,3.53-0.45,4.61-1.36c1.08-0.91,1.62-2.22,1.62-3.93c0-1.67-0.54-2.95-1.62-3.83
		c-1.08-0.88-2.61-1.32-4.61-1.32h-5.74v10.44H332.59z"/>
	<path class="st0" d="M343.21,95.39h15.88v1.88h-6.91v19.05h-2.06V97.27h-6.91V95.39z"/>
	<path class="st0" d="M362.47,95.39h2.57l8.19,15.7l8.11-15.7h2.57v20.94H382l-0.03-18.06l-8.2,15.82h-1.14l-8.22-15.82v18.06h-1.94
		V95.39z"/>
	<path class="st0" d="M390.26,95.42h14v1.85h-11.93v7.48H403v1.85h-10.68v7.87h12.32v1.85h-14.39V95.42z"/>
	<path class="st0" d="M424.62,95.42h2.03v20.91h-2.18l-12.95-17.71v17.71h-2.06V95.42h2.18l12.98,17.71V95.42z"/>
	<path class="st0" d="M430.06,95.39h15.88v1.88h-6.91v19.05h-2.06V97.27h-6.91V95.39z"/>
	<path class="st0" d="M471.68,96.66c1.66,0.95,2.99,2.23,3.96,3.84c0.98,1.61,1.47,3.39,1.47,5.32c0,1.93-0.49,3.72-1.47,5.35
		c-0.98,1.64-2.3,2.93-3.96,3.89c-1.67,0.96-3.49,1.44-5.49,1.44c-1.99,0-3.82-0.48-5.49-1.44c-1.67-0.96-2.99-2.25-3.96-3.89
		c-0.98-1.63-1.47-3.42-1.47-5.35c0-1.93,0.49-3.71,1.47-5.32c0.98-1.61,2.3-2.9,3.96-3.84c1.67-0.95,3.49-1.42,5.49-1.42
		C468.19,95.24,470.02,95.71,471.68,96.66z M461.8,98.26c-1.36,0.78-2.43,1.83-3.23,3.17c-0.8,1.34-1.2,2.8-1.2,4.4
		c0,1.6,0.4,3.07,1.2,4.43c0.8,1.36,1.87,2.43,3.23,3.21c1.36,0.79,2.83,1.18,4.43,1.18c1.57,0,3.04-0.39,4.38-1.18
		s2.42-1.86,3.21-3.21c0.8-1.36,1.2-2.83,1.2-4.43c0-1.59-0.4-3.06-1.2-4.4c-0.8-1.34-1.87-2.39-3.21-3.17
		c-1.35-0.78-2.81-1.17-4.38-1.17C464.63,97.09,463.15,97.48,461.8,98.26z"/>
	<path class="st0" d="M481.42,95.42h13.1v1.85h-11.04v8.05h9.84v1.85h-9.84v9.15h-2.06V95.42z"/>
	<path class="st1" d="M242.66,127.18h30.16v6.88h-22.28v10.17h19.99v6.88h-19.99v10.35h22.99v6.88h-30.86V127.18z"/>
	<path class="st1" d="M310.2,127.18h7.64v41.15h-7.47l-21.16-28.33v28.33h-7.7v-41.15h7.47l21.22,28.39V127.18z"/>
	<path class="st1" d="M371.87,127.18h7.88v34.04h17.75v7.11h-25.63V127.18z"/>
	<path class="st1" d="M403.67,127.18h7.88v41.15h-7.88V127.18z"/>
	<path class="st1" d="M441.03,134.76c-2.21-0.71-4.16-1.06-5.85-1.06c-1.88,0-3.37,0.35-4.47,1.06c-1.1,0.71-1.65,1.69-1.65,2.94
		c0,1.14,0.38,2.09,1.15,2.85c0.76,0.76,1.72,1.39,2.88,1.88c1.16,0.49,2.73,1.03,4.73,1.62c2.78,0.82,5.06,1.65,6.85,2.47
		c1.78,0.82,3.3,2.04,4.56,3.64c1.25,1.61,1.88,3.72,1.88,6.35c0,2.51-0.68,4.69-2.03,6.55c-1.35,1.86-3.21,3.28-5.58,4.26
		c-2.37,0.98-5.09,1.47-8.14,1.47c-3.21,0-6.35-0.6-9.41-1.79c-3.06-1.19-5.72-2.79-7.99-4.79l3.29-6.7c2.08,1.92,4.41,3.43,7,4.53
		c2.59,1.1,5,1.65,7.23,1.65c2.19,0,3.92-0.42,5.17-1.26c1.25-0.84,1.88-1.99,1.88-3.44c0-1.18-0.38-2.15-1.15-2.91
		c-0.76-0.76-1.73-1.38-2.91-1.85c-1.18-0.47-2.78-1-4.82-1.59c-2.78-0.82-5.06-1.63-6.82-2.41c-1.76-0.78-3.27-1.97-4.53-3.56
		c-1.25-1.59-1.88-3.67-1.88-6.26c0-2.39,0.64-4.48,1.91-6.26c1.27-1.78,3.08-3.16,5.41-4.14c2.33-0.98,5.03-1.47,8.08-1.47
		c2.66,0,5.3,0.39,7.91,1.18c2.61,0.78,4.93,1.84,6.97,3.17l-3.17,6.88C445.41,136.47,443.24,135.47,441.03,134.76z"/>
	<path class="st1" d="M458.58,127.18h7.88v17.58h20.52v-17.58h7.88v41.15h-7.88v-16.7h-20.52v16.7h-7.88V127.18z"/>
	<path class="st1" d="M253.48,198.83l-0.03-2.68c-0.63,0.93-1.45,1.63-2.46,2.08c-1.01,0.46-2.18,0.68-3.5,0.68
		c-1.08,0-2.02-0.21-2.84-0.62c-0.82-0.41-1.46-0.99-1.9-1.72c-0.45-0.73-0.67-1.55-0.67-2.46c0-1.38,0.53-2.46,1.6-3.26
		c1.07-0.79,2.53-1.19,4.4-1.19h5.35v-1.22c0-1.26-0.38-2.23-1.13-2.92c-0.75-0.69-1.85-1.03-3.29-1.03c-1.7,0-3.42,0.64-5.14,1.92
		l-0.91-1.4c1.07-0.75,2.1-1.3,3.07-1.66c0.97-0.35,2.09-0.53,3.35-0.53c1.93,0,3.42,0.48,4.47,1.45c1.05,0.96,1.59,2.3,1.61,4
		l0.03,10.56H253.48z M251.46,196.23c0.98-0.66,1.65-1.59,1.99-2.79v-2.19h-5.14c-1.4,0-2.46,0.23-3.19,0.7
		c-0.73,0.47-1.1,1.17-1.1,2.1c0,0.95,0.35,1.72,1.05,2.3c0.7,0.58,1.63,0.87,2.78,0.87C249.27,197.22,250.48,196.89,251.46,196.23z
		"/>
	<path class="st1" d="M272.62,197.73c-1.1,0.75-2.27,1.15-3.53,1.19c-1.22,0-2.18-0.38-2.89-1.13c-0.71-0.75-1.06-1.88-1.06-3.38
		v-9.49h-2.28l-0.03-1.58h2.31v-4.11h2.04v4.11l5.17-0.03v1.61h-5.17v9.16c0,1.97,0.73,2.95,2.19,2.95c0.81,0,1.69-0.28,2.65-0.85
		L272.62,197.73z"/>
	<path class="st2" d="M306.56,179.79c1.45,1.27,2.18,3.06,2.18,5.37c0,2.43-0.73,4.32-2.2,5.67c-1.47,1.35-3.52,2.02-6.18,2.02
		h-4.16v5.98h-4.73v-20.94h8.88C303.04,177.89,305.11,178.52,306.56,179.79z M303.2,187.99c0.71-0.61,1.06-1.5,1.06-2.68
		c0-1.16-0.35-2.03-1.06-2.62c-0.71-0.59-1.73-0.88-3.07-0.88h-3.92v7.09h3.92C301.47,188.9,302.49,188.6,303.2,187.99z"/>
	<path class="st2" d="M328.06,198.83l-3.32-5.98h-0.45h-4.37v5.98h-4.73v-20.94h9.09c2.73,0,4.85,0.63,6.34,1.9
		c1.5,1.27,2.24,3.06,2.24,5.37c0,1.61-0.33,3-1,4.14c-0.67,1.15-1.64,2.02-2.92,2.62l4.46,6.91H328.06z M319.93,188.9h4.37
		c1.32,0,2.33-0.3,3.04-0.91c0.71-0.61,1.06-1.5,1.06-2.68c0-1.16-0.35-2.03-1.06-2.62c-0.71-0.59-1.72-0.88-3.04-0.88h-4.37V188.9z
		"/>
	<path class="st2" d="M340.3,177.89h4.73v20.94h-4.73V177.89z"/>
	<path class="st2" d="M367.57,177.89h4.49v20.94h-4.31l-10.14-13.46v13.46h-4.52v-20.94h4.31l10.17,13.52V177.89z"/>
	<path class="st2" d="M392.74,182.42c-0.97-0.49-1.94-0.73-2.92-0.73c-1.18,0-2.25,0.29-3.23,0.87c-0.98,0.58-1.75,1.37-2.3,2.36
		c-0.56,1-0.84,2.1-0.84,3.32c0,1.22,0.28,2.33,0.84,3.33c0.56,1.01,1.33,1.8,2.3,2.39c0.98,0.59,2.05,0.88,3.23,0.88
		c0.94,0,1.89-0.22,2.86-0.67c0.97-0.45,1.83-1.05,2.59-1.81l2.78,3.02c-1.12,1.16-2.43,2.07-3.93,2.75
		c-1.51,0.68-3.02,1.02-4.53,1.02c-2.05,0-3.92-0.47-5.59-1.42c-1.67-0.95-2.99-2.25-3.95-3.9c-0.96-1.65-1.44-3.5-1.44-5.53
		c0-2.01,0.49-3.84,1.47-5.47c0.98-1.64,2.32-2.92,4.02-3.86c1.7-0.94,3.59-1.41,5.67-1.41c1.52,0,3.01,0.31,4.49,0.94
		c1.48,0.63,2.73,1.48,3.77,2.56l-2.75,3.38C394.55,183.58,393.71,182.91,392.74,182.42z"/>
	<path class="st2" d="M404.3,177.89h15.94v3.92h-11.22v4.55h10.08v3.92h-10.08v4.64h11.54v3.92H404.3V177.89z"/>
	<path class="st2" d="M425.66,177.89h17.5v4.01h-6.4v16.93h-4.73V181.9h-6.37V177.89z"/>
	<path class="st2" d="M463.46,178.97c1.71,0.94,3.07,2.23,4.05,3.87c0.99,1.64,1.48,3.47,1.48,5.49c0,2.01-0.49,3.85-1.48,5.5
		c-0.99,1.66-2.34,2.96-4.05,3.9c-1.72,0.95-3.62,1.42-5.71,1.42s-4-0.47-5.71-1.42c-1.72-0.95-3.07-2.24-4.05-3.89
		c-0.99-1.64-1.48-3.48-1.48-5.52c0-2.01,0.49-3.84,1.48-5.49c0.99-1.65,2.33-2.94,4.04-3.87c1.7-0.94,3.61-1.41,5.73-1.41
		C459.84,177.56,461.74,178.03,463.46,178.97z M454.58,182.57c-1,0.59-1.78,1.39-2.36,2.41c-0.58,1.02-0.87,2.13-0.87,3.35
		c0,1.24,0.29,2.36,0.88,3.38c0.59,1.02,1.38,1.82,2.36,2.42c0.99,0.6,2.06,0.9,3.22,0.9c1.16,0,2.22-0.29,3.18-0.88
		c0.97-0.59,1.73-1.4,2.3-2.42c0.57-1.03,0.85-2.16,0.85-3.39c0-1.22-0.28-2.33-0.85-3.35c-0.57-1.02-1.34-1.82-2.3-2.41
		c-0.97-0.59-2.03-0.88-3.18-0.88C456.65,181.69,455.57,181.98,454.58,182.57z"/>
	<path class="st2" d="M490.02,177.89h4.49v20.94h-4.31l-10.14-13.46v13.46h-4.52v-20.94h4.31l10.17,13.52V177.89z"/>
	<g>
		<path class="st3" d="M80.31,143.86c0,13.91,4.35,26.8,11.75,37.4v-74.81C84.66,117.06,80.31,129.95,80.31,143.86z"/>
		<path class="st0" d="M103.87,93.56v100.59c3.66,3.06,7.67,5.71,11.95,7.92V85.65C111.54,87.85,107.53,90.51,103.87,93.56z"/>
		<path class="st1" d="M127.63,80.95v125.82c3.85,1.11,7.84,1.88,11.95,2.27V78.68C135.47,79.06,131.48,79.84,127.63,80.95z"/>
		<path class="st3" d="M150.07,209.05h1.78c11.89-1.09,22.84-5.36,32.04-11.95h-33.82V209.05z"/>
		<path class="st1" d="M150.07,185.29h46.43c3-3.67,5.6-7.68,7.76-11.95h-54.19V185.29z"/>
		<path class="st0" d="M150.07,161.54h58.77c1.08-3.85,1.81-7.84,2.17-11.95h-60.94V161.54z"/>
		<path class="st1" d="M150.07,125.83v11.95h60.92c-0.38-4.1-1.14-8.1-2.24-11.95H150.07z"/>
		<path class="st0" d="M150.07,114.02h54.01c-2.19-4.27-4.83-8.28-7.87-11.95h-46.15V114.02z"/>
		<path class="st3" d="M183.4,90.26c-9.55-6.71-20.97-10.94-33.33-11.74v11.74H183.4z"/>
	</g>
	<path class="st1" d="M362.74,146.32h-18.9v6.88h12.04v6.02c-1.41,0.82-2.89,1.46-4.44,1.91c-1.55,0.45-3.03,0.68-4.44,0.68
		c-2.63,0-5.02-0.63-7.17-1.88c-2.16-1.25-3.87-2.96-5.14-5.11c-1.27-2.15-1.91-4.53-1.91-7.11c0-2.55,0.63-4.9,1.88-7.05
		c1.25-2.15,2.97-3.85,5.14-5.09c2.17-1.23,4.56-1.85,7.14-1.85c2.08,0,4.14,0.41,6.2,1.23c2.06,0.82,3.87,1.98,5.44,3.47l4.47-5.82
		c-2.08-1.84-4.55-3.29-7.41-4.35c-2.86-1.06-5.76-1.59-8.7-1.59c-4.12,0-7.87,0.93-11.26,2.79c-3.39,1.86-6.07,4.39-8.02,7.58
		c-1.96,3.19-2.94,6.75-2.94,10.67c0,3.92,0.96,7.5,2.88,10.73c1.92,3.23,4.54,5.79,7.85,7.67c3.31,1.88,6.99,2.82,11.02,2.82
		c2.82,0,5.7-0.5,8.64-1.5c2.94-1,5.49-2.3,7.64-3.91v-15.64h-0.01V146.32z"/>
</g>
</svg>
