<?xml version="1.0" encoding="UTF-8"?><svg id="Layer_2" xmlns="http://www.w3.org/2000/svg" viewBox="0 0 910.61 303.9"><defs><style>.cls-1{fill:#fff;}</style></defs><g id="Layer_1-2"><path class="cls-1" d="M910.61,303.9H273.61v-110.64H910.61v110.64Zm-435.63-76.38c0-5.76-3.51-10.08-9.09-10.08-3.51,0-7.38,2.25-7.47,6.21l.36,.45c2.07-.18,3.69,1.71,3.69,4.5,0,8.64-9.45,32.67-12.42,41.04h-.18c-.99-4.77-2.07-9.54-3.51-14.13l-11.43-37.26h-15.66l20.88,63.63h16.02l13.59-35.28c1.98-5.22,5.22-13.5,5.22-19.08Zm21.69-6.84c0-3.96-2.7-6.75-7.29-6.75-4.86,0-7.47,3.06-7.47,6.75,0,3.96,2.97,6.66,7.47,6.66s7.29-2.61,7.29-6.66Zm4.68,54.45l-.45-.36c-.54,.36-1.26,.54-1.98,.54-2.25,0-2.97-1.89-2.97-4.23v-37.35h-13.32v38.07c0,6.66,3.33,10.71,9.63,10.71,5.49,0,8.64-3.33,9.09-7.38Zm44.37-2.25l-.45-.45c-1.71,.27-8.73,.63-14.58,.63h-8.1c0-8.01,20.25-19.62,20.25-30.42v-8.91h-34.74v8.73h19.35c0,8.28-20.52,20.52-20.52,30.87v8.46h30.24c5.22,0,8.37-2.07,8.55-8.91Zm49.05-44.73v-9.9h-38.52v63.54h32.67c5.49,0,8.73-3.42,8.91-10.35l-.45-.54c-1.71,.36-9.18,.72-15.3,.72h-11.34v-17.46h14.76c5.4,0,8.64-2.7,8.82-9.63l-.45-.54c-1.71,.36-9.18,.72-15.3,.72h-7.83v-16.56h24.03Zm65.79,43.29l-.45-.54c-1.71,.36-9.18,.72-15.3,.72h-9.54v-53.37h-14.49v63.54h30.96c5.4,0,8.64-3.42,8.82-10.35Zm19.98-28.89c5.85,0,9.72,2.25,9.72,8.1v4.05c-2.07-.27-4.77-.45-7.02-.45-13.05,0-19.89,5.49-19.89,14.85,0,7.83,4.68,14.13,12.69,14.13,5.85,0,10.08-3.42,14.49-8.1h.27c.45,3.42,3.33,7.38,9.45,7.38,5.49,0,8.64-3.33,9.09-7.38l-.45-.36c-.54,.36-1.26,.54-2.07,.54-2.34,0-3.15-1.71-3.15-4.41v-19.98c0-13.86-9.54-18-21.42-18-5.76,0-10.8,.99-14.76,2.07l1.35,9.81c3.33-1.35,6.84-2.25,11.7-2.25Zm9.72,24.84c-2.7,2.61-5.4,5.13-9.09,5.13-3.42,0-5.22-2.34-5.22-5.22,0-3.42,2.43-5.76,8.37-5.76,2.25,0,4.23,.18,5.94,.54v5.31Zm73.26-12.96c0-9.18-3.24-22.14-14.58-22.14-7.38,0-12.6,5.58-17.1,10.62h-.09v-28.62h-13.32v67.5c5.13,.45,10.44,.72,15.57,.72,20.52,0,29.52-10.89,29.52-28.08Zm-13.86,3.78c0,7.83-3.15,15.66-12.42,15.66-1.89,0-3.78-.27-5.49-.63v-21.33c2.52-2.97,6.57-7.65,10.71-7.65,6.3,0,7.2,9.45,7.2,13.95Z"/><path class="cls-1" d="M222.78,127.74c-8.3,13.48-21.6,25.3-37.62,35.05l-14.5-27.06,52.12-7.99ZM130.7,61.18l24.23,45.21,77.1-11.82c-.63-38.92-19.35-61.87-44.02-75.38l-57.31,41.99Zm-14.97-27.93L152.67,6.18C133.24,1.64,113.56,.35,97.91,0l17.82,33.25Zm6.3,78.19l-16.89-31.52-58.88,43.14,75.77-11.62Zm15.72,29.34l-112.61,17.27c14.61,20.55,33.54,35.22,51.1,35.22,25.45,0,54.64-5.9,80.82-16.48l-19.3-36.01ZM90.16,51.98L64.21,3.56C31.85,14.4,0,47.89,0,86.61c0,9.15,1.54,18.76,4.27,28.3L90.16,51.98Z"/><g><path class="cls-1" d="M321.97,81.05l-6.83-19.9h-22.88l-6.73,19.9h-12.5l23.65-67.96h17.69l24.51,67.96h-16.92Zm-14.9-44.12c-1.63-4.81-2.88-9.71-3.36-11.92h-.29c-.48,2.31-1.83,7.31-3.36,12.11l-4.81,14.32h16.82l-5-14.51Z"/><path class="cls-1" d="M390.52,81.82c-6.63,0-10.29-4.33-10.29-11.44v-23.94c0-3.75-2.31-5.48-5.09-5.48-5.09,0-9.61,5-12.59,8.07v32.01h-14.32V29.72h14.03v9.81h.29c5.77-6.25,11.92-11.34,20.19-11.34,2.79,0,5.77,.96,7.88,2.79,3.56,2.98,3.94,7.5,3.94,11.82v26.82c0,2.5,.77,4.52,3.08,4.52,.86,0,1.54-.19,2.11-.58l.48,.38c-.38,4.33-3.84,7.88-9.71,7.88Z"/><path class="cls-1" d="M428.5,82.59c-10.86,0-17.59-6.44-17.59-17.5v-25.86h-7.21l-.38-.67c.48-4.23,3.27-6.25,6.92-8.84l13.84-10.09h1.06v10.09h14.03v9.52h-13.94v25.38c0,5.38,3.17,8.56,8.65,8.56,2.4,0,5-.67,6.63-2.11l.58,.38c.1,.67,.19,1.44,.19,2.11,0,6.73-7.31,9.04-12.79,9.04Z"/><path class="cls-1" d="M490.89,81.82c-6.63,0-10.19-4.33-10.19-11.44v-23.94c0-3.75-2.21-5.48-4.9-5.48-4.81,0-9.23,5-12.11,8.07v32.01h-14.23V8.96h14.23v30.57h.1c5.67-6.25,11.63-11.34,19.61-11.34,2.79,0,5.58,.96,7.69,2.79,3.46,2.98,3.84,7.5,3.84,11.82v26.82c0,2.5,.77,4.52,3.17,4.52,.77,0,1.54-.19,2.11-.58l.48,.38c-.48,4.33-3.84,7.88-9.81,7.88Z"/><path class="cls-1" d="M542.81,42.31c-1.44-.48-2.88-.67-4.42-.67-5.09,0-9.13,4.13-12.88,7.88v31.53h-14.23V41.16c0-2.11-.67-4.52-3.17-4.52-.77,0-1.54,.19-2.21,.58l-.48-.38c.58-5.19,4.9-7.88,9.71-7.88,5.67,0,9.61,3.46,9.61,9.42v1.92h.29c4.23-6.15,8.36-12.11,16.05-12.11,.77,0,1.63,.1,2.5,.29l-.77,13.84Z"/><path class="cls-1" d="M572.52,82.88c-16.53,0-24.99-12.5-24.99-28.07,0-16.34,10.38-26.72,26.63-26.72s24.61,9.61,24.61,25.28-9.33,29.51-26.24,29.51Zm.48-45.47c-8.75,0-10.57,9.13-10.57,15.96s1.44,20.19,11.06,20.19c8.56,0,10.48-11.25,10.48-18.46s-1.73-17.69-10.96-17.69Z"/><path class="cls-1" d="M632.42,81.73c-4.9,0-7.69-2.6-7.69-6.83,0-.48,0-1.06,.1-1.63l.48-.38c1.15,.19,2.4,.19,3.65,.19,10,0,13.27-8.36,13.27-17.11,0-4.81-.96-14.9-7.69-14.9-4.42,0-8.84,5.09-11.34,8.08v51.14h-14.23V29.72h13.94v9.9h.38c4.81-5.48,10.29-11.44,18.17-11.44,12.21,0,15.57,13.94,15.57,23.65,0,15.48-7.31,29.9-24.61,29.9Z"/><path class="cls-1" d="M690.01,82.88c-16.53,0-24.99-12.5-24.99-28.07,0-16.34,10.38-26.72,26.63-26.72s24.61,9.61,24.61,25.28-9.33,29.51-26.24,29.51Zm.48-45.47c-8.75,0-10.57,9.13-10.57,15.96s1.44,20.19,11.06,20.19c8.56,0,10.48-11.25,10.48-18.46s-1.73-17.69-10.96-17.69Z"/><path class="cls-1" d="M736.73,81.82c-6.63,0-10.29-4.33-10.29-11.44V8.96h14.23v60.66c0,2.5,.77,4.52,3.17,4.52,.86,0,1.54-.19,2.11-.58l.48,.38c-.38,4.33-3.84,7.88-9.71,7.88Z"/><path class="cls-1" d="M777.11,82.88c-16.53,0-24.99-12.5-24.99-28.07,0-16.34,10.38-26.72,26.63-26.72s24.61,9.61,24.61,25.28-9.33,29.51-26.24,29.51Zm.48-45.47c-8.75,0-10.57,9.13-10.57,15.96s1.44,20.19,11.06,20.19c8.56,0,10.48-11.25,10.48-18.46s-1.73-17.69-10.96-17.69Z"/><path class="cls-1" d="M851.23,38.85c.96,1.83,1.44,4.04,1.44,6.25,0,10.86-9.04,17.59-20.96,17.59-2.31,0-4.81-.38-6.92-.96l-1.83,5.58c2.59,1.25,5.38,1.63,8.17,1.63h9.32c8.17,0,17.02,3.75,17.02,13.26,0,13.07-13.46,18.84-25.38,18.84-7.5,0-20.28-2.69-20.28-12.11,0-4.04,3.08-7.31,8.27-7.31,1.15,0,2.31,.19,3.36,.48l.29,.67c-.67,.87-1.15,2.21-1.15,3.46,0,5,5.86,7.11,10.29,7.11,4.71,0,11.73-1.83,11.73-7.4,0-4.81-4.04-5.96-8.17-5.96h-11.25c-4.61,0-9.52-.77-13.36-3.27l5.48-18.55c-3.84-2.98-5.96-7.5-5.96-13.07,0-9.81,7.59-17.11,20.86-17.11,3.36,0,6.73,.58,9.81,1.73,5.29,0,10.57,0,15.77-.77l.48,.67c-.29,4.61-2.5,8.75-7.02,9.23Zm-19.32-3.65c-5.38,0-7.11,5.09-7.11,9.71s1.44,10.48,7.11,10.48,7.31-5.29,7.31-9.81-1.63-10.38-7.31-10.38Z"/><path class="cls-1" d="M883.06,101.05c-7.5,0-12.4-3.56-12.4-9.81,0-.58,0-1.15,.1-1.73l.67-.48c2.12,1.83,5.77,2.6,9.23,2.6,10.09,0,15.67-4.71,15.67-15.09v-6.92h-.29c-4.9,5.58-10.67,11.44-18.55,11.44-2.59,0-5.19-.96-7.11-2.79-3.27-3.08-3.75-7.59-3.75-11.82V29.72h14.23V62.79c0,2.69,1.25,5.48,4.42,5.48,4.13,0,8.08-5.09,10.77-8.08V29.72h14.23v44.12c0,15.86-11.54,27.2-27.2,27.2Z"/></g><path class="cls-1" d="M284.07,141.59c-2.25,0-3.88-.84-3.98-3.35l.16-.26c.73,.1,1.41,.1,2.15,.1,5.14,0,8.91-2.94,8.91-8.18s-3.88-7.81-8.86-7.81c-1.26,0-2.46,.11-3.67,.26v33.34h-5.56v-36.8c3.35-.21,6.76-.37,10.17-.37,7.18,0,13.52,2.62,13.52,10.9,0,7.08-5.98,12.16-12.84,12.16Zm46.64,14.52c-6.19,0-10.54-7.97-14.36-17.09-1.47,.16-3.04,.16-4.51,.1v16.56h-5.56v-36.8c3.2-.16,6.34-.37,9.59-.37,6.34,0,13.63,1.89,13.68,9.64,0,5.08-3.77,8.49-8.18,9.96,4.09,7.81,8.65,14.41,11.95,14.41,.37,0,.73-.1,1.05-.26l.26,.21c0,2.31-1.73,3.62-3.93,3.62Zm-15.67-34.02c-1.05,0-2.2,.11-3.2,.26v13.26c1.15,.05,2.31,.16,3.51,.16,4.35,0,8.49-1.99,8.49-6.87,0-5.14-4.19-6.82-8.81-6.82Zm27.35,33.6v-37.01h5.56v37.01h-5.56Zm45.34,0l-17.14-22.33c-1.78-2.31-3.09-4.19-4.14-5.98h-.16v28.31h-4.45v-31.55c0-1.15-.42-2.2-1.73-2.2-.37,0-.73,.1-1.1,.26l-.21-.26c0-2.36,1.89-3.72,4.14-3.72,2.41,0,4.25,1.15,6.4,4.04l13.26,17.77c2.04,2.67,4.19,5.71,5.03,7.44h.16v-28.78h4.45v37.01h-4.51Zm34.01,.84c-11.95,0-20.34-7.91-20.34-20.02s8.23-18.29,19.87-18.29c2.78,0,5.56,.16,8.28,.63l-.68,4.61c-2.31-.79-4.98-1.15-7.39-1.15-9.44,0-14.36,4.67-14.36,14s5.97,16.2,15.78,16.2c2.36,0,5.08-.42,7.08-1.73l.26,.21c.05,.26,.05,.58,.05,.84,0,4.04-5.56,4.72-8.54,4.72Zm23-33.76v11.48h5.29c3.56,0,7.92-.21,8.91-.42l.16,.26c-.21,2.78-1.68,4.04-4.4,4.04h-9.96v13.42h7.29c3.56,0,7.91-.21,8.91-.42l.21,.26c-.26,2.78-1.73,4.3-4.45,4.3h-17.51v-37.01h20.18v4.09h-14.62Zm46.59,0h-8.07v32.92h-5.56v-32.92h-11.69v-4.09h20.65c3.56,0,7.92-.21,8.91-.42l.16,.26c-.21,2.78-1.68,4.25-4.4,4.25Zm23.48,33.91c-11.64,0-17.46-9.75-17.46-20.6s7.18-18.4,17.77-18.4,17.66,6.87,17.66,17.72-6.45,21.28-17.98,21.28Zm.26-35.28c-8.65,0-12,7.44-12,14.94s3.09,16.62,12.11,16.62,11.9-9.44,11.9-16.67-3.51-14.89-12-14.89Zm54.19,34.28l-17.14-22.33c-1.78-2.31-3.09-4.19-4.14-5.98h-.16v28.31h-4.45v-31.55c0-1.15-.42-2.2-1.73-2.2-.37,0-.73,.1-1.1,.26l-.21-.26c0-2.36,1.89-3.72,4.14-3.72,2.41,0,4.25,1.15,6.4,4.04l13.26,17.77c2.04,2.67,4.19,5.71,5.03,7.44h.16v-28.78h4.45v37.01h-4.51Zm60.42,.42c-2.04,0-3.62-1.52-3.93-3.62h-.1c-3.04,2.57-7.13,4.04-11.22,4.04-7.92,0-13.79-4.51-13.79-15.36v-22.49h5.56v22.59c0,6.76,3.35,10.8,10.22,10.8,3.46,0,6.55-1.05,8.81-3.3v-30.09h5.56v31.29c0,1.1,.37,2.46,1.78,2.46,.42,0,.79-.1,1.15-.31l.21,.21c-.16,2.52-2.04,3.77-4.25,3.77Zm41.35-.42l-17.14-22.33c-1.78-2.31-3.09-4.19-4.14-5.98h-.16v28.31h-4.46v-31.55c0-1.15-.42-2.2-1.73-2.2-.37,0-.73,.1-1.1,.26l-.21-.26c0-2.36,1.89-3.72,4.14-3.72,2.41,0,4.25,1.15,6.39,4.04l13.26,17.77c2.04,2.67,4.19,5.71,5.03,7.44h.16v-28.78h4.46v37.01h-4.51Zm16.92,0v-37.01h5.56v37.01h-5.56Zm39.99-21.81l-8.33,21.91h-5.71l-12.74-37.11h5.98l7.55,22.64c.94,2.88,1.78,5.87,2.57,8.81h.1c2.04-5.5,8.44-21.49,8.44-26.58,0-1.94-1.15-2.62-1.94-2.57l-.1-.26c.16-1.63,1.68-2.52,3.09-2.52,2.57,0,4.04,2.1,4.04,4.87,0,2.99-1.94,8.02-2.94,10.8Zm18.02-11.11v11.48h5.29c3.56,0,7.92-.21,8.91-.42l.16,.26c-.21,2.78-1.68,4.04-4.4,4.04h-9.96v13.42h7.29c3.56,0,7.91-.21,8.91-.42l.21,.26c-.26,2.78-1.73,4.3-4.45,4.3h-17.51v-37.01h20.18v4.09h-14.62Zm50.57,33.34c-6.19,0-10.54-7.97-14.36-17.09-1.47,.16-3.04,.16-4.51,.1v16.56h-5.56v-36.8c3.2-.16,6.34-.37,9.59-.37,6.34,0,13.63,1.89,13.68,9.64,0,5.08-3.77,8.49-8.18,9.96,4.09,7.81,8.65,14.41,11.95,14.41,.37,0,.73-.1,1.05-.26l.26,.21c0,2.31-1.73,3.62-3.93,3.62Zm-15.67-34.02c-1.05,0-2.2,.11-3.2,.26v13.26c1.15,.05,2.31,.16,3.51,.16,4.35,0,8.49-1.99,8.49-6.87,0-5.14-4.19-6.82-8.81-6.82Zm32.02,34.44c-3.46,0-8.18-.89-8.18-4.82,0-.26,.05-.58,.11-.84l.31-.21c1.94,1.36,5.03,1.89,7.6,1.89,3.93,0,7.65-1.94,7.65-6.08,0-3.51-3.2-5.24-6.87-7.18-5.45-2.88-8.44-5.5-8.44-10.59,0-6.24,5.56-10.48,12.89-10.48,2.2,0,4.51,.26,6.34,.58l-.63,4.4c-1.63-.52-3.77-1.05-5.77-1.05-5.5,0-7.44,2.78-7.44,5.56,0,3.62,3.62,5.29,6.76,7.02,5.29,2.83,8.65,5.35,8.65,10.9,0,4.93-3.62,10.9-13,10.9Zm22.22-.84v-37.01h5.56v37.01h-5.56Zm38.42-32.92h-8.07v32.92h-5.56v-32.92h-11.69v-4.09h20.65c3.56,0,7.92-.21,8.91-.42l.16,.26c-.21,2.78-1.68,4.25-4.4,4.25Zm36.37-.05l-.31,.16c-.32-.21-.68-.31-1.05-.31-3.88,0-6.82,7.5-11.17,17.35v15.78h-5.61v-15.67l-11.9-21.33h6.45l8.81,16.67c3.77-9.23,6.76-17.09,11.64-17.09,2.1,0,3.3,1.36,3.3,3.15,0,.52-.05,.94-.16,1.31Z"/></g></svg>