<svg width="48" height="24" viewBox="0 0 48 24" fill="none" xmlns="http://www.w3.org/2000/svg">
<g clip-path="url(#clip0_2208_366)">
<path d="M12.107 22.8139C18.0791 22.8139 22.9205 17.9725 22.9205 12.0004C22.9205 6.02824 18.0791 1.18687 12.107 1.18687C6.13483 1.18687 1.29346 6.02824 1.29346 12.0004C1.29346 17.9725 6.13483 22.8139 12.107 22.8139Z" fill="white"/>
<path d="M11.9779 0C15.3345 0 18.1924 1.17187 20.5492 3.5145C21.6772 4.64287 22.5349 5.9325 23.1206 7.38225C23.706 8.83237 23.9996 10.3714 23.9996 12C23.9996 13.6429 23.7097 15.1822 23.1319 16.6174C22.5532 18.0529 21.6994 19.3211 20.5714 20.421C19.4002 21.5779 18.0716 22.464 16.5855 23.0782C15.1001 23.6925 13.5641 23.9996 11.9786 23.9996C10.3931 23.9996 8.87512 23.6966 7.425 23.0887C5.97525 22.482 4.67512 21.6034 3.525 20.4536C2.37487 19.3039 1.5 18.0071 0.9 16.5641C0.3 15.1211 0 13.6001 0 12C0 10.4141 0.303375 8.88937 0.9105 7.425C1.51762 5.96062 2.4 4.65 3.55687 3.49275C5.8425 1.16475 8.64937 0 11.9779 0ZM12.0214 2.1645C9.27862 2.1645 6.97125 3.12187 5.09962 5.03587C4.1565 5.99325 3.43162 7.068 2.92462 8.26087C2.41687 9.45375 2.16375 10.7002 2.16375 12.0004C2.16375 13.2862 2.41687 14.5256 2.92462 15.7177C3.432 16.9114 4.1565 17.9756 5.09962 18.9112C6.04237 19.8472 7.10625 20.5609 8.29275 21.0544C9.47812 21.5471 10.7212 21.7935 12.0214 21.7935C13.3069 21.7935 14.5526 21.5441 15.7612 21.0439C16.9684 20.5432 18.0566 19.8225 19.0286 18.8797C20.8999 17.0512 21.8351 14.7585 21.8351 12.0007C21.8351 10.6721 21.5921 9.41512 21.1065 8.22937C20.6216 7.04362 19.914 5.98687 18.9862 5.05762C17.0565 3.129 14.7356 2.1645 12.0214 2.1645ZM11.871 10.0076L10.2634 10.8435C10.0916 10.4869 9.88125 10.2364 9.6315 10.0935C9.38137 9.951 9.14925 9.87937 8.93475 9.87937C7.86375 9.87937 7.3275 10.5862 7.3275 12.0007C7.3275 12.6435 7.46325 13.1572 7.73437 13.5431C8.00587 13.929 8.406 14.1221 8.93475 14.1221C9.63487 14.1221 10.1276 13.779 10.4137 13.0935L11.892 13.8435C11.5777 14.4296 11.142 14.8901 10.5847 15.2257C10.0282 15.5617 9.41362 15.7294 8.742 15.7294C7.67062 15.7294 6.80587 15.4012 6.14887 14.7435C5.49187 14.0865 5.16337 13.1722 5.16337 12.0011C5.16337 10.8581 5.49562 9.95137 6.15975 9.27975C6.82387 8.6085 7.66312 8.2725 8.67787 8.2725C10.164 8.27175 11.2279 8.85037 11.871 10.0076ZM18.7924 10.0076L17.2065 10.8435C17.0351 10.4869 16.824 10.2364 16.5742 10.0935C16.3237 9.951 16.0841 9.87937 15.8565 9.87937C14.7851 9.87937 14.2489 10.5862 14.2489 12.0007C14.2489 12.6435 14.385 13.1572 14.6561 13.5431C14.9272 13.929 15.327 14.1221 15.8565 14.1221C16.5559 14.1221 17.049 13.779 17.3344 13.0935L18.8344 13.8435C18.5062 14.4296 18.063 14.8901 17.5065 15.2257C16.9492 15.5617 16.3421 15.7294 15.6851 15.7294C14.5991 15.7294 13.7317 15.4012 13.0822 14.7435C12.4312 14.0865 12.1065 13.1722 12.1065 12.0011C12.1065 10.8581 12.4384 9.95137 13.1032 9.27975C13.767 8.6085 14.6062 8.2725 15.6206 8.2725C17.1064 8.27175 18.1642 8.85037 18.7924 10.0076Z" fill="black"/>
</g>
<g clip-path="url(#clip1_2208_366)">
<path d="M36.0513 22.7183C41.9074 22.7183 46.6548 17.9709 46.6548 12.1148C46.6548 6.2586 41.9074 1.51125 36.0513 1.51125C30.1951 1.51125 25.4478 6.2586 25.4478 12.1148C25.4478 17.9709 30.1951 22.7183 36.0513 22.7183Z" fill="white"/>
<path d="M35.9786 0C39.3491 0 42.1924 1.15688 44.5069 3.47137C46.8349 5.80013 48 8.643 48 12C48 15.3716 46.8566 18.1785 44.5706 20.421C42.1421 22.8071 39.2783 24 35.9786 24C32.7353 24 29.9212 22.821 27.5359 20.4637C25.179 18.1065 24 15.2858 24 12C24 8.71463 25.179 5.87175 27.5359 3.47175C29.8504 1.15687 32.664 0 35.9786 0ZM36.0214 2.1645C33.2929 2.1645 30.9859 3.12187 29.1 5.03587C27.1425 7.03613 26.1641 9.35775 26.1641 12.0004C26.1641 14.6576 27.1354 16.9579 29.0779 18.8996C31.0208 20.8429 33.3349 21.8137 36.0206 21.8137C38.6918 21.8137 41.0209 20.8361 43.0065 18.8782C44.8924 17.064 45.8351 14.7713 45.8351 11.9996C45.8351 9.27113 44.8777 6.95025 42.9641 5.0355C41.0501 3.1215 38.7356 2.1645 36.0214 2.1645ZM39.2359 9.02137V13.9282H37.8649V19.7565H34.1359V13.9286H32.7649V9.02137C32.7649 8.80687 32.8399 8.625 32.9895 8.475C33.1399 8.32538 33.3221 8.25 33.5359 8.25H38.4649C38.6648 8.25 38.8436 8.325 39.0004 8.475C39.1567 8.625 39.2359 8.80725 39.2359 9.02137ZM34.3282 5.93588C34.3282 4.80788 34.8851 4.24313 36 4.24313C37.1149 4.24313 37.6714 4.80713 37.6714 5.93588C37.6714 7.05 37.1141 7.60725 36 7.60725C34.8859 7.60725 34.3282 7.05 34.3282 5.93588Z" fill="black"/>
</g>
<defs>
<clipPath id="clip0_2208_366">
<rect width="24" height="24" fill="white"/>
</clipPath>
<clipPath id="clip1_2208_366">
<rect width="24" height="24" fill="white" transform="translate(24)"/>
</clipPath>
</defs>
</svg>
