<svg width="73" height="24" viewBox="0 0 73 24" fill="none" xmlns="http://www.w3.org/2000/svg">
<g clip-path="url(#clip0_1653_4614)">
<path d="M12.2022 22.8139C18.1743 22.8139 23.0157 17.9725 23.0157 12.0004C23.0157 6.02826 18.1743 1.18689 12.2022 1.18689C6.23004 1.18689 1.38867 6.02826 1.38867 12.0004C1.38867 17.9725 6.23004 22.8139 12.2022 22.8139Z" fill="white"/>
<path d="M12.0731 0C15.4297 0 18.2876 1.17187 20.6445 3.5145C21.7725 4.64287 22.6301 5.9325 23.2158 7.38225C23.8012 8.83237 24.0948 10.3714 24.0948 12C24.0948 13.6429 23.805 15.1822 23.2271 16.6174C22.6485 18.0529 21.7946 19.3211 20.6666 20.421C19.4955 21.5779 18.1668 22.464 16.6807 23.0782C15.1953 23.6925 13.6593 23.9996 12.0738 23.9996C10.4883 23.9996 8.97034 23.6966 7.52021 23.0887C6.07046 22.482 4.77034 21.6034 3.62021 20.4536C2.47009 19.3039 1.59521 18.0071 0.995215 16.5641C0.395215 15.1211 0.0952148 13.6001 0.0952148 12C0.0952148 10.4141 0.39859 8.88937 1.00571 7.425C1.61284 5.96062 2.49521 4.65 3.65209 3.49275C5.93771 1.16475 8.74459 0 12.0731 0ZM12.1166 2.1645C9.37384 2.1645 7.06646 3.12187 5.19484 5.03587C4.25171 5.99325 3.52684 7.068 3.01984 8.26087C2.51209 9.45375 2.25896 10.7002 2.25896 12.0004C2.25896 13.2862 2.51209 14.5256 3.01984 15.7177C3.52721 16.9114 4.25171 17.9756 5.19484 18.9112C6.13759 19.8472 7.20146 20.5609 8.38796 21.0544C9.57334 21.5471 10.8165 21.7935 12.1166 21.7935C13.4021 21.7935 14.6478 21.5441 15.8565 21.0439C17.0636 20.5432 18.1518 19.8225 19.1238 18.8797C20.9951 17.0512 21.9303 14.7585 21.9303 12.0007C21.9303 10.6721 21.6873 9.41512 21.2017 8.22937C20.7168 7.04362 20.0092 5.98687 19.0815 5.05762C17.1517 3.129 14.8308 2.1645 12.1166 2.1645ZM11.9662 10.0076L10.3586 10.8435C10.1868 10.4869 9.97646 10.2364 9.72671 10.0935C9.47659 9.951 9.24446 9.87937 9.02996 9.87937C7.95896 9.87937 7.42271 10.5862 7.42271 12.0007C7.42271 12.6435 7.55846 13.1572 7.82959 13.5431C8.10109 13.929 8.50121 14.1221 9.02996 14.1221C9.73009 14.1221 10.2228 13.779 10.509 13.0935L11.9872 13.8435C11.673 14.4296 11.2372 14.8901 10.68 15.2257C10.1235 15.5617 9.50884 15.7294 8.83721 15.7294C7.76584 15.7294 6.90109 15.4012 6.24409 14.7435C5.58709 14.0865 5.25859 13.1722 5.25859 12.0011C5.25859 10.8581 5.59084 9.95137 6.25496 9.27975C6.91909 8.6085 7.75834 8.2725 8.77309 8.2725C10.2592 8.27175 11.3231 8.85037 11.9662 10.0076ZM18.8876 10.0076L17.3017 10.8435C17.1303 10.4869 16.9192 10.2364 16.6695 10.0935C16.419 9.951 16.1793 9.87937 15.9517 9.87937C14.8803 9.87937 14.3441 10.5862 14.3441 12.0007C14.3441 12.6435 14.4802 13.1572 14.7513 13.5431C15.0225 13.929 15.4222 14.1221 15.9517 14.1221C16.6511 14.1221 17.1442 13.779 17.4296 13.0935L18.9296 13.8435C18.6015 14.4296 18.1582 14.8901 17.6017 15.2257C17.0445 15.5617 16.4373 15.7294 15.7803 15.7294C14.6943 15.7294 13.827 15.4012 13.1775 14.7435C12.5265 14.0865 12.2017 13.1722 12.2017 12.0011C12.2017 10.8581 12.5336 9.95137 13.1985 9.27975C13.8622 8.6085 14.7015 8.2725 15.7158 8.2725C17.2016 8.27175 18.2595 8.85037 18.8876 10.0076Z" fill="black"/>
</g>
<g clip-path="url(#clip1_1653_4614)">
<path d="M36.1465 22.7182C42.0026 22.7182 46.75 17.9709 46.75 12.1147C46.75 6.25858 42.0026 1.51123 36.1465 1.51123C30.2903 1.51123 25.543 6.25858 25.543 12.1147C25.543 17.9709 30.2903 22.7182 36.1465 22.7182Z" fill="white"/>
<path d="M36.0738 0C39.4443 0 42.2876 1.15688 44.6021 3.47137C46.9301 5.80013 48.0952 8.643 48.0952 12C48.0952 15.3716 46.9518 18.1785 44.6658 20.421C42.2373 22.8071 39.3735 24 36.0738 24C32.8305 24 30.0165 22.821 27.6311 20.4637C25.2742 18.1065 24.0952 15.2858 24.0952 12C24.0952 8.71463 25.2742 5.87175 27.6311 3.47175C29.9456 1.15687 32.7592 0 36.0738 0ZM36.1166 2.1645C33.3881 2.1645 31.0811 3.12187 29.1952 5.03587C27.2377 7.03613 26.2593 9.35775 26.2593 12.0004C26.2593 14.6576 27.2306 16.9579 29.1731 18.8996C31.116 20.8429 33.4301 21.8137 36.1158 21.8137C38.787 21.8137 41.1161 20.8361 43.1017 18.8782C44.9876 17.064 45.9303 14.7713 45.9303 11.9996C45.9303 9.27113 44.973 6.95025 43.0593 5.0355C41.1453 3.1215 38.8308 2.1645 36.1166 2.1645ZM39.3311 9.02137V13.9282H37.9601V19.7565H34.2311V13.9286H32.8601V9.02137C32.8601 8.80687 32.9351 8.625 33.0847 8.475C33.2351 8.32538 33.4173 8.25 33.6311 8.25H38.5601C38.76 8.25 38.9388 8.325 39.0956 8.475C39.252 8.625 39.3311 8.80725 39.3311 9.02137ZM34.4235 5.93588C34.4235 4.80788 34.9803 4.24313 36.0952 4.24313C37.2101 4.24313 37.7666 4.80713 37.7666 5.93588C37.7666 7.05 37.2093 7.60725 36.0952 7.60725C34.9811 7.60725 34.4235 7.05 34.4235 5.93588Z" fill="black"/>
</g>
<g clip-path="url(#clip2_1653_4614)">
<path d="M60.0839 23.1401C66.1875 23.1401 71.1355 18.1921 71.1355 12.0885C71.1355 5.98485 66.1875 1.03687 60.0839 1.03687C53.9802 1.03687 49.0322 5.98485 49.0322 12.0885C49.0322 18.1921 53.9802 23.1401 60.0839 23.1401Z" fill="white"/>
<path d="M60.0735 0C63.4447 0 66.2876 1.15688 68.6021 3.471C70.9301 5.7855 72.0952 8.62837 72.0952 12C72.0952 15.372 70.9522 18.1785 68.6658 20.4218C66.2377 22.8075 63.3731 24 60.0735 24C56.8162 24 54.0022 22.8142 51.6311 20.4431C49.2742 18.0855 48.0952 15.2719 48.0952 12C48.0952 8.71425 49.2742 5.87138 51.6311 3.47137C53.9452 1.15725 56.7592 0 60.0735 0ZM50.7952 8.7645C50.4382 9.75 50.2593 10.8289 50.2593 12.0004C50.2593 14.6576 51.2306 16.9579 53.1731 18.9004C55.1302 20.8294 57.4447 21.7935 60.1158 21.7935C62.8162 21.7935 65.1442 20.8155 67.1021 18.8576C67.8022 18.1864 68.3516 17.4863 68.7513 16.7569L64.2303 14.7427C64.0725 15.5002 63.6907 16.1179 63.084 16.596C62.4757 17.0745 61.7583 17.3501 60.93 17.421V19.2641H59.5372V17.421C58.2086 17.4075 56.994 16.929 55.8945 15.9859L57.5445 14.3145C58.3297 15.0428 59.223 15.4069 60.2231 15.4069C60.6371 15.4069 60.9911 15.3146 61.2843 15.1282C61.5768 14.943 61.7238 14.6362 61.7238 14.2069C61.7238 13.9065 61.6162 13.6639 61.4021 13.4783L60.2452 12.9851L58.8311 12.342L56.9238 11.5061L50.7952 8.7645ZM60.1166 2.14275C57.3881 2.14275 55.0811 3.10688 53.1952 5.0355C52.7235 5.50725 52.2806 6.04275 51.8666 6.64313L56.4525 8.7C56.6523 8.0715 57.0307 7.56788 57.5883 7.1895C58.1448 6.81113 58.7951 6.60038 59.5383 6.55725V4.71413H60.9315V6.55725C62.0317 6.61463 63.0315 6.98588 63.9315 7.67138L62.367 9.27863C61.6946 8.80725 61.0098 8.57175 60.3097 8.57175C59.9381 8.57175 59.6062 8.64338 59.3137 8.78588C59.0208 8.92875 58.8742 9.17175 58.8742 9.5145C58.8742 9.61462 58.9098 9.71438 58.9811 9.8145L60.5025 10.5008L61.5525 10.9721L63.4815 11.829L69.6303 14.5718C69.831 13.7288 69.9307 12.8719 69.9307 12.0004C69.9307 9.243 68.9737 6.92175 67.0597 5.0355C65.1596 3.10688 62.8443 2.14275 60.1166 2.14275Z" fill="black"/>
</g>
<defs>
<clipPath id="clip0_1653_4614">
<rect width="24" height="24" fill="white" transform="translate(0.0952148)"/>
</clipPath>
<clipPath id="clip1_1653_4614">
<rect width="24" height="24" fill="white" transform="translate(24.0952)"/>
</clipPath>
<clipPath id="clip2_1653_4614">
<rect width="24" height="24" fill="white" transform="translate(48.0952)"/>
</clipPath>
</defs>
</svg>
