<svg width="20" height="46" viewBox="0 0 20 46" fill="none" xmlns="http://www.w3.org/2000/svg">
<path d="M16.0174 43.7406L16.1443 45.1102C16.1443 45.1102 15.4995 44.8655 15.136 44.622C14.8658 44.4409 14.7345 44.3101 14.4956 44.0893C14.1971 43.8135 13.7791 43.3347 13.7791 43.3347L12.4031 41.7939L11.5914 40.8744L10.7227 39.9867L9.68275 39.0355L8.66819 38.1414L7.59021 37.1649L7.00049 36.6069L6.16348 35.7128L5.44694 34.8758L4.60993 33.8993L3.93778 33.0623L3.30368 32.1936L2.73932 31.3312L2.24472 30.4244L1.80719 29.4733L1.45209 28.4714L1.08432 27.2729L0.830674 26.271L0.640443 25.4087L0.424848 24.3941L0.183889 23.0561L0.0507277 21.845L-5.84512e-07 20.6022L0.0824327 19.0232L0.228276 17.4063L0.424848 15.8337L0.659466 14.3562L0.9892 12.9676L1.376 11.8071L1.80719 10.7926L2.30179 9.72729L2.97394 8.45909L3.72218 7.286L4.62895 6.14461L5.71327 4.97786L6.75954 3.9633L7.48875 3.28481L8.31309 2.47316C8.31309 2.47316 8.91879 1.89589 9.13108 1.42054C9.18923 1.29034 9.2579 1.07813 9.2579 1.07813L9.48618 0.59621C9.48618 0.59621 9.71246 1.04777 9.84127 1.34445C10.107 1.95655 10.412 2.95507 10.412 2.95507C10.412 2.95507 10.9407 5.11761 11.4265 6.45532C11.6965 7.19875 11.8569 7.61372 12.1875 8.33227C12.6097 9.25014 13.4049 10.615 13.4049 10.615L14.6224 12.8471L15.5482 14.2928L17.032 16.8039C17.6115 17.7845 17.5961 18.0776 17.9197 18.9091C18.1494 19.499 18.2759 19.831 18.4778 20.4309C18.9164 21.7348 19.4035 23.8297 19.4035 23.8297L19.7713 25.935C19.7713 25.935 19.9079 26.8909 19.9489 27.5075C20.008 28.397 20.0255 28.9021 19.9489 29.7903C19.8842 30.5399 19.8364 30.9652 19.6445 31.6926C19.4334 32.493 19.2077 32.9093 18.8836 33.671C18.3823 34.849 17.4378 36.6133 17.4378 36.6133C17.4378 36.6133 16.8063 37.8361 16.5247 38.6677C16.2565 39.4596 16.0944 39.9151 16.0174 40.7476C15.9691 41.2704 16.0174 41.5669 16.0174 42.0919L16.0174 43.7406Z" fill="#CC7351"/>
</svg>
