<svg id="Layer_1" data-name="Layer 1" xmlns="http://www.w3.org/2000/svg" viewBox="0 0 800 600">
  <defs>
    <style>
      .cls-1 {
        fill: #fff;
      }
    </style>
  </defs>
  <title>cdh_logo_one_color_white</title>
  <g>
    <polygon id="_Path_" data-name="&lt;Path&gt;" class="cls-1" points="660 0 660 0 660 460 0 460 0 460 0 460 140 600 800 600 800 140 660 0"/>
    <g id="_Group_" data-name="&lt;Group&gt;">
      <g id="_Group_2" data-name="&lt;Group&gt;">
        <path id="_Path_2" data-name="&lt;Path&gt;" class="cls-1" d="M61.5,64.5h43.8v8.7H87.9v55.2H78.8V73.2H61.5Z"/>
        <path id="_Path_3" data-name="&lt;Path&gt;" class="cls-1" d="M160,98.3H124.4v30.1h-9.1V64.5h9.1V89.6H160V64.5h9.1v63.9H160Z"/>
        <path id="_Path_4" data-name="&lt;Path&gt;" class="cls-1" d="M216.2,89.6v8.7h-21v21.4h28.3v8.7H186V64.5h36.5v8.7H195.1V89.6h21.1Z"/>
        <path id="_Path_5" data-name="&lt;Path&gt;" class="cls-1" d="M293,63.6c9.1,0,17.8,3.7,23.4,9.9l-6.1,6c-3.7-4.1-10.4-7.2-17.2-7.2-13.1,0-23.2,10.4-23.2,24.2,0,14.4,10.4,24.2,24,24.2a23.63808,23.63808,0,0,0,18.3-9l6.5,5.8a32.38333,32.38333,0,0,1-24.8,11.9c-19.1,0-33.1-14-33.1-32.9C260.7,78,274.6,63.6,293,63.6Z"/>
        <path id="_Path_6" data-name="&lt;Path&gt;" class="cls-1" d="M359.2,89.6v8.7h-21v21.4h28.3v8.7H329.1V64.5h36.5v8.7H338.2V89.6h21Z"/>
        <path id="_Path_7" data-name="&lt;Path&gt;" class="cls-1" d="M388,81.5v46.9h-9.1V64.5h6.4l38.3,46.9V64.5h9.1v63.9h-6.4Z"/>
        <path id="_Path_8" data-name="&lt;Path&gt;" class="cls-1" d="M442.7,64.5h43.8v8.7H469.2v55.2h-9.1V73.2H442.8V64.5Z"/>
        <path id="_Path_9" data-name="&lt;Path&gt;" class="cls-1" d="M526.7,89.6v8.7h-21v21.4H534v8.7H496.6V64.5h36.5v8.7H505.7V89.6H526.7Z"/>
        <path id="_Compound_Path_" data-name="&lt;Compound Path&gt;" class="cls-1" d="M555.4,98.3v30.1h-9.1V64.5h22.4c5.8,0,9.5,1.4,12.4,3.7a16.76987,16.76987,0,0,1,0,26.2,16.2773,16.2773,0,0,1-7.5,3.4l22.9,30.5h-11l-22.7-30.1h-7.4v.1Zm12.8-8.7c4.1,0,6.2-.9,7.7-2.4a8.25146,8.25146,0,0,0,2.4-5.8,8.07692,8.07692,0,0,0-2.4-5.8c-1.5-1.5-3.6-2.4-7.7-2.4H555.4V89.6Z"/>
        <path id="_Path_10" data-name="&lt;Path&gt;" class="cls-1" d="M98.4,175.6v8.7h-21v30.1H68.3V150.5h36.5v8.7H77.4v16.4h21Z"/>
        <path id="_Compound_Path_2" data-name="&lt;Compound Path&gt;" class="cls-1" d="M141.3,149.6c18.1,0,31.9,14.2,31.9,32.9,0,18.6-13.9,32.9-31.9,32.9-18.1,0-31.9-14.2-31.9-32.9S123.3,149.6,141.3,149.6Zm0,57c13.1,0,22.8-10.3,22.8-24.2,0-13.8-9.8-24.2-22.8-24.2-13.1,0-22.8,10.4-22.8,24.2C118.5,196.3,128.3,206.6,141.3,206.6Z"/>
        <path id="_Compound_Path_3" data-name="&lt;Compound Path&gt;" class="cls-1" d="M194.3,184.3v30.1h-9.1V150.5h22.4c5.8,0,9.5,1.4,12.4,3.7a16.76986,16.76986,0,0,1,0,26.2,16.27746,16.27746,0,0,1-7.5,3.4l22.9,30.5h-11l-22.7-30.1h-7.4v.1Zm12.7-8.7c4.1,0,6.2-.9,7.7-2.4a8.25142,8.25142,0,0,0,2.4-5.8,7.90865,7.90865,0,0,0-2.4-5.8c-1.5-1.5-3.6-2.4-7.7-2.4H194.2v16.4H207Z"/>
        <path id="_Compound_Path_4" data-name="&lt;Compound Path&gt;" class="cls-1" d="M273.1,214.4V150.5h19.2c10.1,0,16.7,2.2,21.9,6A32.20515,32.20515,0,0,1,327,182.4a31.841,31.841,0,0,1-12.7,25.9c-5.2,3.8-11.9,6-22,6H273.1v.1ZM310,164.6c-4-3.5-9.3-5.4-18.3-5.4h-9.6v46.5h9.6c8.9,0,14.2-1.9,18.3-5.4a24.04862,24.04862,0,0,0,7.8-17.9A23.475,23.475,0,0,0,310,164.6Z"/>
        <path id="_Path_11" data-name="&lt;Path&gt;" class="cls-1" d="M338.8,150.5h9.1v63.9h-9.1Z"/>
        <path id="_Path_12" data-name="&lt;Path&gt;" class="cls-1" d="M417.7,203.4a32.709,32.709,0,0,1-24.8,11.9c-19.1,0-33.1-14-33.1-32.9,0-18.4,13.9-32.9,32.3-32.9,9.1,0,17.8,3.7,23.4,9.9l-6.1,6c-3.7-4.1-10.4-7.2-17.2-7.2-13.1,0-23.2,10.4-23.2,24.2,0,14.4,10.4,24.2,24,24.2a22.51945,22.51945,0,0,0,15.7-5.9V184.3H390.4v-8.7h27.4l-.1,27.8Z"/>
        <path id="_Path_13" data-name="&lt;Path&gt;" class="cls-1" d="M432.3,150.5h9.1v63.9h-9.1Z"/>
        <path id="_Path_14" data-name="&lt;Path&gt;" class="cls-1" d="M451.5,150.5h43.8v8.7H478v55.2h-9.1V159.2H451.6v-8.7h-.1Z"/>
        <path id="_Compound_Path_5" data-name="&lt;Compound Path&gt;" class="cls-1" d="M535.2,198H508.3l-6.7,16.4h-9.5l26.5-63.9H525l26.5,63.9H542Zm-23.3-8.7h19.7l-9.9-23.7Z"/>
        <path id="_Path_15" data-name="&lt;Path&gt;" class="cls-1" d="M569.7,205.7H598v8.7H560.6V150.5h9.1L569.7,205.7Z"/>
        <path id="_Path_16" data-name="&lt;Path&gt;" class="cls-1" d="M113,270.2H77.4v30.1H68.3V236.4h9.1v25.1H113V236.4h9.1v63.9H113Z"/>
        <path id="_Path_17" data-name="&lt;Path&gt;" class="cls-1" d="M141.9,292.9c-4.1-4.5-6.7-10.4-6.7-19V236.5h9.1v37.9c0,6,1.5,9.8,4,12.6a18.36663,18.36663,0,0,0,26.6,0c2.6-2.8,4-6.6,4-12.6V236.5H188v37.4c0,8.6-2.6,14.5-6.7,19a26.98,26.98,0,0,1-19.8,8.4A26.52939,26.52939,0,0,1,141.9,292.9Z"/>
        <path id="_Path_18" data-name="&lt;Path&gt;" class="cls-1" d="M233.4,286.7H227l-18.7-29.3v43h-9.1V236.5h6.4l24.6,39,24.6-39h6.4v63.9h-9.1v-43Z"/>
        <path id="_Compound_Path_6" data-name="&lt;Compound Path&gt;" class="cls-1" d="M312.5,283.9H285.6l-6.7,16.4h-9.5l26.5-63.9h6.4l26.5,63.9h-9.5Zm-23.2-8.6H309l-9.9-23.7Z"/>
        <path id="_Path_19" data-name="&lt;Path&gt;" class="cls-1" d="M346.1,253.5v46.9H337V236.5h6.4l38.3,46.9V236.5h9.1v63.9h-6.4Z"/>
        <path id="_Path_20" data-name="&lt;Path&gt;" class="cls-1" d="M406.8,236.5h9.1v63.9h-9.1Z"/>
        <path id="_Path_21" data-name="&lt;Path&gt;" class="cls-1" d="M429.5,236.5h43.8v8.7H456v55.2h-9.1V245.2H429.6v-8.7Z"/>
        <path id="_Path_22" data-name="&lt;Path&gt;" class="cls-1" d="M484.9,236.5H494v63.9h-9.1Z"/>
        <path id="_Path_23" data-name="&lt;Path&gt;" class="cls-1" d="M540.6,261.6v8.7h-21v21.4h28.3v8.7h-37.4V236.5H547v8.7H519.6v16.4l21,0Z"/>
        <path id="_Path_24" data-name="&lt;Path&gt;" class="cls-1" d="M560.6,284.4c3.7,4.6,9,8.2,15.6,8.2,5.9,0,11.1-3.8,11.1-9.6,0-9.8-13.5-10.9-22-16.4-4.6-3-8.1-7.4-8.1-14.1,0-9.3,8.2-17,19.3-17a26.64711,26.64711,0,0,1,17.2,6.4l-5.4,6.7a17.77013,17.77013,0,0,0-11.4-4.4c-5.3,0-10.6,3-10.6,8.6,0,8.1,13.6,9.9,21.8,15.3,4.3,2.8,8.3,7.3,8.3,14.6,0,11.2-8.7,18.5-19.8,18.5a28.58043,28.58043,0,0,1-22.4-10.7Z"/>
        <path id="_Compound_Path_7" data-name="&lt;Compound Path&gt;" class="cls-1" d="M131.3,358v28.3h-9.1V322.4h24.2c6.2,0,10.2,1.6,13.3,4.2a17.82937,17.82937,0,0,1,0,27.2c-3.1,2.6-7.1,4.2-13.3,4.2l-15.1,0Zm14.6-8.6c4.4,0,6.8-1.1,8.4-2.8a8.93265,8.93265,0,0,0,0-12.6c-1.6-1.7-4-2.8-8.4-2.8H131.3v18.3h14.6Z"/>
        <path id="_Compound_Path_8" data-name="&lt;Compound Path&gt;" class="cls-1" d="M183.8,356.2v30.1h-9.1V322.4H197c5.8,0,9.5,1.4,12.4,3.7a16.76987,16.76987,0,0,1,0,26.2,16.27746,16.27746,0,0,1-7.5,3.4l22.9,30.5h-11l-22.7-30.1-7.3.1Zm12.7-8.7c4.1,0,6.2-.9,7.7-2.4a8.25142,8.25142,0,0,0,2.4-5.8,7.90865,7.90865,0,0,0-2.4-5.8c-1.5-1.5-3.6-2.4-7.7-2.4H183.7v16.4l12.8,0Z"/>
        <path id="_Path_25" data-name="&lt;Path&gt;" class="cls-1" d="M232.1,322.4h9.1v63.9h-9.1Z"/>
        <path id="_Path_26" data-name="&lt;Path&gt;" class="cls-1" d="M261.9,339.4v46.9h-9.1V322.4h6.4l38.3,46.9V322.4h9.1v63.9h-6.4Z"/>
        <path id="_Path_27" data-name="&lt;Path&gt;" class="cls-1" d="M347,321.5c9.1,0,17.8,3.7,23.4,9.9l-6.1,6c-3.7-4.1-10.4-7.2-17.2-7.2-13.1,0-23.2,10.4-23.2,24.2,0,14.4,10.4,24.2,24,24.2a23.63812,23.63812,0,0,0,18.3-9l6.5,5.8a32.38333,32.38333,0,0,1-24.8,11.9c-19.1,0-33.1-14-33.1-32.9C314.7,336,328.6,321.5,347,321.5Z"/>
        <path id="_Path_28" data-name="&lt;Path&gt;" class="cls-1" d="M410.6,347.5v8.7h-21v21.4h28.3v8.7H380.5V322.4H417v8.7H389.6v16.4l21,0Z"/>
        <path id="_Path_29" data-name="&lt;Path&gt;" class="cls-1" d="M424.4,322.4h43.8v8.7H450.9v55.2h-9.1V331.1h-17.3l-.1-8.7Z"/>
        <path id="_Compound_Path_9" data-name="&lt;Compound Path&gt;" class="cls-1" d="M501.5,321.5c18.1,0,31.9,14.2,31.9,32.9,0,18.6-13.9,32.9-31.9,32.9-18.1,0-31.9-14.2-31.9-32.9C469.6,335.8,483.5,321.5,501.5,321.5Zm0,57.1c13.1,0,22.8-10.3,22.8-24.2,0-13.8-9.8-24.2-22.8-24.2s-22.8,10.4-22.8,24.2C478.7,368.3,488.5,378.6,501.5,378.6Z"/>
        <path id="_Path_30" data-name="&lt;Path&gt;" class="cls-1" d="M550.4,339.4v46.9h-9.1V322.4h6.4l38.3,46.9V322.4h9.1v63.9h-6.4Z"/>
      </g>
      <g id="_Group_3" data-name="&lt;Group&gt;">
        <path id="_Compound_Path_10" data-name="&lt;Compound Path&gt;" class="cls-1" d="M96,361.5a10.65674,10.65674,0,0,1-7.4,2.9c-5,0-11.8-3.9-11.8-11.6a11.58531,11.58531,0,0,1,11.3-11.6,10.27546,10.27546,0,0,1,5.9,1.7v-1.1h5.7v13a6.14705,6.14705,0,0,0,.5,3,2.4264,2.4264,0,0,0,2.3,1.2c3.2,0,3.9-4.5,3.9-7.6,0-9.7-8.1-16.5-17.1-16.5a17.80487,17.80487,0,0,0-.2,35.6A17.17786,17.17786,0,0,0,99.8,367l3.3,4.9a22.50723,22.50723,0,0,1-13.7,4.5,23.80212,23.80212,0,0,1-.2-47.6c12.2,0,23.1,9.5,23.1,22.4,0,7-3.1,13-10,13A8.17038,8.17038,0,0,1,96,361.5Zm-7.1-2.6a6.26479,6.26479,0,0,0,4.9-2.1,17.72235,17.72235,0,0,1-.1-2.4v-6a6.61359,6.61359,0,0,0-4.8-1.9,6.2,6.2,0,1,0,0,12.4Z"/>
      </g>
    </g>
  </g>
</svg>
