<svg width="510" height="126" viewBox="0 0 510 126" fill="none" xmlns="http://www.w3.org/2000/svg">
<path d="M23.83 90.6201L17.38 93.5801C17.28 93.6301 16.92 93.7901 16.47 93.7901C15.92 93.7901 15.43 93.5501 15.14 93.1201C14.58 92.3101 14.94 91.3101 15.56 90.7701L29.56 76.7301C29.75 76.3601 29.93 76.0001 30.12 75.6301L9.56998 76.6201C8.66998 76.6201 7.95998 76.1101 7.78998 75.3501C7.57998 74.3901 8.27998 73.6001 9.05998 73.3301L26.08 66.0501L8.67998 62.1401C7.91998 61.9901 7.13998 61.3501 7.17998 60.4101C7.22998 59.4301 8.11998 58.8501 8.93998 58.8001L26.93 56.3501L10.1 47.4901C9.39998 47.1501 8.81998 46.3201 9.10998 45.4301C9.33998 44.7401 9.99998 44.3001 10.81 44.3001C10.95 44.3001 11.09 44.3101 11.22 44.3401L32.35 47.0901L17.82 30.6201C17.29 30.0501 17.03 29.0701 17.62 28.3501C17.93 27.9701 18.38 27.7601 18.9 27.7601C19.27 27.7601 19.67 27.8801 19.99 28.0801L31.72 34.3601C29.15 30.8201 25.99 27.7701 22.7 25.3201C19 25.7201 15.88 26.6201 13.7 27.4101L10.81 28.4501C4.20998 38.3501 0.349976 50.2201 0.349976 63.0101C0.349976 83.3601 10.09 101.43 25.15 112.83C23.94 109.48 22.71 104.72 22.71 99.1601C22.71 96.1401 23.13 93.3201 23.83 90.6201Z" fill="white"/>
<path d="M35.16 24.0601L32.2 17.6001C31.85 16.9001 31.9 15.8901 32.67 15.3601C32.93 15.1801 33.24 15.0901 33.56 15.0901C34.19 15.0901 34.72 15.4501 35.01 15.7901L49.04 29.7901C49.41 29.9801 49.77 30.1601 50.14 30.3501L49.15 9.91007C49.09 9.14007 49.5 8.21007 50.42 8.01007C50.53 7.99007 50.65 7.97007 50.76 7.97007C51.61 7.97007 52.23 8.65007 52.44 9.28007L59.72 26.3001L63.63 8.90007C63.76 8.20007 64.34 7.40007 65.28 7.40007C66.34 7.45007 66.92 8.34007 66.97 9.16007L69.42 27.1501L78.3 10.3201C78.53 9.84007 79.1 9.25007 79.89 9.25007C80.05 9.25007 80.21 9.27007 80.36 9.32007C81.29 9.62007 81.62 10.6401 81.46 11.4401L78.71 32.5801L95.18 18.0401C95.44 17.7901 95.94 17.5001 96.49 17.5001C96.85 17.5001 97.18 17.6201 97.45 17.8401C98.22 18.4601 98.16 19.5201 97.72 20.2101L91.44 31.9401C94.98 29.3701 98.02 26.2101 100.48 22.9201C100.08 19.2201 99.18 16.1001 98.39 13.9201L97.35 11.0301C87.45 4.43007 75.58 0.570068 62.79 0.570068C42.44 0.570068 24.37 10.3101 12.97 25.3701C16.32 24.1601 21.09 22.9301 26.64 22.9301C29.64 22.9301 32.46 23.3601 35.16 24.0601Z" fill="white"/>
<path d="M90.4 101.94L93.36 108.39C93.71 109.09 93.67 110.1 92.89 110.63C92.63 110.81 92.32 110.9 92 110.9C91.37 110.9 90.84 110.54 90.55 110.2L76.53 96.2001C76.16 96.0101 75.79 95.8202 75.41 95.6302L76.4 116.07C76.46 116.84 76.05 117.77 75.13 117.97C75.02 117.99 74.9 118.01 74.79 118.01C73.94 118.01 73.32 117.33 73.11 116.7L65.83 99.6801L61.92 117.09C61.79 117.79 61.21 118.59 60.27 118.59H60.2C59.22 118.54 58.64 117.65 58.59 116.83L56.14 98.8401L47.26 115.67C47.03 116.15 46.46 116.74 45.67 116.74C45.51 116.74 45.35 116.71 45.2 116.66C44.27 116.36 43.94 115.34 44.11 114.54L46.86 93.4001L30.4 107.96C30.28 108.07 29.77 108.5 29.09 108.5C28.73 108.5 28.4 108.38 28.13 108.17C27.36 107.55 27.42 106.49 27.86 105.8L34.14 94.0702C30.6 96.6402 27.55 99.8001 25.1 103.09C25.5 106.79 26.4 109.91 27.19 112.09L28.23 114.98C38.13 121.58 50 125.43 62.79 125.43C83.14 125.43 101.21 115.69 112.61 100.63C109.26 101.84 104.49 103.07 98.94 103.07C95.92 103.07 93.1 102.64 90.4 101.94Z" fill="white"/>
<path d="M100.41 13.1802C101.62 16.5302 102.85 21.3002 102.85 26.8502C102.85 29.8602 102.42 32.6802 101.73 35.3802L108.18 32.4202C108.28 32.3702 108.64 32.2102 109.09 32.2102C109.64 32.2102 110.13 32.4602 110.42 32.8802C110.98 33.6902 110.62 34.6902 110 35.2302L96.0099 49.2402C95.8199 49.6102 95.63 49.9902 95.44 50.3602L115.99 49.3702C116.89 49.3702 117.6 49.8802 117.77 50.6402C117.98 51.6002 117.28 52.4002 116.5 52.6602L99.4799 59.9402L116.88 63.8502C117.64 63.9902 118.42 64.6402 118.38 65.5702C118.33 66.5502 117.44 67.1302 116.62 67.1802L98.63 69.6302L115.47 78.5102C116.17 78.8502 116.75 79.6802 116.46 80.5702C116.23 81.2602 115.57 81.7002 114.75 81.7002C114.61 81.7002 114.47 81.6902 114.34 81.6602L93.2 78.9102L107.74 95.3802C108.27 95.9402 108.53 96.9202 107.94 97.6502C107.63 98.0302 107.18 98.2402 106.66 98.2402C106.29 98.2402 105.89 98.1202 105.57 97.9202L93.84 91.6402C96.41 95.1802 99.57 98.2302 102.86 100.68C106.56 100.28 109.68 99.3802 111.86 98.5902L114.75 97.5502C121.35 87.6502 125.21 75.7802 125.21 62.9902C125.21 42.6502 115.47 24.5802 100.41 13.1802Z" fill="white"/>
<path d="M16.27 91.5899L28.03 79.8199C26.54 82.8699 25.18 85.9799 24.2 89.2599L16.93 92.5999C16.74 92.6999 16.25 92.8199 16.04 92.5099C15.82 92.1899 16.05 91.7799 16.27 91.5899ZM33.04 36.2899L19.41 28.9899C19.17 28.8299 18.7 28.7299 18.46 29.0299C18.22 29.3299 18.48 29.7599 18.63 29.9099L35.08 48.5299L11 45.3999C10.72 45.3399 10.25 45.4099 10.13 45.7699C10.01 46.1299 10.41 46.4399 10.6 46.5399L30.41 56.9899L8.99997 59.8999C8.70997 59.9199 8.27997 60.0999 8.25997 60.4899C8.23997 60.8699 8.69997 61.0699 8.90997 61.1099L29.58 65.7499L9.40997 74.3799C9.13997 74.4699 8.76997 74.7699 8.84997 75.1399C8.92997 75.5099 9.42997 75.5799 9.63997 75.5599L30.69 74.5399C34.26 67.5299 37.69 60.4199 37.69 51.7199C37.7 45.9599 35.86 40.7699 33.04 36.2899ZM109.28 34.4099C109.5 34.2199 109.73 33.8099 109.52 33.4899C109.3 33.1799 108.82 33.2999 108.63 33.3999L101.36 36.7399C100.39 40.0199 99.02 43.1299 97.53 46.1799L109.28 34.4099ZM92.52 89.7099L106.15 97.0099C106.39 97.1699 106.86 97.2699 107.1 96.9699C107.34 96.6699 107.08 96.2399 106.93 96.0899L90.48 77.4699L114.55 80.5999C114.83 80.6599 115.3 80.5899 115.42 80.2299C115.54 79.8699 115.14 79.5599 114.95 79.4599L95.14 69.0099L116.55 66.0999C116.84 66.0799 117.27 65.8999 117.29 65.5099C117.31 65.1299 116.85 64.9299 116.64 64.8899L95.97 60.2499L116.14 51.6199C116.41 51.5299 116.78 51.2299 116.7 50.8599C116.62 50.4899 116.12 50.4199 115.91 50.4399L94.86 51.4599C91.29 58.4699 87.86 65.5799 87.86 74.2799C87.86 80.0399 89.69 85.2299 92.52 89.7099ZM91.37 109.5C91.56 109.72 91.97 109.95 92.29 109.74C92.6 109.52 92.48 109.04 92.38 108.85L89.04 101.58C85.76 100.61 82.65 99.2399 79.6 97.7499L91.37 109.5ZM36.06 92.7399L28.76 106.37C28.6 106.61 28.5 107.08 28.8 107.32C29.1 107.56 29.53 107.3 29.68 107.15L48.3 90.6999L45.17 114.77C45.11 115.05 45.18 115.52 45.54 115.64C45.9 115.76 46.21 115.36 46.31 115.17L56.76 95.3599L59.67 116.77C59.69 117.06 59.87 117.49 60.26 117.51C60.64 117.53 60.84 117.07 60.88 116.86L65.52 96.1899L74.15 116.36C74.24 116.63 74.54 117 74.91 116.92C75.28 116.84 75.35 116.34 75.33 116.13L74.31 95.0799C67.3 91.5099 60.19 88.0799 51.49 88.0799C45.74 88.0799 40.55 89.9199 36.06 92.7399ZM34.19 16.4999C34 16.2799 33.59 16.0499 33.27 16.2599C32.96 16.4799 33.08 16.9599 33.18 17.1499L36.52 24.4199C39.8 25.3899 42.91 26.7599 45.96 28.2499L34.19 16.4999ZM89.49 33.2599L96.79 19.6299C96.95 19.3899 97.05 18.9199 96.75 18.6799C96.45 18.4399 96.02 18.6999 95.87 18.8499L77.25 35.2999L80.38 11.2299C80.44 10.9499 80.37 10.4799 80.01 10.3599C79.65 10.2399 79.34 10.6399 79.24 10.8299L68.79 30.6399L65.88 9.22989C65.86 8.93989 65.68 8.50989 65.29 8.48989C64.91 8.46989 64.71 8.92989 64.67 9.13989L60.03 29.8099L51.4 9.63989C51.31 9.36989 51.01 8.99989 50.64 9.07989C50.27 9.15989 50.2 9.65989 50.22 9.86989L51.24 30.9199C58.25 34.4899 65.36 37.9199 74.06 37.9199C79.82 37.9199 85 36.0799 89.49 33.2599Z" fill="white"/>
<path d="M163.64 10.46H171.85V11.56C170.79 12.27 169.75 12.78 168.73 13.08V37.51H166.56L152.77 16.57L151.29 13.61H151.18L151.52 16.57V34.62C152.56 34.9 153.53 35.34 154.45 35.95V37.05H146.24V35.95C146.7 35.67 147.18 35.42 147.7 35.21C148.22 34.99 148.77 34.8 149.35 34.62V12.85C148.84 12.65 148.34 12.43 147.85 12.2C147.36 11.97 146.89 11.74 146.46 11.52V10.46H152.88L164.85 28.51L166.6 31.78H166.75L166.56 28.51V13.08C166.03 12.85 165.52 12.61 165.02 12.36C164.53 12.11 164.06 11.84 163.63 11.56V10.46H163.64Z" fill="white"/>
<path d="M188.15 32.0801C188.15 32.6401 188.16 33.1201 188.19 33.5201C188.21 33.9301 188.24 34.3601 188.27 34.8101L190.89 35.1901V36.0001C190.26 36.3301 189.55 36.6201 188.78 36.8701C188.01 37.1201 187.27 37.3101 186.56 37.4401H185.61C185.36 36.8601 185.2 36.2201 185.15 35.5201C185.1 34.8201 185.06 34.0601 185.04 33.2201H184.85C184.75 33.7301 184.55 34.2401 184.26 34.7601C183.97 35.2801 183.59 35.7401 183.12 36.1501C182.65 36.5601 182.1 36.8901 181.47 37.1401C180.84 37.3901 180.11 37.5201 179.3 37.5201C177.75 37.5201 176.49 37.0501 175.52 36.1101C174.54 35.1701 174.06 33.9401 174.06 32.4201C174.06 31.2601 174.29 30.3001 174.76 29.5501C175.23 28.8001 175.92 28.2101 176.83 27.7801C177.74 27.3501 178.87 27.0401 180.21 26.8501C181.55 26.6601 183.11 26.5101 184.88 26.4101C184.98 25.3201 185.01 24.3401 184.98 23.4701C184.94 22.6001 184.8 21.8501 184.56 21.2301C184.32 20.6101 183.96 20.1301 183.5 19.7901C183.04 19.4501 182.42 19.2801 181.66 19.2801C181.31 19.2801 180.91 19.3001 180.46 19.3401C180.01 19.3801 179.58 19.4901 179.15 19.6601L177.36 24.2201H176.37C176.12 23.4601 175.9 22.6801 175.7 21.8601C175.51 21.0501 175.39 20.2501 175.34 19.4701C176.3 18.8901 177.37 18.4301 178.55 18.1001C179.73 17.7701 181.04 17.6101 182.48 17.6101C183.77 17.6101 184.8 17.7901 185.58 18.1601C186.35 18.5301 186.94 19.0001 187.35 19.5801C187.75 20.1601 188.02 20.8101 188.15 21.5201C188.28 22.2301 188.34 22.9401 188.34 23.6501C188.34 25.1701 188.31 26.6301 188.24 28.0401C188.18 29.4401 188.15 30.7901 188.15 32.0801ZM180.81 35.1601C181.44 35.1601 182 35.0301 182.48 34.7801C182.96 34.5301 183.37 34.2201 183.7 33.8701C184.03 33.5201 184.3 33.1501 184.5 32.7901C184.7 32.4201 184.84 32.1101 184.92 31.8601V27.8701C183.45 27.8701 182.25 27.9501 181.31 28.1001C180.37 28.2501 179.64 28.4901 179.11 28.8201C178.58 29.1501 178.21 29.5601 178.01 30.0501C177.81 30.5401 177.71 31.1101 177.71 31.7401C177.71 32.8301 177.99 33.6701 178.55 34.2701C179.09 34.8601 179.85 35.1601 180.81 35.1601Z" fill="white"/>
<path d="M191.94 19.0201C192.9 18.3901 193.92 17.9501 194.98 17.6801V14.4501C195.31 14.2001 195.7 13.9501 196.14 13.7101C196.58 13.4701 197.02 13.2601 197.45 13.0801H198.4V18.0601H204.1V20.0401H198.4V31.0001C198.4 32.5101 198.64 33.5801 199.12 34.2101C199.6 34.8401 200.32 35.1601 201.29 35.1601C201.75 35.1601 202.32 35.1301 203 35.0601C203.68 35.0001 204.27 34.8801 204.75 34.7001L205.02 35.2701C204.82 35.5001 204.53 35.7401 204.17 35.9901C203.8 36.2401 203.38 36.4801 202.92 36.7101C202.45 36.9401 201.94 37.1301 201.38 37.2801C200.82 37.4301 200.25 37.5101 199.67 37.5101C198.15 37.5101 196.99 37.0801 196.19 36.2201C195.39 35.3601 194.99 33.9701 194.99 32.0601V20.0401H191.95V19.0201H191.94Z" fill="white"/>
<path d="M215.09 37.0601H206.65V36.1101C207.03 35.9101 207.42 35.7401 207.83 35.6001C208.24 35.4601 208.68 35.3301 209.16 35.2001V20.2601L206.65 19.9601V18.9701C207.38 18.6701 208.18 18.4001 209.04 18.1701C209.9 17.9401 210.76 17.7501 211.62 17.6001H212.57V35.2001C213.08 35.3301 213.53 35.4601 213.94 35.6001C214.34 35.7401 214.73 35.9101 215.08 36.1101V37.0601H215.09ZM208.44 11.6001C208.44 10.9201 208.66 10.3701 209.1 9.97011C209.54 9.57011 210.13 9.36011 210.87 9.36011C211.6 9.36011 212.19 9.56011 212.62 9.97011C213.05 10.3801 213.27 10.9201 213.27 11.6001C213.27 12.2801 213.05 12.8201 212.62 13.2101C212.19 13.6001 211.61 13.8001 210.87 13.8001C210.14 13.8001 209.55 13.6001 209.1 13.2101C208.66 12.8201 208.44 12.2801 208.44 11.6001Z" fill="white"/>
<path d="M225.19 37.5201L217.78 19.9601C217.05 19.7101 216.37 19.4001 215.77 19.0501V18.0601H223.75V19.0101C223.42 19.1901 223.08 19.3601 222.74 19.5201C222.4 19.6901 222.01 19.8301 221.58 19.9601L225.97 31.4001L226.73 33.7601H226.81L227.38 31.3701L231.43 19.9701C231.02 19.8701 230.65 19.7401 230.31 19.5901C229.97 19.4401 229.65 19.2601 229.34 19.0601V18.0701H235.8V19.0601C235.55 19.2401 235.24 19.4001 234.87 19.5501C234.5 19.7001 234.09 19.8401 233.64 19.9701L226.91 37.0701L225.19 37.5201Z" fill="white"/>
<path d="M251.98 34.3999C251.78 34.8299 251.46 35.2399 251.03 35.6199C250.6 35.9999 250.1 36.3299 249.55 36.6099C248.99 36.8899 248.38 37.1099 247.73 37.2799C247.07 37.4399 246.4 37.5299 245.72 37.5299C244.22 37.5299 242.91 37.2999 241.77 36.8299C240.63 36.3599 239.68 35.6899 238.92 34.8199C238.16 33.9499 237.58 32.8999 237.19 31.6899C236.8 30.4699 236.6 29.1099 236.6 27.5899C236.6 24.3499 237.35 21.8799 238.84 20.1799C240.33 18.4799 242.45 17.6299 245.19 17.6299C246.08 17.6299 246.95 17.7499 247.81 17.9899C248.67 18.2299 249.44 18.6299 250.11 19.1899C250.78 19.7499 251.33 20.4899 251.74 21.4099C252.15 22.3299 252.37 23.4799 252.37 24.8499C252.37 25.2799 252.35 25.7199 252.31 26.1599C252.27 26.5999 252.2 27.0799 252.1 27.5799H240.24C240.24 28.6399 240.37 29.6399 240.64 30.5599C240.91 31.4899 241.31 32.2899 241.84 32.9699C242.37 33.6499 243.04 34.1899 243.85 34.5899C244.66 34.9799 245.61 35.1799 246.7 35.1799C247.59 35.1799 248.49 35.0499 249.4 34.7999C250.31 34.5499 251 34.2199 251.45 33.8099L251.98 34.3999ZM245.03 19.2799C243.59 19.2799 242.48 19.7699 241.72 20.7399C240.96 21.7199 240.5 23.4299 240.35 25.8899H248.71C248.73 25.6599 248.75 25.4399 248.77 25.2199C248.78 25.0099 248.79 24.7999 248.79 24.5899C248.79 22.9699 248.49 21.6799 247.88 20.7099C247.27 19.7599 246.32 19.2799 245.03 19.2799Z" fill="white"/>
<path d="M271.06 37.06H262.62V35.96C263.53 35.56 264.44 35.25 265.36 35.05L274.97 10H276.07L285.68 35.04C286.19 35.14 286.69 35.26 287.18 35.38C287.67 35.51 288.14 35.7 288.57 35.95V37.05H278.77V35.95C279.28 35.75 279.8 35.57 280.33 35.42C280.86 35.27 281.38 35.14 281.89 35.04L279.32 28.09H270.29L267.8 35.04C268.86 35.19 269.95 35.5 271.07 35.95V37.06H271.06ZM271.04 26.12H278.67L275.68 18.06L274.96 14.79H274.88L273.93 18.13L271.04 26.12Z" fill="white"/>
<path d="M309.02 37.0601H300.89V36.1101C301.14 35.9601 301.45 35.8001 301.82 35.6401C302.19 35.4801 302.62 35.3301 303.13 35.2001V26.4201C303.13 25.4101 303.09 24.5001 303 23.6801C302.91 22.8701 302.75 22.1901 302.51 21.6501C302.27 21.1101 301.92 20.6901 301.47 20.4001C301.01 20.1101 300.42 19.9601 299.68 19.9601C299.12 19.9601 298.61 20.0701 298.14 20.3001C297.67 20.5301 297.25 20.8301 296.89 21.2101C296.52 21.5901 296.21 22.0201 295.94 22.5001C295.67 22.9801 295.47 23.4901 295.31 24.0201V35.2001C295.72 35.3301 296.1 35.4601 296.47 35.6001C296.84 35.7401 297.2 35.9101 297.55 36.1101V37.0601H289.38V36.1101C289.73 35.9301 290.13 35.7701 290.56 35.6201C290.99 35.4701 291.43 35.3301 291.89 35.2001V20.2601L289.38 19.9601V18.9701C290.19 18.6201 291.02 18.3301 291.87 18.1201C292.72 17.9101 293.55 17.7301 294.36 17.6101H295.31V21.9001H295.35C295.76 20.7101 296.45 19.7001 297.42 18.8601C298.39 18.0201 299.6 17.6101 301.05 17.6101C301.66 17.6101 302.24 17.6701 302.8 17.8001C303.36 17.9301 303.88 18.1601 304.36 18.5001C304.84 18.8401 305.25 19.3201 305.58 19.9201C305.91 20.5301 306.15 21.3101 306.3 22.2801C306.76 20.8901 307.49 19.7601 308.5 18.9001C309.51 18.0401 310.78 17.6101 312.3 17.6101C313.24 17.6101 314.05 17.7301 314.75 17.9701C315.45 18.2101 316.02 18.6401 316.48 19.2401C316.94 19.8501 317.27 20.6701 317.49 21.7101C317.71 22.7501 317.81 24.0701 317.81 25.6601V35.2001C318.67 35.3501 319.51 35.6601 320.32 36.1101V37.0601H312.15V36.1101C312.91 35.7101 313.66 35.4001 314.39 35.2001V25.7401C314.39 24.8301 314.35 24.0201 314.26 23.3101C314.17 22.6001 314 22.0001 313.75 21.5001C313.5 21.0101 313.14 20.6301 312.69 20.3601C312.23 20.0901 311.63 19.9601 310.87 19.9601C309.65 19.9601 308.71 20.3801 308.04 21.2101C307.37 22.0501 306.88 23.1101 306.58 24.4001V35.2001C307.47 35.4501 308.29 35.7601 309.05 36.1101V37.0601H309.02Z" fill="white"/>
<path d="M337.56 34.3999C337.36 34.8299 337.04 35.2399 336.61 35.6199C336.18 35.9999 335.69 36.3299 335.13 36.6099C334.57 36.8899 333.96 37.1099 333.31 37.2799C332.65 37.4399 331.98 37.5299 331.3 37.5299C329.8 37.5299 328.49 37.2999 327.35 36.8299C326.21 36.3599 325.26 35.6899 324.5 34.8199C323.74 33.9499 323.16 32.8999 322.77 31.6899C322.38 30.4699 322.18 29.1099 322.18 27.5899C322.18 24.3499 322.93 21.8799 324.42 20.1799C325.92 18.4799 328.03 17.6299 330.77 17.6299C331.66 17.6299 332.53 17.7499 333.39 17.9899C334.25 18.2299 335.02 18.6299 335.69 19.1899C336.36 19.7499 336.91 20.4899 337.32 21.4099C337.73 22.3299 337.95 23.4799 337.95 24.8499C337.95 25.2799 337.93 25.7199 337.89 26.1599C337.85 26.5999 337.78 27.0799 337.68 27.5799H325.82C325.82 28.6399 325.95 29.6399 326.22 30.5599C326.49 31.4899 326.89 32.2899 327.42 32.9699C327.95 33.6499 328.62 34.1899 329.43 34.5899C330.24 34.9799 331.19 35.1799 332.28 35.1799C333.17 35.1799 334.07 35.0499 334.98 34.7999C335.89 34.5499 336.58 34.2199 337.03 33.8099L337.56 34.3999ZM330.61 19.2799C329.17 19.2799 328.06 19.7699 327.3 20.7399C326.54 21.7099 326.08 23.4299 325.93 25.8899H334.29C334.31 25.6599 334.33 25.4399 334.35 25.2199C334.36 25.0099 334.37 24.7999 334.37 24.5899C334.37 22.9699 334.07 21.6799 333.46 20.7099C332.85 19.7599 331.9 19.2799 330.61 19.2799Z" fill="white"/>
<path d="M348.62 20.9101C348.34 21.0601 347.99 21.3701 347.58 21.8401C347.16 22.3101 346.79 23.0001 346.46 23.9101V35.2001C346.97 35.2501 347.47 35.3501 347.98 35.4801C348.49 35.6201 348.99 35.8301 349.5 36.1101V37.0601H340.53V36.1101C340.99 35.8601 341.42 35.6701 341.82 35.5401C342.22 35.4101 342.63 35.3001 343.04 35.2001V20.2601L340.53 19.9601V18.9701C341.34 18.6201 342.18 18.3301 343.04 18.1201C343.9 17.9101 344.72 17.7301 345.51 17.6101H346.46V21.6401H346.61C346.84 21.1301 347.16 20.6301 347.58 20.1201C348 19.6101 348.48 19.1601 349.02 18.7501C349.56 18.3501 350.16 18.0301 350.81 17.8201C351.46 17.6101 352.12 17.5301 352.81 17.6101C352.99 17.9401 353.15 18.3001 353.28 18.6901C353.42 19.0801 353.55 19.4901 353.68 19.9201V20.9101H348.62Z" fill="white"/>
<path d="M363.55 37.0601H355.11V36.1101C355.49 35.9101 355.88 35.7401 356.29 35.6001C356.69 35.4601 357.14 35.3301 357.62 35.2001V20.2601L355.11 19.9601V18.9701C355.84 18.6701 356.64 18.4001 357.5 18.1701C358.36 17.9401 359.22 17.7501 360.08 17.6001H361.03V35.2001C361.54 35.3301 361.99 35.4601 362.4 35.6001C362.81 35.7401 363.19 35.9101 363.54 36.1101V37.0601H363.55ZM356.9 11.6001C356.9 10.9201 357.12 10.3701 357.57 9.97011C358.01 9.57011 358.6 9.36011 359.34 9.36011C360.07 9.36011 360.66 9.56011 361.09 9.97011C361.52 10.3801 361.74 10.9201 361.74 11.6001C361.74 12.2801 361.52 12.8201 361.09 13.2101C360.66 13.6001 360.08 13.8001 359.34 13.8001C358.6 13.8001 358.02 13.6001 357.57 13.2101C357.12 12.8201 356.9 12.2801 356.9 11.6001Z" fill="white"/>
<path d="M380.84 34.3999C380.38 35.2899 379.64 36.0299 378.62 36.6199C377.6 37.2099 376.4 37.5099 375.03 37.5099C373.53 37.5099 372.24 37.2799 371.13 36.8099C370.03 36.3399 369.11 35.6699 368.38 34.7999C367.65 33.9299 367.09 32.8799 366.73 31.6499C366.36 30.4199 366.18 29.0599 366.18 27.5699C366.18 24.3499 366.97 21.8899 368.54 20.1799C370.11 18.4699 372.25 17.6199 374.96 17.6199C376.2 17.6199 377.31 17.7299 378.29 17.9399C379.26 18.1599 380.09 18.4399 380.78 18.7899C380.7 19.6299 380.56 20.5599 380.36 21.5999C380.16 22.6399 379.9 23.4999 379.6 24.1799H378.57L376.97 19.6599C376.79 19.5299 376.59 19.4399 376.36 19.3699C376.13 19.3099 375.75 19.2699 375.22 19.2699C373.5 19.2699 372.17 19.8999 371.23 21.1499C370.29 22.3999 369.82 24.5299 369.82 27.5099C369.82 28.4699 369.95 29.4099 370.22 30.3199C370.49 31.2299 370.89 32.0499 371.44 32.7699C371.98 33.4899 372.67 34.0699 373.49 34.4999C374.31 34.9299 375.27 35.1499 376.36 35.1499C377.25 35.1499 378.02 35.0199 378.68 34.7699C379.34 34.5199 379.9 34.2099 380.35 33.8599L380.84 34.3999Z" fill="white"/>
<path d="M397.52 32.0801C397.52 32.6401 397.53 33.1201 397.56 33.5201C397.58 33.9301 397.61 34.3601 397.64 34.8101L400.26 35.1901V36.0001C399.63 36.3301 398.92 36.6201 398.15 36.8701C397.38 37.1201 396.64 37.3101 395.93 37.4401H394.98C394.73 36.8601 394.57 36.2201 394.52 35.5201C394.47 34.8201 394.43 34.0601 394.41 33.2201H394.22C394.12 33.7301 393.92 34.2401 393.63 34.7601C393.34 35.2801 392.96 35.7401 392.49 36.1501C392.02 36.5601 391.47 36.8901 390.84 37.1401C390.21 37.3901 389.48 37.5201 388.67 37.5201C387.13 37.5201 385.86 37.0501 384.89 36.1101C383.91 35.1701 383.43 33.9401 383.43 32.4201C383.43 31.2601 383.66 30.3001 384.13 29.5501C384.6 28.8001 385.29 28.2101 386.2 27.7801C387.11 27.3501 388.24 27.0401 389.58 26.8501C390.92 26.6601 392.48 26.5101 394.25 26.4101C394.35 25.3201 394.38 24.3401 394.35 23.4701C394.32 22.6001 394.17 21.8501 393.93 21.2301C393.69 20.6101 393.33 20.1301 392.87 19.7901C392.41 19.4501 391.79 19.2801 391.03 19.2801C390.67 19.2801 390.28 19.3001 389.83 19.3401C389.38 19.3801 388.95 19.4901 388.52 19.6601L386.73 24.2201H385.74C385.49 23.4601 385.27 22.6801 385.07 21.8601C384.88 21.0501 384.76 20.2501 384.71 19.4701C385.67 18.8901 386.74 18.4301 387.92 18.1001C389.1 17.7701 390.41 17.6101 391.85 17.6101C393.14 17.6101 394.17 17.7901 394.95 18.1601C395.73 18.5301 396.31 19.0001 396.72 19.5801C397.12 20.1601 397.39 20.8101 397.52 21.5201C397.65 22.2301 397.71 22.9401 397.71 23.6501C397.71 25.1701 397.68 26.6301 397.62 28.0401C397.55 29.4401 397.52 30.7901 397.52 32.0801ZM390.19 35.1601C390.82 35.1601 391.38 35.0301 391.86 34.7801C392.34 34.5301 392.75 34.2201 393.08 33.8701C393.41 33.5201 393.67 33.1501 393.88 32.7901C394.08 32.4201 394.22 32.1101 394.3 31.8601V27.8701C392.83 27.8701 391.63 27.9501 390.69 28.1001C389.75 28.2501 389.02 28.4901 388.49 28.8201C387.96 29.1501 387.59 29.5601 387.39 30.0501C387.19 30.5401 387.09 31.1101 387.09 31.7401C387.09 32.8301 387.37 33.6701 387.93 34.2701C388.46 34.8601 389.22 35.1601 390.19 35.1601Z" fill="white"/>
<path d="M422.68 37.0601H414.51V36.1101C415.19 35.7601 415.94 35.4501 416.75 35.2001V26.1901C416.75 24.2701 416.47 22.7501 415.91 21.6301C415.35 20.5201 414.34 19.9601 412.87 19.9601C412.24 19.9601 411.65 20.0701 411.1 20.3001C410.55 20.5301 410.07 20.8401 409.66 21.2301C409.24 21.6201 408.88 22.0701 408.58 22.5601C408.28 23.0501 408.04 23.5701 407.86 24.1001V35.2001C408.64 35.3501 409.4 35.6601 410.14 36.1101V37.0601H401.93V36.1101C402.56 35.7801 403.4 35.4801 404.44 35.2001V20.2601L401.93 19.9601V18.9701C402.59 18.6901 403.35 18.4401 404.21 18.2101C405.07 17.9801 405.97 17.7801 406.91 17.6001H407.86V21.8601H407.9C408.43 20.7001 409.2 19.6901 410.2 18.8601C411.2 18.0201 412.41 17.6101 413.83 17.6101C414.84 17.6101 415.75 17.7301 416.55 17.9701C417.35 18.2101 418.01 18.6401 418.55 19.2401C419.08 19.8501 419.49 20.6601 419.77 21.6901C420.05 22.7201 420.19 24.0101 420.19 25.5901V35.2001C421.2 35.3801 422.04 35.6801 422.7 36.1101V37.0601H422.68Z" fill="white"/>
<path d="M447.38 32.0801C447.38 32.6401 447.39 33.1201 447.42 33.5201C447.44 33.9301 447.47 34.3601 447.5 34.8101L450.12 35.1901V36.0001C449.49 36.3301 448.78 36.6201 448.01 36.8701C447.24 37.1201 446.5 37.3101 445.79 37.4401H444.84C444.59 36.8601 444.43 36.2201 444.38 35.5201C444.33 34.8201 444.29 34.0601 444.27 33.2201H444.08C443.98 33.7301 443.78 34.2401 443.49 34.7601C443.2 35.2801 442.82 35.7401 442.35 36.1501C441.88 36.5601 441.33 36.8901 440.7 37.1401C440.07 37.3901 439.34 37.5201 438.53 37.5201C436.99 37.5201 435.72 37.0501 434.75 36.1101C433.77 35.1701 433.29 33.9401 433.29 32.4201C433.29 31.2601 433.52 30.3001 433.99 29.5501C434.46 28.8001 435.15 28.2101 436.06 27.7801C436.97 27.3501 438.1 27.0401 439.44 26.8501C440.78 26.6601 442.34 26.5101 444.11 26.4101C444.21 25.3201 444.24 24.3401 444.21 23.4701C444.18 22.6001 444.03 21.8501 443.79 21.2301C443.55 20.6101 443.19 20.1301 442.73 19.7901C442.27 19.4501 441.65 19.2801 440.89 19.2801C440.53 19.2801 440.14 19.3001 439.69 19.3401C439.24 19.3801 438.81 19.4901 438.38 19.6601L436.59 24.2201H435.6C435.35 23.4601 435.13 22.6801 434.93 21.8601C434.74 21.0501 434.62 20.2501 434.57 19.4701C435.53 18.8901 436.6 18.4301 437.78 18.1001C438.96 17.7701 440.27 17.6101 441.71 17.6101C443 17.6101 444.03 17.7901 444.81 18.1601C445.59 18.5301 446.17 19.0001 446.58 19.5801C446.98 20.1601 447.25 20.8101 447.38 21.5201C447.51 22.2301 447.57 22.9401 447.57 23.6501C447.57 25.1701 447.54 26.6301 447.48 28.0401C447.41 29.4401 447.38 30.7901 447.38 32.0801ZM440.04 35.1601C440.67 35.1601 441.23 35.0301 441.71 34.7801C442.19 34.5301 442.6 34.2201 442.93 33.8701C443.26 33.5201 443.52 33.1501 443.73 32.7901C443.93 32.4201 444.07 32.1101 444.15 31.8601V27.8701C442.68 27.8701 441.48 27.9501 440.54 28.1001C439.6 28.2501 438.87 28.4901 438.34 28.8201C437.81 29.1501 437.44 29.5601 437.24 30.0501C437.04 30.5401 436.94 31.1101 436.94 31.7401C436.94 32.8301 437.22 33.6701 437.78 34.2701C438.32 34.8601 439.08 35.1601 440.04 35.1601Z" fill="white"/>
<path d="M472.53 37.0601H464.36V36.1101C465.04 35.7601 465.79 35.4501 466.6 35.2001V26.1901C466.6 24.2701 466.32 22.7501 465.76 21.6301C465.2 20.5201 464.19 19.9601 462.72 19.9601C462.09 19.9601 461.5 20.0701 460.95 20.3001C460.4 20.5301 459.92 20.8401 459.51 21.2301C459.09 21.6201 458.73 22.0701 458.43 22.5601C458.13 23.0501 457.89 23.5701 457.71 24.1001V35.2001C458.49 35.3501 459.25 35.6601 459.99 36.1101V37.0601H451.78V36.1101C452.41 35.7801 453.25 35.4801 454.29 35.2001V20.2601L451.78 19.9601V18.9701C452.44 18.6901 453.2 18.4401 454.06 18.2101C454.92 17.9801 455.82 17.7801 456.76 17.6001H457.71V21.8601H457.75C458.28 20.7001 459.05 19.6901 460.05 18.8601C461.05 18.0201 462.26 17.6101 463.68 17.6101C464.69 17.6101 465.6 17.7301 466.4 17.9701C467.2 18.2101 467.86 18.6401 468.4 19.2401C468.93 19.8501 469.34 20.6601 469.62 21.6901C469.9 22.7201 470.04 24.0101 470.04 25.5901V35.2001C471.05 35.3801 471.89 35.6801 472.55 36.1101V37.0601H472.53Z" fill="white"/>
<path d="M486.97 33.3C486.84 33.86 486.63 34.39 486.32 34.9C486.02 35.41 485.64 35.86 485.2 36.25C484.76 36.64 484.25 36.95 483.68 37.18C483.11 37.41 482.5 37.52 481.84 37.52C479.33 37.52 477.46 36.72 476.22 35.13C474.98 33.54 474.36 31.05 474.36 27.68C474.36 24.44 475.15 21.97 476.74 20.27C478.33 18.57 480.46 17.72 483.14 17.72C484.08 17.72 484.81 17.76 485.34 17.85C485.87 17.94 486.45 18.1 487.09 18.33V11.15L484.2 10.85V9.85999C484.93 9.55999 485.79 9.28999 486.76 9.05999C487.73 8.82999 488.67 8.63999 489.55 8.48999H490.5V34.9L493.01 35.2V36C492.27 36.35 491.51 36.66 490.73 36.91C489.95 37.16 489.17 37.34 488.41 37.44H487.46L487.12 33.3H486.97ZM482.6 35.16C483.84 35.16 484.83 34.77 485.56 33.98C486.3 33.2 486.8 32.13 487.08 30.79V20.07C486.65 19.82 486.14 19.64 485.56 19.54C484.98 19.44 484.23 19.39 483.32 19.39C481.6 19.39 480.28 20.14 479.37 21.65C478.46 23.16 478 25.17 478 27.67C478 28.71 478.09 29.68 478.27 30.58C478.45 31.48 478.73 32.27 479.11 32.96C479.49 33.64 479.97 34.18 480.54 34.58C481.1 34.96 481.79 35.16 482.6 35.16Z" fill="white"/>
<path d="M156.68 77.06H146.95V75.96C147.94 75.5 148.95 75.2 149.99 75.05V52.51C149.48 52.41 148.98 52.28 148.47 52.11C147.96 51.95 147.46 51.76 146.95 51.56V50.46H156.68V51.56C156.22 51.76 155.73 51.95 155.2 52.11C154.67 52.28 154.15 52.41 153.64 52.51V75.04C154.17 75.14 154.7 75.27 155.24 75.42C155.77 75.57 156.25 75.75 156.68 75.95V77.06Z" fill="white"/>
<path d="M180.05 77.0601H171.88V76.1101C172.56 75.7601 173.31 75.4501 174.12 75.2001V66.1901C174.12 64.2701 173.84 62.7501 173.28 61.6301C172.72 60.5201 171.71 59.9601 170.24 59.9601C169.61 59.9601 169.02 60.0701 168.47 60.3001C167.93 60.5301 167.44 60.8401 167.03 61.2301C166.61 61.6201 166.25 62.0701 165.95 62.5601C165.65 63.0501 165.4 63.5701 165.23 64.1001V75.2001C166.02 75.3501 166.77 75.6601 167.51 76.1101V77.0601H159.3V76.1101C159.93 75.7801 160.77 75.4801 161.81 75.2001V60.2701L159.3 59.9701V58.9801C159.96 58.7001 160.72 58.4501 161.58 58.2201C162.44 57.9901 163.34 57.7901 164.28 57.6101H165.23V61.8701H165.27C165.8 60.7101 166.57 59.7001 167.57 58.8701C168.57 58.0301 169.78 57.6201 171.2 57.6201C172.21 57.6201 173.12 57.7401 173.92 57.9801C174.72 58.2201 175.38 58.6501 175.92 59.2501C176.45 59.8601 176.86 60.6701 177.14 61.7001C177.42 62.7301 177.56 64.0201 177.56 65.6001V75.2101C178.57 75.3901 179.41 75.6901 180.07 76.1201V77.0601H180.05Z" fill="white"/>
<path d="M194.49 73.3C194.36 73.86 194.15 74.39 193.84 74.9C193.54 75.41 193.16 75.86 192.72 76.25C192.28 76.64 191.77 76.95 191.2 77.18C190.63 77.41 190.02 77.52 189.36 77.52C186.85 77.52 184.98 76.72 183.74 75.13C182.5 73.53 181.88 71.05 181.88 67.68C181.88 64.44 182.67 61.97 184.26 60.27C185.84 58.57 187.98 57.72 190.66 57.72C191.6 57.72 192.33 57.76 192.86 57.85C193.39 57.94 193.97 58.1 194.61 58.33V51.15L191.72 50.85V49.86C192.45 49.56 193.31 49.29 194.28 49.06C195.26 48.83 196.19 48.64 197.07 48.49H198.02V74.9L200.53 75.2V76C199.8 76.35 199.03 76.66 198.25 76.91C197.46 77.16 196.69 77.34 195.93 77.44H194.98L194.64 73.3H194.49ZM190.12 75.16C191.36 75.16 192.35 74.77 193.08 73.98C193.81 73.2 194.32 72.13 194.6 70.79V60.07C194.17 59.82 193.66 59.64 193.08 59.54C192.5 59.44 191.75 59.39 190.84 59.39C189.12 59.39 187.8 60.14 186.89 61.65C185.98 63.16 185.52 65.17 185.52 67.67C185.52 68.71 185.61 69.68 185.79 70.58C185.97 71.48 186.25 72.27 186.63 72.96C187.01 73.64 187.48 74.18 188.05 74.58C188.62 74.96 189.31 75.16 190.12 75.16Z" fill="white"/>
<path d="M211.02 77.0601H202.58V76.1101C202.96 75.9101 203.35 75.7401 203.76 75.6001C204.17 75.4601 204.61 75.3301 205.09 75.2001V60.2701L202.58 59.9701V58.9801C203.31 58.6801 204.11 58.4101 204.97 58.1801C205.83 57.9501 206.69 57.7601 207.55 57.6101H208.5V75.2001C209.01 75.3301 209.46 75.4601 209.87 75.6001C210.27 75.7401 210.66 75.9101 211.01 76.1101V77.0601H211.02ZM204.37 51.6001C204.37 50.9201 204.59 50.3701 205.03 49.9701C205.47 49.5701 206.06 49.3601 206.8 49.3601C207.53 49.3601 208.12 49.5601 208.55 49.9701C208.98 50.3801 209.2 50.9201 209.2 51.6001C209.2 52.2801 208.98 52.8201 208.55 53.2101C208.12 53.6001 207.54 53.8001 206.8 53.8001C206.07 53.8001 205.48 53.6001 205.03 53.2101C204.59 52.8201 204.37 52.2801 204.37 51.6001Z" fill="white"/>
<path d="M221.47 57.6C222.84 57.6 223.99 57.73 224.93 58C225.87 58.27 226.65 58.68 227.29 59.24C228.78 58.23 230.34 57.49 231.96 57.04C232.16 57.32 232.31 57.66 232.4 58.07C232.49 58.48 232.53 58.86 232.53 59.21L232.04 60.12H228.05C228.68 61.03 229 62.24 229 63.73C229 65.55 228.36 67.04 227.08 68.18C225.8 69.32 223.93 69.89 221.48 69.89C221 69.89 220.61 69.88 220.3 69.85C219.99 69.82 219.65 69.79 219.27 69.74C219.14 69.97 219 70.22 218.83 70.5C218.66 70.78 218.58 71.07 218.58 71.37C218.58 71.88 218.87 72.28 219.45 72.57C220.03 72.86 220.76 73.12 221.64 73.35C222.51 73.58 223.46 73.81 224.49 74.05C225.52 74.29 226.47 74.62 227.36 75.04C228.25 75.46 228.99 76 229.58 76.67C230.17 77.34 230.49 78.21 230.51 79.27C230.53 80.18 230.33 81.01 229.88 81.74C229.44 82.48 228.82 83.09 228.04 83.58C227.25 84.07 226.31 84.45 225.21 84.72C224.11 84.99 222.9 85.12 221.58 85.12C218.82 85.12 216.73 84.65 215.33 83.71C213.92 82.77 213.22 81.59 213.22 80.18C213.22 79.5 213.33 78.9 213.54 78.39C213.75 77.88 214.07 77.44 214.47 77.06C214.87 76.68 215.38 76.35 215.99 76.05C216.6 75.76 217.29 75.49 218.08 75.23C217.52 74.98 217.06 74.63 216.69 74.19C216.32 73.75 216.14 73.21 216.14 72.58C216.14 72 216.39 71.42 216.88 70.85C217.37 70.28 217.87 69.83 218.38 69.5C216.94 69.12 215.83 68.4 215.05 67.33C214.28 66.27 213.89 65.06 213.89 63.72C213.89 62.86 214.05 62.05 214.38 61.31C214.71 60.56 215.19 59.91 215.82 59.35C216.45 58.79 217.24 58.36 218.18 58.06C219.14 57.76 220.23 57.6 221.47 57.6ZM227.09 80.14C227.09 79.33 226.82 78.68 226.27 78.2C225.73 77.72 225.05 77.33 224.24 77.02C223.43 76.72 222.55 76.46 221.62 76.26C220.68 76.06 219.81 75.83 219 75.58C218.04 76.16 217.4 76.78 217.1 77.42C216.8 78.07 216.64 78.73 216.64 79.42C216.64 80.76 217.12 81.77 218.08 82.44C219.04 83.11 220.44 83.45 222.26 83.45C223.2 83.45 223.98 83.36 224.6 83.18C225.22 83 225.71 82.77 226.08 82.48C226.45 82.19 226.71 81.84 226.86 81.44C227.02 81.02 227.09 80.59 227.09 80.14ZM217.33 63.72C217.33 64.33 217.4 64.9 217.54 65.45C217.68 65.99 217.91 66.47 218.22 66.87C218.54 67.28 218.96 67.6 219.49 67.84C220.02 68.08 220.68 68.2 221.47 68.2C222.94 68.2 223.99 67.77 224.62 66.91C225.25 66.05 225.57 64.99 225.57 63.72C225.57 62.35 225.26 61.27 224.64 60.47C224.02 59.67 222.96 59.27 221.47 59.27C219.92 59.27 218.85 59.66 218.24 60.43C217.63 61.21 217.33 62.3 217.33 63.72Z" fill="white"/>
<path d="M248.64 74.3999C248.44 74.8299 248.12 75.2399 247.69 75.6199C247.26 75.9999 246.76 76.3299 246.21 76.6099C245.65 76.8899 245.04 77.1099 244.39 77.2799C243.73 77.4499 243.06 77.5299 242.38 77.5299C240.88 77.5299 239.57 77.2999 238.43 76.8299C237.29 76.3599 236.34 75.6899 235.58 74.8199C234.82 73.9499 234.24 72.8999 233.85 71.6899C233.46 70.4699 233.26 69.1099 233.26 67.5899C233.26 64.3499 234.01 61.8799 235.5 60.1799C236.99 58.4799 239.11 57.6299 241.85 57.6299C242.74 57.6299 243.61 57.7499 244.47 57.9899C245.33 58.2299 246.1 58.6299 246.77 59.1899C247.44 59.7499 247.99 60.4899 248.4 61.4099C248.81 62.3299 249.03 63.4799 249.03 64.8499C249.03 65.2799 249.01 65.7199 248.97 66.1599C248.93 66.5999 248.86 67.0799 248.76 67.5799H236.9C236.9 68.6399 237.03 69.6399 237.3 70.5599C237.57 71.4799 237.97 72.2899 238.5 72.9699C239.03 73.6499 239.7 74.1899 240.51 74.5899C241.32 74.9799 242.27 75.1799 243.36 75.1799C244.25 75.1799 245.15 75.0499 246.06 74.7999C246.97 74.5499 247.66 74.2199 248.11 73.8099L248.64 74.3999ZM241.69 59.2799C240.25 59.2799 239.14 59.7699 238.38 60.7399C237.62 61.7199 237.16 63.4299 237.01 65.8899H245.37C245.39 65.6599 245.41 65.4399 245.43 65.2199C245.44 65.0099 245.45 64.7999 245.45 64.5899C245.45 62.9699 245.15 61.6799 244.54 60.7099C243.93 59.7599 242.98 59.2799 241.69 59.2799Z" fill="white"/>
<path d="M272.35 77.0601H264.18V76.1101C264.86 75.7601 265.61 75.4501 266.42 75.2001V66.1901C266.42 64.2701 266.14 62.7501 265.58 61.6301C265.02 60.5201 264.01 59.9601 262.54 59.9601C261.91 59.9601 261.32 60.0701 260.77 60.3001C260.23 60.5301 259.74 60.8401 259.33 61.2301C258.91 61.6201 258.55 62.0701 258.25 62.5601C257.95 63.0501 257.7 63.5701 257.53 64.1001V75.2001C258.32 75.3501 259.07 75.6601 259.81 76.1101V77.0601H251.6V76.1101C252.23 75.7801 253.07 75.4801 254.11 75.2001V60.2701L251.6 59.9701V58.9801C252.26 58.7001 253.02 58.4501 253.88 58.2201C254.74 57.9901 255.64 57.7901 256.58 57.6101H257.53V61.8701H257.57C258.1 60.7101 258.87 59.7001 259.87 58.8701C260.87 58.0301 262.08 57.6201 263.5 57.6201C264.51 57.6201 265.42 57.7401 266.22 57.9801C267.02 58.2201 267.68 58.6501 268.22 59.2501C268.75 59.8601 269.16 60.6701 269.44 61.7001C269.72 62.7301 269.86 64.0201 269.86 65.6001V75.2101C270.87 75.3901 271.71 75.6901 272.37 76.1201V77.0601H272.35Z" fill="white"/>
<path d="M274.18 67.5601C274.18 65.9601 274.39 64.5501 274.81 63.3201C275.23 62.0901 275.83 61.0501 276.62 60.2001C277.4 59.3501 278.35 58.7101 279.45 58.2601C280.55 57.8201 281.77 57.5901 283.12 57.5901C284.69 57.5901 286.05 57.8301 287.19 58.3101C288.33 58.7901 289.26 59.4701 289.98 60.3401C290.7 61.2101 291.23 62.2601 291.58 63.4801C291.92 64.7001 292.09 66.0501 292.09 67.5501C292.09 70.7401 291.28 73.2001 289.66 74.9201C288.04 76.6401 285.86 77.5001 283.12 77.5001C281.6 77.5001 280.28 77.2701 279.17 76.8001C278.05 76.3301 277.13 75.6601 276.4 74.7901C275.66 73.9201 275.11 72.8701 274.75 71.6401C274.36 70.4201 274.18 69.0601 274.18 67.5601ZM277.82 67.5601C277.82 68.7001 277.93 69.7801 278.14 70.7901C278.36 71.8001 278.7 72.6801 279.17 73.4301C279.64 74.1801 280.25 74.7701 281.01 75.2001C281.77 75.6301 282.68 75.8501 283.75 75.8501C285.12 75.8501 286.24 75.1801 287.11 73.8401C287.98 72.5001 288.42 70.4101 288.42 67.5701C288.42 66.4001 288.31 65.3201 288.1 64.3201C287.89 63.3201 287.55 62.4501 287.09 61.7001C286.63 60.9501 286.05 60.3601 285.34 59.9301C284.63 59.5001 283.78 59.2801 282.79 59.2801C281.29 59.2801 280.09 59.9501 279.18 61.2901C278.28 62.6301 277.82 64.7201 277.82 67.5601Z" fill="white"/>
<path d="M296.18 69.5401C296.18 67.9401 296.22 66.3801 296.29 64.8501C296.36 63.3201 296.4 61.7901 296.4 60.2701L293.89 59.9701V58.9801C294.7 58.6801 295.53 58.4101 296.38 58.1801C297.23 57.9501 298.06 57.7601 298.87 57.6101H299.82C299.82 59.5101 299.78 61.4001 299.71 63.2701C299.63 65.1501 299.6 67.0101 299.6 68.8601C299.6 69.8501 299.66 70.7401 299.77 71.5201C299.88 72.3001 300.09 72.9601 300.38 73.5001C300.67 74.0301 301.07 74.4401 301.58 74.7301C302.09 75.0201 302.73 75.1701 303.52 75.1701C304.66 75.1701 305.62 74.7601 306.39 73.9301C307.16 73.1101 307.76 72.0401 308.19 70.7201V60.2701L305.72 59.9701V58.9801C306.51 58.6801 307.32 58.4101 308.17 58.1801C309.02 57.9501 309.85 57.7601 310.66 57.6101H311.61V74.9001L314.12 75.2001V76.0001C313.39 76.3301 312.64 76.6201 311.9 76.8701C311.16 77.1201 310.37 77.3101 309.56 77.4401H308.61L308.34 72.9201H308.19C308.06 73.4501 307.84 73.9901 307.52 74.5401C307.2 75.0901 306.79 75.5801 306.29 76.0201C305.78 76.4601 305.21 76.8201 304.56 77.1001C303.91 77.3801 303.21 77.5201 302.45 77.5201C301.44 77.5201 300.54 77.4001 299.77 77.1601C299 76.9201 298.35 76.4901 297.81 75.8901C297.27 75.2901 296.87 74.4701 296.59 73.4401C296.32 72.4101 296.18 71.1101 296.18 69.5401Z" fill="white"/>
<path d="M325.89 72.7301C325.89 72.0201 325.67 71.4201 325.22 70.9301C324.78 70.4401 324.21 69.9701 323.53 69.5401C322.85 69.1101 322.12 68.6901 321.35 68.2901C320.58 67.8801 319.85 67.4101 319.16 66.8601C318.48 66.3201 317.91 65.6901 317.47 64.9801C317.03 64.2701 316.8 63.4001 316.8 62.3601C316.8 61.6801 316.96 61.0401 317.27 60.4601C317.59 59.8801 318.01 59.3801 318.54 58.9601C319.07 58.5401 319.69 58.2101 320.4 57.9701C321.11 57.7301 321.87 57.6101 322.68 57.6101C324.05 57.6101 325.17 57.6901 326.04 57.8401C326.91 57.9901 327.76 58.2101 328.57 58.4901C328.47 59.3001 328.35 60.1201 328.21 60.9401C328.07 61.7601 327.87 62.6101 327.62 63.4701H326.67L325.23 59.5901C324.93 59.4601 324.58 59.3801 324.2 59.3401C323.82 59.3001 323.43 59.2801 323.02 59.2801C322.56 59.2801 322.17 59.3601 321.82 59.5301C321.48 59.7001 321.19 59.9001 320.95 60.1601C320.71 60.4101 320.53 60.7101 320.4 61.0301C320.27 61.3601 320.21 61.6901 320.21 62.0201C320.21 62.7001 320.43 63.2901 320.88 63.7901C321.32 64.2801 321.89 64.7401 322.57 65.1601C323.25 65.5801 323.98 65.9901 324.76 66.3901C325.53 66.8001 326.26 67.2501 326.94 67.7601C327.62 68.2701 328.19 68.8601 328.63 69.5301C329.07 70.2001 329.3 71.0101 329.3 71.9401C329.3 72.8001 329.12 73.5701 328.75 74.2601C328.38 74.9401 327.88 75.5301 327.23 76.0101C326.58 76.4901 325.84 76.8601 324.99 77.1301C324.14 77.4001 323.24 77.5301 322.27 77.5301C321.18 77.5301 320.18 77.4401 319.27 77.2401C318.36 77.0501 317.41 76.7801 316.42 76.4201C316.47 75.5101 316.58 74.6301 316.76 73.7801C316.94 72.9301 317.17 72.1101 317.44 71.3301H318.39L320.06 75.4701C320.34 75.6701 320.67 75.7901 321.07 75.8101C321.46 75.8401 321.82 75.8501 322.15 75.8501C323.27 75.8501 324.16 75.5501 324.85 74.9401C325.55 74.3201 325.89 73.5901 325.89 72.7301Z" fill="white"/>
<path d="M345.31 74.44C345.61 74.74 346.01 75 346.49 75.22C346.97 75.44 347.69 75.54 348.66 75.54C349.47 75.54 350.23 75.43 350.94 75.22C351.65 75.01 352.26 74.69 352.78 74.27C353.3 73.85 353.71 73.35 354.02 72.75C354.32 72.16 354.48 71.48 354.48 70.72C354.48 69.71 354.17 68.86 353.55 68.17C352.93 67.49 352.16 66.88 351.23 66.35C350.31 65.82 349.3 65.3 348.21 64.79C347.12 64.28 346.11 63.68 345.19 62.98C344.27 62.28 343.49 61.45 342.87 60.47C342.25 59.49 341.94 58.27 341.94 56.8C341.94 55.74 342.13 54.79 342.51 53.95C342.89 53.11 343.43 52.41 344.13 51.82C344.83 51.24 345.66 50.79 346.62 50.47C347.58 50.15 348.66 49.99 349.85 49.99C351.39 49.99 352.81 50.11 354.09 50.35C355.37 50.59 356.38 50.89 357.11 51.24C357.11 51.67 357.08 52.17 357.01 52.74C356.95 53.31 356.87 53.9 356.78 54.51C356.69 55.12 356.6 55.71 356.49 56.28C356.39 56.85 356.29 57.35 356.19 57.78H355.2L353.68 52.57C353.22 52.37 352.64 52.22 351.94 52.11C351.24 52.01 350.49 51.96 349.7 51.96C348.4 51.96 347.35 52.32 346.56 53.04C345.77 53.76 345.37 54.77 345.37 56.06C345.37 57.1 345.68 57.97 346.31 58.68C346.93 59.39 347.72 60.02 348.66 60.58C349.6 61.14 350.62 61.68 351.7 62.2C352.78 62.72 353.8 63.32 354.74 64C355.68 64.68 356.47 65.5 357.09 66.43C357.71 67.37 358.03 68.53 358.03 69.93C358.03 71.07 357.82 72.11 357.4 73.05C356.98 73.99 356.38 74.79 355.6 75.44C354.81 76.1 353.85 76.61 352.71 76.96C351.57 77.31 350.28 77.49 348.83 77.49C347.23 77.49 345.8 77.3 344.54 76.92C343.27 76.54 342.37 76.13 341.84 75.7C341.86 75.27 341.91 74.75 341.97 74.14C342.03 73.53 342.11 72.9 342.2 72.26C342.29 71.61 342.38 70.99 342.49 70.38C342.59 69.77 342.69 69.25 342.79 68.82H343.78L345.31 74.44Z" fill="white"/>
<path d="M360.17 59.0201C361.13 58.3901 362.15 57.9501 363.21 57.6801V54.4501C363.54 54.2001 363.92 53.9501 364.37 53.7101C364.81 53.4701 365.25 53.2601 365.68 53.0801H366.63V58.0601H372.33V60.0401H366.63V71.0001C366.63 72.5101 366.87 73.5801 367.35 74.2101C367.83 74.8401 368.55 75.1601 369.52 75.1601C369.98 75.1601 370.55 75.1301 371.23 75.0601C371.91 75.0001 372.5 74.8801 372.98 74.7001L373.25 75.2701C373.05 75.5001 372.76 75.7401 372.4 75.9901C372.04 76.2401 371.61 76.4801 371.15 76.7101C370.68 76.9401 370.17 77.1301 369.61 77.2801C369.05 77.4301 368.48 77.5101 367.9 77.5101C366.38 77.5101 365.22 77.0801 364.42 76.2201C363.62 75.3601 363.22 73.9701 363.22 72.0601V60.0301H360.18V59.0201H360.17Z" fill="white"/>
<path d="M376.24 69.5401C376.24 67.9401 376.28 66.3801 376.35 64.8501C376.42 63.3201 376.46 61.7901 376.46 60.2701L373.95 59.9701V58.9801C374.76 58.6801 375.59 58.4101 376.44 58.1801C377.29 57.9501 378.12 57.7601 378.93 57.6101H379.88C379.88 59.5101 379.84 61.4001 379.77 63.2701C379.69 65.1501 379.66 67.0101 379.66 68.8601C379.66 69.8501 379.72 70.7401 379.83 71.5201C379.94 72.3101 380.15 72.9601 380.44 73.5001C380.73 74.0301 381.13 74.4401 381.64 74.7301C382.15 75.0201 382.79 75.1701 383.58 75.1701C384.72 75.1701 385.68 74.7601 386.45 73.9301C387.22 73.1101 387.82 72.0401 388.25 70.7201V60.2701L385.78 59.9701V58.9801C386.57 58.6801 387.38 58.4101 388.23 58.1801C389.08 57.9501 389.91 57.7601 390.72 57.6101H391.67V74.9001L394.18 75.2001V76.0001C393.44 76.3301 392.7 76.6201 391.96 76.8701C391.22 77.1201 390.43 77.3101 389.62 77.4401H388.67L388.4 72.9201H388.25C388.12 73.4501 387.9 73.9901 387.58 74.5401C387.26 75.0801 386.85 75.5801 386.35 76.0201C385.84 76.4601 385.27 76.8201 384.62 77.1001C383.97 77.3801 383.27 77.5201 382.51 77.5201C381.5 77.5201 380.6 77.4001 379.83 77.1601C379.06 76.9201 378.41 76.4901 377.87 75.8901C377.34 75.2801 376.93 74.4701 376.65 73.4401C376.38 72.4101 376.24 71.1101 376.24 69.5401Z" fill="white"/>
<path d="M408.92 73.3C408.79 73.86 408.58 74.39 408.27 74.9C407.97 75.41 407.59 75.86 407.15 76.25C406.71 76.64 406.2 76.95 405.63 77.18C405.06 77.41 404.45 77.52 403.79 77.52C401.28 77.52 399.41 76.72 398.17 75.13C396.93 73.53 396.31 71.05 396.31 67.68C396.31 64.44 397.1 61.97 398.69 60.27C400.28 58.57 402.41 57.72 405.09 57.72C406.03 57.72 406.76 57.76 407.29 57.85C407.82 57.94 408.4 58.1 409.04 58.33V51.15L406.15 50.85V49.86C406.88 49.56 407.74 49.29 408.71 49.06C409.68 48.83 410.62 48.64 411.5 48.49H412.45V74.9L414.96 75.2V76C414.22 76.35 413.46 76.66 412.68 76.91C411.9 77.16 411.12 77.34 410.36 77.44H409.41L409.07 73.3H408.92ZM404.55 75.16C405.79 75.16 406.78 74.77 407.51 73.98C408.25 73.2 408.75 72.13 409.03 70.79V60.07C408.6 59.82 408.09 59.64 407.51 59.54C406.93 59.44 406.18 59.39 405.27 59.39C403.55 59.39 402.23 60.14 401.32 61.65C400.41 63.16 399.95 65.17 399.95 67.67C399.95 68.71 400.04 69.68 400.22 70.58C400.4 71.48 400.68 72.27 401.06 72.96C401.44 73.64 401.92 74.18 402.49 74.58C403.05 74.96 403.74 75.16 404.55 75.16Z" fill="white"/>
<path d="M425.45 77.0601H417.01V76.1101C417.39 75.9101 417.78 75.7401 418.19 75.6001C418.59 75.4601 419.04 75.3301 419.52 75.2001V60.2701L417.01 59.9701V58.9801C417.74 58.6801 418.54 58.4101 419.4 58.1801C420.26 57.9501 421.12 57.7601 421.98 57.6101H422.93V75.2001C423.44 75.3301 423.89 75.4601 424.3 75.6001C424.71 75.7401 425.09 75.9101 425.44 76.1101V77.0601H425.45ZM418.8 51.6001C418.8 50.9201 419.02 50.3701 419.47 49.9701C419.91 49.5701 420.5 49.3601 421.24 49.3601C421.97 49.3601 422.56 49.5601 422.99 49.9701C423.42 50.3801 423.64 50.9201 423.64 51.6001C423.64 52.2801 423.42 52.8201 422.99 53.2101C422.56 53.6001 421.98 53.8001 421.24 53.8001C420.5 53.8001 419.92 53.6001 419.47 53.2101C419.02 52.8201 418.8 52.2801 418.8 51.6001Z" fill="white"/>
<path d="M443.46 74.3999C443.26 74.8299 442.94 75.2399 442.51 75.6199C442.08 75.9999 441.59 76.3299 441.03 76.6099C440.47 76.8899 439.86 77.1099 439.21 77.2799C438.55 77.4499 437.88 77.5299 437.2 77.5299C435.7 77.5299 434.39 77.2999 433.25 76.8299C432.11 76.3599 431.16 75.6899 430.4 74.8199C429.64 73.9499 429.06 72.8999 428.67 71.6899C428.28 70.4699 428.08 69.1099 428.08 67.5899C428.08 64.3499 428.83 61.8799 430.32 60.1799C431.82 58.4799 433.93 57.6299 436.67 57.6299C437.56 57.6299 438.43 57.7499 439.29 57.9899C440.15 58.2299 440.92 58.6299 441.59 59.1899C442.26 59.7499 442.81 60.4899 443.22 61.4099C443.63 62.3299 443.85 63.4799 443.85 64.8499C443.85 65.2799 443.83 65.7199 443.79 66.1599C443.75 66.5999 443.68 67.0799 443.58 67.5799H431.72C431.72 68.6399 431.85 69.6399 432.12 70.5599C432.39 71.4799 432.78 72.2899 433.32 72.9699C433.85 73.6499 434.52 74.1899 435.33 74.5899C436.14 74.9799 437.09 75.1799 438.18 75.1799C439.07 75.1799 439.97 75.0499 440.88 74.7999C441.79 74.5499 442.48 74.2199 442.93 73.8099L443.46 74.3999ZM436.51 59.2799C435.07 59.2799 433.96 59.7699 433.2 60.7399C432.44 61.7199 431.98 63.4299 431.83 65.8899H440.19C440.22 65.6599 440.23 65.4399 440.25 65.2199C440.26 65.0099 440.27 64.7999 440.27 64.5899C440.27 62.9699 439.97 61.6799 439.36 60.7099C438.75 59.7599 437.8 59.2799 436.51 59.2799Z" fill="white"/>
<path d="M456.46 72.7301C456.46 72.0201 456.24 71.4201 455.79 70.9301C455.34 70.4401 454.78 69.9701 454.1 69.5401C453.42 69.1101 452.69 68.6901 451.92 68.2901C451.15 67.8801 450.42 67.4101 449.74 66.8601C449.06 66.3201 448.49 65.6901 448.05 64.9801C447.61 64.2701 447.38 63.4001 447.38 62.3601C447.38 61.6801 447.54 61.0401 447.85 60.4601C448.17 59.8801 448.59 59.3801 449.12 58.9601C449.65 58.5401 450.27 58.2101 450.98 57.9701C451.69 57.7301 452.45 57.6101 453.26 57.6101C454.63 57.6101 455.75 57.6901 456.62 57.8401C457.49 57.9901 458.34 58.2101 459.15 58.4901C459.05 59.3001 458.93 60.1201 458.79 60.9401C458.65 61.7601 458.45 62.6101 458.2 63.4701H457.25L455.81 59.5901C455.51 59.4601 455.16 59.3801 454.78 59.3401C454.4 59.3001 454.01 59.2801 453.6 59.2801C453.14 59.2801 452.74 59.3601 452.4 59.5301C452.06 59.7001 451.77 59.9001 451.53 60.1601C451.29 60.4101 451.11 60.7101 450.98 61.0301C450.85 61.3601 450.79 61.6901 450.79 62.0201C450.79 62.7001 451.01 63.2901 451.46 63.7901C451.9 64.2801 452.47 64.7401 453.15 65.1601C453.83 65.5801 454.56 65.9901 455.33 66.3901C456.1 66.8001 456.83 67.2501 457.52 67.7601C458.2 68.2701 458.77 68.8601 459.21 69.5301C459.65 70.2001 459.88 71.0101 459.88 71.9401C459.88 72.8001 459.7 73.5701 459.33 74.2601C458.96 74.9401 458.46 75.5301 457.81 76.0101C457.16 76.4901 456.42 76.8601 455.57 77.1301C454.72 77.4001 453.82 77.5301 452.85 77.5301C451.76 77.5301 450.76 77.4401 449.85 77.2401C448.94 77.0501 447.99 76.7801 447 76.4201C447.05 75.5101 447.16 74.6301 447.34 73.7801C447.52 72.9301 447.75 72.1101 448.02 71.3301H448.97L450.64 75.4701C450.92 75.6701 451.25 75.7901 451.65 75.8101C452.04 75.8401 452.4 75.8501 452.73 75.8501C453.84 75.8501 454.74 75.5501 455.43 74.9401C456.12 74.3201 456.46 73.5901 456.46 72.7301Z" fill="white"/>
<path d="M156.68 117.06H146.95V115.96C147.94 115.5 148.95 115.2 149.99 115.05V92.52C149.48 92.42 148.98 92.29 148.47 92.12C147.96 91.95 147.46 91.77 146.95 91.57V90.47H156.68V91.57C156.22 91.77 155.73 91.96 155.2 92.12C154.67 92.29 154.15 92.42 153.64 92.52V115.05C154.17 115.15 154.7 115.28 155.24 115.43C155.77 115.58 156.25 115.76 156.68 115.96V117.06Z" fill="white"/>
<path d="M180.05 117.06H171.88V116.11C172.56 115.76 173.31 115.45 174.12 115.2V106.19C174.12 104.27 173.84 102.75 173.28 101.63C172.72 100.52 171.71 99.9599 170.24 99.9599C169.61 99.9599 169.02 100.07 168.47 100.3C167.93 100.53 167.44 100.84 167.03 101.23C166.61 101.62 166.25 102.07 165.95 102.56C165.65 103.05 165.4 103.57 165.23 104.1V115.2C166.02 115.35 166.77 115.66 167.51 116.11V117.06H159.3V116.11C159.93 115.78 160.77 115.48 161.81 115.2V100.27L159.3 99.9699V98.9799C159.96 98.6999 160.72 98.4499 161.58 98.2199C162.44 97.9899 163.34 97.7899 164.28 97.6099H165.23V101.87H165.27C165.8 100.71 166.57 99.6999 167.57 98.8699C168.57 98.0299 169.78 97.6199 171.2 97.6199C172.21 97.6199 173.12 97.7399 173.92 97.9799C174.72 98.2199 175.38 98.6499 175.92 99.2499C176.45 99.8599 176.86 100.67 177.14 101.7C177.42 102.73 177.56 104.03 177.56 105.6V115.21C178.57 115.39 179.41 115.69 180.07 116.12V117.06H180.05Z" fill="white"/>
<path d="M190.31 117.06H181.87V116.11C182.25 115.91 182.64 115.74 183.05 115.6C183.46 115.46 183.9 115.33 184.38 115.2V100.27L181.87 99.9699V98.9799C182.6 98.6799 183.4 98.4099 184.26 98.1799C185.12 97.9499 185.98 97.7599 186.84 97.6099H187.79V115.2C188.3 115.33 188.75 115.46 189.16 115.6C189.56 115.74 189.95 115.91 190.3 116.11V117.06H190.31ZM183.66 91.5999C183.66 90.9199 183.88 90.3699 184.32 89.9699C184.76 89.5699 185.35 89.3599 186.09 89.3599C186.82 89.3599 187.41 89.5599 187.84 89.9699C188.27 90.3799 188.49 90.9199 188.49 91.5999C188.49 92.2799 188.27 92.8199 187.84 93.2199C187.41 93.6099 186.83 93.8099 186.09 93.8099C185.36 93.8099 184.77 93.6099 184.32 93.2199C183.87 92.8299 183.66 92.2799 183.66 91.5999Z" fill="white"/>
<path d="M191.94 99.0201C192.9 98.3901 193.92 97.9501 194.98 97.6801V94.4501C195.31 94.2001 195.7 93.9501 196.14 93.7101C196.58 93.4701 197.02 93.2601 197.45 93.0801H198.4V98.0601H204.1V100.04H198.4V111C198.4 112.51 198.64 113.58 199.12 114.21C199.6 114.84 200.32 115.16 201.29 115.16C201.75 115.16 202.32 115.13 203 115.06C203.68 115 204.27 114.88 204.75 114.7L205.02 115.27C204.82 115.5 204.53 115.74 204.17 115.99C203.8 116.24 203.38 116.48 202.92 116.71C202.45 116.94 201.94 117.13 201.38 117.28C200.82 117.43 200.25 117.51 199.67 117.51C198.15 117.51 196.99 117.08 196.19 116.22C195.39 115.36 194.99 113.97 194.99 112.06V100.03H191.95V99.0201H191.94Z" fill="white"/>
<path d="M215.09 117.06H206.65V116.11C207.03 115.91 207.42 115.74 207.83 115.6C208.24 115.46 208.68 115.33 209.16 115.2V100.27L206.65 99.9699V98.9799C207.38 98.6799 208.18 98.4099 209.04 98.1799C209.9 97.9499 210.76 97.7599 211.62 97.6099H212.57V115.2C213.08 115.33 213.53 115.46 213.94 115.6C214.34 115.74 214.73 115.91 215.08 116.11V117.06H215.09ZM208.44 91.5999C208.44 90.9199 208.66 90.3699 209.1 89.9699C209.54 89.5699 210.13 89.3599 210.87 89.3599C211.6 89.3599 212.19 89.5599 212.62 89.9699C213.05 90.3799 213.27 90.9199 213.27 91.5999C213.27 92.2799 213.05 92.8199 212.62 93.2199C212.19 93.6099 211.61 93.8099 210.87 93.8099C210.14 93.8099 209.55 93.6099 209.1 93.2199C208.65 92.8299 208.44 92.2799 208.44 91.5999Z" fill="white"/>
<path d="M231.73 112.08C231.73 112.64 231.74 113.12 231.77 113.52C231.79 113.93 231.82 114.36 231.85 114.81L234.47 115.19V115.99C233.84 116.32 233.13 116.61 232.36 116.86C231.59 117.11 230.85 117.3 230.14 117.43H229.19C228.94 116.85 228.78 116.21 228.73 115.51C228.68 114.81 228.64 114.05 228.62 113.21H228.43C228.33 113.72 228.13 114.23 227.84 114.75C227.55 115.27 227.17 115.73 226.7 116.14C226.23 116.55 225.68 116.88 225.05 117.13C224.42 117.38 223.69 117.51 222.88 117.51C221.33 117.51 220.07 117.04 219.1 116.1C218.12 115.16 217.64 113.93 217.64 112.41C217.64 111.24 217.87 110.29 218.34 109.54C218.81 108.79 219.5 108.2 220.41 107.77C221.32 107.34 222.45 107.03 223.79 106.84C225.13 106.65 226.69 106.51 228.46 106.4C228.56 105.31 228.59 104.33 228.56 103.45C228.52 102.58 228.38 101.83 228.14 101.21C227.9 100.59 227.54 100.11 227.08 99.7701C226.62 99.4301 226 99.2601 225.24 99.2601C224.89 99.2601 224.49 99.2801 224.04 99.3201C223.59 99.3601 223.16 99.4701 222.73 99.6401L220.94 104.2H219.95C219.7 103.44 219.48 102.66 219.28 101.84C219.09 101.03 218.97 100.23 218.92 99.4501C219.88 98.8701 220.95 98.4101 222.13 98.0801C223.31 97.7501 224.62 97.5901 226.06 97.5901C227.35 97.5901 228.38 97.7701 229.16 98.1401C229.93 98.5101 230.52 98.9801 230.93 99.5601C231.33 100.14 231.6 100.79 231.73 101.5C231.86 102.21 231.92 102.92 231.92 103.63C231.92 105.15 231.89 106.61 231.82 108.02C231.76 109.44 231.73 110.79 231.73 112.08ZM224.4 115.16C225.03 115.16 225.59 115.03 226.07 114.78C226.55 114.53 226.96 114.22 227.29 113.87C227.62 113.52 227.89 113.15 228.09 112.79C228.29 112.42 228.43 112.11 228.51 111.86V107.87C227.04 107.87 225.84 107.95 224.9 108.1C223.96 108.25 223.23 108.49 222.7 108.82C222.17 109.15 221.8 109.56 221.6 110.06C221.4 110.55 221.3 111.12 221.3 111.75C221.3 112.84 221.58 113.68 222.14 114.28C222.67 114.86 223.43 115.16 224.4 115.16Z" fill="white"/>
<path d="M235.53 99.0201C236.49 98.3901 237.51 97.9501 238.57 97.6801V94.4501C238.9 94.2001 239.29 93.9501 239.73 93.7101C240.17 93.4701 240.61 93.2601 241.04 93.0801H241.99V98.0601H247.69V100.04H241.99V111C241.99 112.51 242.23 113.58 242.71 114.21C243.19 114.84 243.91 115.16 244.88 115.16C245.34 115.16 245.91 115.13 246.59 115.06C247.27 115 247.86 114.88 248.34 114.7L248.61 115.27C248.41 115.5 248.12 115.74 247.76 115.99C247.39 116.24 246.97 116.48 246.51 116.71C246.04 116.94 245.53 117.13 244.97 117.28C244.41 117.43 243.84 117.51 243.26 117.51C241.74 117.51 240.58 117.08 239.78 116.22C238.98 115.36 238.58 113.97 238.58 112.06V100.03H235.54V99.0201H235.53Z" fill="white"/>
<path d="M258.67 117.06H250.23V116.11C250.61 115.91 251 115.74 251.41 115.6C251.82 115.46 252.26 115.33 252.74 115.2V100.27L250.23 99.9699V98.9799C250.96 98.6799 251.76 98.4099 252.62 98.1799C253.48 97.9499 254.34 97.7599 255.2 97.6099H256.15V115.2C256.66 115.33 257.11 115.46 257.52 115.6C257.92 115.74 258.31 115.91 258.66 116.11V117.06H258.67ZM252.02 91.5999C252.02 90.9199 252.24 90.3699 252.68 89.9699C253.12 89.5699 253.71 89.3599 254.45 89.3599C255.18 89.3599 255.77 89.5599 256.2 89.9699C256.63 90.3799 256.85 90.9199 256.85 91.5999C256.85 92.2799 256.63 92.8199 256.2 93.2199C255.77 93.6099 255.19 93.8099 254.45 93.8099C253.72 93.8099 253.13 93.6099 252.68 93.2199C252.23 92.8299 252.02 92.2799 252.02 91.5999Z" fill="white"/>
<path d="M268.78 117.52L261.37 99.9601C260.64 99.7101 259.96 99.4001 259.36 99.0501V98.0601H267.34V99.0101C267.01 99.1901 266.67 99.3601 266.33 99.5201C265.99 99.6901 265.6 99.8301 265.17 99.9601L269.56 111.4L270.32 113.76H270.4L270.97 111.37L275.02 99.9701C274.61 99.8701 274.24 99.7401 273.9 99.5901C273.56 99.4401 273.23 99.2601 272.93 99.0601V98.0701H279.39V99.0601C279.14 99.2401 278.83 99.4001 278.46 99.5501C278.09 99.7001 277.68 99.8401 277.23 99.9701L270.5 117.07L268.78 117.52Z" fill="white"/>
<path d="M295.57 114.4C295.37 114.83 295.05 115.24 294.62 115.62C294.19 116 293.7 116.33 293.14 116.61C292.58 116.89 291.97 117.11 291.32 117.28C290.66 117.45 289.99 117.53 289.31 117.53C287.81 117.53 286.5 117.3 285.36 116.83C284.22 116.36 283.27 115.69 282.51 114.82C281.75 113.95 281.17 112.9 280.78 111.69C280.39 110.47 280.19 109.11 280.19 107.59C280.19 104.35 280.94 101.88 282.43 100.18C283.93 98.4799 286.04 97.6299 288.78 97.6299C289.67 97.6299 290.54 97.7499 291.4 97.9899C292.26 98.2299 293.03 98.6299 293.7 99.1899C294.37 99.7499 294.92 100.49 295.33 101.41C295.74 102.33 295.96 103.48 295.96 104.85C295.96 105.28 295.94 105.72 295.9 106.16C295.86 106.6 295.79 107.08 295.69 107.58H283.83C283.83 108.64 283.96 109.64 284.23 110.56C284.5 111.48 284.9 112.29 285.43 112.97C285.96 113.65 286.63 114.19 287.44 114.59C288.25 114.98 289.2 115.18 290.29 115.18C291.18 115.18 292.08 115.05 292.99 114.8C293.9 114.55 294.59 114.22 295.04 113.81L295.57 114.4ZM288.61 99.2799C287.17 99.2799 286.06 99.7699 285.3 100.74C284.54 101.71 284.08 103.43 283.93 105.89H292.29C292.31 105.66 292.33 105.44 292.35 105.22C292.36 105.01 292.37 104.8 292.37 104.59C292.37 102.97 292.07 101.68 291.46 100.71C290.86 99.7599 289.91 99.2799 288.61 99.2799Z" fill="white"/>
<path d="M321.79 112.08C321.79 112.64 321.8 113.12 321.83 113.52C321.85 113.93 321.88 114.36 321.91 114.81L324.53 115.19V115.99C323.9 116.32 323.19 116.61 322.42 116.86C321.65 117.11 320.91 117.3 320.2 117.43H319.25C319 116.85 318.84 116.21 318.79 115.51C318.74 114.81 318.7 114.05 318.68 113.21H318.49C318.39 113.72 318.19 114.23 317.9 114.75C317.61 115.27 317.23 115.73 316.76 116.14C316.29 116.55 315.74 116.88 315.11 117.13C314.48 117.38 313.75 117.51 312.94 117.51C311.4 117.51 310.13 117.04 309.16 116.1C308.18 115.16 307.7 113.93 307.7 112.41C307.7 111.24 307.93 110.29 308.4 109.54C308.87 108.79 309.56 108.2 310.47 107.77C311.38 107.34 312.51 107.03 313.85 106.84C315.19 106.65 316.75 106.51 318.52 106.4C318.62 105.31 318.65 104.33 318.62 103.45C318.58 102.58 318.44 101.83 318.2 101.21C317.96 100.59 317.61 100.11 317.14 99.7701C316.67 99.4301 316.06 99.2601 315.3 99.2601C314.94 99.2601 314.55 99.2801 314.1 99.3201C313.65 99.3601 313.22 99.4701 312.79 99.6401L311 104.2H310.01C309.76 103.44 309.54 102.66 309.34 101.84C309.15 101.03 309.03 100.23 308.98 99.4501C309.94 98.8701 311.01 98.4101 312.19 98.0801C313.37 97.7501 314.68 97.5901 316.12 97.5901C317.41 97.5901 318.44 97.7701 319.22 98.1401C319.99 98.5101 320.58 98.9801 320.99 99.5601C321.39 100.14 321.66 100.79 321.79 101.5C321.92 102.21 321.98 102.92 321.98 103.63C321.98 105.15 321.95 106.61 321.89 108.02C321.82 109.44 321.79 110.79 321.79 112.08ZM314.45 115.16C315.08 115.16 315.64 115.03 316.12 114.78C316.6 114.53 317.01 114.22 317.34 113.87C317.67 113.52 317.93 113.15 318.14 112.79C318.34 112.42 318.48 112.11 318.56 111.86V107.87C317.09 107.87 315.89 107.95 314.95 108.1C314.01 108.25 313.28 108.49 312.75 108.82C312.22 109.15 311.85 109.56 311.65 110.06C311.45 110.55 311.35 111.12 311.35 111.75C311.35 112.84 311.63 113.68 312.19 114.28C312.73 114.86 313.49 115.16 314.45 115.16Z" fill="white"/>
<path d="M325.59 99.0201C326.55 98.3901 327.57 97.9501 328.63 97.6801V94.4501C328.96 94.2001 329.35 93.9501 329.79 93.7101C330.23 93.4701 330.67 93.2601 331.1 93.0801H332.05V98.0601H337.75V100.04H332.05V111C332.05 112.51 332.29 113.58 332.77 114.21C333.25 114.84 333.97 115.16 334.94 115.16C335.4 115.16 335.97 115.13 336.65 115.06C337.33 115 337.92 114.88 338.4 114.7L338.67 115.27C338.47 115.5 338.18 115.74 337.82 115.99C337.45 116.24 337.03 116.48 336.57 116.71C336.1 116.94 335.59 117.13 335.03 117.28C334.47 117.43 333.9 117.51 333.32 117.51C331.8 117.51 330.64 117.08 329.84 116.22C329.04 115.36 328.64 113.97 328.64 112.06V100.03H325.6V99.0201H325.59Z" fill="white"/>
<path d="M355.45 115.05C356.13 115.13 356.78 115.25 357.39 115.41C358 115.58 358.57 115.76 359.1 115.96V117.06H348.69V115.96C349.2 115.71 349.72 115.52 350.25 115.39C350.78 115.26 351.3 115.15 351.81 115.05V92.5199C351.23 92.4199 350.68 92.2899 350.18 92.1199C349.67 91.9499 349.18 91.7699 348.7 91.5699V90.4699H352.12C353.13 90.4699 354.24 90.4199 355.43 90.3199C356.62 90.2199 357.76 90.1699 358.85 90.1699C360.09 90.1699 361.31 90.2999 362.5 90.5699C363.69 90.8399 364.75 91.2899 365.67 91.9199C366.59 92.5499 367.34 93.3999 367.91 94.4499C368.48 95.4999 368.77 96.8099 368.77 98.3799C368.77 99.8699 368.48 101.15 367.89 102.22C367.31 103.28 366.53 104.16 365.55 104.84C364.57 105.52 363.47 106.02 362.22 106.34C360.98 106.66 359.7 106.81 358.38 106.81C358.25 106.81 358.06 106.81 357.79 106.81C357.52 106.81 357.24 106.8 356.93 106.79C356.62 106.78 356.33 106.76 356.05 106.73C355.77 106.71 355.57 106.68 355.44 106.65V115.05H355.45ZM358.04 92.1299C357.43 92.1299 356.94 92.1399 356.56 92.1699C356.18 92.1999 355.81 92.2499 355.46 92.3199V104.63C355.59 104.68 355.77 104.71 356.01 104.72C356.25 104.73 356.5 104.75 356.77 104.78C357.04 104.81 357.3 104.82 357.55 104.82C357.8 104.82 358.01 104.82 358.16 104.82C359.04 104.82 359.88 104.7 360.67 104.46C361.46 104.22 362.14 103.83 362.74 103.3C363.34 102.77 363.81 102.1 364.17 101.29C364.52 100.48 364.7 99.4999 364.7 98.3599C364.7 96.2799 364.11 94.7199 362.93 93.6899C361.74 92.6499 360.12 92.1299 358.04 92.1299Z" fill="white"/>
<path d="M379.13 100.91C378.85 101.06 378.5 101.37 378.08 101.84C377.66 102.31 377.29 103 376.96 103.91V115.2C377.47 115.25 377.97 115.35 378.48 115.48C378.99 115.62 379.49 115.83 380 116.11V117.06H371.03V116.11C371.49 115.86 371.92 115.67 372.32 115.54C372.72 115.41 373.13 115.3 373.54 115.2V100.27L371.03 99.9701V98.9801C371.84 98.6301 372.68 98.3401 373.54 98.1301C374.4 97.9201 375.22 97.7401 376.01 97.6201H376.96V101.65H377.11C377.34 101.14 377.66 100.64 378.08 100.13C378.5 99.6201 378.98 99.1701 379.52 98.7601C380.06 98.3501 380.66 98.0401 381.31 97.8301C381.96 97.6201 382.62 97.5401 383.31 97.6201C383.49 97.9501 383.64 98.3101 383.78 98.7001C383.92 99.0901 384.05 99.5001 384.18 99.9401V100.93H379.13V100.91Z" fill="white"/>
<path d="M394.06 117.06H385.62V116.11C386 115.91 386.39 115.74 386.8 115.6C387.2 115.46 387.65 115.33 388.13 115.2V100.27L385.62 99.9699V98.9799C386.35 98.6799 387.15 98.4099 388.01 98.1799C388.87 97.9499 389.73 97.7599 390.59 97.6099H391.54V115.2C392.05 115.33 392.5 115.46 392.91 115.6C393.32 115.74 393.7 115.91 394.05 116.11V117.06H394.06ZM387.41 91.5999C387.41 90.9199 387.63 90.3699 388.08 89.9699C388.53 89.5699 389.11 89.3599 389.85 89.3599C390.58 89.3599 391.17 89.5599 391.6 89.9699C392.03 90.3799 392.25 90.9199 392.25 91.5999C392.25 92.2799 392.03 92.8199 391.6 93.2199C391.17 93.6099 390.59 93.8099 389.85 93.8099C389.11 93.8099 388.53 93.6099 388.08 93.2199C387.63 92.8299 387.41 92.2799 387.41 91.5999Z" fill="white"/>
<path d="M417.05 117.06H408.88V116.11C409.56 115.76 410.31 115.45 411.12 115.2V106.19C411.12 104.27 410.84 102.75 410.28 101.63C409.72 100.52 408.71 99.9599 407.24 99.9599C406.61 99.9599 406.02 100.07 405.47 100.3C404.92 100.53 404.44 100.84 404.03 101.23C403.61 101.62 403.25 102.07 402.95 102.56C402.65 103.05 402.41 103.57 402.23 104.1V115.2C403.01 115.35 403.77 115.66 404.51 116.11V117.06H396.3V116.11C396.93 115.78 397.77 115.48 398.81 115.2V100.27L396.3 99.9699V98.9799C396.96 98.6999 397.72 98.4499 398.58 98.2199C399.44 97.9899 400.34 97.7899 401.28 97.6099H402.23V101.87H402.27C402.8 100.71 403.57 99.6999 404.57 98.8699C405.57 98.0299 406.78 97.6199 408.2 97.6199C409.21 97.6199 410.12 97.7399 410.92 97.9799C411.72 98.2199 412.38 98.6499 412.92 99.2499C413.45 99.8599 413.86 100.67 414.14 101.7C414.42 102.73 414.56 104.03 414.56 105.6V115.21C415.57 115.39 416.41 115.69 417.07 116.12V117.06H417.05Z" fill="white"/>
<path d="M433.54 114.4C433.08 115.29 432.34 116.03 431.32 116.62C430.3 117.21 429.1 117.51 427.73 117.51C426.23 117.51 424.94 117.28 423.83 116.81C422.73 116.34 421.81 115.67 421.08 114.8C420.35 113.93 419.79 112.88 419.43 111.65C419.06 110.42 418.88 109.06 418.88 107.57C418.88 104.35 419.67 101.89 421.24 100.18C422.81 98.4699 424.95 97.6099 427.66 97.6099C428.9 97.6099 430.01 97.7199 430.99 97.9299C431.96 98.1499 432.79 98.4299 433.48 98.7899C433.4 99.6299 433.26 100.56 433.06 101.6C432.86 102.64 432.6 103.5 432.3 104.18H431.27L429.67 99.6599C429.49 99.5299 429.29 99.4399 429.06 99.3699C428.83 99.3099 428.45 99.2699 427.92 99.2699C426.2 99.2699 424.87 99.8999 423.93 101.15C422.99 102.4 422.52 104.53 422.52 107.51C422.52 108.47 422.65 109.41 422.92 110.32C423.19 111.23 423.59 112.05 424.14 112.77C424.68 113.49 425.37 114.07 426.19 114.5C427.01 114.93 427.97 115.15 429.06 115.15C429.95 115.15 430.72 115.02 431.38 114.77C432.04 114.52 432.6 114.21 433.05 113.86L433.54 114.4Z" fill="white"/>
<path d="M451.59 114.4C451.39 114.83 451.07 115.24 450.64 115.62C450.21 116 449.72 116.33 449.16 116.61C448.6 116.89 447.99 117.11 447.34 117.28C446.68 117.45 446.01 117.53 445.33 117.53C443.83 117.53 442.52 117.3 441.38 116.83C440.24 116.36 439.29 115.69 438.53 114.82C437.77 113.95 437.19 112.9 436.8 111.69C436.41 110.47 436.21 109.11 436.21 107.59C436.21 104.35 436.96 101.88 438.45 100.18C439.95 98.4799 442.06 97.6299 444.8 97.6299C445.69 97.6299 446.56 97.7499 447.42 97.9899C448.28 98.2299 449.05 98.6299 449.72 99.1899C450.39 99.7499 450.94 100.49 451.35 101.41C451.76 102.33 451.98 103.48 451.98 104.85C451.98 105.28 451.96 105.72 451.92 106.16C451.88 106.6 451.81 107.08 451.71 107.58H439.85C439.85 108.64 439.98 109.64 440.25 110.56C440.52 111.48 440.91 112.29 441.45 112.97C441.98 113.65 442.65 114.19 443.46 114.59C444.27 114.98 445.22 115.18 446.31 115.18C447.2 115.18 448.1 115.05 449.01 114.8C449.92 114.55 450.61 114.22 451.06 113.81L451.59 114.4ZM444.64 99.2799C443.2 99.2799 442.09 99.7699 441.33 100.74C440.57 101.71 440.11 103.43 439.96 105.89H448.32C448.35 105.66 448.36 105.44 448.38 105.22C448.39 105.01 448.4 104.8 448.4 104.59C448.4 102.97 448.1 101.68 447.49 100.71C446.88 99.7599 445.93 99.2799 444.64 99.2799Z" fill="white"/>
<path d="M453.95 99.0201C454.91 98.3901 455.93 97.9501 456.99 97.6801V94.4501C457.32 94.2001 457.7 93.9501 458.15 93.7101C458.59 93.4701 459.03 93.2601 459.46 93.0801H460.41V98.0601H466.11V100.04H460.41V111C460.41 112.51 460.65 113.58 461.13 114.21C461.61 114.84 462.33 115.16 463.3 115.16C463.76 115.16 464.33 115.13 465.01 115.06C465.69 115 466.28 114.88 466.76 114.7L467.03 115.27C466.83 115.5 466.54 115.74 466.18 115.99C465.82 116.24 465.39 116.48 464.93 116.71C464.46 116.94 463.95 117.13 463.39 117.28C462.83 117.43 462.26 117.51 461.68 117.51C460.16 117.51 459 117.08 458.2 116.22C457.4 115.36 457 113.97 457 112.06V100.03H453.96V99.0201H453.95Z" fill="white"/>
<path d="M468.65 107.56C468.65 105.96 468.86 104.55 469.28 103.32C469.7 102.09 470.3 101.05 471.09 100.2C471.88 99.3501 472.82 98.7001 473.92 98.2601C475.02 97.8201 476.24 97.5901 477.59 97.5901C479.16 97.5901 480.52 97.8301 481.66 98.3101C482.8 98.7901 483.73 99.4701 484.45 100.34C485.17 101.21 485.7 102.26 486.05 103.48C486.39 104.7 486.56 106.05 486.56 107.55C486.56 110.74 485.75 113.2 484.13 114.92C482.51 116.64 480.33 117.5 477.59 117.5C476.07 117.5 474.75 117.27 473.64 116.8C472.52 116.33 471.6 115.66 470.87 114.79C470.14 113.92 469.58 112.87 469.22 111.64C468.84 110.42 468.65 109.06 468.65 107.56ZM472.3 107.56C472.3 108.7 472.41 109.78 472.62 110.79C472.83 111.8 473.18 112.68 473.65 113.43C474.12 114.18 474.73 114.77 475.49 115.2C476.25 115.63 477.16 115.85 478.23 115.85C479.6 115.85 480.72 115.18 481.59 113.84C482.46 112.5 482.9 110.41 482.9 107.57C482.9 106.4 482.79 105.32 482.58 104.32C482.36 103.32 482.03 102.45 481.57 101.7C481.11 100.95 480.53 100.36 479.82 99.9301C479.11 99.5001 478.26 99.2801 477.27 99.2801C475.77 99.2801 474.57 99.9501 473.66 101.29C472.75 102.63 472.3 104.72 472.3 107.56Z" fill="white"/>
<path d="M509.66 117.06H501.49V116.11C502.17 115.76 502.92 115.45 503.73 115.2V106.19C503.73 104.27 503.45 102.75 502.89 101.63C502.33 100.52 501.32 99.9599 499.85 99.9599C499.22 99.9599 498.63 100.07 498.08 100.3C497.53 100.53 497.05 100.84 496.64 101.23C496.22 101.62 495.86 102.07 495.56 102.56C495.26 103.05 495.02 103.57 494.84 104.1V115.2C495.62 115.35 496.38 115.66 497.12 116.11V117.06H488.91V116.11C489.54 115.78 490.38 115.48 491.42 115.2V100.27L488.91 99.9699V98.9799C489.57 98.6999 490.33 98.4499 491.19 98.2199C492.05 97.9899 492.95 97.7899 493.89 97.6099H494.84V101.87H494.88C495.41 100.71 496.18 99.6999 497.18 98.8699C498.18 98.0299 499.39 97.6199 500.81 97.6199C501.82 97.6199 502.73 97.7399 503.53 97.9799C504.33 98.2199 504.99 98.6499 505.53 99.2499C506.06 99.8599 506.47 100.67 506.75 101.7C507.03 102.73 507.17 104.03 507.17 105.6V115.21C508.18 115.39 509.02 115.69 509.68 116.12V117.06H509.66Z" fill="white"/>
</svg>
