<?xml version="1.0" standalone="no"?>
<!DOCTYPE svg PUBLIC "-//W3C//DTD SVG 20010904//EN"
 "http://www.w3.org/TR/2001/REC-SVG-20010904/DTD/svg10.dtd">
<svg version="1.0" xmlns="http://www.w3.org/2000/svg"
 width="700.000000pt" height="700.000000pt" viewBox="0 0 700.000000 700.000000"
 preserveAspectRatio="xMidYMid meet">
<metadata>
Created by potrace 1.14, written by Peter Selinger 2001-2017
</metadata>
<g transform="translate(0.000000,700.000000) scale(0.100000,-0.100000)"
fill="#000000" stroke="none">
<path d="M10 3495 l0 -3485 3485 0 3485 0 0 3485 0 3485 -3485 0 -3485 0 0
-3485z m3468 3062 c23 -57 58 -162 77 -233 88 -315 110 -387 157 -514 28 -74
69 -176 93 -226 62 -134 325 -610 420 -759 106 -169 274 -454 312 -530 30 -59
102 -251 170 -450 82 -240 170 -639 204 -920 15 -129 16 -395 1 -511 -27 -209
-64 -307 -292 -774 -174 -357 -228 -494 -255 -646 -18 -103 -20 -409 -4 -567
6 -59 9 -112 7 -117 -6 -17 -142 58 -201 111 -32 28 -151 156 -265 283 -257
286 -303 332 -527 531 -259 230 -369 339 -525 520 -402 469 -527 689 -645
1140 -135 514 -167 812 -130 1230 56 632 135 930 357 1345 143 266 236 381
588 730 158 157 299 301 313 320 14 19 38 66 53 103 34 82 33 82 92 -66z"/>
</g>
</svg>
